  0
SECTION
  2
BLOCKS
  0
ENDSEC
  0
SECTION
  2
ENTITIES
  0
LINE
  8
0
 10
43
 20
-17.5
 11
40
 21
-17.5
  0
LINE
  8
0
 10
40
 20
-17.5
 11
40
 21
-7.5
  0
LINE
  8
0
 10
40
 20
-7.5
 11
43
 21
-7.5
  0
LINE
  8
0
 10
43
 20
-7.5
 11
43
 21
7.49998
  0
LINE
  8
0
 10
43
 20
7.49998
 11
40
 21
7.49998
  0
LINE
  8
0
 10
40
 20
7.49998
 11
40
 21
17.5
  0
LINE
  8
0
 10
40
 20
17.5
 11
43
 21
17.5
  0
LINE
  8
0
 10
43
 20
17.5
 11
43
 21
22.5
  0
LINE
  8
0
 10
43
 20
22.5
 11
-43
 21
22.5
  0
LINE
  8
0
 10
-43
 20
22.5
 11
-43
 21
17.5
  0
LINE
  8
0
 10
-43
 20
17.5
 11
-40
 21
17.5
  0
LINE
  8
0
 10
-40
 20
17.5
 11
-40
 21
7.5
  0
LINE
  8
0
 10
-40
 20
7.5
 11
-43
 21
7.5
  0
LINE
  8
0
 10
-43
 20
7.5
 11
-43
 21
-7.49998
  0
LINE
  8
0
 10
-43
 20
-7.49998
 11
-40
 21
-7.49998
  0
LINE
  8
0
 10
-40
 20
-7.49998
 11
-40
 21
-17.5
  0
LINE
  8
0
 10
-40
 20
-17.5
 11
-43
 21
-17.5
  0
LINE
  8
0
 10
-43
 20
-17.5
 11
-43
 21
-22.5
  0
LINE
  8
0
 10
-43
 20
-22.5
 11
43
 21
-22.5
  0
LINE
  8
0
 10
43
 20
-22.5
 11
43
 21
-17.5
  0
LINE
  8
0
 10
-8.21971
 20
10.5068
 11
-8.43846
 21
10.5273
  0
LINE
  8
0
 10
-8.43846
 20
10.5273
 11
-8.65623
 21
10.5615
  0
LINE
  8
0
 10
-8.65623
 20
10.5615
 11
-8.8701
 21
10.6104
  0
LINE
  8
0
 10
-8.8701
 20
10.6104
 11
-9.08202
 21
10.6709
  0
LINE
  8
0
 10
-9.08202
 20
10.6709
 11
-9.28807
 21
10.7461
  0
LINE
  8
0
 10
-9.28807
 20
10.7461
 11
-9.49022
 21
10.833
  0
LINE
  8
0
 10
-9.49022
 20
10.833
 11
-9.68651
 21
10.9326
  0
LINE
  8
0
 10
-9.68651
 20
10.9326
 11
-9.87498
 21
11.0449
  0
LINE
  8
0
 10
-9.87498
 20
11.0449
 11
-10.0576
 21
11.168
  0
LINE
  8
0
 10
-10.0576
 20
11.168
 11
-10.2314
 21
11.3027
  0
LINE
  8
0
 10
-10.2314
 20
11.3027
 11
-10.3955
 21
11.4482
  0
LINE
  8
0
 10
-10.3955
 20
11.4482
 11
-10.5517
 21
11.6045
  0
LINE
  8
0
 10
-10.5517
 20
11.6045
 11
-10.6973
 21
11.7686
  0
LINE
  8
0
 10
-10.6973
 20
11.7686
 11
-10.832
 21
11.9424
  0
LINE
  8
0
 10
-10.832
 20
11.9424
 11
-10.9551
 21
12.125
  0
LINE
  8
0
 10
-10.9551
 20
12.125
 11
-11.0674
 21
12.3135
  0
LINE
  8
0
 10
-11.0674
 20
12.3135
 11
-11.167
 21
12.5098
  0
LINE
  8
0
 10
-11.167
 20
12.5098
 11
-11.2539
 21
12.7119
  0
LINE
  8
0
 10
-11.2539
 20
12.7119
 11
-11.3291
 21
12.918
  0
LINE
  8
0
 10
-11.3291
 20
12.918
 11
-11.3896
 21
13.1299
  0
LINE
  8
0
 10
-11.3896
 20
13.1299
 11
-11.4385
 21
13.3438
  0
LINE
  8
0
 10
-11.4385
 20
13.3438
 11
-11.4726
 21
13.5615
  0
LINE
  8
0
 10
-11.4726
 20
13.5615
 11
-11.4931
 21
13.7803
  0
LINE
  8
0
 10
-11.4931
 20
13.7803
 11
-11.5
 21
14
  0
LINE
  8
0
 10
-11.5
 20
14
 11
-11.4931
 21
14.2197
  0
LINE
  8
0
 10
-11.4931
 20
14.2197
 11
-11.4726
 21
14.4385
  0
LINE
  8
0
 10
-11.4726
 20
14.4385
 11
-11.4385
 21
14.6562
  0
LINE
  8
0
 10
-11.4385
 20
14.6562
 11
-11.3896
 21
14.8701
  0
LINE
  8
0
 10
-11.3896
 20
14.8701
 11
-11.3291
 21
15.082
  0
LINE
  8
0
 10
-11.3291
 20
15.082
 11
-11.2539
 21
15.2881
  0
LINE
  8
0
 10
-11.2539
 20
15.2881
 11
-11.167
 21
15.4902
  0
LINE
  8
0
 10
-11.167
 20
15.4902
 11
-11.0674
 21
15.6865
  0
LINE
  8
0
 10
-11.0674
 20
15.6865
 11
-10.9551
 21
15.875
  0
LINE
  8
0
 10
-10.9551
 20
15.875
 11
-10.832
 21
16.0576
  0
LINE
  8
0
 10
-10.832
 20
16.0576
 11
-10.6973
 21
16.2314
  0
LINE
  8
0
 10
-10.6973
 20
16.2314
 11
-10.5517
 21
16.3955
  0
LINE
  8
0
 10
-10.5517
 20
16.3955
 11
-10.3955
 21
16.5518
  0
LINE
  8
0
 10
-10.3955
 20
16.5518
 11
-10.2314
 21
16.6973
  0
LINE
  8
0
 10
-10.2314
 20
16.6973
 11
-10.0576
 21
16.832
  0
LINE
  8
0
 10
-10.0576
 20
16.832
 11
-9.87498
 21
16.9551
  0
LINE
  8
0
 10
-9.87498
 20
16.9551
 11
-9.68651
 21
17.0674
  0
LINE
  8
0
 10
-9.68651
 20
17.0674
 11
-9.49022
 21
17.167
  0
LINE
  8
0
 10
-9.49022
 20
17.167
 11
-9.28807
 21
17.2539
  0
LINE
  8
0
 10
-9.28807
 20
17.2539
 11
-9.08202
 21
17.3291
  0
LINE
  8
0
 10
-9.08202
 20
17.3291
 11
-8.8701
 21
17.3896
  0
LINE
  8
0
 10
-8.8701
 20
17.3896
 11
-8.65623
 21
17.4385
  0
LINE
  8
0
 10
-8.65623
 20
17.4385
 11
-8.43846
 21
17.4727
  0
LINE
  8
0
 10
-8.43846
 20
17.4727
 11
-8.21971
 21
17.4932
  0
LINE
  8
0
 10
-8.21971
 20
17.4932
 11
-7.99998
 21
17.5
  0
LINE
  8
0
 10
-7.99998
 20
17.5
 11
-7.78026
 21
17.4932
  0
LINE
  8
0
 10
-7.78026
 20
17.4932
 11
-7.56151
 21
17.4727
  0
LINE
  8
0
 10
-7.56151
 20
17.4727
 11
-7.34373
 21
17.4385
  0
LINE
  8
0
 10
-7.34373
 20
17.4385
 11
-7.12987
 21
17.3896
  0
LINE
  8
0
 10
-7.12987
 20
17.3896
 11
-6.91795
 21
17.3291
  0
LINE
  8
0
 10
-6.91795
 20
17.3291
 11
-6.7119
 21
17.2539
  0
LINE
  8
0
 10
-6.7119
 20
17.2539
 11
-6.50975
 21
17.167
  0
LINE
  8
0
 10
-6.50975
 20
17.167
 11
-6.31346
 21
17.0674
  0
LINE
  8
0
 10
-6.31346
 20
17.0674
 11
-6.12498
 21
16.9551
  0
LINE
  8
0
 10
-6.12498
 20
16.9551
 11
-5.94237
 21
16.832
  0
LINE
  8
0
 10
-5.94237
 20
16.832
 11
-5.76854
 21
16.6973
  0
LINE
  8
0
 10
-5.76854
 20
16.6973
 11
-5.60448
 21
16.5518
  0
LINE
  8
0
 10
-5.60448
 20
16.5518
 11
-5.44823
 21
16.3955
  0
LINE
  8
0
 10
-5.44823
 20
16.3955
 11
-5.30272
 21
16.2314
  0
LINE
  8
0
 10
-5.30272
 20
16.2314
 11
-5.16795
 21
16.0576
  0
LINE
  8
0
 10
-5.16795
 20
16.0576
 11
-5.04491
 21
15.875
  0
LINE
  8
0
 10
-5.04491
 20
15.875
 11
-4.9326
 21
15.6865
  0
LINE
  8
0
 10
-4.9326
 20
15.6865
 11
-4.83299
 21
15.4902
  0
LINE
  8
0
 10
-4.83299
 20
15.4902
 11
-4.74608
 21
15.2881
  0
LINE
  8
0
 10
-4.74608
 20
15.2881
 11
-4.67088
 21
15.082
  0
LINE
  8
0
 10
-4.67088
 20
15.082
 11
-4.61034
 21
14.8701
  0
LINE
  8
0
 10
-4.61034
 20
14.8701
 11
-4.56151
 21
14.6562
  0
LINE
  8
0
 10
-4.56151
 20
14.6562
 11
-4.52733
 21
14.4385
  0
LINE
  8
0
 10
-4.52733
 20
14.4385
 11
-4.50682
 21
14.2197
  0
LINE
  8
0
 10
-4.50682
 20
14.2197
 11
-4.49998
 21
14
  0
LINE
  8
0
 10
-4.49998
 20
14
 11
-4.50682
 21
13.7803
  0
LINE
  8
0
 10
-4.50682
 20
13.7803
 11
-4.52733
 21
13.5615
  0
LINE
  8
0
 10
-4.52733
 20
13.5615
 11
-4.56151
 21
13.3438
  0
LINE
  8
0
 10
-4.56151
 20
13.3438
 11
-4.61034
 21
13.1299
  0
LINE
  8
0
 10
-4.61034
 20
13.1299
 11
-4.67088
 21
12.918
  0
LINE
  8
0
 10
-4.67088
 20
12.918
 11
-4.74608
 21
12.7119
  0
LINE
  8
0
 10
-4.74608
 20
12.7119
 11
-4.83299
 21
12.5098
  0
LINE
  8
0
 10
-4.83299
 20
12.5098
 11
-4.9326
 21
12.3135
  0
LINE
  8
0
 10
-4.9326
 20
12.3135
 11
-5.04491
 21
12.125
  0
LINE
  8
0
 10
-5.04491
 20
12.125
 11
-5.16795
 21
11.9424
  0
LINE
  8
0
 10
-5.16795
 20
11.9424
 11
-5.30272
 21
11.7686
  0
LINE
  8
0
 10
-5.30272
 20
11.7686
 11
-5.44823
 21
11.6045
  0
LINE
  8
0
 10
-5.44823
 20
11.6045
 11
-5.60448
 21
11.4482
  0
LINE
  8
0
 10
-5.60448
 20
11.4482
 11
-5.76854
 21
11.3027
  0
LINE
  8
0
 10
-5.76854
 20
11.3027
 11
-5.94237
 21
11.168
  0
LINE
  8
0
 10
-5.94237
 20
11.168
 11
-6.12498
 21
11.0449
  0
LINE
  8
0
 10
-6.12498
 20
11.0449
 11
-6.31346
 21
10.9326
  0
LINE
  8
0
 10
-6.31346
 20
10.9326
 11
-6.50975
 21
10.833
  0
LINE
  8
0
 10
-6.50975
 20
10.833
 11
-6.7119
 21
10.7461
  0
LINE
  8
0
 10
-6.7119
 20
10.7461
 11
-6.91795
 21
10.6709
  0
LINE
  8
0
 10
-6.91795
 20
10.6709
 11
-7.12987
 21
10.6104
  0
LINE
  8
0
 10
-7.12987
 20
10.6104
 11
-7.34373
 21
10.5615
  0
LINE
  8
0
 10
-7.34373
 20
10.5615
 11
-7.56151
 21
10.5273
  0
LINE
  8
0
 10
-7.56151
 20
10.5273
 11
-7.78026
 21
10.5068
  0
LINE
  8
0
 10
-7.78026
 20
10.5068
 11
-7.99998
 21
10.5
  0
LINE
  8
0
 10
-7.99998
 20
10.5
 11
-8.21971
 21
10.5068
  0
LINE
  8
0
 10
1.39258
 20
11.5
 11
-0.472641
 21
16.5
  0
LINE
  8
0
 10
-0.472641
 20
16.5
 11
0.265625
 21
16.5
  0
LINE
  8
0
 10
0.265625
 20
16.5
 11
0.793945
 21
15.0049
  0
LINE
  8
0
 10
0.793945
 20
15.0049
 11
2.76172
 21
15.0049
  0
LINE
  8
0
 10
2.76172
 20
15.0049
 11
3.29785
 21
16.5
  0
LINE
  8
0
 10
3.29785
 20
16.5
 11
4
 21
16.5
  0
LINE
  8
0
 10
4
 20
16.5
 11
2.14258
 21
11.5
  0
LINE
  8
0
 10
2.14258
 20
11.5
 11
1.39258
 21
11.5
  0
LINE
  8
0
 10
2.55273
 20
14.4209
 11
0.995117
 21
14.4209
  0
LINE
  8
0
 10
0.995117
 20
14.4209
 11
1.76758
 21
12.2168
  0
LINE
  8
0
 10
1.76758
 20
12.2168
 11
2.55273
 21
14.4209
  0
LINE
  8
0
 10
-18.0322
 20
11.4531
 11
-18.7119
 21
11.5293
  0
LINE
  8
0
 10
-18.7119
 20
11.5293
 11
-19.1191
 21
11.7002
  0
LINE
  8
0
 10
-19.1191
 20
11.7002
 11
-19.335
 21
11.8867
  0
LINE
  8
0
 10
-19.335
 20
11.8867
 11
-19.4844
 21
12.1201
  0
LINE
  8
0
 10
-19.4844
 20
12.1201
 11
-19.5605
 21
12.3604
  0
LINE
  8
0
 10
-19.5605
 20
12.3604
 11
-19.5898
 21
12.6699
  0
LINE
  8
0
 10
-19.5898
 20
12.6699
 11
-18.874
 21
13.7549
  0
LINE
  8
0
 10
-18.874
 20
13.7549
 11
-19.29
 21
13.9092
  0
LINE
  8
0
 10
-19.29
 20
13.9092
 11
-19.584
 21
14.168
  0
LINE
  8
0
 10
-19.584
 20
14.168
 11
-19.7588
 21
14.5059
  0
LINE
  8
0
 10
-19.7588
 20
14.5059
 11
-19.8271
 21
14.958
  0
LINE
  8
0
 10
-19.8271
 20
14.958
 11
-19.6885
 21
15.6143
  0
LINE
  8
0
 10
-19.6885
 20
15.6143
 11
-19.331
 21
16.085
  0
LINE
  8
0
 10
-19.331
 20
16.085
 11
-18.8428
 21
16.3467
  0
LINE
  8
0
 10
-18.8428
 20
16.3467
 11
-18.1367
 21
16.4531
  0
LINE
  8
0
 10
-18.1367
 20
16.4531
 11
-16.0156
 21
16.4531
  0
LINE
  8
0
 10
-16.0156
 20
16.4531
 11
-16.0156
 21
11.4531
  0
LINE
  8
0
 10
-16.0156
 20
11.4531
 11
-18.0322
 21
11.4531
  0
LINE
  8
0
 10
-16.6973
 20
15.8477
 11
-18.0742
 21
15.8477
  0
LINE
  8
0
 10
-18.0742
 20
15.8477
 11
-18.539
 21
15.7871
  0
LINE
  8
0
 10
-18.539
 20
15.7871
 11
-18.8262
 21
15.6484
  0
LINE
  8
0
 10
-18.8262
 20
15.6484
 11
-19.043
 21
15.376
  0
LINE
  8
0
 10
-19.043
 20
15.376
 11
-19.1318
 21
14.9502
  0
LINE
  8
0
 10
-19.1318
 20
14.9502
 11
-19.0293
 21
14.5234
  0
LINE
  8
0
 10
-19.0293
 20
14.5234
 11
-18.7842
 21
14.2646
  0
LINE
  8
0
 10
-18.7842
 20
14.2646
 11
-18.499
 21
14.1592
  0
LINE
  8
0
 10
-18.499
 20
14.1592
 11
-17.9971
 21
14.1104
  0
LINE
  8
0
 10
-17.9971
 20
14.1104
 11
-16.6973
 21
14.1104
  0
LINE
  8
0
 10
-16.6973
 20
14.1104
 11
-16.6973
 21
15.8477
  0
LINE
  8
0
 10
-16.6973
 20
13.5537
 11
-17.8867
 21
13.5537
  0
LINE
  8
0
 10
-17.8867
 20
13.5537
 11
-18.3428
 21
13.5059
  0
LINE
  8
0
 10
-18.3428
 20
13.5059
 11
-18.6025
 21
13.4023
  0
LINE
  8
0
 10
-18.6025
 20
13.4023
 11
-18.8174
 21
13.165
  0
LINE
  8
0
 10
-18.8174
 20
13.165
 11
-18.9082
 21
12.7676
  0
LINE
  8
0
 10
-18.9082
 20
12.7676
 11
-18.8232
 21
12.3955
  0
LINE
  8
0
 10
-18.8232
 20
12.3955
 11
-18.6172
 21
12.168
  0
LINE
  8
0
 10
-18.6172
 20
12.168
 11
-18.3691
 21
12.0684
  0
LINE
  8
0
 10
-18.3691
 20
12.0684
 11
-17.9424
 21
12.0234
  0
LINE
  8
0
 10
-17.9424
 20
12.0234
 11
-16.6973
 21
12.0234
  0
LINE
  8
0
 10
-16.6973
 20
12.0234
 11
-16.6973
 21
13.5537
  0
LINE
  8
0
 10
43
 20
-73.5
 11
40
 21
-73.5
  0
LINE
  8
0
 10
40
 20
-73.5
 11
40
 21
-63.5
  0
LINE
  8
0
 10
40
 20
-63.5
 11
43
 21
-63.5
  0
LINE
  8
0
 10
43
 20
-63.5
 11
43
 21
-48.5
  0
LINE
  8
0
 10
43
 20
-48.5
 11
40
 21
-48.5
  0
LINE
  8
0
 10
40
 20
-48.5
 11
40
 21
-38.5
  0
LINE
  8
0
 10
40
 20
-38.5
 11
43
 21
-38.5
  0
LINE
  8
0
 10
43
 20
-38.5
 11
43
 21
-33.5
  0
LINE
  8
0
 10
43
 20
-33.5
 11
-43
 21
-33.5
  0
LINE
  8
0
 10
-43
 20
-33.5
 11
-43
 21
-38.5
  0
LINE
  8
0
 10
-43
 20
-38.5
 11
-40
 21
-38.5
  0
LINE
  8
0
 10
-40
 20
-38.5
 11
-40
 21
-48.5
  0
LINE
  8
0
 10
-40
 20
-48.5
 11
-43
 21
-48.5
  0
LINE
  8
0
 10
-43
 20
-48.5
 11
-43
 21
-63.5
  0
LINE
  8
0
 10
-43
 20
-63.5
 11
-40
 21
-63.5
  0
LINE
  8
0
 10
-40
 20
-63.5
 11
-40
 21
-73.5
  0
LINE
  8
0
 10
-40
 20
-73.5
 11
-43
 21
-73.5
  0
LINE
  8
0
 10
-43
 20
-73.5
 11
-43
 21
-78.5
  0
LINE
  8
0
 10
-43
 20
-78.5
 11
43
 21
-78.5
  0
LINE
  8
0
 10
43
 20
-78.5
 11
43
 21
-73.5
  0
LINE
  8
0
 10
34.874
 20
-41.4961
 11
34.749
 21
-41.4844
  0
LINE
  8
0
 10
34.749
 20
-41.4844
 11
34.625
 21
-41.4648
  0
LINE
  8
0
 10
34.625
 20
-41.4648
 11
34.5029
 21
-41.4375
  0
LINE
  8
0
 10
34.5029
 20
-41.4375
 11
34.3818
 21
-41.4023
  0
LINE
  8
0
 10
34.3818
 20
-41.4023
 11
34.2637
 21
-41.3594
  0
LINE
  8
0
 10
34.2637
 20
-41.3594
 11
34.1484
 21
-41.3096
  0
LINE
  8
0
 10
34.1484
 20
-41.3096
 11
34.0361
 21
-41.2529
  0
LINE
  8
0
 10
34.0361
 20
-41.2529
 11
33.9287
 21
-41.1885
  0
LINE
  8
0
 10
33.9287
 20
-41.1885
 11
33.8242
 21
-41.1182
  0
LINE
  8
0
 10
33.8242
 20
-41.1182
 11
33.7256
 21
-41.041
  0
LINE
  8
0
 10
33.7256
 20
-41.041
 11
33.6309
 21
-40.958
  0
LINE
  8
0
 10
33.6309
 20
-40.958
 11
33.542
 21
-40.8691
  0
LINE
  8
0
 10
33.542
 20
-40.8691
 11
33.459
 21
-40.7744
  0
LINE
  8
0
 10
33.459
 20
-40.7744
 11
33.3818
 21
-40.6758
  0
LINE
  8
0
 10
33.3818
 20
-40.6758
 11
33.3115
 21
-40.5713
  0
LINE
  8
0
 10
33.3115
 20
-40.5713
 11
33.2471
 21
-40.4639
  0
LINE
  8
0
 10
33.2471
 20
-40.4639
 11
33.1904
 21
-40.3516
  0
LINE
  8
0
 10
33.1904
 20
-40.3516
 11
33.1406
 21
-40.2363
  0
LINE
  8
0
 10
33.1406
 20
-40.2363
 11
33.0977
 21
-40.1182
  0
LINE
  8
0
 10
33.0977
 20
-40.1182
 11
33.0625
 21
-39.9971
  0
LINE
  8
0
 10
33.0625
 20
-39.9971
 11
33.0352
 21
-39.875
  0
LINE
  8
0
 10
33.0352
 20
-39.875
 11
33.0156
 21
-39.751
  0
LINE
  8
0
 10
33.0156
 20
-39.751
 11
33.0039
 21
-39.626
  0
LINE
  8
0
 10
33.0039
 20
-39.626
 11
33
 21
-39.5
  0
LINE
  8
0
 10
33
 20
-39.5
 11
33.0039
 21
-39.374
  0
LINE
  8
0
 10
33.0039
 20
-39.374
 11
33.0156
 21
-39.249
  0
LINE
  8
0
 10
33.0156
 20
-39.249
 11
33.0352
 21
-39.125
  0
LINE
  8
0
 10
33.0352
 20
-39.125
 11
33.0625
 21
-39.0029
  0
LINE
  8
0
 10
33.0625
 20
-39.0029
 11
33.0977
 21
-38.8818
  0
LINE
  8
0
 10
33.0977
 20
-38.8818
 11
33.1406
 21
-38.7637
  0
LINE
  8
0
 10
33.1406
 20
-38.7637
 11
33.1904
 21
-38.6484
  0
LINE
  8
0
 10
33.1904
 20
-38.6484
 11
33.2471
 21
-38.5361
  0
LINE
  8
0
 10
33.2471
 20
-38.5361
 11
33.3115
 21
-38.4287
  0
LINE
  8
0
 10
33.3115
 20
-38.4287
 11
33.3818
 21
-38.3242
  0
LINE
  8
0
 10
33.3818
 20
-38.3242
 11
33.459
 21
-38.2256
  0
LINE
  8
0
 10
33.459
 20
-38.2256
 11
33.542
 21
-38.1309
  0
LINE
  8
0
 10
33.542
 20
-38.1309
 11
33.6309
 21
-38.042
  0
LINE
  8
0
 10
33.6309
 20
-38.042
 11
33.7256
 21
-37.959
  0
LINE
  8
0
 10
33.7256
 20
-37.959
 11
33.8242
 21
-37.8818
  0
LINE
  8
0
 10
33.8242
 20
-37.8818
 11
33.9287
 21
-37.8115
  0
LINE
  8
0
 10
33.9287
 20
-37.8115
 11
34.0361
 21
-37.7471
  0
LINE
  8
0
 10
34.0361
 20
-37.7471
 11
34.1484
 21
-37.6904
  0
LINE
  8
0
 10
34.1484
 20
-37.6904
 11
34.2637
 21
-37.6406
  0
LINE
  8
0
 10
34.2637
 20
-37.6406
 11
34.3818
 21
-37.5977
  0
LINE
  8
0
 10
34.3818
 20
-37.5977
 11
34.5029
 21
-37.5625
  0
LINE
  8
0
 10
34.5029
 20
-37.5625
 11
34.625
 21
-37.5352
  0
LINE
  8
0
 10
34.625
 20
-37.5352
 11
34.749
 21
-37.5156
  0
LINE
  8
0
 10
34.749
 20
-37.5156
 11
34.874
 21
-37.5039
  0
LINE
  8
0
 10
34.874
 20
-37.5039
 11
35
 21
-37.5
  0
LINE
  8
0
 10
35
 20
-37.5
 11
35.126
 21
-37.5039
  0
LINE
  8
0
 10
35.126
 20
-37.5039
 11
35.251
 21
-37.5156
  0
LINE
  8
0
 10
35.251
 20
-37.5156
 11
35.375
 21
-37.5352
  0
LINE
  8
0
 10
35.375
 20
-37.5352
 11
35.4971
 21
-37.5625
  0
LINE
  8
0
 10
35.4971
 20
-37.5625
 11
35.6182
 21
-37.5977
  0
LINE
  8
0
 10
35.6182
 20
-37.5977
 11
35.7363
 21
-37.6406
  0
LINE
  8
0
 10
35.7363
 20
-37.6406
 11
35.8516
 21
-37.6904
  0
LINE
  8
0
 10
35.8516
 20
-37.6904
 11
35.9639
 21
-37.7471
  0
LINE
  8
0
 10
35.9639
 20
-37.7471
 11
36.0713
 21
-37.8115
  0
LINE
  8
0
 10
36.0713
 20
-37.8115
 11
36.1758
 21
-37.8818
  0
LINE
  8
0
 10
36.1758
 20
-37.8818
 11
36.2744
 21
-37.959
  0
LINE
  8
0
 10
36.2744
 20
-37.959
 11
36.3691
 21
-38.042
  0
LINE
  8
0
 10
36.3691
 20
-38.042
 11
36.458
 21
-38.1309
  0
LINE
  8
0
 10
36.458
 20
-38.1309
 11
36.541
 21
-38.2256
  0
LINE
  8
0
 10
36.541
 20
-38.2256
 11
36.6182
 21
-38.3242
  0
LINE
  8
0
 10
36.6182
 20
-38.3242
 11
36.6885
 21
-38.4287
  0
LINE
  8
0
 10
36.6885
 20
-38.4287
 11
36.7529
 21
-38.5361
  0
LINE
  8
0
 10
36.7529
 20
-38.5361
 11
36.8096
 21
-38.6484
  0
LINE
  8
0
 10
36.8096
 20
-38.6484
 11
36.8594
 21
-38.7637
  0
LINE
  8
0
 10
36.8594
 20
-38.7637
 11
36.9023
 21
-38.8818
  0
LINE
  8
0
 10
36.9023
 20
-38.8818
 11
36.9375
 21
-39.0029
  0
LINE
  8
0
 10
36.9375
 20
-39.0029
 11
36.9648
 21
-39.125
  0
LINE
  8
0
 10
36.9648
 20
-39.125
 11
36.9844
 21
-39.249
  0
LINE
  8
0
 10
36.9844
 20
-39.249
 11
36.9961
 21
-39.374
  0
LINE
  8
0
 10
36.9961
 20
-39.374
 11
37
 21
-39.5
  0
LINE
  8
0
 10
37
 20
-39.5
 11
36.9961
 21
-39.626
  0
LINE
  8
0
 10
36.9961
 20
-39.626
 11
36.9844
 21
-39.751
  0
LINE
  8
0
 10
36.9844
 20
-39.751
 11
36.9648
 21
-39.875
  0
LINE
  8
0
 10
36.9648
 20
-39.875
 11
36.9375
 21
-39.9971
  0
LINE
  8
0
 10
36.9375
 20
-39.9971
 11
36.9023
 21
-40.1182
  0
LINE
  8
0
 10
36.9023
 20
-40.1182
 11
36.8594
 21
-40.2363
  0
LINE
  8
0
 10
36.8594
 20
-40.2363
 11
36.8096
 21
-40.3516
  0
LINE
  8
0
 10
36.8096
 20
-40.3516
 11
36.7529
 21
-40.4639
  0
LINE
  8
0
 10
36.7529
 20
-40.4639
 11
36.6885
 21
-40.5713
  0
LINE
  8
0
 10
36.6885
 20
-40.5713
 11
36.6182
 21
-40.6758
  0
LINE
  8
0
 10
36.6182
 20
-40.6758
 11
36.541
 21
-40.7744
  0
LINE
  8
0
 10
36.541
 20
-40.7744
 11
36.458
 21
-40.8691
  0
LINE
  8
0
 10
36.458
 20
-40.8691
 11
36.3691
 21
-40.958
  0
LINE
  8
0
 10
36.3691
 20
-40.958
 11
36.2744
 21
-41.041
  0
LINE
  8
0
 10
36.2744
 20
-41.041
 11
36.1758
 21
-41.1182
  0
LINE
  8
0
 10
36.1758
 20
-41.1182
 11
36.0713
 21
-41.1885
  0
LINE
  8
0
 10
36.0713
 20
-41.1885
 11
35.9639
 21
-41.2529
  0
LINE
  8
0
 10
35.9639
 20
-41.2529
 11
35.8516
 21
-41.3096
  0
LINE
  8
0
 10
35.8516
 20
-41.3096
 11
35.7363
 21
-41.3594
  0
LINE
  8
0
 10
35.7363
 20
-41.3594
 11
35.6182
 21
-41.4023
  0
LINE
  8
0
 10
35.6182
 20
-41.4023
 11
35.4971
 21
-41.4375
  0
LINE
  8
0
 10
35.4971
 20
-41.4375
 11
35.375
 21
-41.4648
  0
LINE
  8
0
 10
35.375
 20
-41.4648
 11
35.251
 21
-41.4844
  0
LINE
  8
0
 10
35.251
 20
-41.4844
 11
35.126
 21
-41.4961
  0
LINE
  8
0
 10
35.126
 20
-41.4961
 11
35
 21
-41.5
  0
LINE
  8
0
 10
35
 20
-41.5
 11
34.874
 21
-41.4961
  0
LINE
  8
0
 10
-35.126
 20
-41.4961
 11
-35.251
 21
-41.4844
  0
LINE
  8
0
 10
-35.251
 20
-41.4844
 11
-35.375
 21
-41.4648
  0
LINE
  8
0
 10
-35.375
 20
-41.4648
 11
-35.4971
 21
-41.4375
  0
LINE
  8
0
 10
-35.4971
 20
-41.4375
 11
-35.6182
 21
-41.4023
  0
LINE
  8
0
 10
-35.6182
 20
-41.4023
 11
-35.7363
 21
-41.3594
  0
LINE
  8
0
 10
-35.7363
 20
-41.3594
 11
-35.8516
 21
-41.3096
  0
LINE
  8
0
 10
-35.8516
 20
-41.3096
 11
-35.9639
 21
-41.2529
  0
LINE
  8
0
 10
-35.9639
 20
-41.2529
 11
-36.0713
 21
-41.1885
  0
LINE
  8
0
 10
-36.0713
 20
-41.1885
 11
-36.1758
 21
-41.1182
  0
LINE
  8
0
 10
-36.1758
 20
-41.1182
 11
-36.2744
 21
-41.041
  0
LINE
  8
0
 10
-36.2744
 20
-41.041
 11
-36.3691
 21
-40.958
  0
LINE
  8
0
 10
-36.3691
 20
-40.958
 11
-36.458
 21
-40.8691
  0
LINE
  8
0
 10
-36.458
 20
-40.8691
 11
-36.541
 21
-40.7744
  0
LINE
  8
0
 10
-36.541
 20
-40.7744
 11
-36.6182
 21
-40.6758
  0
LINE
  8
0
 10
-36.6182
 20
-40.6758
 11
-36.6885
 21
-40.5713
  0
LINE
  8
0
 10
-36.6885
 20
-40.5713
 11
-36.7529
 21
-40.4639
  0
LINE
  8
0
 10
-36.7529
 20
-40.4639
 11
-36.8096
 21
-40.3515
  0
LINE
  8
0
 10
-36.8096
 20
-40.3515
 11
-36.8594
 21
-40.2363
  0
LINE
  8
0
 10
-36.8594
 20
-40.2363
 11
-36.9023
 21
-40.1181
  0
LINE
  8
0
 10
-36.9023
 20
-40.1181
 11
-36.9375
 21
-39.9971
  0
LINE
  8
0
 10
-36.9375
 20
-39.9971
 11
-36.9648
 21
-39.875
  0
LINE
  8
0
 10
-36.9648
 20
-39.875
 11
-36.9844
 21
-39.751
  0
LINE
  8
0
 10
-36.9844
 20
-39.751
 11
-36.9961
 21
-39.626
  0
LINE
  8
0
 10
-36.9961
 20
-39.626
 11
-37
 21
-39.5
  0
LINE
  8
0
 10
-37
 20
-39.5
 11
-36.9961
 21
-39.374
  0
LINE
  8
0
 10
-36.9961
 20
-39.374
 11
-36.9844
 21
-39.249
  0
LINE
  8
0
 10
-36.9844
 20
-39.249
 11
-36.9648
 21
-39.125
  0
LINE
  8
0
 10
-36.9648
 20
-39.125
 11
-36.9375
 21
-39.0029
  0
LINE
  8
0
 10
-36.9375
 20
-39.0029
 11
-36.9023
 21
-38.8818
  0
LINE
  8
0
 10
-36.9023
 20
-38.8818
 11
-36.8594
 21
-38.7637
  0
LINE
  8
0
 10
-36.8594
 20
-38.7637
 11
-36.8096
 21
-38.6484
  0
LINE
  8
0
 10
-36.8096
 20
-38.6484
 11
-36.7529
 21
-38.5361
  0
LINE
  8
0
 10
-36.7529
 20
-38.5361
 11
-36.6885
 21
-38.4287
  0
LINE
  8
0
 10
-36.6885
 20
-38.4287
 11
-36.6182
 21
-38.3242
  0
LINE
  8
0
 10
-36.6182
 20
-38.3242
 11
-36.541
 21
-38.2256
  0
LINE
  8
0
 10
-36.541
 20
-38.2256
 11
-36.458
 21
-38.1309
  0
LINE
  8
0
 10
-36.458
 20
-38.1309
 11
-36.3691
 21
-38.042
  0
LINE
  8
0
 10
-36.3691
 20
-38.042
 11
-36.2744
 21
-37.959
  0
LINE
  8
0
 10
-36.2744
 20
-37.959
 11
-36.1758
 21
-37.8818
  0
LINE
  8
0
 10
-36.1758
 20
-37.8818
 11
-36.0713
 21
-37.8115
  0
LINE
  8
0
 10
-36.0713
 20
-37.8115
 11
-35.9639
 21
-37.7471
  0
LINE
  8
0
 10
-35.9639
 20
-37.7471
 11
-35.8516
 21
-37.6904
  0
LINE
  8
0
 10
-35.8516
 20
-37.6904
 11
-35.7363
 21
-37.6406
  0
LINE
  8
0
 10
-35.7363
 20
-37.6406
 11
-35.6182
 21
-37.5977
  0
LINE
  8
0
 10
-35.6182
 20
-37.5977
 11
-35.4971
 21
-37.5625
  0
LINE
  8
0
 10
-35.4971
 20
-37.5625
 11
-35.375
 21
-37.5352
  0
LINE
  8
0
 10
-35.375
 20
-37.5352
 11
-35.251
 21
-37.5156
  0
LINE
  8
0
 10
-35.251
 20
-37.5156
 11
-35.126
 21
-37.5039
  0
LINE
  8
0
 10
-35.126
 20
-37.5039
 11
-35
 21
-37.5
  0
LINE
  8
0
 10
-35
 20
-37.5
 11
-34.874
 21
-37.5039
  0
LINE
  8
0
 10
-34.874
 20
-37.5039
 11
-34.749
 21
-37.5156
  0
LINE
  8
0
 10
-34.749
 20
-37.5156
 11
-34.625
 21
-37.5352
  0
LINE
  8
0
 10
-34.625
 20
-37.5352
 11
-34.5029
 21
-37.5625
  0
LINE
  8
0
 10
-34.5029
 20
-37.5625
 11
-34.3818
 21
-37.5977
  0
LINE
  8
0
 10
-34.3818
 20
-37.5977
 11
-34.2637
 21
-37.6406
  0
LINE
  8
0
 10
-34.2637
 20
-37.6406
 11
-34.1484
 21
-37.6904
  0
LINE
  8
0
 10
-34.1484
 20
-37.6904
 11
-34.0361
 21
-37.7471
  0
LINE
  8
0
 10
-34.0361
 20
-37.7471
 11
-33.9287
 21
-37.8115
  0
LINE
  8
0
 10
-33.9287
 20
-37.8115
 11
-33.8242
 21
-37.8818
  0
LINE
  8
0
 10
-33.8242
 20
-37.8818
 11
-33.7256
 21
-37.959
  0
LINE
  8
0
 10
-33.7256
 20
-37.959
 11
-33.6309
 21
-38.042
  0
LINE
  8
0
 10
-33.6309
 20
-38.042
 11
-33.542
 21
-38.1309
  0
LINE
  8
0
 10
-33.542
 20
-38.1309
 11
-33.459
 21
-38.2256
  0
LINE
  8
0
 10
-33.459
 20
-38.2256
 11
-33.3818
 21
-38.3242
  0
LINE
  8
0
 10
-33.3818
 20
-38.3242
 11
-33.3115
 21
-38.4287
  0
LINE
  8
0
 10
-33.3115
 20
-38.4287
 11
-33.2471
 21
-38.5361
  0
LINE
  8
0
 10
-33.2471
 20
-38.5361
 11
-33.1904
 21
-38.6484
  0
LINE
  8
0
 10
-33.1904
 20
-38.6484
 11
-33.1406
 21
-38.7637
  0
LINE
  8
0
 10
-33.1406
 20
-38.7637
 11
-33.0977
 21
-38.8818
  0
LINE
  8
0
 10
-33.0977
 20
-38.8818
 11
-33.0625
 21
-39.0029
  0
LINE
  8
0
 10
-33.0625
 20
-39.0029
 11
-33.0352
 21
-39.125
  0
LINE
  8
0
 10
-33.0352
 20
-39.125
 11
-33.0156
 21
-39.249
  0
LINE
  8
0
 10
-33.0156
 20
-39.249
 11
-33.0039
 21
-39.374
  0
LINE
  8
0
 10
-33.0039
 20
-39.374
 11
-33
 21
-39.5
  0
LINE
  8
0
 10
-33
 20
-39.5
 11
-33.0039
 21
-39.626
  0
LINE
  8
0
 10
-33.0039
 20
-39.626
 11
-33.0156
 21
-39.751
  0
LINE
  8
0
 10
-33.0156
 20
-39.751
 11
-33.0352
 21
-39.875
  0
LINE
  8
0
 10
-33.0352
 20
-39.875
 11
-33.0625
 21
-39.9971
  0
LINE
  8
0
 10
-33.0625
 20
-39.9971
 11
-33.0977
 21
-40.1182
  0
LINE
  8
0
 10
-33.0977
 20
-40.1182
 11
-33.1406
 21
-40.2363
  0
LINE
  8
0
 10
-33.1406
 20
-40.2363
 11
-33.1904
 21
-40.3516
  0
LINE
  8
0
 10
-33.1904
 20
-40.3516
 11
-33.2471
 21
-40.4639
  0
LINE
  8
0
 10
-33.2471
 20
-40.4639
 11
-33.3115
 21
-40.5713
  0
LINE
  8
0
 10
-33.3115
 20
-40.5713
 11
-33.3818
 21
-40.6758
  0
LINE
  8
0
 10
-33.3818
 20
-40.6758
 11
-33.459
 21
-40.7744
  0
LINE
  8
0
 10
-33.459
 20
-40.7744
 11
-33.542
 21
-40.8691
  0
LINE
  8
0
 10
-33.542
 20
-40.8691
 11
-33.6309
 21
-40.958
  0
LINE
  8
0
 10
-33.6309
 20
-40.958
 11
-33.7256
 21
-41.041
  0
LINE
  8
0
 10
-33.7256
 20
-41.041
 11
-33.8242
 21
-41.1182
  0
LINE
  8
0
 10
-33.8242
 20
-41.1182
 11
-33.9287
 21
-41.1885
  0
LINE
  8
0
 10
-33.9287
 20
-41.1885
 11
-34.0361
 21
-41.2529
  0
LINE
  8
0
 10
-34.0361
 20
-41.2529
 11
-34.1484
 21
-41.3096
  0
LINE
  8
0
 10
-34.1484
 20
-41.3096
 11
-34.2637
 21
-41.3594
  0
LINE
  8
0
 10
-34.2637
 20
-41.3594
 11
-34.3818
 21
-41.4023
  0
LINE
  8
0
 10
-34.3818
 20
-41.4023
 11
-34.5029
 21
-41.4375
  0
LINE
  8
0
 10
-34.5029
 20
-41.4375
 11
-34.625
 21
-41.4648
  0
LINE
  8
0
 10
-34.625
 20
-41.4648
 11
-34.749
 21
-41.4844
  0
LINE
  8
0
 10
-34.749
 20
-41.4844
 11
-34.874
 21
-41.4961
  0
LINE
  8
0
 10
-34.874
 20
-41.4961
 11
-35
 21
-41.5
  0
LINE
  8
0
 10
-35
 20
-41.5
 11
-35.126
 21
-41.4961
  0
LINE
  8
0
 10
-6.23535
 20
-56.4551
 11
-5.62305
 21
-54.7744
  0
LINE
  8
0
 10
-5.62305
 20
-54.7744
 11
-5.53711
 21
-54.5771
  0
LINE
  8
0
 10
-5.53711
 20
-54.5771
 11
-5.48047
 21
-54.4951
  0
LINE
  8
0
 10
-5.48047
 20
-54.4951
 11
-5.37207
 21
-54.4229
  0
LINE
  8
0
 10
-5.37207
 20
-54.4229
 11
-5.19238
 21
-54.3906
  0
LINE
  8
0
 10
-5.19238
 20
-54.3906
 11
-5.04785
 21
-54.4131
  0
LINE
  8
0
 10
-5.04785
 20
-54.4131
 11
-5.04785
 21
-54.6465
  0
LINE
  8
0
 10
-5.04785
 20
-54.6465
 11
-5.18945
 21
-54.624
  0
LINE
  8
0
 10
-5.18945
 20
-54.624
 11
-5.37012
 21
-54.7441
  0
LINE
  8
0
 10
-5.37012
 20
-54.7441
 11
-5.43359
 21
-54.917
  0
LINE
  8
0
 10
-5.43359
 20
-54.917
 11
-4.88379
 21
-56.4551
  0
LINE
  8
0
 10
-4.88379
 20
-56.4551
 11
-5.15625
 21
-56.4551
  0
LINE
  8
0
 10
-5.15625
 20
-56.4551
 11
-5.55957
 21
-55.2783
  0
LINE
  8
0
 10
-5.55957
 20
-55.2783
 11
-5.96289
 21
-56.4551
  0
LINE
  8
0
 10
-5.96289
 20
-56.4551
 11
-6.23535
 21
-56.4551
  0
LINE
  8
0
 10
10.5234
 20
-56.2715
 11
10.5234
 21
-56.4551
  0
LINE
  8
0
 10
10.5234
 20
-56.4551
 11
10.2871
 21
-56.4551
  0
LINE
  8
0
 10
10.2871
 20
-56.4551
 11
10.2871
 21
-55.0303
  0
LINE
  8
0
 10
10.2871
 20
-55.0303
 11
10.3408
 21
-54.709
  0
LINE
  8
0
 10
10.3408
 20
-54.709
 11
10.4561
 21
-54.5352
  0
LINE
  8
0
 10
10.4561
 20
-54.5352
 11
10.6348
 21
-54.4385
  0
LINE
  8
0
 10
10.6348
 20
-54.4385
 11
10.9658
 21
-54.3936
  0
LINE
  8
0
 10
10.9658
 20
-54.3936
 11
11.209
 21
-54.4189
  0
LINE
  8
0
 10
11.209
 20
-54.4189
 11
11.373
 21
-54.4795
  0
LINE
  8
0
 10
11.373
 20
-54.4795
 11
11.5254
 21
-54.624
  0
LINE
  8
0
 10
11.5254
 20
-54.624
 11
11.5801
 21
-54.8193
  0
LINE
  8
0
 10
11.5801
 20
-54.8193
 11
11.5801
 21
-54.8301
  0
LINE
  8
0
 10
11.5801
 20
-54.8301
 11
11.3408
 21
-54.8301
  0
LINE
  8
0
 10
11.3408
 20
-54.8301
 11
11.3408
 21
-54.8252
  0
LINE
  8
0
 10
11.3408
 20
-54.8252
 11
11.3057
 21
-54.7148
  0
LINE
  8
0
 10
11.3057
 20
-54.7148
 11
11.2041
 21
-54.6357
  0
LINE
  8
0
 10
11.2041
 20
-54.6357
 11
11.1094
 21
-54.6104
  0
LINE
  8
0
 10
11.1094
 20
-54.6104
 11
10.957
 21
-54.5996
  0
LINE
  8
0
 10
10.957
 20
-54.5996
 11
10.748
 21
-54.624
  0
LINE
  8
0
 10
10.748
 20
-54.624
 11
10.6377
 21
-54.6768
  0
LINE
  8
0
 10
10.6377
 20
-54.6768
 11
10.5596
 21
-54.7812
  0
LINE
  8
0
 10
10.5596
 20
-54.7812
 11
10.5234
 21
-54.9775
  0
LINE
  8
0
 10
10.5234
 20
-54.9775
 11
10.5234
 21
-55.1777
  0
LINE
  8
0
 10
10.5234
 20
-55.1777
 11
10.9854
 21
-54.9521
  0
LINE
  8
0
 10
10.9854
 20
-54.9521
 11
11.2666
 21
-55.0176
  0
LINE
  8
0
 10
11.2666
 20
-55.0176
 11
11.4805
 21
-55.1924
  0
LINE
  8
0
 10
11.4805
 20
-55.1924
 11
11.5938
 21
-55.418
  0
LINE
  8
0
 10
11.5938
 20
-55.418
 11
11.6387
 21
-55.7314
  0
LINE
  8
0
 10
11.6387
 20
-55.7314
 11
11.5928
 21
-56.043
  0
LINE
  8
0
 10
11.5928
 20
-56.043
 11
11.4785
 21
-56.2666
  0
LINE
  8
0
 10
11.4785
 20
-56.2666
 11
11.2656
 21
-56.4385
  0
LINE
  8
0
 10
11.2656
 20
-56.4385
 11
10.9824
 21
-56.502
  0
LINE
  8
0
 10
10.9824
 20
-56.502
 11
10.5234
 21
-56.2715
  0
LINE
  8
0
 10
11.1553
 20
-56.2334
 11
11.293
 21
-56.1084
  0
LINE
  8
0
 10
11.293
 20
-56.1084
 11
11.3555
 21
-55.959
  0
LINE
  8
0
 10
11.3555
 20
-55.959
 11
11.3828
 21
-55.7266
  0
LINE
  8
0
 10
11.3828
 20
-55.7266
 11
11.3545
 21
-55.498
  0
LINE
  8
0
 10
11.3545
 20
-55.498
 11
11.2891
 21
-55.3467
  0
LINE
  8
0
 10
11.2891
 20
-55.3467
 11
11.1484
 21
-55.2207
  0
LINE
  8
0
 10
11.1484
 20
-55.2207
 11
10.9512
 21
-55.1729
  0
LINE
  8
0
 10
10.9512
 20
-55.1729
 11
10.7344
 21
-55.2197
  0
LINE
  8
0
 10
10.7344
 20
-55.2197
 11
10.6025
 21
-55.332
  0
LINE
  8
0
 10
10.6025
 20
-55.332
 11
10.543
 21
-55.4736
  0
LINE
  8
0
 10
10.543
 20
-55.4736
 11
10.5146
 21
-55.7178
  0
LINE
  8
0
 10
10.5146
 20
-55.7178
 11
10.543
 21
-55.9609
  0
LINE
  8
0
 10
10.543
 20
-55.9609
 11
10.6055
 21
-56.1104
  0
LINE
  8
0
 10
10.6055
 20
-56.1104
 11
10.7422
 21
-56.2324
  0
LINE
  8
0
 10
10.7422
 20
-56.2324
 11
10.9541
 21
-56.2822
  0
LINE
  8
0
 10
10.9541
 20
-56.2822
 11
11.1553
 21
-56.2334
  0
LINE
  8
0
 10
-1.99902
 20
-56.8525
 11
-2.22363
 21
-56.6074
  0
LINE
  8
0
 10
-2.22363
 20
-56.6074
 11
-2.30957
 21
-56.3516
  0
LINE
  8
0
 10
-2.30957
 20
-56.3516
 11
-2.34668
 21
-55.9424
  0
LINE
  8
0
 10
-2.34668
 20
-55.9424
 11
-2.30957
 21
-55.5352
  0
LINE
  8
0
 10
-2.30957
 20
-55.5352
 11
-2.22363
 21
-55.2793
  0
LINE
  8
0
 10
-2.22363
 20
-55.2793
 11
-1.99998
 21
-55.0361
  0
LINE
  8
0
 10
-1.99998
 20
-55.0361
 11
-1.67577
 21
-54.9443
  0
LINE
  8
0
 10
-1.67577
 20
-54.9443
 11
-1.35448
 21
-55.0361
  0
LINE
  8
0
 10
-1.35448
 20
-55.0361
 11
-1.13086
 21
-55.2803
  0
LINE
  8
0
 10
-1.13086
 20
-55.2803
 11
-1.0459
 21
-55.5361
  0
LINE
  8
0
 10
-1.0459
 20
-55.5361
 11
-1.00879
 21
-55.9424
  0
LINE
  8
0
 10
-1.00879
 20
-55.9424
 11
-1.0459
 21
-56.3496
  0
LINE
  8
0
 10
-1.0459
 20
-56.3496
 11
-1.13086
 21
-56.6064
  0
LINE
  8
0
 10
-1.13086
 20
-56.6064
 11
-1.35449
 21
-56.8525
  0
LINE
  8
0
 10
-1.35449
 20
-56.8525
 11
-1.67578
 21
-56.9443
  0
LINE
  8
0
 10
-1.67578
 20
-56.9443
 11
-1.99902
 21
-56.8525
  0
LINE
  8
0
 10
-1.54688
 20
-56.6943
 11
-1.45117
 21
-56.6367
  0
LINE
  8
0
 10
-1.45117
 20
-56.6367
 11
-1.38672
 21
-56.5576
  0
LINE
  8
0
 10
-1.38672
 20
-56.5576
 11
-1.33008
 21
-56.4277
  0
LINE
  8
0
 10
-1.33008
 20
-56.4277
 11
-1.29297
 21
-56.2471
  0
LINE
  8
0
 10
-1.29297
 20
-56.2471
 11
-1.27539
 21
-55.9424
  0
LINE
  8
0
 10
-1.27539
 20
-55.9424
 11
-1.29297
 21
-55.6387
  0
LINE
  8
0
 10
-1.29297
 20
-55.6387
 11
-1.33008
 21
-55.46
  0
LINE
  8
0
 10
-1.33008
 20
-55.46
 11
-1.38672
 21
-55.3301
  0
LINE
  8
0
 10
-1.38672
 20
-55.3301
 11
-1.45117
 21
-55.251
  0
LINE
  8
0
 10
-1.45117
 20
-55.251
 11
-1.54688
 21
-55.1943
  0
LINE
  8
0
 10
-1.54688
 20
-55.1943
 11
-1.67578
 21
-55.1729
  0
LINE
  8
0
 10
-1.67578
 20
-55.1729
 11
-1.80566
 21
-55.1943
  0
LINE
  8
0
 10
-1.80566
 20
-55.1943
 11
-1.90137
 21
-55.25
  0
LINE
  8
0
 10
-1.90137
 20
-55.25
 11
-1.96582
 21
-55.3291
  0
LINE
  8
0
 10
-1.96582
 20
-55.3291
 11
-2.02246
 21
-55.459
  0
LINE
  8
0
 10
-2.02246
 20
-55.459
 11
-2.05957
 21
-55.6377
  0
LINE
  8
0
 10
-2.05957
 20
-55.6377
 11
-2.07715
 21
-55.9424
  0
LINE
  8
0
 10
-2.07715
 20
-55.9424
 11
-2.05957
 21
-56.248
  0
LINE
  8
0
 10
-2.05957
 20
-56.248
 11
-2.02246
 21
-56.4277
  0
LINE
  8
0
 10
-2.02246
 20
-56.4277
 11
-1.9668
 21
-56.5576
  0
LINE
  8
0
 10
-1.9668
 20
-56.5576
 11
-1.90234
 21
-56.6377
  0
LINE
  8
0
 10
-1.90234
 20
-56.6377
 11
-1.80566
 21
-56.6943
  0
LINE
  8
0
 10
-1.80566
 20
-56.6943
 11
-1.67578
 21
-56.7168
  0
LINE
  8
0
 10
-1.67578
 20
-56.7168
 11
-1.54688
 21
-56.6943
  0
LINE
  8
0
 10
-7.92676
 20
-56.4697
 11
-8.08594
 21
-56.3975
  0
LINE
  8
0
 10
-8.08594
 20
-56.3975
 11
-8.21777
 21
-56.25
  0
LINE
  8
0
 10
-8.21777
 20
-56.25
 11
-8.26562
 21
-56.0547
  0
LINE
  8
0
 10
-8.26562
 20
-56.0547
 11
-8.26562
 21
-56.0488
  0
LINE
  8
0
 10
-8.26562
 20
-56.0488
 11
-8.02637
 21
-56.0488
  0
LINE
  8
0
 10
-8.02637
 20
-56.0488
 11
-7.69922
 21
-56.29
  0
LINE
  8
0
 10
-7.69922
 20
-56.29
 11
-7.57812
 21
-56.2793
  0
LINE
  8
0
 10
-7.57812
 20
-56.2793
 11
-7.50098
 21
-56.2529
  0
LINE
  8
0
 10
-7.50098
 20
-56.2529
 11
-7.42773
 21
-56.1846
  0
LINE
  8
0
 10
-7.42773
 20
-56.1846
 11
-7.40039
 21
-56.0879
  0
LINE
  8
0
 10
-7.40039
 20
-56.0879
 11
-7.4209
 21
-56.0127
  0
LINE
  8
0
 10
-7.4209
 20
-56.0127
 11
-7.47754
 21
-55.958
  0
LINE
  8
0
 10
-7.47754
 20
-55.958
 11
-7.52734
 21
-55.9355
  0
LINE
  8
0
 10
-7.52734
 20
-55.9355
 11
-7.62793
 21
-55.9072
  0
LINE
  8
0
 10
-7.62793
 20
-55.9072
 11
-7.86328
 21
-55.8516
  0
LINE
  8
0
 10
-7.86328
 20
-55.8516
 11
-8.07129
 21
-55.7861
  0
LINE
  8
0
 10
-8.07129
 20
-55.7861
 11
-8.1748
 21
-55.7295
  0
LINE
  8
0
 10
-8.1748
 20
-55.7295
 11
-8.2666
 21
-55.6133
  0
LINE
  8
0
 10
-8.2666
 20
-55.6133
 11
-8.30469
 21
-55.4336
  0
LINE
  8
0
 10
-8.30469
 20
-55.4336
 11
-8.25195
 21
-55.2139
  0
LINE
  8
0
 10
-8.25195
 20
-55.2139
 11
-8.11621
 21
-55.0605
  0
LINE
  8
0
 10
-8.11621
 20
-55.0605
 11
-7.9502
 21
-54.9863
  0
LINE
  8
0
 10
-7.9502
 20
-54.9863
 11
-7.69824
 21
-54.9551
  0
LINE
  8
0
 10
-7.69824
 20
-54.9551
 11
-7.44434
 21
-54.9922
  0
LINE
  8
0
 10
-7.44434
 20
-54.9922
 11
-7.28125
 21
-55.0781
  0
LINE
  8
0
 10
-7.28125
 20
-55.0781
 11
-7.16504
 21
-55.2344
  0
LINE
  8
0
 10
-7.16504
 20
-55.2344
 11
-7.11426
 21
-55.4727
  0
LINE
  8
0
 10
-7.11426
 20
-55.4727
 11
-7.35352
 21
-55.4727
  0
LINE
  8
0
 10
-7.35352
 20
-55.4727
 11
-7.72168
 21
-55.1729
  0
LINE
  8
0
 10
-7.72168
 20
-55.1729
 11
-7.98047
 21
-55.252
  0
LINE
  8
0
 10
-7.98047
 20
-55.252
 11
-8.05957
 21
-55.4033
  0
LINE
  8
0
 10
-8.05957
 20
-55.4033
 11
-8.04004
 21
-55.4883
  0
LINE
  8
0
 10
-8.04004
 20
-55.4883
 11
-7.99121
 21
-55.5439
  0
LINE
  8
0
 10
-7.99121
 20
-55.5439
 11
-7.94238
 21
-55.5693
  0
LINE
  8
0
 10
-7.94238
 20
-55.5693
 11
-7.83789
 21
-55.6006
  0
LINE
  8
0
 10
-7.83789
 20
-55.6006
 11
-7.56641
 21
-55.6699
  0
LINE
  8
0
 10
-7.56641
 20
-55.6699
 11
-7.37109
 21
-55.7344
  0
LINE
  8
0
 10
-7.37109
 20
-55.7344
 11
-7.27246
 21
-55.7939
  0
LINE
  8
0
 10
-7.27246
 20
-55.7939
 11
-7.19043
 21
-55.9053
  0
LINE
  8
0
 10
-7.19043
 20
-55.9053
 11
-7.15625
 21
-56.0791
  0
LINE
  8
0
 10
-7.15625
 20
-56.0791
 11
-7.20312
 21
-56.2676
  0
LINE
  8
0
 10
-7.20312
 20
-56.2676
 11
-7.3291
 21
-56.4062
  0
LINE
  8
0
 10
-7.3291
 20
-56.4062
 11
-7.47949
 21
-56.4717
  0
LINE
  8
0
 10
-7.47949
 20
-56.4717
 11
-7.69922
 21
-56.499
  0
LINE
  8
0
 10
-7.69922
 20
-56.499
 11
-7.92676
 21
-56.4697
  0
LINE
  8
0
 10
5.62109
 20
-56.4395
 11
5.4082
 21
-56.2832
  0
LINE
  8
0
 10
5.4082
 20
-56.2832
 11
5.28809
 21
-56.0635
  0
LINE
  8
0
 10
5.28809
 20
-56.0635
 11
5.23828
 21
-55.7285
  0
LINE
  8
0
 10
5.23828
 20
-55.7285
 11
5.28809
 21
-55.3955
  0
LINE
  8
0
 10
5.28809
 20
-55.3955
 11
5.40723
 21
-55.1758
  0
LINE
  8
0
 10
5.40723
 20
-55.1758
 11
5.62012
 21
-55.0186
  0
LINE
  8
0
 10
5.62012
 20
-55.0186
 11
5.93359
 21
-54.9551
  0
LINE
  8
0
 10
5.93359
 20
-54.9551
 11
6.25
 21
-55.0186
  0
LINE
  8
0
 10
6.25
 20
-55.0186
 11
6.46289
 21
-55.1748
  0
LINE
  8
0
 10
6.46289
 20
-55.1748
 11
6.58203
 21
-55.3945
  0
LINE
  8
0
 10
6.58203
 20
-55.3945
 11
6.63281
 21
-55.7285
  0
LINE
  8
0
 10
6.63281
 20
-55.7285
 11
6.58301
 21
-56.0625
  0
LINE
  8
0
 10
6.58301
 20
-56.0625
 11
6.46387
 21
-56.2822
  0
LINE
  8
0
 10
6.46387
 20
-56.2822
 11
6.25098
 21
-56.4395
  0
LINE
  8
0
 10
6.25098
 20
-56.4395
 11
5.93652
 21
-56.502
  0
LINE
  8
0
 10
5.93652
 20
-56.502
 11
5.62109
 21
-56.4395
  0
LINE
  8
0
 10
6.14551
 20
-56.2373
 11
6.28516
 21
-56.1172
  0
LINE
  8
0
 10
6.28516
 20
-56.1172
 11
6.35254
 21
-55.9668
  0
LINE
  8
0
 10
6.35254
 20
-55.9668
 11
6.38184
 21
-55.7285
  0
LINE
  8
0
 10
6.38184
 20
-55.7285
 11
6.35254
 21
-55.4912
  0
LINE
  8
0
 10
6.35254
 20
-55.4912
 11
6.28418
 21
-55.3408
  0
LINE
  8
0
 10
6.28418
 20
-55.3408
 11
6.14355
 21
-55.2207
  0
LINE
  8
0
 10
6.14355
 20
-55.2207
 11
5.93359
 21
-55.1729
  0
LINE
  8
0
 10
5.93359
 20
-55.1729
 11
5.72656
 21
-55.2207
  0
LINE
  8
0
 10
5.72656
 20
-55.2207
 11
5.58691
 21
-55.3418
  0
LINE
  8
0
 10
5.58691
 20
-55.3418
 11
5.52051
 21
-55.4922
  0
LINE
  8
0
 10
5.52051
 20
-55.4922
 11
5.49219
 21
-55.7285
  0
LINE
  8
0
 10
5.49219
 20
-55.7285
 11
5.52051
 21
-55.9648
  0
LINE
  8
0
 10
5.52051
 20
-55.9648
 11
5.58691
 21
-56.1152
  0
LINE
  8
0
 10
5.58691
 20
-56.1152
 11
5.72559
 21
-56.2373
  0
LINE
  8
0
 10
5.72559
 20
-56.2373
 11
5.93359
 21
-56.2852
  0
LINE
  8
0
 10
5.93359
 20
-56.2852
 11
6.14551
 21
-56.2373
  0
LINE
  8
0
 10
-10.1895
 20
-56.4736
 11
-10.335
 21
-56.4131
  0
LINE
  8
0
 10
-10.335
 20
-56.4131
 11
-10.4521
 21
-56.2783
  0
LINE
  8
0
 10
-10.4521
 20
-56.2783
 11
-10.502
 21
-56.0518
  0
LINE
  8
0
 10
-10.502
 20
-56.0518
 11
-10.502
 21
-55.3223
  0
LINE
  8
0
 10
-10.502
 20
-55.3223
 11
-10.5059
 21
-55.25
  0
LINE
  8
0
 10
-10.5059
 20
-55.25
 11
-10.5127
 21
-55.2207
  0
LINE
  8
0
 10
-10.5127
 20
-55.2207
 11
-10.5391
 21
-55.1895
  0
LINE
  8
0
 10
-10.5391
 20
-55.1895
 11
-10.5957
 21
-55.1748
  0
LINE
  8
0
 10
-10.5957
 20
-55.1748
 11
-10.6602
 21
-55.1836
  0
LINE
  8
0
 10
-10.6602
 20
-55.1836
 11
-10.6602
 21
-54.9941
  0
LINE
  8
0
 10
-10.6602
 20
-54.9941
 11
-10.5186
 21
-54.9727
  0
LINE
  8
0
 10
-10.5186
 20
-54.9727
 11
-10.2734
 21
-55.1865
  0
LINE
  8
0
 10
-10.2734
 20
-55.1865
 11
-10.2734
 21
-55.1943
  0
LINE
  8
0
 10
-10.2734
 20
-55.1943
 11
-9.75879
 21
-54.9551
  0
LINE
  8
0
 10
-9.75879
 20
-54.9551
 11
-9.28613
 21
-55.3926
  0
LINE
  8
0
 10
-9.28613
 20
-55.3926
 11
-9.32715
 21
-55.5889
  0
LINE
  8
0
 10
-9.32715
 20
-55.5889
 11
-9.43262
 21
-55.7246
  0
LINE
  8
0
 10
-9.43262
 20
-55.7246
 11
-9.56445
 21
-55.7969
  0
LINE
  8
0
 10
-9.56445
 20
-55.7969
 11
-9.78418
 21
-55.8486
  0
LINE
  8
0
 10
-9.78418
 20
-55.8486
 11
-10.1846
 21
-55.9043
  0
LINE
  8
0
 10
-10.1846
 20
-55.9043
 11
-10.2539
 21
-56.0625
  0
LINE
  8
0
 10
-10.2539
 20
-56.0625
 11
-10.2236
 21
-56.1719
  0
LINE
  8
0
 10
-10.2236
 20
-56.1719
 11
-10.1455
 21
-56.2451
  0
LINE
  8
0
 10
-10.1455
 20
-56.2451
 11
-10.0625
 21
-56.2725
  0
LINE
  8
0
 10
-10.0625
 20
-56.2725
 11
-9.92578
 21
-56.2852
  0
LINE
  8
0
 10
-9.92578
 20
-56.2852
 11
-9.77832
 21
-56.2676
  0
LINE
  8
0
 10
-9.77832
 20
-56.2676
 11
-9.6875
 21
-56.2285
  0
LINE
  8
0
 10
-9.6875
 20
-56.2285
 11
-9.61328
 21
-56.1445
  0
LINE
  8
0
 10
-9.61328
 20
-56.1445
 11
-9.58398
 21
-56.0156
  0
LINE
  8
0
 10
-9.58398
 20
-56.0156
 11
-9.35254
 21
-56.0156
  0
LINE
  8
0
 10
-9.35254
 20
-56.0156
 11
-9.35254
 21
-56.0264
  0
LINE
  8
0
 10
-9.35254
 20
-56.0264
 11
-9.40137
 21
-56.2393
  0
LINE
  8
0
 10
-9.40137
 20
-56.2393
 11
-9.53125
 21
-56.3926
  0
LINE
  8
0
 10
-9.53125
 20
-56.3926
 11
-9.69434
 21
-56.4697
  0
LINE
  8
0
 10
-9.69434
 20
-56.4697
 11
-9.93359
 21
-56.502
  0
LINE
  8
0
 10
-9.93359
 20
-56.502
 11
-10.1895
 21
-56.4736
  0
LINE
  8
0
 10
-9.78906
 20
-55.6396
 11
-9.53906
 21
-55.3955
  0
LINE
  8
0
 10
-9.53906
 20
-55.3955
 11
-9.80078
 21
-55.1699
  0
LINE
  8
0
 10
-9.80078
 20
-55.1699
 11
-10.1357
 21
-55.2852
  0
LINE
  8
0
 10
-10.1357
 20
-55.2852
 11
-10.251
 21
-55.5225
  0
LINE
  8
0
 10
-10.251
 20
-55.5225
 11
-10.251
 21
-55.7402
  0
LINE
  8
0
 10
-10.251
 20
-55.7402
 11
-9.78906
 21
-55.6396
  0
LINE
  8
0
 10
4.69629
 20
-57
 11
4.69629
 21
-56.252
  0
LINE
  8
0
 10
4.69629
 20
-56.252
 11
4.22656
 21
-56.502
  0
LINE
  8
0
 10
4.22656
 20
-56.502
 11
3.94727
 21
-56.4365
  0
LINE
  8
0
 10
3.94727
 20
-56.4365
 11
3.73828
 21
-56.2598
  0
LINE
  8
0
 10
3.73828
 20
-56.2598
 11
3.62988
 21
-56.0381
  0
LINE
  8
0
 10
3.62988
 20
-56.0381
 11
3.58691
 21
-55.7236
  0
LINE
  8
0
 10
3.58691
 20
-55.7236
 11
3.62988
 21
-55.4111
  0
LINE
  8
0
 10
3.62988
 20
-55.4111
 11
3.7373
 21
-55.1924
  0
LINE
  8
0
 10
3.7373
 20
-55.1924
 11
3.94434
 21
-55.0195
  0
LINE
  8
0
 10
3.94434
 20
-55.0195
 11
4.22363
 21
-54.9551
  0
LINE
  8
0
 10
4.22363
 20
-54.9551
 11
4.69629
 21
-55.1836
  0
LINE
  8
0
 10
4.69629
 20
-55.1836
 11
4.69629
 21
-55
  0
LINE
  8
0
 10
4.69629
 20
-55
 11
4.93555
 21
-55
  0
LINE
  8
0
 10
4.93555
 20
-55
 11
4.93555
 21
-57
  0
LINE
  8
0
 10
4.93555
 20
-57
 11
4.69629
 21
-57
  0
LINE
  8
0
 10
4.4834
 20
-56.2344
 11
4.61621
 21
-56.1191
  0
LINE
  8
0
 10
4.61621
 20
-56.1191
 11
4.67773
 21
-55.9756
  0
LINE
  8
0
 10
4.67773
 20
-55.9756
 11
4.7041
 21
-55.7373
  0
LINE
  8
0
 10
4.7041
 20
-55.7373
 11
4.67773
 21
-55.5029
  0
LINE
  8
0
 10
4.67773
 20
-55.5029
 11
4.61523
 21
-55.3506
  0
LINE
  8
0
 10
4.61523
 20
-55.3506
 11
4.47656
 21
-55.2217
  0
LINE
  8
0
 10
4.47656
 20
-55.2217
 11
4.27637
 21
-55.1729
  0
LINE
  8
0
 10
4.27637
 20
-55.1729
 11
4.08203
 21
-55.2178
  0
LINE
  8
0
 10
4.08203
 20
-55.2178
 11
3.94141
 21
-55.3369
  0
LINE
  8
0
 10
3.94141
 20
-55.3369
 11
3.87109
 21
-55.4873
  0
LINE
  8
0
 10
3.87109
 20
-55.4873
 11
3.84277
 21
-55.7061
  0
LINE
  8
0
 10
3.84277
 20
-55.7061
 11
3.86914
 21
-55.9443
  0
LINE
  8
0
 10
3.86914
 20
-55.9443
 11
3.93164
 21
-56.0986
  0
LINE
  8
0
 10
3.93164
 20
-56.0986
 11
4.07227
 21
-56.2314
  0
LINE
  8
0
 10
4.07227
 20
-56.2314
 11
4.27344
 21
-56.2822
  0
LINE
  8
0
 10
4.27344
 20
-56.2822
 11
4.4834
 21
-56.2344
  0
LINE
  8
0
 10
-3.63477
 20
-57
 11
-3.63477
 21
-56.252
  0
LINE
  8
0
 10
-3.63477
 20
-56.252
 11
-4.10449
 21
-56.502
  0
LINE
  8
0
 10
-4.10449
 20
-56.502
 11
-4.38379
 21
-56.4365
  0
LINE
  8
0
 10
-4.38379
 20
-56.4365
 11
-4.59277
 21
-56.2598
  0
LINE
  8
0
 10
-4.59277
 20
-56.2598
 11
-4.7002
 21
-56.0381
  0
LINE
  8
0
 10
-4.7002
 20
-56.0381
 11
-4.74414
 21
-55.7236
  0
LINE
  8
0
 10
-4.74414
 20
-55.7236
 11
-4.7002
 21
-55.4111
  0
LINE
  8
0
 10
-4.7002
 20
-55.4111
 11
-4.59277
 21
-55.1924
  0
LINE
  8
0
 10
-4.59277
 20
-55.1924
 11
-4.38574
 21
-55.0195
  0
LINE
  8
0
 10
-4.38574
 20
-55.0195
 11
-4.10742
 21
-54.9551
  0
LINE
  8
0
 10
-4.10742
 20
-54.9551
 11
-3.63477
 21
-55.1836
  0
LINE
  8
0
 10
-3.63477
 20
-55.1836
 11
-3.63477
 21
-55
  0
LINE
  8
0
 10
-3.63477
 20
-55
 11
-3.39551
 21
-55
  0
LINE
  8
0
 10
-3.39551
 20
-55
 11
-3.39551
 21
-57
  0
LINE
  8
0
 10
-3.39551
 20
-57
 11
-3.63477
 21
-57
  0
LINE
  8
0
 10
-3.84668
 20
-56.2344
 11
-3.71484
 21
-56.1191
  0
LINE
  8
0
 10
-3.71484
 20
-56.1191
 11
-3.65332
 21
-55.9756
  0
LINE
  8
0
 10
-3.65332
 20
-55.9756
 11
-3.62598
 21
-55.7373
  0
LINE
  8
0
 10
-3.62598
 20
-55.7373
 11
-3.65332
 21
-55.5029
  0
LINE
  8
0
 10
-3.65332
 20
-55.5029
 11
-3.71582
 21
-55.3506
  0
LINE
  8
0
 10
-3.71582
 20
-55.3506
 11
-3.85449
 21
-55.2217
  0
LINE
  8
0
 10
-3.85449
 20
-55.2217
 11
-4.05469
 21
-55.1729
  0
LINE
  8
0
 10
-4.05469
 20
-55.1729
 11
-4.24902
 21
-55.2178
  0
LINE
  8
0
 10
-4.24902
 20
-55.2178
 11
-4.38867
 21
-55.3369
  0
LINE
  8
0
 10
-4.38867
 20
-55.3369
 11
-4.45898
 21
-55.4873
  0
LINE
  8
0
 10
-4.45898
 20
-55.4873
 11
-4.48828
 21
-55.7061
  0
LINE
  8
0
 10
-4.48828
 20
-55.7061
 11
-4.46191
 21
-55.9443
  0
LINE
  8
0
 10
-4.46191
 20
-55.9443
 11
-4.39941
 21
-56.0986
  0
LINE
  8
0
 10
-4.39941
 20
-56.0986
 11
-4.25879
 21
-56.2314
  0
LINE
  8
0
 10
-4.25879
 20
-56.2314
 11
-4.05762
 21
-56.2822
  0
LINE
  8
0
 10
-4.05762
 20
-56.2822
 11
-3.84668
 21
-56.2344
  0
LINE
  8
0
 10
-8.87988
 20
-56.8604
 11
-8.87988
 21
-56.4551
  0
LINE
  8
0
 10
-8.87988
 20
-56.4551
 11
-9.1416
 21
-56.4551
  0
LINE
  8
0
 10
-9.1416
 20
-56.4551
 11
-9.1416
 21
-56.2598
  0
LINE
  8
0
 10
-9.1416
 20
-56.2598
 11
-8.87988
 21
-56.2598
  0
LINE
  8
0
 10
-8.87988
 20
-56.2598
 11
-8.87988
 21
-55.3672
  0
LINE
  8
0
 10
-8.87988
 20
-55.3672
 11
-9.01074
 21
-55.2031
  0
LINE
  8
0
 10
-9.01074
 20
-55.2031
 11
-9.1416
 21
-55.2119
  0
LINE
  8
0
 10
-9.1416
 20
-55.2119
 11
-9.1416
 21
-55.0029
  0
LINE
  8
0
 10
-9.1416
 20
-55.0029
 11
-8.94629
 21
-54.9805
  0
LINE
  8
0
 10
-8.94629
 20
-54.9805
 11
-8.78418
 21
-55.002
  0
LINE
  8
0
 10
-8.78418
 20
-55.002
 11
-8.70605
 21
-55.0459
  0
LINE
  8
0
 10
-8.70605
 20
-55.0459
 11
-8.65918
 21
-55.123
  0
LINE
  8
0
 10
-8.65918
 20
-55.123
 11
-8.63574
 21
-55.2832
  0
LINE
  8
0
 10
-8.63574
 20
-55.2832
 11
-8.63574
 21
-56.2598
  0
LINE
  8
0
 10
-8.63574
 20
-56.2598
 11
-8.41797
 21
-56.2598
  0
LINE
  8
0
 10
-8.41797
 20
-56.2598
 11
-8.41797
 21
-56.4551
  0
LINE
  8
0
 10
-8.41797
 20
-56.4551
 11
-8.63574
 21
-56.4551
  0
LINE
  8
0
 10
-8.63574
 20
-56.4551
 11
-8.63574
 21
-56.8604
  0
LINE
  8
0
 10
-8.63574
 20
-56.8604
 11
-8.87988
 21
-56.8604
  0
LINE
  8
0
 10
13.1934
 20
-57
 11
12.9219
 21
-56.9697
  0
LINE
  8
0
 10
12.9219
 20
-56.9697
 11
12.7588
 21
-56.9014
  0
LINE
  8
0
 10
12.7588
 20
-56.9014
 11
12.625
 21
-56.751
  0
LINE
  8
0
 10
12.625
 20
-56.751
 11
12.5703
 21
-56.5127
  0
LINE
  8
0
 10
12.5703
 20
-56.5127
 11
12.8564
 21
-56.0791
  0
LINE
  8
0
 10
12.8564
 20
-56.0791
 11
12.4756
 21
-55.5977
  0
LINE
  8
0
 10
12.4756
 20
-55.5977
 11
12.5303
 21
-55.3359
  0
LINE
  8
0
 10
12.5303
 20
-55.3359
 11
12.6738
 21
-55.1475
  0
LINE
  8
0
 10
12.6738
 20
-55.1475
 11
12.8691
 21
-55.043
  0
LINE
  8
0
 10
12.8691
 20
-55.043
 11
13.1514
 21
-55
  0
LINE
  8
0
 10
13.1514
 20
-55
 11
14
 21
-55
  0
LINE
  8
0
 10
14
 20
-55
 11
14
 21
-57
  0
LINE
  8
0
 10
14
 20
-57
 11
13.1934
 21
-57
  0
LINE
  8
0
 10
13.7275
 20
-55.2422
 11
13.1768
 21
-55.2422
  0
LINE
  8
0
 10
13.1768
 20
-55.2422
 11
12.9902
 21
-55.2666
  0
LINE
  8
0
 10
12.9902
 20
-55.2666
 11
12.876
 21
-55.3223
  0
LINE
  8
0
 10
12.876
 20
-55.3223
 11
12.7891
 21
-55.4307
  0
LINE
  8
0
 10
12.7891
 20
-55.4307
 11
12.7539
 21
-55.6006
  0
LINE
  8
0
 10
12.7539
 20
-55.6006
 11
12.7949
 21
-55.7725
  0
LINE
  8
0
 10
12.7949
 20
-55.7725
 11
12.8926
 21
-55.875
  0
LINE
  8
0
 10
12.8926
 20
-55.875
 11
13.0068
 21
-55.918
  0
LINE
  8
0
 10
13.0068
 20
-55.918
 11
13.207
 21
-55.9375
  0
LINE
  8
0
 10
13.207
 20
-55.9375
 11
13.7275
 21
-55.9375
  0
LINE
  8
0
 10
13.7275
 20
-55.9375
 11
13.7275
 21
-55.2422
  0
LINE
  8
0
 10
13.7275
 20
-56.1602
 11
13.252
 21
-56.1602
  0
LINE
  8
0
 10
13.252
 20
-56.1602
 11
13.0693
 21
-56.1787
  0
LINE
  8
0
 10
13.0693
 20
-56.1787
 11
12.9648
 21
-56.2197
  0
LINE
  8
0
 10
12.9648
 20
-56.2197
 11
12.8789
 21
-56.3154
  0
LINE
  8
0
 10
12.8789
 20
-56.3154
 11
12.8428
 21
-56.4746
  0
LINE
  8
0
 10
12.8428
 20
-56.4746
 11
12.877
 21
-56.623
  0
LINE
  8
0
 10
12.877
 20
-56.623
 11
12.959
 21
-56.7139
  0
LINE
  8
0
 10
12.959
 20
-56.7139
 11
13.0586
 21
-56.7539
  0
LINE
  8
0
 10
13.0586
 20
-56.7539
 11
13.2295
 21
-56.7715
  0
LINE
  8
0
 10
13.2295
 20
-56.7715
 11
13.7275
 21
-56.7715
  0
LINE
  8
0
 10
13.7275
 20
-56.7715
 11
13.7275
 21
-56.1602
  0
LINE
  8
0
 10
11.9414
 20
-56.4551
 11
11.9414
 21
-55
  0
LINE
  8
0
 10
11.9414
 20
-55
 11
12.1865
 21
-55
  0
LINE
  8
0
 10
12.1865
 20
-55
 11
12.1865
 21
-56.4551
  0
LINE
  8
0
 10
12.1865
 20
-56.4551
 11
11.9414
 21
-56.4551
  0
LINE
  8
0
 10
1.38379
 20
-56.4551
 11
1.91504
 21
-55
  0
LINE
  8
0
 10
1.91504
 20
-55
 11
2.17383
 21
-55
  0
LINE
  8
0
 10
2.17383
 20
-55
 11
2.70996
 21
-56.4551
  0
LINE
  8
0
 10
2.70996
 20
-56.4551
 11
2.44824
 21
-56.4551
  0
LINE
  8
0
 10
2.44824
 20
-56.4551
 11
2.04297
 21
-55.2891
  0
LINE
  8
0
 10
2.04297
 20
-55.2891
 11
1.64453
 21
-56.4551
  0
LINE
  8
0
 10
1.64453
 20
-56.4551
 11
1.38379
 21
-56.4551
  0
LINE
  8
0
 10
6.98828
 20
-56.2939
 11
6.92383
 21
-55.9424
  0
LINE
  8
0
 10
6.92383
 20
-55.9424
 11
6.92383
 21
-55
  0
LINE
  8
0
 10
6.92383
 20
-55
 11
7.17188
 21
-55
  0
LINE
  8
0
 10
7.17188
 20
-55
 11
7.17188
 21
-55.8955
  0
LINE
  8
0
 10
7.17188
 20
-55.8955
 11
7.18848
 21
-56.0791
  0
LINE
  8
0
 10
7.18848
 20
-56.0791
 11
7.2207
 21
-56.167
  0
LINE
  8
0
 10
7.2207
 20
-56.167
 11
7.30273
 21
-56.2402
  0
LINE
  8
0
 10
7.30273
 20
-56.2402
 11
7.46387
 21
-56.2734
  0
LINE
  8
0
 10
7.46387
 20
-56.2734
 11
7.89551
 21
-55.8291
  0
LINE
  8
0
 10
7.89551
 20
-55.8291
 11
7.89551
 21
-55
  0
LINE
  8
0
 10
7.89551
 20
-55
 11
8.13965
 21
-55
  0
LINE
  8
0
 10
8.13965
 20
-55
 11
8.13965
 21
-56.4551
  0
LINE
  8
0
 10
8.13965
 20
-56.4551
 11
7.90625
 21
-56.4551
  0
LINE
  8
0
 10
7.90625
 20
-56.4551
 11
7.90625
 21
-56.2432
  0
LINE
  8
0
 10
7.90625
 20
-56.2432
 11
7.43848
 21
-56.4912
  0
LINE
  8
0
 10
7.43848
 20
-56.4912
 11
6.98828
 21
-56.2939
  0
LINE
  8
0
 10
8.29297
 20
-57
 11
9.11035
 21
-56.1992
  0
LINE
  8
0
 10
9.11035
 20
-56.1992
 11
8.27051
 21
-55
  0
LINE
  8
0
 10
8.27051
 20
-55
 11
8.60645
 21
-55
  0
LINE
  8
0
 10
8.60645
 20
-55
 11
9.30762
 21
-56.0039
  0
LINE
  8
0
 10
9.30762
 20
-56.0039
 11
9.61621
 21
-55.7012
  0
LINE
  8
0
 10
9.61621
 20
-55.7012
 11
9.61621
 21
-55
  0
LINE
  8
0
 10
9.61621
 20
-55
 11
9.88672
 21
-55
  0
LINE
  8
0
 10
9.88672
 20
-55
 11
9.88672
 21
-57
  0
LINE
  8
0
 10
9.88672
 20
-57
 11
9.61621
 21
-57
  0
LINE
  8
0
 10
9.61621
 20
-57
 11
9.61621
 21
-56.0342
  0
LINE
  8
0
 10
9.61621
 20
-56.0342
 11
8.6543
 21
-57
  0
LINE
  8
0
 10
8.6543
 20
-57
 11
8.29297
 21
-57
  0
LINE
  8
0
 10
-12.7188
 20
-57
 11
-12.7188
 21
-55
  0
LINE
  8
0
 10
-12.7188
 20
-55
 11
-12.4707
 21
-55
  0
LINE
  8
0
 10
-12.4707
 20
-55
 11
-12.4707
 21
-57
  0
LINE
  8
0
 10
-12.4707
 20
-57
 11
-12.7188
 21
-57
  0
LINE
  8
0
 10
-11.1299
 20
-57
 11
-11.1299
 21
-56.249
  0
LINE
  8
0
 10
-11.1299
 20
-56.249
 11
-11.5859
 21
-56.4912
  0
LINE
  8
0
 10
-11.5859
 20
-56.4912
 11
-12.0371
 21
-56.2939
  0
LINE
  8
0
 10
-12.0371
 20
-56.2939
 11
-12.1006
 21
-55.9424
  0
LINE
  8
0
 10
-12.1006
 20
-55.9424
 11
-12.1006
 21
-55
  0
LINE
  8
0
 10
-12.1006
 20
-55
 11
-11.8535
 21
-55
  0
LINE
  8
0
 10
-11.8535
 20
-55
 11
-11.8535
 21
-55.8955
  0
LINE
  8
0
 10
-11.8535
 20
-55.8955
 11
-11.8369
 21
-56.0801
  0
LINE
  8
0
 10
-11.8369
 20
-56.0801
 11
-11.8047
 21
-56.167
  0
LINE
  8
0
 10
-11.8047
 20
-56.167
 11
-11.7227
 21
-56.2402
  0
LINE
  8
0
 10
-11.7227
 20
-56.2402
 11
-11.5615
 21
-56.2734
  0
LINE
  8
0
 10
-11.5615
 20
-56.2734
 11
-11.1299
 21
-55.8594
  0
LINE
  8
0
 10
-11.1299
 20
-55.8594
 11
-11.1299
 21
-55
  0
LINE
  8
0
 10
-11.1299
 20
-55
 11
-10.8857
 21
-55
  0
LINE
  8
0
 10
-10.8857
 20
-55
 11
-10.8857
 21
-57
  0
LINE
  8
0
 10
-10.8857
 20
-57
 11
-11.1299
 21
-57
  0
LINE
  8
0
 10
0.410141
 20
-56.9443
 11
0.410156
 21
-55
  0
LINE
  8
0
 10
0.410156
 20
-55
 11
0.663086
 21
-55
  0
LINE
  8
0
 10
0.663086
 20
-55
 11
0.663086
 21
-56.374
  0
LINE
  8
0
 10
0.663086
 20
-56.374
 11
1.11328
 21
-56.374
  0
LINE
  8
0
 10
1.11328
 20
-56.374
 11
1.11328
 21
-56.5713
  0
LINE
  8
0
 10
1.11328
 20
-56.5713
 11
0.897446
 21
-56.5957
  0
LINE
  8
0
 10
0.897446
 20
-56.5957
 11
0.769516
 21
-56.6475
  0
LINE
  8
0
 10
0.769516
 20
-56.6475
 11
0.660141
 21
-56.7588
  0
LINE
  8
0
 10
0.660141
 20
-56.7588
 11
0.598618
 21
-56.9443
  0
LINE
  8
0
 10
0.598618
 20
-56.9443
 11
0.410141
 21
-56.9443
  0
LINE
  8
0
 10
-0.67186
 20
-55.3037
 11
-0.67186
 21
-55
  0
LINE
  8
0
 10
-0.67186
 20
-55
 11
-0.394516
 21
-55
  0
LINE
  8
0
 10
-0.394516
 20
-55
 11
-0.394516
 21
-55.3037
  0
LINE
  8
0
 10
-0.394516
 20
-55.3037
 11
-0.67186
 21
-55.3037
  0
LINE
  8
0
 10
11.9414
 20
-57
 11
11.9414
 21
-56.7217
  0
LINE
  8
0
 10
11.9414
 20
-56.7217
 11
12.1865
 21
-56.7217
  0
LINE
  8
0
 10
12.1865
 20
-56.7217
 11
12.1865
 21
-57
  0
LINE
  8
0
 10
12.1865
 20
-57
 11
11.9414
 21
-57
  0
LINE
  8
0
 10
34.874
 20
-74.4961
 11
34.749
 21
-74.4844
  0
LINE
  8
0
 10
34.749
 20
-74.4844
 11
34.625
 21
-74.4648
  0
LINE
  8
0
 10
34.625
 20
-74.4648
 11
34.5029
 21
-74.4375
  0
LINE
  8
0
 10
34.5029
 20
-74.4375
 11
34.3818
 21
-74.4023
  0
LINE
  8
0
 10
34.3818
 20
-74.4023
 11
34.2637
 21
-74.3594
  0
LINE
  8
0
 10
34.2637
 20
-74.3594
 11
34.1484
 21
-74.3096
  0
LINE
  8
0
 10
34.1484
 20
-74.3096
 11
34.0361
 21
-74.2529
  0
LINE
  8
0
 10
34.0361
 20
-74.2529
 11
33.9287
 21
-74.1885
  0
LINE
  8
0
 10
33.9287
 20
-74.1885
 11
33.8242
 21
-74.1182
  0
LINE
  8
0
 10
33.8242
 20
-74.1182
 11
33.7256
 21
-74.041
  0
LINE
  8
0
 10
33.7256
 20
-74.041
 11
33.6309
 21
-73.958
  0
LINE
  8
0
 10
33.6309
 20
-73.958
 11
33.542
 21
-73.8691
  0
LINE
  8
0
 10
33.542
 20
-73.8691
 11
33.459
 21
-73.7744
  0
LINE
  8
0
 10
33.459
 20
-73.7744
 11
33.3818
 21
-73.6758
  0
LINE
  8
0
 10
33.3818
 20
-73.6758
 11
33.3115
 21
-73.5713
  0
LINE
  8
0
 10
33.3115
 20
-73.5713
 11
33.2471
 21
-73.4639
  0
LINE
  8
0
 10
33.2471
 20
-73.4639
 11
33.1904
 21
-73.3516
  0
LINE
  8
0
 10
33.1904
 20
-73.3516
 11
33.1406
 21
-73.2363
  0
LINE
  8
0
 10
33.1406
 20
-73.2363
 11
33.0977
 21
-73.1182
  0
LINE
  8
0
 10
33.0977
 20
-73.1182
 11
33.0625
 21
-72.9971
  0
LINE
  8
0
 10
33.0625
 20
-72.9971
 11
33.0352
 21
-72.875
  0
LINE
  8
0
 10
33.0352
 20
-72.875
 11
33.0156
 21
-72.751
  0
LINE
  8
0
 10
33.0156
 20
-72.751
 11
33.0039
 21
-72.626
  0
LINE
  8
0
 10
33.0039
 20
-72.626
 11
33
 21
-72.5
  0
LINE
  8
0
 10
33
 20
-72.5
 11
33.0039
 21
-72.374
  0
LINE
  8
0
 10
33.0039
 20
-72.374
 11
33.0156
 21
-72.249
  0
LINE
  8
0
 10
33.0156
 20
-72.249
 11
33.0352
 21
-72.125
  0
LINE
  8
0
 10
33.0352
 20
-72.125
 11
33.0625
 21
-72.0029
  0
LINE
  8
0
 10
33.0625
 20
-72.0029
 11
33.0977
 21
-71.8818
  0
LINE
  8
0
 10
33.0977
 20
-71.8818
 11
33.1406
 21
-71.7637
  0
LINE
  8
0
 10
33.1406
 20
-71.7637
 11
33.1904
 21
-71.6484
  0
LINE
  8
0
 10
33.1904
 20
-71.6484
 11
33.2471
 21
-71.5361
  0
LINE
  8
0
 10
33.2471
 20
-71.5361
 11
33.3115
 21
-71.4287
  0
LINE
  8
0
 10
33.3115
 20
-71.4287
 11
33.3818
 21
-71.3242
  0
LINE
  8
0
 10
33.3818
 20
-71.3242
 11
33.459
 21
-71.2256
  0
LINE
  8
0
 10
33.459
 20
-71.2256
 11
33.542
 21
-71.1309
  0
LINE
  8
0
 10
33.542
 20
-71.1309
 11
33.6309
 21
-71.042
  0
LINE
  8
0
 10
33.6309
 20
-71.042
 11
33.7256
 21
-70.959
  0
LINE
  8
0
 10
33.7256
 20
-70.959
 11
33.8242
 21
-70.8818
  0
LINE
  8
0
 10
33.8242
 20
-70.8818
 11
33.9287
 21
-70.8115
  0
LINE
  8
0
 10
33.9287
 20
-70.8115
 11
34.0361
 21
-70.7471
  0
LINE
  8
0
 10
34.0361
 20
-70.7471
 11
34.1484
 21
-70.6904
  0
LINE
  8
0
 10
34.1484
 20
-70.6904
 11
34.2637
 21
-70.6406
  0
LINE
  8
0
 10
34.2637
 20
-70.6406
 11
34.3818
 21
-70.5977
  0
LINE
  8
0
 10
34.3818
 20
-70.5977
 11
34.5029
 21
-70.5625
  0
LINE
  8
0
 10
34.5029
 20
-70.5625
 11
34.625
 21
-70.5352
  0
LINE
  8
0
 10
34.625
 20
-70.5352
 11
34.749
 21
-70.5156
  0
LINE
  8
0
 10
34.749
 20
-70.5156
 11
34.874
 21
-70.5039
  0
LINE
  8
0
 10
34.874
 20
-70.5039
 11
35
 21
-70.5
  0
LINE
  8
0
 10
35
 20
-70.5
 11
35.126
 21
-70.5039
  0
LINE
  8
0
 10
35.126
 20
-70.5039
 11
35.251
 21
-70.5156
  0
LINE
  8
0
 10
35.251
 20
-70.5156
 11
35.375
 21
-70.5352
  0
LINE
  8
0
 10
35.375
 20
-70.5352
 11
35.4971
 21
-70.5625
  0
LINE
  8
0
 10
35.4971
 20
-70.5625
 11
35.6182
 21
-70.5977
  0
LINE
  8
0
 10
35.6182
 20
-70.5977
 11
35.7363
 21
-70.6406
  0
LINE
  8
0
 10
35.7363
 20
-70.6406
 11
35.8516
 21
-70.6904
  0
LINE
  8
0
 10
35.8516
 20
-70.6904
 11
35.9639
 21
-70.7471
  0
LINE
  8
0
 10
35.9639
 20
-70.7471
 11
36.0713
 21
-70.8115
  0
LINE
  8
0
 10
36.0713
 20
-70.8115
 11
36.1758
 21
-70.8818
  0
LINE
  8
0
 10
36.1758
 20
-70.8818
 11
36.2744
 21
-70.959
  0
LINE
  8
0
 10
36.2744
 20
-70.959
 11
36.3691
 21
-71.042
  0
LINE
  8
0
 10
36.3691
 20
-71.042
 11
36.458
 21
-71.1309
  0
LINE
  8
0
 10
36.458
 20
-71.1309
 11
36.541
 21
-71.2256
  0
LINE
  8
0
 10
36.541
 20
-71.2256
 11
36.6182
 21
-71.3242
  0
LINE
  8
0
 10
36.6182
 20
-71.3242
 11
36.6885
 21
-71.4287
  0
LINE
  8
0
 10
36.6885
 20
-71.4287
 11
36.7529
 21
-71.5361
  0
LINE
  8
0
 10
36.7529
 20
-71.5361
 11
36.8096
 21
-71.6484
  0
LINE
  8
0
 10
36.8096
 20
-71.6484
 11
36.8594
 21
-71.7637
  0
LINE
  8
0
 10
36.8594
 20
-71.7637
 11
36.9023
 21
-71.8818
  0
LINE
  8
0
 10
36.9023
 20
-71.8818
 11
36.9375
 21
-72.0029
  0
LINE
  8
0
 10
36.9375
 20
-72.0029
 11
36.9648
 21
-72.125
  0
LINE
  8
0
 10
36.9648
 20
-72.125
 11
36.9844
 21
-72.249
  0
LINE
  8
0
 10
36.9844
 20
-72.249
 11
36.9961
 21
-72.374
  0
LINE
  8
0
 10
36.9961
 20
-72.374
 11
37
 21
-72.5
  0
LINE
  8
0
 10
37
 20
-72.5
 11
36.9961
 21
-72.626
  0
LINE
  8
0
 10
36.9961
 20
-72.626
 11
36.9844
 21
-72.751
  0
LINE
  8
0
 10
36.9844
 20
-72.751
 11
36.9648
 21
-72.875
  0
LINE
  8
0
 10
36.9648
 20
-72.875
 11
36.9375
 21
-72.9971
  0
LINE
  8
0
 10
36.9375
 20
-72.9971
 11
36.9023
 21
-73.1182
  0
LINE
  8
0
 10
36.9023
 20
-73.1182
 11
36.8594
 21
-73.2363
  0
LINE
  8
0
 10
36.8594
 20
-73.2363
 11
36.8096
 21
-73.3516
  0
LINE
  8
0
 10
36.8096
 20
-73.3516
 11
36.7529
 21
-73.4639
  0
LINE
  8
0
 10
36.7529
 20
-73.4639
 11
36.6885
 21
-73.5713
  0
LINE
  8
0
 10
36.6885
 20
-73.5713
 11
36.6182
 21
-73.6758
  0
LINE
  8
0
 10
36.6182
 20
-73.6758
 11
36.541
 21
-73.7744
  0
LINE
  8
0
 10
36.541
 20
-73.7744
 11
36.458
 21
-73.8691
  0
LINE
  8
0
 10
36.458
 20
-73.8691
 11
36.3691
 21
-73.958
  0
LINE
  8
0
 10
36.3691
 20
-73.958
 11
36.2744
 21
-74.041
  0
LINE
  8
0
 10
36.2744
 20
-74.041
 11
36.1758
 21
-74.1182
  0
LINE
  8
0
 10
36.1758
 20
-74.1182
 11
36.0713
 21
-74.1885
  0
LINE
  8
0
 10
36.0713
 20
-74.1885
 11
35.9639
 21
-74.2529
  0
LINE
  8
0
 10
35.9639
 20
-74.2529
 11
35.8516
 21
-74.3096
  0
LINE
  8
0
 10
35.8516
 20
-74.3096
 11
35.7363
 21
-74.3594
  0
LINE
  8
0
 10
35.7363
 20
-74.3594
 11
35.6182
 21
-74.4023
  0
LINE
  8
0
 10
35.6182
 20
-74.4023
 11
35.4971
 21
-74.4375
  0
LINE
  8
0
 10
35.4971
 20
-74.4375
 11
35.375
 21
-74.4648
  0
LINE
  8
0
 10
35.375
 20
-74.4648
 11
35.251
 21
-74.4844
  0
LINE
  8
0
 10
35.251
 20
-74.4844
 11
35.126
 21
-74.4961
  0
LINE
  8
0
 10
35.126
 20
-74.4961
 11
35
 21
-74.5
  0
LINE
  8
0
 10
35
 20
-74.5
 11
34.874
 21
-74.4961
  0
LINE
  8
0
 10
-35.126
 20
-74.4961
 11
-35.251
 21
-74.4844
  0
LINE
  8
0
 10
-35.251
 20
-74.4844
 11
-35.375
 21
-74.4648
  0
LINE
  8
0
 10
-35.375
 20
-74.4648
 11
-35.4971
 21
-74.4375
  0
LINE
  8
0
 10
-35.4971
 20
-74.4375
 11
-35.6182
 21
-74.4023
  0
LINE
  8
0
 10
-35.6182
 20
-74.4023
 11
-35.7363
 21
-74.3594
  0
LINE
  8
0
 10
-35.7363
 20
-74.3594
 11
-35.8516
 21
-74.3096
  0
LINE
  8
0
 10
-35.8516
 20
-74.3096
 11
-35.9639
 21
-74.2529
  0
LINE
  8
0
 10
-35.9639
 20
-74.2529
 11
-36.0713
 21
-74.1885
  0
LINE
  8
0
 10
-36.0713
 20
-74.1885
 11
-36.1758
 21
-74.1182
  0
LINE
  8
0
 10
-36.1758
 20
-74.1182
 11
-36.2744
 21
-74.041
  0
LINE
  8
0
 10
-36.2744
 20
-74.041
 11
-36.3691
 21
-73.958
  0
LINE
  8
0
 10
-36.3691
 20
-73.958
 11
-36.458
 21
-73.8691
  0
LINE
  8
0
 10
-36.458
 20
-73.8691
 11
-36.541
 21
-73.7744
  0
LINE
  8
0
 10
-36.541
 20
-73.7744
 11
-36.6182
 21
-73.6758
  0
LINE
  8
0
 10
-36.6182
 20
-73.6758
 11
-36.6885
 21
-73.5713
  0
LINE
  8
0
 10
-36.6885
 20
-73.5713
 11
-36.7529
 21
-73.4639
  0
LINE
  8
0
 10
-36.7529
 20
-73.4639
 11
-36.8096
 21
-73.3516
  0
LINE
  8
0
 10
-36.8096
 20
-73.3516
 11
-36.8594
 21
-73.2363
  0
LINE
  8
0
 10
-36.8594
 20
-73.2363
 11
-36.9023
 21
-73.1182
  0
LINE
  8
0
 10
-36.9023
 20
-73.1182
 11
-36.9375
 21
-72.9971
  0
LINE
  8
0
 10
-36.9375
 20
-72.9971
 11
-36.9648
 21
-72.875
  0
LINE
  8
0
 10
-36.9648
 20
-72.875
 11
-36.9844
 21
-72.751
  0
LINE
  8
0
 10
-36.9844
 20
-72.751
 11
-36.9961
 21
-72.626
  0
LINE
  8
0
 10
-36.9961
 20
-72.626
 11
-37
 21
-72.5
  0
LINE
  8
0
 10
-37
 20
-72.5
 11
-36.9961
 21
-72.374
  0
LINE
  8
0
 10
-36.9961
 20
-72.374
 11
-36.9844
 21
-72.249
  0
LINE
  8
0
 10
-36.9844
 20
-72.249
 11
-36.9648
 21
-72.125
  0
LINE
  8
0
 10
-36.9648
 20
-72.125
 11
-36.9375
 21
-72.0029
  0
LINE
  8
0
 10
-36.9375
 20
-72.0029
 11
-36.9023
 21
-71.8818
  0
LINE
  8
0
 10
-36.9023
 20
-71.8818
 11
-36.8594
 21
-71.7637
  0
LINE
  8
0
 10
-36.8594
 20
-71.7637
 11
-36.8096
 21
-71.6484
  0
LINE
  8
0
 10
-36.8096
 20
-71.6484
 11
-36.7529
 21
-71.5361
  0
LINE
  8
0
 10
-36.7529
 20
-71.5361
 11
-36.6885
 21
-71.4287
  0
LINE
  8
0
 10
-36.6885
 20
-71.4287
 11
-36.6182
 21
-71.3242
  0
LINE
  8
0
 10
-36.6182
 20
-71.3242
 11
-36.541
 21
-71.2256
  0
LINE
  8
0
 10
-36.541
 20
-71.2256
 11
-36.458
 21
-71.1309
  0
LINE
  8
0
 10
-36.458
 20
-71.1309
 11
-36.3691
 21
-71.042
  0
LINE
  8
0
 10
-36.3691
 20
-71.042
 11
-36.2744
 21
-70.959
  0
LINE
  8
0
 10
-36.2744
 20
-70.959
 11
-36.1758
 21
-70.8818
  0
LINE
  8
0
 10
-36.1758
 20
-70.8818
 11
-36.0713
 21
-70.8115
  0
LINE
  8
0
 10
-36.0713
 20
-70.8115
 11
-35.9639
 21
-70.7471
  0
LINE
  8
0
 10
-35.9639
 20
-70.7471
 11
-35.8516
 21
-70.6904
  0
LINE
  8
0
 10
-35.8516
 20
-70.6904
 11
-35.7363
 21
-70.6406
  0
LINE
  8
0
 10
-35.7363
 20
-70.6406
 11
-35.6182
 21
-70.5977
  0
LINE
  8
0
 10
-35.6182
 20
-70.5977
 11
-35.4971
 21
-70.5625
  0
LINE
  8
0
 10
-35.4971
 20
-70.5625
 11
-35.375
 21
-70.5352
  0
LINE
  8
0
 10
-35.375
 20
-70.5352
 11
-35.251
 21
-70.5156
  0
LINE
  8
0
 10
-35.251
 20
-70.5156
 11
-35.126
 21
-70.5039
  0
LINE
  8
0
 10
-35.126
 20
-70.5039
 11
-35
 21
-70.5
  0
LINE
  8
0
 10
-35
 20
-70.5
 11
-34.874
 21
-70.5039
  0
LINE
  8
0
 10
-34.874
 20
-70.5039
 11
-34.749
 21
-70.5156
  0
LINE
  8
0
 10
-34.749
 20
-70.5156
 11
-34.625
 21
-70.5352
  0
LINE
  8
0
 10
-34.625
 20
-70.5352
 11
-34.5029
 21
-70.5625
  0
LINE
  8
0
 10
-34.5029
 20
-70.5625
 11
-34.3818
 21
-70.5977
  0
LINE
  8
0
 10
-34.3818
 20
-70.5977
 11
-34.2637
 21
-70.6406
  0
LINE
  8
0
 10
-34.2637
 20
-70.6406
 11
-34.1484
 21
-70.6904
  0
LINE
  8
0
 10
-34.1484
 20
-70.6904
 11
-34.0361
 21
-70.7471
  0
LINE
  8
0
 10
-34.0361
 20
-70.7471
 11
-33.9287
 21
-70.8115
  0
LINE
  8
0
 10
-33.9287
 20
-70.8115
 11
-33.8242
 21
-70.8818
  0
LINE
  8
0
 10
-33.8242
 20
-70.8818
 11
-33.7256
 21
-70.959
  0
LINE
  8
0
 10
-33.7256
 20
-70.959
 11
-33.6309
 21
-71.042
  0
LINE
  8
0
 10
-33.6309
 20
-71.042
 11
-33.542
 21
-71.1309
  0
LINE
  8
0
 10
-33.542
 20
-71.1309
 11
-33.459
 21
-71.2256
  0
LINE
  8
0
 10
-33.459
 20
-71.2256
 11
-33.3818
 21
-71.3242
  0
LINE
  8
0
 10
-33.3818
 20
-71.3242
 11
-33.3115
 21
-71.4287
  0
LINE
  8
0
 10
-33.3115
 20
-71.4287
 11
-33.2471
 21
-71.5361
  0
LINE
  8
0
 10
-33.2471
 20
-71.5361
 11
-33.1904
 21
-71.6484
  0
LINE
  8
0
 10
-33.1904
 20
-71.6484
 11
-33.1406
 21
-71.7637
  0
LINE
  8
0
 10
-33.1406
 20
-71.7637
 11
-33.0977
 21
-71.8818
  0
LINE
  8
0
 10
-33.0977
 20
-71.8818
 11
-33.0625
 21
-72.0029
  0
LINE
  8
0
 10
-33.0625
 20
-72.0029
 11
-33.0352
 21
-72.125
  0
LINE
  8
0
 10
-33.0352
 20
-72.125
 11
-33.0156
 21
-72.249
  0
LINE
  8
0
 10
-33.0156
 20
-72.249
 11
-33.0039
 21
-72.374
  0
LINE
  8
0
 10
-33.0039
 20
-72.374
 11
-33
 21
-72.5
  0
LINE
  8
0
 10
-33
 20
-72.5
 11
-33.0039
 21
-72.626
  0
LINE
  8
0
 10
-33.0039
 20
-72.626
 11
-33.0156
 21
-72.751
  0
LINE
  8
0
 10
-33.0156
 20
-72.751
 11
-33.0352
 21
-72.875
  0
LINE
  8
0
 10
-33.0352
 20
-72.875
 11
-33.0625
 21
-72.9971
  0
LINE
  8
0
 10
-33.0625
 20
-72.9971
 11
-33.0977
 21
-73.1182
  0
LINE
  8
0
 10
-33.0977
 20
-73.1182
 11
-33.1406
 21
-73.2363
  0
LINE
  8
0
 10
-33.1406
 20
-73.2363
 11
-33.1904
 21
-73.3516
  0
LINE
  8
0
 10
-33.1904
 20
-73.3516
 11
-33.2471
 21
-73.4639
  0
LINE
  8
0
 10
-33.2471
 20
-73.4639
 11
-33.3115
 21
-73.5713
  0
LINE
  8
0
 10
-33.3115
 20
-73.5713
 11
-33.3818
 21
-73.6758
  0
LINE
  8
0
 10
-33.3818
 20
-73.6758
 11
-33.459
 21
-73.7744
  0
LINE
  8
0
 10
-33.459
 20
-73.7744
 11
-33.542
 21
-73.8691
  0
LINE
  8
0
 10
-33.542
 20
-73.8691
 11
-33.6309
 21
-73.958
  0
LINE
  8
0
 10
-33.6309
 20
-73.958
 11
-33.7256
 21
-74.041
  0
LINE
  8
0
 10
-33.7256
 20
-74.041
 11
-33.8242
 21
-74.1182
  0
LINE
  8
0
 10
-33.8242
 20
-74.1182
 11
-33.9287
 21
-74.1885
  0
LINE
  8
0
 10
-33.9287
 20
-74.1885
 11
-34.0361
 21
-74.2529
  0
LINE
  8
0
 10
-34.0361
 20
-74.2529
 11
-34.1484
 21
-74.3096
  0
LINE
  8
0
 10
-34.1484
 20
-74.3096
 11
-34.2637
 21
-74.3594
  0
LINE
  8
0
 10
-34.2637
 20
-74.3594
 11
-34.3818
 21
-74.4023
  0
LINE
  8
0
 10
-34.3818
 20
-74.4023
 11
-34.5029
 21
-74.4375
  0
LINE
  8
0
 10
-34.5029
 20
-74.4375
 11
-34.625
 21
-74.4648
  0
LINE
  8
0
 10
-34.625
 20
-74.4648
 11
-34.749
 21
-74.4844
  0
LINE
  8
0
 10
-34.749
 20
-74.4844
 11
-34.874
 21
-74.4961
  0
LINE
  8
0
 10
-34.874
 20
-74.4961
 11
-35
 21
-74.5
  0
LINE
  8
0
 10
-35
 20
-74.5
 11
-35.126
 21
-74.4961
  0
LINE
  8
0
 10
43
 20
-127.5
 11
40
 21
-127.5
  0
LINE
  8
0
 10
40
 20
-127.5
 11
40
 21
-117.5
  0
LINE
  8
0
 10
40
 20
-117.5
 11
43
 21
-117.5
  0
LINE
  8
0
 10
43
 20
-117.5
 11
43
 21
-104.5
  0
LINE
  8
0
 10
43
 20
-104.5
 11
40
 21
-104.5
  0
LINE
  8
0
 10
40
 20
-104.5
 11
40
 21
-94.5
  0
LINE
  8
0
 10
40
 20
-94.5
 11
43
 21
-94.5
  0
LINE
  8
0
 10
43
 20
-94.5
 11
43
 21
-86.5
  0
LINE
  8
0
 10
43
 20
-86.5
 11
-43
 21
-86.5
  0
LINE
  8
0
 10
-43
 20
-86.5
 11
-43
 21
-94.5
  0
LINE
  8
0
 10
-43
 20
-94.5
 11
-40
 21
-94.5
  0
LINE
  8
0
 10
-40
 20
-94.5
 11
-40
 21
-104.5
  0
LINE
  8
0
 10
-40
 20
-104.5
 11
-43
 21
-104.5
  0
LINE
  8
0
 10
-43
 20
-104.5
 11
-43
 21
-117.5
  0
LINE
  8
0
 10
-43
 20
-117.5
 11
-40
 21
-117.5
  0
LINE
  8
0
 10
-40
 20
-117.5
 11
-40
 21
-127.5
  0
LINE
  8
0
 10
-40
 20
-127.5
 11
-43
 21
-127.5
  0
LINE
  8
0
 10
-43
 20
-127.5
 11
-43
 21
-135.5
  0
LINE
  8
0
 10
-43
 20
-135.5
 11
43
 21
-135.5
  0
LINE
  8
0
 10
43
 20
-135.5
 11
43
 21
-127.5
  0
LINE
  8
0
 10
-26.126
 20
-93.5
 11
-26.126
 21
-90.5488
  0
LINE
  8
0
 10
-26.126
 20
-90.5488
 11
-25
 21
-90.5488
  0
LINE
  8
0
 10
-25
 20
-90.5488
 11
-25
 21
-93.5
  0
LINE
  8
0
 10
-25
 20
-93.5
 11
-26.126
 21
-93.5
  0
LINE
  8
0
 10
-24.373
 20
-93.4561
 11
-23.8604
 21
-90.5498
  0
LINE
  8
0
 10
-23.8604
 20
-90.5498
 11
-22.751
 21
-90.7461
  0
LINE
  8
0
 10
-22.751
 20
-90.7461
 11
-23.2637
 21
-93.6523
  0
LINE
  8
0
 10
-23.2637
 20
-93.6523
 11
-24.373
 21
-93.4561
  0
LINE
  8
0
 10
-28.3584
 20
-90.9414
 11
-27.249
 21
-90.7461
  0
LINE
  8
0
 10
-27.249
 20
-90.7461
 11
-26.7363
 21
-93.6523
  0
LINE
  8
0
 10
-26.7363
 20
-93.6523
 11
-27.8457
 21
-93.8477
  0
LINE
  8
0
 10
-27.8457
 20
-93.8477
 11
-28.3584
 21
-90.9414
  0
LINE
  8
0
 10
-22.6377
 20
-93.7178
 11
-21.6289
 21
-90.9443
  0
LINE
  8
0
 10
-21.6289
 20
-90.9443
 11
-20.5703
 21
-91.3301
  0
LINE
  8
0
 10
-20.5703
 20
-91.3301
 11
-21.5801
 21
-94.1035
  0
LINE
  8
0
 10
-21.5801
 20
-94.1035
 11
-22.6377
 21
-93.7178
  0
LINE
  8
0
 10
-30.4883
 20
-91.7148
 11
-29.4297
 21
-91.3301
  0
LINE
  8
0
 10
-29.4297
 20
-91.3301
 11
-28.4199
 21
-94.1035
  0
LINE
  8
0
 10
-28.4199
 20
-94.1035
 11
-29.4785
 21
-94.4883
  0
LINE
  8
0
 10
-29.4785
 20
-94.4883
 11
-30.4883
 21
-91.7148
  0
LINE
  8
0
 10
-20.9756
 20
-94.2764
 11
-19.5
 21
-91.7207
  0
LINE
  8
0
 10
-19.5
 20
-91.7207
 11
-18.5244
 21
-92.2842
  0
LINE
  8
0
 10
-18.5244
 20
-92.2842
 11
-20
 21
-94.8398
  0
LINE
  8
0
 10
-20
 20
-94.8398
 11
-20.9756
 21
-94.2764
  0
LINE
  8
0
 10
9.78223
 20
-93.9873
 11
9.51074
 21
-93.957
  0
LINE
  8
0
 10
9.51074
 20
-93.957
 11
9.34766
 21
-93.8887
  0
LINE
  8
0
 10
9.34766
 20
-93.8887
 11
9.21387
 21
-93.7383
  0
LINE
  8
0
 10
9.21387
 20
-93.7383
 11
9.15918
 21
-93.501
  0
LINE
  8
0
 10
9.15918
 20
-93.501
 11
9.44531
 21
-93.0674
  0
LINE
  8
0
 10
9.44531
 20
-93.0674
 11
9.06445
 21
-92.5859
  0
LINE
  8
0
 10
9.06445
 20
-92.5859
 11
9.12012
 21
-92.3232
  0
LINE
  8
0
 10
9.12012
 20
-92.3232
 11
9.2627
 21
-92.1348
  0
LINE
  8
0
 10
9.2627
 20
-92.1348
 11
9.45801
 21
-92.0303
  0
LINE
  8
0
 10
9.45801
 20
-92.0303
 11
9.74023
 21
-91.9873
  0
LINE
  8
0
 10
9.74023
 20
-91.9873
 11
10.5889
 21
-91.9873
  0
LINE
  8
0
 10
10.5889
 20
-91.9873
 11
10.5889
 21
-93.9873
  0
LINE
  8
0
 10
10.5889
 20
-93.9873
 11
9.78223
 21
-93.9873
  0
LINE
  8
0
 10
10.3164
 20
-92.2295
 11
9.76562
 21
-92.2295
  0
LINE
  8
0
 10
9.76562
 20
-92.2295
 11
9.58008
 21
-92.2539
  0
LINE
  8
0
 10
9.58008
 20
-92.2539
 11
9.46484
 21
-92.3096
  0
LINE
  8
0
 10
9.46484
 20
-92.3096
 11
9.37793
 21
-92.4189
  0
LINE
  8
0
 10
9.37793
 20
-92.4189
 11
9.34277
 21
-92.5889
  0
LINE
  8
0
 10
9.34277
 20
-92.5889
 11
9.38379
 21
-92.7598
  0
LINE
  8
0
 10
9.38379
 20
-92.7598
 11
9.48145
 21
-92.8623
  0
LINE
  8
0
 10
9.48145
 20
-92.8623
 11
9.5957
 21
-92.9053
  0
LINE
  8
0
 10
9.5957
 20
-92.9053
 11
9.7959
 21
-92.9248
  0
LINE
  8
0
 10
9.7959
 20
-92.9248
 11
10.3164
 21
-92.9248
  0
LINE
  8
0
 10
10.3164
 20
-92.9248
 11
10.3164
 21
-92.2295
  0
LINE
  8
0
 10
10.3164
 20
-93.1475
 11
9.84082
 21
-93.1475
  0
LINE
  8
0
 10
9.84082
 20
-93.1475
 11
9.6582
 21
-93.166
  0
LINE
  8
0
 10
9.6582
 20
-93.166
 11
9.55469
 21
-93.208
  0
LINE
  8
0
 10
9.55469
 20
-93.208
 11
9.46777
 21
-93.3027
  0
LINE
  8
0
 10
9.46777
 20
-93.3027
 11
9.43164
 21
-93.4619
  0
LINE
  8
0
 10
9.43164
 20
-93.4619
 11
9.46582
 21
-93.6104
  0
LINE
  8
0
 10
9.46582
 20
-93.6104
 11
9.54785
 21
-93.7012
  0
LINE
  8
0
 10
9.54785
 20
-93.7012
 11
9.64746
 21
-93.7412
  0
LINE
  8
0
 10
9.64746
 20
-93.7412
 11
9.81836
 21
-93.7598
  0
LINE
  8
0
 10
9.81836
 20
-93.7598
 11
10.3164
 21
-93.7598
  0
LINE
  8
0
 10
10.3164
 20
-93.7598
 11
10.3164
 21
-93.1475
  0
LINE
  8
0
 10
22.957
 20
-94
 11
22.2109
 21
-92
  0
LINE
  8
0
 10
22.2109
 20
-92
 11
22.5059
 21
-92
  0
LINE
  8
0
 10
22.5059
 20
-92
 11
22.7178
 21
-92.5977
  0
LINE
  8
0
 10
22.7178
 20
-92.5977
 11
23.5049
 21
-92.5977
  0
LINE
  8
0
 10
23.5049
 20
-92.5977
 11
23.7188
 21
-92
  0
LINE
  8
0
 10
23.7188
 20
-92
 11
24
 21
-92
  0
LINE
  8
0
 10
24
 20
-92
 11
23.2568
 21
-94
  0
LINE
  8
0
 10
23.2568
 20
-94
 11
22.957
 21
-94
  0
LINE
  8
0
 10
23.4209
 20
-92.832
 11
22.7979
 21
-92.832
  0
LINE
  8
0
 10
22.7979
 20
-92.832
 11
23.1064
 21
-93.7139
  0
LINE
  8
0
 10
23.1064
 20
-93.7139
 11
23.4209
 21
-92.832
  0
LINE
  8
0
 10
-32.4512
 20
-92.8467
 11
-31.4756
 21
-92.2842
  0
LINE
  8
0
 10
-31.4756
 20
-92.2842
 11
-30
 21
-94.8398
  0
LINE
  8
0
 10
-30
 20
-94.8398
 11
-30.9756
 21
-95.4033
  0
LINE
  8
0
 10
-30.9756
 20
-95.4033
 11
-32.4512
 21
-92.8467
  0
LINE
  8
0
 10
-19.4346
 20
-95.1152
 11
-17.5381
 21
-92.8545
  0
LINE
  8
0
 10
-17.5381
 20
-92.8545
 11
-16.6748
 21
-93.5791
  0
LINE
  8
0
 10
-16.6748
 20
-93.5791
 11
-18.5723
 21
-95.8398
  0
LINE
  8
0
 10
-18.5723
 20
-95.8398
 11
-19.4346
 21
-95.1152
  0
LINE
  8
0
 10
-34.1875
 20
-94.3027
 11
-33.3252
 21
-93.5791
  0
LINE
  8
0
 10
-33.3252
 20
-93.5791
 11
-31.4277
 21
-95.8398
  0
LINE
  8
0
 10
-31.4277
 20
-95.8398
 11
-32.291
 21
-96.5635
  0
LINE
  8
0
 10
-32.291
 20
-96.5635
 11
-34.1875
 21
-94.3027
  0
LINE
  8
0
 10
-18.0635
 20
-96.209
 11
-15.8027
 21
-94.3125
  0
LINE
  8
0
 10
-15.8027
 20
-94.3125
 11
-15.0791
 21
-95.1748
  0
LINE
  8
0
 10
-15.0791
 20
-95.1748
 11
-17.3398
 21
-97.0723
  0
LINE
  8
0
 10
-17.3398
 20
-97.0723
 11
-18.0635
 21
-96.209
  0
LINE
  8
0
 10
-35.6455
 20
-96.0381
 11
-34.9209
 21
-95.1748
  0
LINE
  8
0
 10
-34.9209
 20
-95.1748
 11
-32.6602
 21
-97.0723
  0
LINE
  8
0
 10
-32.6602
 20
-97.0723
 11
-33.3848
 21
-97.9346
  0
LINE
  8
0
 10
-33.3848
 20
-97.9346
 11
-35.6455
 21
-96.0381
  0
LINE
  8
0
 10
22.749
 20
-103.492
 11
22.499
 21
-103.469
  0
LINE
  8
0
 10
22.499
 20
-103.469
 11
22.25
 21
-103.429
  0
LINE
  8
0
 10
22.25
 20
-103.429
 11
22.0049
 21
-103.374
  0
LINE
  8
0
 10
22.0049
 20
-103.374
 11
21.7637
 21
-103.305
  0
LINE
  8
0
 10
21.7637
 20
-103.305
 11
21.5273
 21
-103.219
  0
LINE
  8
0
 10
21.5273
 20
-103.219
 11
21.2969
 21
-103.119
  0
LINE
  8
0
 10
21.2969
 20
-103.119
 11
21.0732
 21
-103.005
  0
LINE
  8
0
 10
21.0732
 20
-103.005
 11
20.8564
 21
-102.877
  0
LINE
  8
0
 10
20.8564
 20
-102.877
 11
20.6484
 21
-102.736
  0
LINE
  8
0
 10
20.6484
 20
-102.736
 11
20.4502
 21
-102.582
  0
LINE
  8
0
 10
20.4502
 20
-102.582
 11
20.2617
 21
-102.416
  0
LINE
  8
0
 10
20.2617
 20
-102.416
 11
20.084
 21
-102.238
  0
LINE
  8
0
 10
20.084
 20
-102.238
 11
19.918
 21
-102.05
  0
LINE
  8
0
 10
19.918
 20
-102.05
 11
19.7637
 21
-101.852
  0
LINE
  8
0
 10
19.7637
 20
-101.852
 11
19.623
 21
-101.644
  0
LINE
  8
0
 10
19.623
 20
-101.644
 11
19.4951
 21
-101.427
  0
LINE
  8
0
 10
19.4951
 20
-101.427
 11
19.3809
 21
-101.203
  0
LINE
  8
0
 10
19.3809
 20
-101.203
 11
19.2812
 21
-100.973
  0
LINE
  8
0
 10
19.2812
 20
-100.973
 11
19.1953
 21
-100.736
  0
LINE
  8
0
 10
19.1953
 20
-100.736
 11
19.126
 21
-100.495
  0
LINE
  8
0
 10
19.126
 20
-100.495
 11
19.0713
 21
-100.25
  0
LINE
  8
0
 10
19.0713
 20
-100.25
 11
19.0312
 21
-100.001
  0
LINE
  8
0
 10
19.0312
 20
-100.001
 11
19.0078
 21
-99.751
  0
LINE
  8
0
 10
19.0078
 20
-99.751
 11
19
 21
-99.5
  0
LINE
  8
0
 10
19
 20
-99.5
 11
19.0078
 21
-99.249
  0
LINE
  8
0
 10
19.0078
 20
-99.249
 11
19.0312
 21
-98.999
  0
LINE
  8
0
 10
19.0312
 20
-98.999
 11
19.0713
 21
-98.75
  0
LINE
  8
0
 10
19.0713
 20
-98.75
 11
19.126
 21
-98.5049
  0
LINE
  8
0
 10
19.126
 20
-98.5049
 11
19.1953
 21
-98.2637
  0
LINE
  8
0
 10
19.1953
 20
-98.2637
 11
19.2812
 21
-98.0273
  0
LINE
  8
0
 10
19.2812
 20
-98.0273
 11
19.3809
 21
-97.7969
  0
LINE
  8
0
 10
19.3809
 20
-97.7969
 11
19.4951
 21
-97.5732
  0
LINE
  8
0
 10
19.4951
 20
-97.5732
 11
19.623
 21
-97.3564
  0
LINE
  8
0
 10
19.623
 20
-97.3564
 11
19.7637
 21
-97.1484
  0
LINE
  8
0
 10
19.7637
 20
-97.1484
 11
19.918
 21
-96.9502
  0
LINE
  8
0
 10
19.918
 20
-96.9502
 11
20.084
 21
-96.7617
  0
LINE
  8
0
 10
20.084
 20
-96.7617
 11
20.2617
 21
-96.584
  0
LINE
  8
0
 10
20.2617
 20
-96.584
 11
20.4502
 21
-96.418
  0
LINE
  8
0
 10
20.4502
 20
-96.418
 11
20.6484
 21
-96.2637
  0
LINE
  8
0
 10
20.6484
 20
-96.2637
 11
20.8564
 21
-96.123
  0
LINE
  8
0
 10
20.8564
 20
-96.123
 11
21.0732
 21
-95.9951
  0
LINE
  8
0
 10
21.0732
 20
-95.9951
 11
21.2969
 21
-95.8809
  0
LINE
  8
0
 10
21.2969
 20
-95.8809
 11
21.5273
 21
-95.7812
  0
LINE
  8
0
 10
21.5273
 20
-95.7812
 11
21.7637
 21
-95.6953
  0
LINE
  8
0
 10
21.7637
 20
-95.6953
 11
22.0049
 21
-95.626
  0
LINE
  8
0
 10
22.0049
 20
-95.626
 11
22.25
 21
-95.5713
  0
LINE
  8
0
 10
22.25
 20
-95.5713
 11
22.499
 21
-95.5312
  0
LINE
  8
0
 10
22.499
 20
-95.5312
 11
22.749
 21
-95.5078
  0
LINE
  8
0
 10
22.749
 20
-95.5078
 11
23
 21
-95.5
  0
LINE
  8
0
 10
23
 20
-95.5
 11
23.251
 21
-95.5078
  0
LINE
  8
0
 10
23.251
 20
-95.5078
 11
23.501
 21
-95.5312
  0
LINE
  8
0
 10
23.501
 20
-95.5312
 11
23.75
 21
-95.5713
  0
LINE
  8
0
 10
23.75
 20
-95.5713
 11
23.9951
 21
-95.626
  0
LINE
  8
0
 10
23.9951
 20
-95.626
 11
24.2363
 21
-95.6953
  0
LINE
  8
0
 10
24.2363
 20
-95.6953
 11
24.4727
 21
-95.7812
  0
LINE
  8
0
 10
24.4727
 20
-95.7812
 11
24.7031
 21
-95.8809
  0
LINE
  8
0
 10
24.7031
 20
-95.8809
 11
24.9268
 21
-95.9951
  0
LINE
  8
0
 10
24.9268
 20
-95.9951
 11
25.1436
 21
-96.123
  0
LINE
  8
0
 10
25.1436
 20
-96.123
 11
25.3516
 21
-96.2637
  0
LINE
  8
0
 10
25.3516
 20
-96.2637
 11
25.5498
 21
-96.418
  0
LINE
  8
0
 10
25.5498
 20
-96.418
 11
25.7383
 21
-96.584
  0
LINE
  8
0
 10
25.7383
 20
-96.584
 11
25.916
 21
-96.7617
  0
LINE
  8
0
 10
25.916
 20
-96.7617
 11
26.082
 21
-96.9502
  0
LINE
  8
0
 10
26.082
 20
-96.9502
 11
26.2363
 21
-97.1484
  0
LINE
  8
0
 10
26.2363
 20
-97.1484
 11
26.377
 21
-97.3564
  0
LINE
  8
0
 10
26.377
 20
-97.3564
 11
26.5049
 21
-97.5732
  0
LINE
  8
0
 10
26.5049
 20
-97.5732
 11
26.6191
 21
-97.7969
  0
LINE
  8
0
 10
26.6191
 20
-97.7969
 11
26.7188
 21
-98.0273
  0
LINE
  8
0
 10
26.7188
 20
-98.0273
 11
26.8047
 21
-98.2637
  0
LINE
  8
0
 10
26.8047
 20
-98.2637
 11
26.874
 21
-98.5049
  0
LINE
  8
0
 10
26.874
 20
-98.5049
 11
26.9287
 21
-98.75
  0
LINE
  8
0
 10
26.9287
 20
-98.75
 11
26.9688
 21
-98.999
  0
LINE
  8
0
 10
26.9688
 20
-98.999
 11
26.9922
 21
-99.249
  0
LINE
  8
0
 10
26.9922
 20
-99.249
 11
27
 21
-99.5
  0
LINE
  8
0
 10
27
 20
-99.5
 11
26.9922
 21
-99.751
  0
LINE
  8
0
 10
26.9922
 20
-99.751
 11
26.9688
 21
-100.001
  0
LINE
  8
0
 10
26.9688
 20
-100.001
 11
26.9287
 21
-100.25
  0
LINE
  8
0
 10
26.9287
 20
-100.25
 11
26.874
 21
-100.495
  0
LINE
  8
0
 10
26.874
 20
-100.495
 11
26.8047
 21
-100.736
  0
LINE
  8
0
 10
26.8047
 20
-100.736
 11
26.7188
 21
-100.973
  0
LINE
  8
0
 10
26.7188
 20
-100.973
 11
26.6191
 21
-101.203
  0
LINE
  8
0
 10
26.6191
 20
-101.203
 11
26.5049
 21
-101.427
  0
LINE
  8
0
 10
26.5049
 20
-101.427
 11
26.377
 21
-101.644
  0
LINE
  8
0
 10
26.377
 20
-101.644
 11
26.2363
 21
-101.852
  0
LINE
  8
0
 10
26.2363
 20
-101.852
 11
26.082
 21
-102.05
  0
LINE
  8
0
 10
26.082
 20
-102.05
 11
25.916
 21
-102.238
  0
LINE
  8
0
 10
25.916
 20
-102.238
 11
25.7383
 21
-102.416
  0
LINE
  8
0
 10
25.7383
 20
-102.416
 11
25.5498
 21
-102.582
  0
LINE
  8
0
 10
25.5498
 20
-102.582
 11
25.3516
 21
-102.736
  0
LINE
  8
0
 10
25.3516
 20
-102.736
 11
25.1436
 21
-102.877
  0
LINE
  8
0
 10
25.1436
 20
-102.877
 11
24.9268
 21
-103.005
  0
LINE
  8
0
 10
24.9268
 20
-103.005
 11
24.7031
 21
-103.119
  0
LINE
  8
0
 10
24.7031
 20
-103.119
 11
24.4727
 21
-103.219
  0
LINE
  8
0
 10
24.4727
 20
-103.219
 11
24.2363
 21
-103.305
  0
LINE
  8
0
 10
24.2363
 20
-103.305
 11
23.9951
 21
-103.374
  0
LINE
  8
0
 10
23.9951
 20
-103.374
 11
23.75
 21
-103.429
  0
LINE
  8
0
 10
23.75
 20
-103.429
 11
23.501
 21
-103.469
  0
LINE
  8
0
 10
23.501
 20
-103.469
 11
23.251
 21
-103.492
  0
LINE
  8
0
 10
23.251
 20
-103.492
 11
23
 21
-103.5
  0
LINE
  8
0
 10
23
 20
-103.5
 11
22.749
 21
-103.492
  0
LINE
  8
0
 10
9.74902
 20
-103.492
 11
9.49902
 21
-103.469
  0
LINE
  8
0
 10
9.49902
 20
-103.469
 11
9.25
 21
-103.429
  0
LINE
  8
0
 10
9.25
 20
-103.429
 11
9.00488
 21
-103.374
  0
LINE
  8
0
 10
9.00488
 20
-103.374
 11
8.76367
 21
-103.305
  0
LINE
  8
0
 10
8.76367
 20
-103.305
 11
8.52734
 21
-103.219
  0
LINE
  8
0
 10
8.52734
 20
-103.219
 11
8.29688
 21
-103.119
  0
LINE
  8
0
 10
8.29688
 20
-103.119
 11
8.07324
 21
-103.005
  0
LINE
  8
0
 10
8.07324
 20
-103.005
 11
7.85645
 21
-102.877
  0
LINE
  8
0
 10
7.85645
 20
-102.877
 11
7.64844
 21
-102.736
  0
LINE
  8
0
 10
7.64844
 20
-102.736
 11
7.4502
 21
-102.582
  0
LINE
  8
0
 10
7.4502
 20
-102.582
 11
7.26172
 21
-102.416
  0
LINE
  8
0
 10
7.26172
 20
-102.416
 11
7.08398
 21
-102.238
  0
LINE
  8
0
 10
7.08398
 20
-102.238
 11
6.91797
 21
-102.05
  0
LINE
  8
0
 10
6.91797
 20
-102.05
 11
6.76367
 21
-101.852
  0
LINE
  8
0
 10
6.76367
 20
-101.852
 11
6.62305
 21
-101.644
  0
LINE
  8
0
 10
6.62305
 20
-101.644
 11
6.49512
 21
-101.427
  0
LINE
  8
0
 10
6.49512
 20
-101.427
 11
6.38086
 21
-101.203
  0
LINE
  8
0
 10
6.38086
 20
-101.203
 11
6.28125
 21
-100.973
  0
LINE
  8
0
 10
6.28125
 20
-100.973
 11
6.19531
 21
-100.736
  0
LINE
  8
0
 10
6.19531
 20
-100.736
 11
6.12598
 21
-100.495
  0
LINE
  8
0
 10
6.12598
 20
-100.495
 11
6.07129
 21
-100.25
  0
LINE
  8
0
 10
6.07129
 20
-100.25
 11
6.03125
 21
-100.001
  0
LINE
  8
0
 10
6.03125
 20
-100.001
 11
6.00781
 21
-99.751
  0
LINE
  8
0
 10
6.00781
 20
-99.751
 11
6
 21
-99.5
  0
LINE
  8
0
 10
6
 20
-99.5
 11
6.00781
 21
-99.249
  0
LINE
  8
0
 10
6.00781
 20
-99.249
 11
6.03125
 21
-98.999
  0
LINE
  8
0
 10
6.03125
 20
-98.999
 11
6.07129
 21
-98.75
  0
LINE
  8
0
 10
6.07129
 20
-98.75
 11
6.12598
 21
-98.5049
  0
LINE
  8
0
 10
6.12598
 20
-98.5049
 11
6.19531
 21
-98.2637
  0
LINE
  8
0
 10
6.19531
 20
-98.2637
 11
6.28125
 21
-98.0273
  0
LINE
  8
0
 10
6.28125
 20
-98.0273
 11
6.38086
 21
-97.7969
  0
LINE
  8
0
 10
6.38086
 20
-97.7969
 11
6.49512
 21
-97.5732
  0
LINE
  8
0
 10
6.49512
 20
-97.5732
 11
6.62305
 21
-97.3564
  0
LINE
  8
0
 10
6.62305
 20
-97.3564
 11
6.76367
 21
-97.1484
  0
LINE
  8
0
 10
6.76367
 20
-97.1484
 11
6.91797
 21
-96.9502
  0
LINE
  8
0
 10
6.91797
 20
-96.9502
 11
7.08398
 21
-96.7617
  0
LINE
  8
0
 10
7.08398
 20
-96.7617
 11
7.26172
 21
-96.584
  0
LINE
  8
0
 10
7.26172
 20
-96.584
 11
7.4502
 21
-96.418
  0
LINE
  8
0
 10
7.4502
 20
-96.418
 11
7.64844
 21
-96.2637
  0
LINE
  8
0
 10
7.64844
 20
-96.2637
 11
7.85645
 21
-96.123
  0
LINE
  8
0
 10
7.85645
 20
-96.123
 11
8.07324
 21
-95.9951
  0
LINE
  8
0
 10
8.07324
 20
-95.9951
 11
8.29688
 21
-95.8809
  0
LINE
  8
0
 10
8.29688
 20
-95.8809
 11
8.52734
 21
-95.7812
  0
LINE
  8
0
 10
8.52734
 20
-95.7812
 11
8.76367
 21
-95.6953
  0
LINE
  8
0
 10
8.76367
 20
-95.6953
 11
9.00488
 21
-95.626
  0
LINE
  8
0
 10
9.00488
 20
-95.626
 11
9.25
 21
-95.5713
  0
LINE
  8
0
 10
9.25
 20
-95.5713
 11
9.49902
 21
-95.5312
  0
LINE
  8
0
 10
9.49902
 20
-95.5312
 11
9.74902
 21
-95.5078
  0
LINE
  8
0
 10
9.74902
 20
-95.5078
 11
10
 21
-95.5
  0
LINE
  8
0
 10
10
 20
-95.5
 11
10.251
 21
-95.5078
  0
LINE
  8
0
 10
10.251
 20
-95.5078
 11
10.501
 21
-95.5312
  0
LINE
  8
0
 10
10.501
 20
-95.5312
 11
10.75
 21
-95.5713
  0
LINE
  8
0
 10
10.75
 20
-95.5713
 11
10.9951
 21
-95.626
  0
LINE
  8
0
 10
10.9951
 20
-95.626
 11
11.2363
 21
-95.6953
  0
LINE
  8
0
 10
11.2363
 20
-95.6953
 11
11.4727
 21
-95.7812
  0
LINE
  8
0
 10
11.4727
 20
-95.7812
 11
11.7031
 21
-95.8809
  0
LINE
  8
0
 10
11.7031
 20
-95.8809
 11
11.9268
 21
-95.9951
  0
LINE
  8
0
 10
11.9268
 20
-95.9951
 11
12.1436
 21
-96.123
  0
LINE
  8
0
 10
12.1436
 20
-96.123
 11
12.3516
 21
-96.2637
  0
LINE
  8
0
 10
12.3516
 20
-96.2637
 11
12.5498
 21
-96.418
  0
LINE
  8
0
 10
12.5498
 20
-96.418
 11
12.7383
 21
-96.584
  0
LINE
  8
0
 10
12.7383
 20
-96.584
 11
12.916
 21
-96.7617
  0
LINE
  8
0
 10
12.916
 20
-96.7617
 11
13.082
 21
-96.9502
  0
LINE
  8
0
 10
13.082
 20
-96.9502
 11
13.2363
 21
-97.1484
  0
LINE
  8
0
 10
13.2363
 20
-97.1484
 11
13.377
 21
-97.3564
  0
LINE
  8
0
 10
13.377
 20
-97.3564
 11
13.5049
 21
-97.5732
  0
LINE
  8
0
 10
13.5049
 20
-97.5732
 11
13.6191
 21
-97.7969
  0
LINE
  8
0
 10
13.6191
 20
-97.7969
 11
13.7188
 21
-98.0273
  0
LINE
  8
0
 10
13.7188
 20
-98.0273
 11
13.8047
 21
-98.2637
  0
LINE
  8
0
 10
13.8047
 20
-98.2637
 11
13.874
 21
-98.5049
  0
LINE
  8
0
 10
13.874
 20
-98.5049
 11
13.9287
 21
-98.75
  0
LINE
  8
0
 10
13.9287
 20
-98.75
 11
13.9688
 21
-98.999
  0
LINE
  8
0
 10
13.9688
 20
-98.999
 11
13.9922
 21
-99.249
  0
LINE
  8
0
 10
13.9922
 20
-99.249
 11
14
 21
-99.5
  0
LINE
  8
0
 10
14
 20
-99.5
 11
13.9922
 21
-99.751
  0
LINE
  8
0
 10
13.9922
 20
-99.751
 11
13.9688
 21
-100.001
  0
LINE
  8
0
 10
13.9688
 20
-100.001
 11
13.9287
 21
-100.25
  0
LINE
  8
0
 10
13.9287
 20
-100.25
 11
13.874
 21
-100.495
  0
LINE
  8
0
 10
13.874
 20
-100.495
 11
13.8047
 21
-100.736
  0
LINE
  8
0
 10
13.8047
 20
-100.736
 11
13.7188
 21
-100.973
  0
LINE
  8
0
 10
13.7188
 20
-100.973
 11
13.6191
 21
-101.203
  0
LINE
  8
0
 10
13.6191
 20
-101.203
 11
13.5049
 21
-101.427
  0
LINE
  8
0
 10
13.5049
 20
-101.427
 11
13.377
 21
-101.644
  0
LINE
  8
0
 10
13.377
 20
-101.644
 11
13.2363
 21
-101.852
  0
LINE
  8
0
 10
13.2363
 20
-101.852
 11
13.082
 21
-102.05
  0
LINE
  8
0
 10
13.082
 20
-102.05
 11
12.916
 21
-102.238
  0
LINE
  8
0
 10
12.916
 20
-102.238
 11
12.7383
 21
-102.416
  0
LINE
  8
0
 10
12.7383
 20
-102.416
 11
12.5498
 21
-102.582
  0
LINE
  8
0
 10
12.5498
 20
-102.582
 11
12.3516
 21
-102.736
  0
LINE
  8
0
 10
12.3516
 20
-102.736
 11
12.1436
 21
-102.877
  0
LINE
  8
0
 10
12.1436
 20
-102.877
 11
11.9268
 21
-103.005
  0
LINE
  8
0
 10
11.9268
 20
-103.005
 11
11.7031
 21
-103.119
  0
LINE
  8
0
 10
11.7031
 20
-103.119
 11
11.4727
 21
-103.219
  0
LINE
  8
0
 10
11.4727
 20
-103.219
 11
11.2363
 21
-103.305
  0
LINE
  8
0
 10
11.2363
 20
-103.305
 11
10.9951
 21
-103.374
  0
LINE
  8
0
 10
10.9951
 20
-103.374
 11
10.75
 21
-103.429
  0
LINE
  8
0
 10
10.75
 20
-103.429
 11
10.501
 21
-103.469
  0
LINE
  8
0
 10
10.501
 20
-103.469
 11
10.251
 21
-103.492
  0
LINE
  8
0
 10
10.251
 20
-103.492
 11
10
 21
-103.5
  0
LINE
  8
0
 10
10
 20
-103.5
 11
9.74902
 21
-103.492
  0
LINE
  8
0
 10
-16.9033
 20
-97.5244
 11
-14.3467
 21
-96.0488
  0
LINE
  8
0
 10
-14.3467
 20
-96.0488
 11
-13.7842
 21
-97.0244
  0
LINE
  8
0
 10
-13.7842
 20
-97.0244
 11
-16.3398
 21
-98.5
  0
LINE
  8
0
 10
-16.3398
 20
-98.5
 11
-16.9033
 21
-97.5244
  0
LINE
  8
0
 10
-36.7793
 20
-98
 11
-36.2158
 21
-97.0244
  0
LINE
  8
0
 10
-36.2158
 20
-97.0244
 11
-33.6602
 21
-98.5
  0
LINE
  8
0
 10
-33.6602
 20
-98.5
 11
-34.2236
 21
-99.4756
  0
LINE
  8
0
 10
-34.2236
 20
-99.4756
 11
-36.7793
 21
-98
  0
LINE
  8
0
 10
-15.9883
 20
-99.0215
 11
-13.2148
 21
-98.0117
  0
LINE
  8
0
 10
-13.2148
 20
-98.0117
 11
-12.8301
 21
-99.0703
  0
LINE
  8
0
 10
-12.8301
 20
-99.0703
 11
-15.6035
 21
-100.08
  0
LINE
  8
0
 10
-15.6035
 20
-100.08
 11
-15.9883
 21
-99.0215
  0
LINE
  8
0
 10
-37.5557
 20
-100.129
 11
-37.1699
 21
-99.0703
  0
LINE
  8
0
 10
-37.1699
 20
-99.0703
 11
-34.3965
 21
-100.08
  0
LINE
  8
0
 10
-34.3965
 20
-100.08
 11
-34.7822
 21
-101.138
  0
LINE
  8
0
 10
-34.7822
 20
-101.138
 11
-37.5557
 21
-100.129
  0
LINE
  8
0
 10
-25.251
 20
-107.492
 11
-25.501
 21
-107.469
  0
LINE
  8
0
 10
-25.501
 20
-107.469
 11
-25.75
 21
-107.429
  0
LINE
  8
0
 10
-25.75
 20
-107.429
 11
-25.9951
 21
-107.374
  0
LINE
  8
0
 10
-25.9951
 20
-107.374
 11
-26.2363
 21
-107.305
  0
LINE
  8
0
 10
-26.2363
 20
-107.305
 11
-26.4727
 21
-107.219
  0
LINE
  8
0
 10
-26.4727
 20
-107.219
 11
-26.7031
 21
-107.119
  0
LINE
  8
0
 10
-26.7031
 20
-107.119
 11
-26.9268
 21
-107.005
  0
LINE
  8
0
 10
-26.9268
 20
-107.005
 11
-27.1436
 21
-106.877
  0
LINE
  8
0
 10
-27.1436
 20
-106.877
 11
-27.3516
 21
-106.736
  0
LINE
  8
0
 10
-27.3516
 20
-106.736
 11
-27.5498
 21
-106.582
  0
LINE
  8
0
 10
-27.5498
 20
-106.582
 11
-27.7383
 21
-106.416
  0
LINE
  8
0
 10
-27.7383
 20
-106.416
 11
-27.916
 21
-106.238
  0
LINE
  8
0
 10
-27.916
 20
-106.238
 11
-28.082
 21
-106.05
  0
LINE
  8
0
 10
-28.082
 20
-106.05
 11
-28.2363
 21
-105.852
  0
LINE
  8
0
 10
-28.2363
 20
-105.852
 11
-28.377
 21
-105.644
  0
LINE
  8
0
 10
-28.377
 20
-105.644
 11
-28.5049
 21
-105.427
  0
LINE
  8
0
 10
-28.5049
 20
-105.427
 11
-28.6191
 21
-105.203
  0
LINE
  8
0
 10
-28.6191
 20
-105.203
 11
-28.7188
 21
-104.973
  0
LINE
  8
0
 10
-28.7188
 20
-104.973
 11
-28.8047
 21
-104.736
  0
LINE
  8
0
 10
-28.8047
 20
-104.736
 11
-28.874
 21
-104.495
  0
LINE
  8
0
 10
-28.874
 20
-104.495
 11
-28.9287
 21
-104.25
  0
LINE
  8
0
 10
-28.9287
 20
-104.25
 11
-28.9688
 21
-104.001
  0
LINE
  8
0
 10
-28.9688
 20
-104.001
 11
-28.9922
 21
-103.751
  0
LINE
  8
0
 10
-28.9922
 20
-103.751
 11
-29
 21
-103.5
  0
LINE
  8
0
 10
-29
 20
-103.5
 11
-28.9922
 21
-103.249
  0
LINE
  8
0
 10
-28.9922
 20
-103.249
 11
-28.9688
 21
-102.999
  0
LINE
  8
0
 10
-28.9688
 20
-102.999
 11
-28.9287
 21
-102.75
  0
LINE
  8
0
 10
-28.9287
 20
-102.75
 11
-28.874
 21
-102.505
  0
LINE
  8
0
 10
-28.874
 20
-102.505
 11
-28.8047
 21
-102.264
  0
LINE
  8
0
 10
-28.8047
 20
-102.264
 11
-28.7188
 21
-102.027
  0
LINE
  8
0
 10
-28.7188
 20
-102.027
 11
-28.6191
 21
-101.797
  0
LINE
  8
0
 10
-28.6191
 20
-101.797
 11
-28.5049
 21
-101.573
  0
LINE
  8
0
 10
-28.5049
 20
-101.573
 11
-28.377
 21
-101.356
  0
LINE
  8
0
 10
-28.377
 20
-101.356
 11
-28.2363
 21
-101.148
  0
LINE
  8
0
 10
-28.2363
 20
-101.148
 11
-28.082
 21
-100.95
  0
LINE
  8
0
 10
-28.082
 20
-100.95
 11
-27.916
 21
-100.762
  0
LINE
  8
0
 10
-27.916
 20
-100.762
 11
-27.7383
 21
-100.584
  0
LINE
  8
0
 10
-27.7383
 20
-100.584
 11
-27.5498
 21
-100.418
  0
LINE
  8
0
 10
-27.5498
 20
-100.418
 11
-27.3516
 21
-100.264
  0
LINE
  8
0
 10
-27.3516
 20
-100.264
 11
-27.1436
 21
-100.123
  0
LINE
  8
0
 10
-27.1436
 20
-100.123
 11
-26.9268
 21
-99.9951
  0
LINE
  8
0
 10
-26.9268
 20
-99.9951
 11
-26.7031
 21
-99.8809
  0
LINE
  8
0
 10
-26.7031
 20
-99.8809
 11
-26.4727
 21
-99.7812
  0
LINE
  8
0
 10
-26.4727
 20
-99.7812
 11
-26.2363
 21
-99.6953
  0
LINE
  8
0
 10
-26.2363
 20
-99.6953
 11
-25.9951
 21
-99.626
  0
LINE
  8
0
 10
-25.9951
 20
-99.626
 11
-25.75
 21
-99.5713
  0
LINE
  8
0
 10
-25.75
 20
-99.5713
 11
-25.501
 21
-99.5312
  0
LINE
  8
0
 10
-25.501
 20
-99.5312
 11
-25.251
 21
-99.5078
  0
LINE
  8
0
 10
-25.251
 20
-99.5078
 11
-25
 21
-99.5
  0
LINE
  8
0
 10
-25
 20
-99.5
 11
-24.749
 21
-99.5078
  0
LINE
  8
0
 10
-24.749
 20
-99.5078
 11
-24.499
 21
-99.5312
  0
LINE
  8
0
 10
-24.499
 20
-99.5312
 11
-24.25
 21
-99.5713
  0
LINE
  8
0
 10
-24.25
 20
-99.5713
 11
-24.0049
 21
-99.626
  0
LINE
  8
0
 10
-24.0049
 20
-99.626
 11
-23.7637
 21
-99.6953
  0
LINE
  8
0
 10
-23.7637
 20
-99.6953
 11
-23.5273
 21
-99.7812
  0
LINE
  8
0
 10
-23.5273
 20
-99.7812
 11
-23.2969
 21
-99.8809
  0
LINE
  8
0
 10
-23.2969
 20
-99.8809
 11
-23.0732
 21
-99.9951
  0
LINE
  8
0
 10
-23.0732
 20
-99.9951
 11
-22.8564
 21
-100.123
  0
LINE
  8
0
 10
-22.8564
 20
-100.123
 11
-22.6484
 21
-100.264
  0
LINE
  8
0
 10
-22.6484
 20
-100.264
 11
-22.4502
 21
-100.418
  0
LINE
  8
0
 10
-22.4502
 20
-100.418
 11
-22.2617
 21
-100.584
  0
LINE
  8
0
 10
-22.2617
 20
-100.584
 11
-22.084
 21
-100.762
  0
LINE
  8
0
 10
-22.084
 20
-100.762
 11
-21.918
 21
-100.95
  0
LINE
  8
0
 10
-21.918
 20
-100.95
 11
-21.7637
 21
-101.148
  0
LINE
  8
0
 10
-21.7637
 20
-101.148
 11
-21.623
 21
-101.356
  0
LINE
  8
0
 10
-21.623
 20
-101.356
 11
-21.4951
 21
-101.573
  0
LINE
  8
0
 10
-21.4951
 20
-101.573
 11
-21.3809
 21
-101.797
  0
LINE
  8
0
 10
-21.3809
 20
-101.797
 11
-21.2812
 21
-102.027
  0
LINE
  8
0
 10
-21.2812
 20
-102.027
 11
-21.1953
 21
-102.264
  0
LINE
  8
0
 10
-21.1953
 20
-102.264
 11
-21.126
 21
-102.505
  0
LINE
  8
0
 10
-21.126
 20
-102.505
 11
-21.0713
 21
-102.75
  0
LINE
  8
0
 10
-21.0713
 20
-102.75
 11
-21.0312
 21
-102.999
  0
LINE
  8
0
 10
-21.0312
 20
-102.999
 11
-21.0078
 21
-103.249
  0
LINE
  8
0
 10
-21.0078
 20
-103.249
 11
-21
 21
-103.5
  0
LINE
  8
0
 10
-21
 20
-103.5
 11
-21.0078
 21
-103.751
  0
LINE
  8
0
 10
-21.0078
 20
-103.751
 11
-21.0312
 21
-104.001
  0
LINE
  8
0
 10
-21.0312
 20
-104.001
 11
-21.0713
 21
-104.25
  0
LINE
  8
0
 10
-21.0713
 20
-104.25
 11
-21.126
 21
-104.495
  0
LINE
  8
0
 10
-21.126
 20
-104.495
 11
-21.1953
 21
-104.736
  0
LINE
  8
0
 10
-21.1953
 20
-104.736
 11
-21.2812
 21
-104.973
  0
LINE
  8
0
 10
-21.2812
 20
-104.973
 11
-21.3809
 21
-105.203
  0
LINE
  8
0
 10
-21.3809
 20
-105.203
 11
-21.4951
 21
-105.427
  0
LINE
  8
0
 10
-21.4951
 20
-105.427
 11
-21.623
 21
-105.644
  0
LINE
  8
0
 10
-21.623
 20
-105.644
 11
-21.7637
 21
-105.852
  0
LINE
  8
0
 10
-21.7637
 20
-105.852
 11
-21.918
 21
-106.05
  0
LINE
  8
0
 10
-21.918
 20
-106.05
 11
-22.084
 21
-106.238
  0
LINE
  8
0
 10
-22.084
 20
-106.238
 11
-22.2617
 21
-106.416
  0
LINE
  8
0
 10
-22.2617
 20
-106.416
 11
-22.4502
 21
-106.582
  0
LINE
  8
0
 10
-22.4502
 20
-106.582
 11
-22.6484
 21
-106.736
  0
LINE
  8
0
 10
-22.6484
 20
-106.736
 11
-22.8564
 21
-106.877
  0
LINE
  8
0
 10
-22.8564
 20
-106.877
 11
-23.0732
 21
-107.005
  0
LINE
  8
0
 10
-23.0732
 20
-107.005
 11
-23.2969
 21
-107.119
  0
LINE
  8
0
 10
-23.2969
 20
-107.119
 11
-23.5273
 21
-107.219
  0
LINE
  8
0
 10
-23.5273
 20
-107.219
 11
-23.7637
 21
-107.305
  0
LINE
  8
0
 10
-23.7637
 20
-107.305
 11
-24.0049
 21
-107.374
  0
LINE
  8
0
 10
-24.0049
 20
-107.374
 11
-24.25
 21
-107.429
  0
LINE
  8
0
 10
-24.25
 20
-107.429
 11
-24.499
 21
-107.469
  0
LINE
  8
0
 10
-24.499
 20
-107.469
 11
-24.749
 21
-107.492
  0
LINE
  8
0
 10
-24.749
 20
-107.492
 11
-25
 21
-107.5
  0
LINE
  8
0
 10
-25
 20
-107.5
 11
-25.251
 21
-107.492
  0
LINE
  8
0
 10
-15.3477
 20
-100.654
 11
-12.4414
 21
-100.142
  0
LINE
  8
0
 10
-12.4414
 20
-100.142
 11
-12.2461
 21
-101.251
  0
LINE
  8
0
 10
-12.2461
 20
-101.251
 11
-15.1523
 21
-101.764
  0
LINE
  8
0
 10
-15.1523
 20
-101.764
 11
-15.3477
 21
-100.654
  0
LINE
  8
0
 10
-37.9502
 20
-102.36
 11
-37.7539
 21
-101.251
  0
LINE
  8
0
 10
-37.7539
 20
-101.251
 11
-34.8477
 21
-101.764
  0
LINE
  8
0
 10
-34.8477
 20
-101.764
 11
-35.0439
 21
-102.873
  0
LINE
  8
0
 10
-35.0439
 20
-102.873
 11
-37.9502
 21
-102.36
  0
LINE
  8
0
 10
-15
 20
-103.5
 11
-15
 21
-102.374
  0
LINE
  8
0
 10
-15
 20
-102.374
 11
-12.0488
 21
-102.374
  0
LINE
  8
0
 10
-12.0488
 20
-102.374
 11
-12.0488
 21
-103.5
  0
LINE
  8
0
 10
-12.0488
 20
-103.5
 11
-15
 21
-103.5
  0
LINE
  8
0
 10
-37.9512
 20
-104.626
 11
-37.9512
 21
-103.5
  0
LINE
  8
0
 10
-37.9512
 20
-103.5
 11
-35
 21
-103.5
  0
LINE
  8
0
 10
-35
 20
-103.5
 11
-35
 21
-104.626
  0
LINE
  8
0
 10
-35
 20
-104.626
 11
-37.9512
 21
-104.626
  0
LINE
  8
0
 10
-15.1523
 20
-105.236
 11
-14.9561
 21
-104.127
  0
LINE
  8
0
 10
-14.9561
 20
-104.127
 11
-12.0498
 21
-104.64
  0
LINE
  8
0
 10
-12.0498
 20
-104.64
 11
-12.2461
 21
-105.749
  0
LINE
  8
0
 10
-12.2461
 20
-105.749
 11
-15.1523
 21
-105.236
  0
LINE
  8
0
 10
-37.7539
 20
-105.749
 11
-34.8477
 21
-105.236
  0
LINE
  8
0
 10
-34.8477
 20
-105.236
 11
-34.6523
 21
-106.346
  0
LINE
  8
0
 10
-34.6523
 20
-106.346
 11
-37.5586
 21
-106.858
  0
LINE
  8
0
 10
-37.5586
 20
-106.858
 11
-37.7539
 21
-105.749
  0
LINE
  8
0
 10
-15.6035
 20
-106.92
 11
-15.2178
 21
-105.862
  0
LINE
  8
0
 10
-15.2178
 20
-105.862
 11
-12.4443
 21
-106.871
  0
LINE
  8
0
 10
-12.4443
 20
-106.871
 11
-12.8301
 21
-107.93
  0
LINE
  8
0
 10
-12.8301
 20
-107.93
 11
-15.6035
 21
-106.92
  0
LINE
  8
0
 10
-37.1699
 20
-107.93
 11
-34.3965
 21
-106.92
  0
LINE
  8
0
 10
-34.3965
 20
-106.92
 11
-34.0117
 21
-107.979
  0
LINE
  8
0
 10
-34.0117
 20
-107.979
 11
-36.7852
 21
-108.988
  0
LINE
  8
0
 10
-36.7852
 20
-108.988
 11
-37.1699
 21
-107.93
  0
LINE
  8
0
 10
-16.3398
 20
-108.5
 11
-15.7764
 21
-107.524
  0
LINE
  8
0
 10
-15.7764
 20
-107.524
 11
-13.2207
 21
-109
  0
LINE
  8
0
 10
-13.2207
 20
-109
 11
-13.7842
 21
-109.976
  0
LINE
  8
0
 10
-13.7842
 20
-109.976
 11
-16.3398
 21
-108.5
  0
LINE
  8
0
 10
-36.2158
 20
-109.976
 11
-33.6602
 21
-108.5
  0
LINE
  8
0
 10
-33.6602
 20
-108.5
 11
-33.0967
 21
-109.476
  0
LINE
  8
0
 10
-33.0967
 20
-109.476
 11
-35.6533
 21
-110.951
  0
LINE
  8
0
 10
-35.6533
 20
-110.951
 11
-36.2158
 21
-109.976
  0
LINE
  8
0
 10
-17.3398
 20
-109.928
 11
-16.6152
 21
-109.065
  0
LINE
  8
0
 10
-16.6152
 20
-109.065
 11
-14.3545
 21
-110.962
  0
LINE
  8
0
 10
-14.3545
 20
-110.962
 11
-15.0791
 21
-111.825
  0
LINE
  8
0
 10
-15.0791
 20
-111.825
 11
-17.3398
 21
-109.928
  0
LINE
  8
0
 10
-34.9209
 20
-111.825
 11
-32.6602
 21
-109.928
  0
LINE
  8
0
 10
-32.6602
 20
-109.928
 11
-31.9365
 21
-110.791
  0
LINE
  8
0
 10
-31.9365
 20
-110.791
 11
-34.1973
 21
-112.688
  0
LINE
  8
0
 10
-34.1973
 20
-112.688
 11
-34.9209
 21
-111.825
  0
LINE
  8
0
 10
-18.5723
 20
-111.16
 11
-17.709
 21
-110.437
  0
LINE
  8
0
 10
-17.709
 20
-110.437
 11
-15.8125
 21
-112.697
  0
LINE
  8
0
 10
-15.8125
 20
-112.697
 11
-16.6748
 21
-113.421
  0
LINE
  8
0
 10
-16.6748
 20
-113.421
 11
-18.5723
 21
-111.16
  0
LINE
  8
0
 10
39.3744
 20
-114.996
 11
39.2493
 21
-114.984
  0
LINE
  8
0
 10
39.2493
 20
-114.984
 11
39.1252
 21
-114.965
  0
LINE
  8
0
 10
39.1252
 20
-114.965
 11
39.0026
 21
-114.937
  0
LINE
  8
0
 10
39.0026
 20
-114.937
 11
38.882
 21
-114.902
  0
LINE
  8
0
 10
38.882
 20
-114.902
 11
38.7637
 21
-114.86
  0
LINE
  8
0
 10
38.7637
 20
-114.86
 11
38.6484
 21
-114.81
  0
LINE
  8
0
 10
38.6484
 20
-114.81
 11
38.5365
 21
-114.753
  0
LINE
  8
0
 10
38.5365
 20
-114.753
 11
38.4283
 21
-114.689
  0
LINE
  8
0
 10
38.4283
 20
-114.689
 11
38.3244
 21
-114.618
  0
LINE
  8
0
 10
38.3244
 20
-114.618
 11
38.2251
 21
-114.541
  0
LINE
  8
0
 10
38.2251
 20
-114.541
 11
38.1309
 21
-114.458
  0
LINE
  8
0
 10
38.1309
 20
-114.458
 11
38.0421
 21
-114.369
  0
LINE
  8
0
 10
38.0421
 20
-114.369
 11
37.959
 21
-114.275
  0
LINE
  8
0
 10
37.959
 20
-114.275
 11
37.882
 21
-114.176
  0
LINE
  8
0
 10
37.882
 20
-114.176
 11
37.8113
 21
-114.072
  0
LINE
  8
0
 10
37.8113
 20
-114.072
 11
37.7474
 21
-113.964
  0
LINE
  8
0
 10
37.7474
 20
-113.964
 11
37.6903
 21
-113.852
  0
LINE
  8
0
 10
37.6903
 20
-113.852
 11
37.6404
 21
-113.736
  0
LINE
  8
0
 10
37.6404
 20
-113.736
 11
37.5979
 21
-113.618
  0
LINE
  8
0
 10
37.5979
 20
-113.618
 11
37.5628
 21
-113.497
  0
LINE
  8
0
 10
37.5628
 20
-113.497
 11
37.5354
 21
-113.375
  0
LINE
  8
0
 10
37.5354
 20
-113.375
 11
37.5158
 21
-113.251
  0
LINE
  8
0
 10
37.5158
 20
-113.251
 11
37.5039
 21
-113.126
  0
LINE
  8
0
 10
37.5039
 20
-113.126
 11
37.5
 21
-113
  0
LINE
  8
0
 10
37.5
 20
-113
 11
37.5039
 21
-112.874
  0
LINE
  8
0
 10
37.5039
 20
-112.874
 11
37.5158
 21
-112.749
  0
LINE
  8
0
 10
37.5158
 20
-112.749
 11
37.5354
 21
-112.625
  0
LINE
  8
0
 10
37.5354
 20
-112.625
 11
37.5628
 21
-112.503
  0
LINE
  8
0
 10
37.5628
 20
-112.503
 11
37.5979
 21
-112.382
  0
LINE
  8
0
 10
37.5979
 20
-112.382
 11
37.6404
 21
-112.264
  0
LINE
  8
0
 10
37.6404
 20
-112.264
 11
37.6903
 21
-112.148
  0
LINE
  8
0
 10
37.6903
 20
-112.148
 11
37.7474
 21
-112.036
  0
LINE
  8
0
 10
37.7474
 20
-112.036
 11
37.8113
 21
-111.928
  0
LINE
  8
0
 10
37.8113
 20
-111.928
 11
37.882
 21
-111.824
  0
LINE
  8
0
 10
37.882
 20
-111.824
 11
37.959
 21
-111.725
  0
LINE
  8
0
 10
37.959
 20
-111.725
 11
38.0421
 21
-111.631
  0
LINE
  8
0
 10
38.0421
 20
-111.631
 11
38.1309
 21
-111.542
  0
LINE
  8
0
 10
38.1309
 20
-111.542
 11
38.2251
 21
-111.459
  0
LINE
  8
0
 10
38.2251
 20
-111.459
 11
38.3244
 21
-111.382
  0
LINE
  8
0
 10
38.3244
 20
-111.382
 11
38.4283
 21
-111.311
  0
LINE
  8
0
 10
38.4283
 20
-111.311
 11
38.5365
 21
-111.247
  0
LINE
  8
0
 10
38.5365
 20
-111.247
 11
38.6484
 21
-111.19
  0
LINE
  8
0
 10
38.6484
 20
-111.19
 11
38.7637
 21
-111.14
  0
LINE
  8
0
 10
38.7637
 20
-111.14
 11
38.882
 21
-111.098
  0
LINE
  8
0
 10
38.882
 20
-111.098
 11
39.0026
 21
-111.063
  0
LINE
  8
0
 10
39.0026
 20
-111.063
 11
39.1252
 21
-111.035
  0
LINE
  8
0
 10
39.1252
 20
-111.035
 11
39.2493
 21
-111.016
  0
LINE
  8
0
 10
39.2493
 20
-111.016
 11
39.3744
 21
-111.004
  0
LINE
  8
0
 10
39.3744
 20
-111.004
 11
39.5
 21
-111
  0
LINE
  8
0
 10
39.5
 20
-111
 11
39.6256
 21
-111.004
  0
LINE
  8
0
 10
39.6256
 20
-111.004
 11
39.7507
 21
-111.016
  0
LINE
  8
0
 10
39.7507
 20
-111.016
 11
39.8748
 21
-111.035
  0
LINE
  8
0
 10
39.8748
 20
-111.035
 11
39.9974
 21
-111.063
  0
LINE
  8
0
 10
39.9974
 20
-111.063
 11
40.118
 21
-111.098
  0
LINE
  8
0
 10
40.118
 20
-111.098
 11
40.2362
 21
-111.14
  0
LINE
  8
0
 10
40.2362
 20
-111.14
 11
40.3515
 21
-111.19
  0
LINE
  8
0
 10
40.3515
 20
-111.19
 11
40.4635
 21
-111.247
  0
LINE
  8
0
 10
40.4635
 20
-111.247
 11
40.5716
 21
-111.311
  0
LINE
  8
0
 10
40.5716
 20
-111.311
 11
40.6756
 21
-111.382
  0
LINE
  8
0
 10
40.6756
 20
-111.382
 11
40.7748
 21
-111.459
  0
LINE
  8
0
 10
40.7748
 20
-111.459
 11
40.8691
 21
-111.542
  0
LINE
  8
0
 10
40.8691
 20
-111.542
 11
40.9579
 21
-111.631
  0
LINE
  8
0
 10
40.9579
 20
-111.631
 11
41.041
 21
-111.725
  0
LINE
  8
0
 10
41.041
 20
-111.725
 11
41.118
 21
-111.824
  0
LINE
  8
0
 10
41.118
 20
-111.824
 11
41.1886
 21
-111.928
  0
LINE
  8
0
 10
41.1886
 20
-111.928
 11
41.2526
 21
-112.036
  0
LINE
  8
0
 10
41.2526
 20
-112.036
 11
41.3096
 21
-112.148
  0
LINE
  8
0
 10
41.3096
 20
-112.148
 11
41.3595
 21
-112.264
  0
LINE
  8
0
 10
41.3595
 20
-112.264
 11
41.4021
 21
-112.382
  0
LINE
  8
0
 10
41.4021
 20
-112.382
 11
41.4372
 21
-112.503
  0
LINE
  8
0
 10
41.4372
 20
-112.503
 11
41.4646
 21
-112.625
  0
LINE
  8
0
 10
41.4646
 20
-112.625
 11
41.4842
 21
-112.749
  0
LINE
  8
0
 10
41.4842
 20
-112.749
 11
41.497
 21
-112.906
  0
LINE
  8
0
 10
41.497
 20
-112.906
 11
41.4995
 21
-113.017
  0
LINE
  8
0
 10
41.4995
 20
-113.017
 11
41.496
 21
-113.126
  0
LINE
  8
0
 10
41.496
 20
-113.126
 11
41.4842
 21
-113.251
  0
LINE
  8
0
 10
41.4842
 20
-113.251
 11
41.4646
 21
-113.375
  0
LINE
  8
0
 10
41.4646
 20
-113.375
 11
41.4372
 21
-113.497
  0
LINE
  8
0
 10
41.4372
 20
-113.497
 11
41.4021
 21
-113.618
  0
LINE
  8
0
 10
41.4021
 20
-113.618
 11
41.3595
 21
-113.736
  0
LINE
  8
0
 10
41.3595
 20
-113.736
 11
41.3096
 21
-113.852
  0
LINE
  8
0
 10
41.3096
 20
-113.852
 11
41.2526
 21
-113.964
  0
LINE
  8
0
 10
41.2526
 20
-113.964
 11
41.1886
 21
-114.072
  0
LINE
  8
0
 10
41.1886
 20
-114.072
 11
41.118
 21
-114.176
  0
LINE
  8
0
 10
41.118
 20
-114.176
 11
41.041
 21
-114.275
  0
LINE
  8
0
 10
41.041
 20
-114.275
 11
40.9579
 21
-114.369
  0
LINE
  8
0
 10
40.9579
 20
-114.369
 11
40.8691
 21
-114.458
  0
LINE
  8
0
 10
40.8691
 20
-114.458
 11
40.7748
 21
-114.541
  0
LINE
  8
0
 10
40.7748
 20
-114.541
 11
40.6756
 21
-114.618
  0
LINE
  8
0
 10
40.6756
 20
-114.618
 11
40.5716
 21
-114.689
  0
LINE
  8
0
 10
40.5716
 20
-114.689
 11
40.4635
 21
-114.753
  0
LINE
  8
0
 10
40.4635
 20
-114.753
 11
40.3515
 21
-114.81
  0
LINE
  8
0
 10
40.3515
 20
-114.81
 11
40.2362
 21
-114.86
  0
LINE
  8
0
 10
40.2362
 20
-114.86
 11
40.118
 21
-114.902
  0
LINE
  8
0
 10
40.118
 20
-114.902
 11
39.9974
 21
-114.937
  0
LINE
  8
0
 10
39.9974
 20
-114.937
 11
39.8748
 21
-114.965
  0
LINE
  8
0
 10
39.8748
 20
-114.965
 11
39.7507
 21
-114.984
  0
LINE
  8
0
 10
39.7507
 20
-114.984
 11
39.6256
 21
-114.996
  0
LINE
  8
0
 10
39.6256
 20
-114.996
 11
39.4686
 21
-114.999
  0
LINE
  8
0
 10
39.4686
 20
-114.999
 11
39.3744
 21
-114.996
  0
LINE
  8
0
 10
-39.5314
 20
-114.999
 11
-39.6256
 21
-114.996
  0
LINE
  8
0
 10
-39.6256
 20
-114.996
 11
-39.7507
 21
-114.984
  0
LINE
  8
0
 10
-39.7507
 20
-114.984
 11
-39.8748
 21
-114.965
  0
LINE
  8
0
 10
-39.8748
 20
-114.965
 11
-39.9974
 21
-114.937
  0
LINE
  8
0
 10
-39.9974
 20
-114.937
 11
-40.118
 21
-114.902
  0
LINE
  8
0
 10
-40.118
 20
-114.902
 11
-40.2362
 21
-114.86
  0
LINE
  8
0
 10
-40.2362
 20
-114.86
 11
-40.3515
 21
-114.81
  0
LINE
  8
0
 10
-40.3515
 20
-114.81
 11
-40.4635
 21
-114.753
  0
LINE
  8
0
 10
-40.4635
 20
-114.753
 11
-40.5717
 21
-114.689
  0
LINE
  8
0
 10
-40.5717
 20
-114.689
 11
-40.6756
 21
-114.618
  0
LINE
  8
0
 10
-40.6756
 20
-114.618
 11
-40.7748
 21
-114.541
  0
LINE
  8
0
 10
-40.7748
 20
-114.541
 11
-40.8691
 21
-114.458
  0
LINE
  8
0
 10
-40.8691
 20
-114.458
 11
-40.9579
 21
-114.369
  0
LINE
  8
0
 10
-40.9579
 20
-114.369
 11
-41.041
 21
-114.275
  0
LINE
  8
0
 10
-41.041
 20
-114.275
 11
-41.118
 21
-114.176
  0
LINE
  8
0
 10
-41.118
 20
-114.176
 11
-41.1886
 21
-114.072
  0
LINE
  8
0
 10
-41.1886
 20
-114.072
 11
-41.2526
 21
-113.964
  0
LINE
  8
0
 10
-41.2526
 20
-113.964
 11
-41.3096
 21
-113.852
  0
LINE
  8
0
 10
-41.3096
 20
-113.852
 11
-41.3595
 21
-113.736
  0
LINE
  8
0
 10
-41.3595
 20
-113.736
 11
-41.4021
 21
-113.618
  0
LINE
  8
0
 10
-41.4021
 20
-113.618
 11
-41.4372
 21
-113.497
  0
LINE
  8
0
 10
-41.4372
 20
-113.497
 11
-41.4646
 21
-113.375
  0
LINE
  8
0
 10
-41.4646
 20
-113.375
 11
-41.4842
 21
-113.251
  0
LINE
  8
0
 10
-41.4842
 20
-113.251
 11
-41.496
 21
-113.126
  0
LINE
  8
0
 10
-41.496
 20
-113.126
 11
-41.5
 21
-113
  0
LINE
  8
0
 10
-41.5
 20
-113
 11
-41.496
 21
-112.874
  0
LINE
  8
0
 10
-41.496
 20
-112.874
 11
-41.4842
 21
-112.749
  0
LINE
  8
0
 10
-41.4842
 20
-112.749
 11
-41.4646
 21
-112.625
  0
LINE
  8
0
 10
-41.4646
 20
-112.625
 11
-41.4372
 21
-112.503
  0
LINE
  8
0
 10
-41.4372
 20
-112.503
 11
-41.4021
 21
-112.382
  0
LINE
  8
0
 10
-41.4021
 20
-112.382
 11
-41.3595
 21
-112.264
  0
LINE
  8
0
 10
-41.3595
 20
-112.264
 11
-41.3096
 21
-112.148
  0
LINE
  8
0
 10
-41.3096
 20
-112.148
 11
-41.2526
 21
-112.036
  0
LINE
  8
0
 10
-41.2526
 20
-112.036
 11
-41.1886
 21
-111.928
  0
LINE
  8
0
 10
-41.1886
 20
-111.928
 11
-41.118
 21
-111.824
  0
LINE
  8
0
 10
-41.118
 20
-111.824
 11
-41.041
 21
-111.725
  0
LINE
  8
0
 10
-41.041
 20
-111.725
 11
-40.9579
 21
-111.631
  0
LINE
  8
0
 10
-40.9579
 20
-111.631
 11
-40.8691
 21
-111.542
  0
LINE
  8
0
 10
-40.8691
 20
-111.542
 11
-40.7748
 21
-111.459
  0
LINE
  8
0
 10
-40.7748
 20
-111.459
 11
-40.6756
 21
-111.382
  0
LINE
  8
0
 10
-40.6756
 20
-111.382
 11
-40.5717
 21
-111.311
  0
LINE
  8
0
 10
-40.5717
 20
-111.311
 11
-40.4635
 21
-111.247
  0
LINE
  8
0
 10
-40.4635
 20
-111.247
 11
-40.3515
 21
-111.19
  0
LINE
  8
0
 10
-40.3515
 20
-111.19
 11
-40.2362
 21
-111.14
  0
LINE
  8
0
 10
-40.2362
 20
-111.14
 11
-40.118
 21
-111.098
  0
LINE
  8
0
 10
-40.118
 20
-111.098
 11
-39.9974
 21
-111.063
  0
LINE
  8
0
 10
-39.9974
 20
-111.063
 11
-39.8748
 21
-111.035
  0
LINE
  8
0
 10
-39.8748
 20
-111.035
 11
-39.7507
 21
-111.016
  0
LINE
  8
0
 10
-39.7507
 20
-111.016
 11
-39.6256
 21
-111.004
  0
LINE
  8
0
 10
-39.6256
 20
-111.004
 11
-39.5
 21
-111
  0
LINE
  8
0
 10
-39.5
 20
-111
 11
-39.3744
 21
-111.004
  0
LINE
  8
0
 10
-39.3744
 20
-111.004
 11
-39.2493
 21
-111.016
  0
LINE
  8
0
 10
-39.2493
 20
-111.016
 11
-39.1252
 21
-111.035
  0
LINE
  8
0
 10
-39.1252
 20
-111.035
 11
-39.0026
 21
-111.063
  0
LINE
  8
0
 10
-39.0026
 20
-111.063
 11
-38.882
 21
-111.098
  0
LINE
  8
0
 10
-38.882
 20
-111.098
 11
-38.7637
 21
-111.14
  0
LINE
  8
0
 10
-38.7637
 20
-111.14
 11
-38.6484
 21
-111.19
  0
LINE
  8
0
 10
-38.6484
 20
-111.19
 11
-38.5365
 21
-111.247
  0
LINE
  8
0
 10
-38.5365
 20
-111.247
 11
-38.4283
 21
-111.311
  0
LINE
  8
0
 10
-38.4283
 20
-111.311
 11
-38.3244
 21
-111.382
  0
LINE
  8
0
 10
-38.3244
 20
-111.382
 11
-38.2251
 21
-111.459
  0
LINE
  8
0
 10
-38.2251
 20
-111.459
 11
-38.1309
 21
-111.542
  0
LINE
  8
0
 10
-38.1309
 20
-111.542
 11
-38.0421
 21
-111.631
  0
LINE
  8
0
 10
-38.0421
 20
-111.631
 11
-37.959
 21
-111.725
  0
LINE
  8
0
 10
-37.959
 20
-111.725
 11
-37.882
 21
-111.824
  0
LINE
  8
0
 10
-37.882
 20
-111.824
 11
-37.8113
 21
-111.928
  0
LINE
  8
0
 10
-37.8113
 20
-111.928
 11
-37.7474
 21
-112.036
  0
LINE
  8
0
 10
-37.7474
 20
-112.036
 11
-37.6903
 21
-112.148
  0
LINE
  8
0
 10
-37.6903
 20
-112.148
 11
-37.6404
 21
-112.264
  0
LINE
  8
0
 10
-37.6404
 20
-112.264
 11
-37.5979
 21
-112.382
  0
LINE
  8
0
 10
-37.5979
 20
-112.382
 11
-37.5628
 21
-112.503
  0
LINE
  8
0
 10
-37.5628
 20
-112.503
 11
-37.5354
 21
-112.625
  0
LINE
  8
0
 10
-37.5354
 20
-112.625
 11
-37.5158
 21
-112.749
  0
LINE
  8
0
 10
-37.5158
 20
-112.749
 11
-37.5039
 21
-112.874
  0
LINE
  8
0
 10
-37.5039
 20
-112.874
 11
-37.501
 21
-113.031
  0
LINE
  8
0
 10
-37.501
 20
-113.031
 11
-37.5039
 21
-113.126
  0
LINE
  8
0
 10
-37.5039
 20
-113.126
 11
-37.5158
 21
-113.251
  0
LINE
  8
0
 10
-37.5158
 20
-113.251
 11
-37.5354
 21
-113.375
  0
LINE
  8
0
 10
-37.5354
 20
-113.375
 11
-37.5628
 21
-113.497
  0
LINE
  8
0
 10
-37.5628
 20
-113.497
 11
-37.5979
 21
-113.618
  0
LINE
  8
0
 10
-37.5979
 20
-113.618
 11
-37.6404
 21
-113.736
  0
LINE
  8
0
 10
-37.6404
 20
-113.736
 11
-37.6903
 21
-113.852
  0
LINE
  8
0
 10
-37.6903
 20
-113.852
 11
-37.7474
 21
-113.964
  0
LINE
  8
0
 10
-37.7474
 20
-113.964
 11
-37.8113
 21
-114.072
  0
LINE
  8
0
 10
-37.8113
 20
-114.072
 11
-37.882
 21
-114.176
  0
LINE
  8
0
 10
-37.882
 20
-114.176
 11
-37.959
 21
-114.275
  0
LINE
  8
0
 10
-37.959
 20
-114.275
 11
-38.0421
 21
-114.369
  0
LINE
  8
0
 10
-38.0421
 20
-114.369
 11
-38.1309
 21
-114.458
  0
LINE
  8
0
 10
-38.1309
 20
-114.458
 11
-38.2251
 21
-114.541
  0
LINE
  8
0
 10
-38.2251
 20
-114.541
 11
-38.3244
 21
-114.618
  0
LINE
  8
0
 10
-38.3244
 20
-114.618
 11
-38.4283
 21
-114.689
  0
LINE
  8
0
 10
-38.4283
 20
-114.689
 11
-38.5365
 21
-114.753
  0
LINE
  8
0
 10
-38.5365
 20
-114.753
 11
-38.6484
 21
-114.81
  0
LINE
  8
0
 10
-38.6484
 20
-114.81
 11
-38.7637
 21
-114.86
  0
LINE
  8
0
 10
-38.7637
 20
-114.86
 11
-38.882
 21
-114.902
  0
LINE
  8
0
 10
-38.882
 20
-114.902
 11
-39.0026
 21
-114.937
  0
LINE
  8
0
 10
-39.0026
 20
-114.937
 11
-39.1252
 21
-114.965
  0
LINE
  8
0
 10
-39.1252
 20
-114.965
 11
-39.2493
 21
-114.984
  0
LINE
  8
0
 10
-39.2493
 20
-114.984
 11
-39.3744
 21
-114.996
  0
LINE
  8
0
 10
-39.3744
 20
-114.996
 11
-39.4686
 21
-114.999
  0
LINE
  8
0
 10
-39.4686
 20
-114.999
 11
-39.5314
 21
-114.999
  0
LINE
  8
0
 10
-33.3252
 20
-113.421
 11
-31.4277
 21
-111.16
  0
LINE
  8
0
 10
-31.4277
 20
-111.16
 11
-30.5654
 21
-111.885
  0
LINE
  8
0
 10
-30.5654
 20
-111.885
 11
-32.4619
 21
-114.146
  0
LINE
  8
0
 10
-32.4619
 20
-114.146
 11
-33.3252
 21
-113.421
  0
LINE
  8
0
 10
-20
 20
-112.16
 11
-19.0244
 21
-111.597
  0
LINE
  8
0
 10
-19.0244
 20
-111.597
 11
-17.5488
 21
-114.153
  0
LINE
  8
0
 10
-17.5488
 20
-114.153
 11
-18.5244
 21
-114.716
  0
LINE
  8
0
 10
-18.5244
 20
-114.716
 11
-20
 21
-112.16
  0
LINE
  8
0
 10
-31.4756
 20
-114.716
 11
-30
 21
-112.16
  0
LINE
  8
0
 10
-30
 20
-112.16
 11
-29.0244
 21
-112.724
  0
LINE
  8
0
 10
-29.0244
 20
-112.724
 11
-30.5
 21
-115.279
  0
LINE
  8
0
 10
-30.5
 20
-115.279
 11
-31.4756
 21
-114.716
  0
LINE
  8
0
 10
-21.5801
 20
-112.896
 11
-20.5215
 21
-112.512
  0
LINE
  8
0
 10
-20.5215
 20
-112.512
 11
-19.5117
 21
-115.285
  0
LINE
  8
0
 10
-19.5117
 20
-115.285
 11
-20.5703
 21
-115.67
  0
LINE
  8
0
 10
-20.5703
 20
-115.67
 11
-21.5801
 21
-112.896
  0
LINE
  8
0
 10
-29.4297
 20
-115.67
 11
-28.4199
 21
-112.896
  0
LINE
  8
0
 10
-28.4199
 20
-112.896
 11
-27.3623
 21
-113.282
  0
LINE
  8
0
 10
-27.3623
 20
-113.282
 11
-28.3711
 21
-116.056
  0
LINE
  8
0
 10
-28.3711
 20
-116.056
 11
-29.4297
 21
-115.67
  0
LINE
  8
0
 10
-23.2637
 20
-113.348
 11
-22.1543
 21
-113.152
  0
LINE
  8
0
 10
-22.1543
 20
-113.152
 11
-21.6416
 21
-116.059
  0
LINE
  8
0
 10
-21.6416
 20
-116.059
 11
-22.751
 21
-116.254
  0
LINE
  8
0
 10
-22.751
 20
-116.254
 11
-23.2637
 21
-113.348
  0
LINE
  8
0
 10
-27.249
 20
-116.254
 11
-26.7363
 21
-113.348
  0
LINE
  8
0
 10
-26.7363
 20
-113.348
 11
-25.627
 21
-113.544
  0
LINE
  8
0
 10
-25.627
 20
-113.544
 11
-26.1396
 21
-116.45
  0
LINE
  8
0
 10
-26.1396
 20
-116.45
 11
-27.249
 21
-116.254
  0
LINE
  8
0
 10
-25
 20
-116.451
 11
-25
 21
-113.5
  0
LINE
  8
0
 10
-25
 20
-113.5
 11
-23.874
 21
-113.5
  0
LINE
  8
0
 10
-23.874
 20
-113.5
 11
-23.874
 21
-116.451
  0
LINE
  8
0
 10
-23.874
 20
-116.451
 11
-25
 21
-116.451
  0
LINE
  8
0
 10
43
 20
-181.5
 11
40
 21
-181.5
  0
LINE
  8
0
 10
40
 20
-181.5
 11
40
 21
-171.5
  0
LINE
  8
0
 10
40
 20
-171.5
 11
43
 21
-171.5
  0
LINE
  8
0
 10
43
 20
-171.5
 11
43
 21
-158.5
  0
LINE
  8
0
 10
43
 20
-158.5
 11
40
 21
-158.5
  0
LINE
  8
0
 10
40
 20
-158.5
 11
40
 21
-148.5
  0
LINE
  8
0
 10
40
 20
-148.5
 11
43
 21
-148.5
  0
LINE
  8
0
 10
43
 20
-148.5
 11
43
 21
-140.5
  0
LINE
  8
0
 10
43
 20
-140.5
 11
-43
 21
-140.5
  0
LINE
  8
0
 10
-43
 20
-140.5
 11
-43
 21
-148.5
  0
LINE
  8
0
 10
-43
 20
-148.5
 11
-40
 21
-148.5
  0
LINE
  8
0
 10
-40
 20
-148.5
 11
-40
 21
-158.5
  0
LINE
  8
0
 10
-40
 20
-158.5
 11
-43
 21
-158.5
  0
LINE
  8
0
 10
-43
 20
-158.5
 11
-43
 21
-171.5
  0
LINE
  8
0
 10
-43
 20
-171.5
 11
-40
 21
-171.5
  0
LINE
  8
0
 10
-40
 20
-171.5
 11
-40
 21
-181.5
  0
LINE
  8
0
 10
-40
 20
-181.5
 11
-43
 21
-181.5
  0
LINE
  8
0
 10
-43
 20
-181.5
 11
-43
 21
-189.5
  0
LINE
  8
0
 10
-43
 20
-189.5
 11
43
 21
-189.5
  0
LINE
  8
0
 10
43
 20
-189.5
 11
43
 21
-181.5
  0
LINE
  8
0
 10
20.623
 20
-163.988
 11
20.248
 21
-163.953
  0
LINE
  8
0
 10
20.248
 20
-163.953
 11
19.876
 21
-163.894
  0
LINE
  8
0
 10
19.876
 20
-163.894
 11
19.5078
 21
-163.812
  0
LINE
  8
0
 10
19.5078
 20
-163.812
 11
19.1455
 21
-163.706
  0
LINE
  8
0
 10
19.1455
 20
-163.706
 11
18.791
 21
-163.579
  0
LINE
  8
0
 10
18.791
 20
-163.579
 11
18.4453
 21
-163.429
  0
LINE
  8
0
 10
18.4453
 20
-163.429
 11
18.1094
 21
-163.258
  0
LINE
  8
0
 10
18.1094
 20
-163.258
 11
17.7852
 21
-163.066
  0
LINE
  8
0
 10
17.7852
 20
-163.066
 11
17.4736
 21
-162.854
  0
LINE
  8
0
 10
17.4736
 20
-162.854
 11
17.1758
 21
-162.623
  0
LINE
  8
0
 10
17.1758
 20
-162.623
 11
16.8926
 21
-162.374
  0
LINE
  8
0
 10
16.8926
 20
-162.374
 11
16.626
 21
-162.107
  0
LINE
  8
0
 10
16.626
 20
-162.107
 11
16.377
 21
-161.824
  0
LINE
  8
0
 10
16.377
 20
-161.824
 11
16.1455
 21
-161.526
  0
LINE
  8
0
 10
16.1455
 20
-161.526
 11
15.9336
 21
-161.215
  0
LINE
  8
0
 10
15.9336
 20
-161.215
 11
15.7422
 21
-160.891
  0
LINE
  8
0
 10
15.7422
 20
-160.891
 11
15.5713
 21
-160.555
  0
LINE
  8
0
 10
15.5713
 20
-160.555
 11
15.4209
 21
-160.209
  0
LINE
  8
0
 10
15.4209
 20
-160.209
 11
15.2939
 21
-159.854
  0
LINE
  8
0
 10
15.2939
 20
-159.854
 11
15.1885
 21
-159.492
  0
LINE
  8
0
 10
15.1885
 20
-159.492
 11
15.1064
 21
-159.124
  0
LINE
  8
0
 10
15.1064
 20
-159.124
 11
15.0469
 21
-158.752
  0
LINE
  8
0
 10
15.0469
 20
-158.752
 11
15.0117
 21
-158.377
  0
LINE
  8
0
 10
15.0117
 20
-158.377
 11
15
 21
-158
  0
LINE
  8
0
 10
15
 20
-158
 11
15.0117
 21
-157.623
  0
LINE
  8
0
 10
15.0117
 20
-157.623
 11
15.0469
 21
-157.248
  0
LINE
  8
0
 10
15.0469
 20
-157.248
 11
15.1064
 21
-156.876
  0
LINE
  8
0
 10
15.1064
 20
-156.876
 11
15.1885
 21
-156.508
  0
LINE
  8
0
 10
15.1885
 20
-156.508
 11
15.2939
 21
-156.146
  0
LINE
  8
0
 10
15.2939
 20
-156.146
 11
15.4209
 21
-155.791
  0
LINE
  8
0
 10
15.4209
 20
-155.791
 11
15.5713
 21
-155.445
  0
LINE
  8
0
 10
15.5713
 20
-155.445
 11
15.7422
 21
-155.109
  0
LINE
  8
0
 10
15.7422
 20
-155.109
 11
15.9336
 21
-154.785
  0
LINE
  8
0
 10
15.9336
 20
-154.785
 11
16.1455
 21
-154.474
  0
LINE
  8
0
 10
16.1455
 20
-154.474
 11
16.377
 21
-154.176
  0
LINE
  8
0
 10
16.377
 20
-154.176
 11
16.626
 21
-153.893
  0
LINE
  8
0
 10
16.626
 20
-153.893
 11
16.8926
 21
-153.626
  0
LINE
  8
0
 10
16.8926
 20
-153.626
 11
17.1758
 21
-153.377
  0
LINE
  8
0
 10
17.1758
 20
-153.377
 11
17.4736
 21
-153.146
  0
LINE
  8
0
 10
17.4736
 20
-153.146
 11
17.7852
 21
-152.934
  0
LINE
  8
0
 10
17.7852
 20
-152.934
 11
18.1094
 21
-152.742
  0
LINE
  8
0
 10
18.1094
 20
-152.742
 11
18.4453
 21
-152.571
  0
LINE
  8
0
 10
18.4453
 20
-152.571
 11
18.791
 21
-152.421
  0
LINE
  8
0
 10
18.791
 20
-152.421
 11
19.1455
 21
-152.294
  0
LINE
  8
0
 10
19.1455
 20
-152.294
 11
19.5078
 21
-152.188
  0
LINE
  8
0
 10
19.5078
 20
-152.188
 11
19.876
 21
-152.106
  0
LINE
  8
0
 10
19.876
 20
-152.106
 11
20.248
 21
-152.047
  0
LINE
  8
0
 10
20.248
 20
-152.047
 11
20.623
 21
-152.012
  0
LINE
  8
0
 10
20.623
 20
-152.012
 11
21
 21
-152
  0
LINE
  8
0
 10
21
 20
-152
 11
21.377
 21
-152.012
  0
LINE
  8
0
 10
21.377
 20
-152.012
 11
21.752
 21
-152.047
  0
LINE
  8
0
 10
21.752
 20
-152.047
 11
22.124
 21
-152.106
  0
LINE
  8
0
 10
22.124
 20
-152.106
 11
22.4922
 21
-152.188
  0
LINE
  8
0
 10
22.4922
 20
-152.188
 11
22.8545
 21
-152.294
  0
LINE
  8
0
 10
22.8545
 20
-152.294
 11
23.209
 21
-152.421
  0
LINE
  8
0
 10
23.209
 20
-152.421
 11
23.5547
 21
-152.571
  0
LINE
  8
0
 10
23.5547
 20
-152.571
 11
23.8906
 21
-152.742
  0
LINE
  8
0
 10
23.8906
 20
-152.742
 11
24.2148
 21
-152.934
  0
LINE
  8
0
 10
24.2148
 20
-152.934
 11
24.5264
 21
-153.146
  0
LINE
  8
0
 10
24.5264
 20
-153.146
 11
24.8242
 21
-153.377
  0
LINE
  8
0
 10
24.8242
 20
-153.377
 11
25.1074
 21
-153.626
  0
LINE
  8
0
 10
25.1074
 20
-153.626
 11
25.374
 21
-153.893
  0
LINE
  8
0
 10
25.374
 20
-153.893
 11
25.623
 21
-154.176
  0
LINE
  8
0
 10
25.623
 20
-154.176
 11
25.8545
 21
-154.474
  0
LINE
  8
0
 10
25.8545
 20
-154.474
 11
26.0664
 21
-154.785
  0
LINE
  8
0
 10
26.0664
 20
-154.785
 11
26.2578
 21
-155.109
  0
LINE
  8
0
 10
26.2578
 20
-155.109
 11
26.4287
 21
-155.445
  0
LINE
  8
0
 10
26.4287
 20
-155.445
 11
26.5791
 21
-155.791
  0
LINE
  8
0
 10
26.5791
 20
-155.791
 11
26.7061
 21
-156.146
  0
LINE
  8
0
 10
26.7061
 20
-156.146
 11
26.8115
 21
-156.508
  0
LINE
  8
0
 10
26.8115
 20
-156.508
 11
26.8936
 21
-156.876
  0
LINE
  8
0
 10
26.8936
 20
-156.876
 11
26.9531
 21
-157.248
  0
LINE
  8
0
 10
26.9531
 20
-157.248
 11
26.9883
 21
-157.623
  0
LINE
  8
0
 10
26.9883
 20
-157.623
 11
27
 21
-158
  0
LINE
  8
0
 10
27
 20
-158
 11
26.9883
 21
-158.377
  0
LINE
  8
0
 10
26.9883
 20
-158.377
 11
26.9531
 21
-158.752
  0
LINE
  8
0
 10
26.9531
 20
-158.752
 11
26.8936
 21
-159.124
  0
LINE
  8
0
 10
26.8936
 20
-159.124
 11
26.8115
 21
-159.492
  0
LINE
  8
0
 10
26.8115
 20
-159.492
 11
26.7061
 21
-159.854
  0
LINE
  8
0
 10
26.7061
 20
-159.854
 11
26.5791
 21
-160.209
  0
LINE
  8
0
 10
26.5791
 20
-160.209
 11
26.4287
 21
-160.555
  0
LINE
  8
0
 10
26.4287
 20
-160.555
 11
26.2578
 21
-160.891
  0
LINE
  8
0
 10
26.2578
 20
-160.891
 11
26.0664
 21
-161.215
  0
LINE
  8
0
 10
26.0664
 20
-161.215
 11
25.8545
 21
-161.526
  0
LINE
  8
0
 10
25.8545
 20
-161.526
 11
25.623
 21
-161.824
  0
LINE
  8
0
 10
25.623
 20
-161.824
 11
25.374
 21
-162.107
  0
LINE
  8
0
 10
25.374
 20
-162.107
 11
25.1074
 21
-162.374
  0
LINE
  8
0
 10
25.1074
 20
-162.374
 11
24.8242
 21
-162.623
  0
LINE
  8
0
 10
24.8242
 20
-162.623
 11
24.5264
 21
-162.854
  0
LINE
  8
0
 10
24.5264
 20
-162.854
 11
24.2148
 21
-163.066
  0
LINE
  8
0
 10
24.2148
 20
-163.066
 11
23.8906
 21
-163.258
  0
LINE
  8
0
 10
23.8906
 20
-163.258
 11
23.5547
 21
-163.429
  0
LINE
  8
0
 10
23.5547
 20
-163.429
 11
23.209
 21
-163.579
  0
LINE
  8
0
 10
23.209
 20
-163.579
 11
22.8545
 21
-163.706
  0
LINE
  8
0
 10
22.8545
 20
-163.706
 11
22.4922
 21
-163.812
  0
LINE
  8
0
 10
22.4922
 20
-163.812
 11
22.124
 21
-163.894
  0
LINE
  8
0
 10
22.124
 20
-163.894
 11
21.752
 21
-163.953
  0
LINE
  8
0
 10
21.752
 20
-163.953
 11
21.377
 21
-163.988
  0
LINE
  8
0
 10
21.377
 20
-163.988
 11
21
 21
-164
  0
LINE
  8
0
 10
21
 20
-164
 11
20.623
 21
-163.988
  0
LINE
  8
0
 10
-1.37695
 20
-163.988
 11
-1.75195
 21
-163.953
  0
LINE
  8
0
 10
-1.75195
 20
-163.953
 11
-2.12402
 21
-163.894
  0
LINE
  8
0
 10
-2.12402
 20
-163.894
 11
-2.49219
 21
-163.812
  0
LINE
  8
0
 10
-2.49219
 20
-163.812
 11
-2.85449
 21
-163.706
  0
LINE
  8
0
 10
-2.85449
 20
-163.706
 11
-3.20898
 21
-163.579
  0
LINE
  8
0
 10
-3.20898
 20
-163.579
 11
-3.55469
 21
-163.429
  0
LINE
  8
0
 10
-3.55469
 20
-163.429
 11
-3.89062
 21
-163.258
  0
LINE
  8
0
 10
-3.89062
 20
-163.258
 11
-4.21484
 21
-163.066
  0
LINE
  8
0
 10
-4.21484
 20
-163.066
 11
-4.52637
 21
-162.854
  0
LINE
  8
0
 10
-4.52637
 20
-162.854
 11
-4.82422
 21
-162.623
  0
LINE
  8
0
 10
-4.82422
 20
-162.623
 11
-5.10742
 21
-162.374
  0
LINE
  8
0
 10
-5.10742
 20
-162.374
 11
-5.37402
 21
-162.107
  0
LINE
  8
0
 10
-5.37402
 20
-162.107
 11
-5.62305
 21
-161.824
  0
LINE
  8
0
 10
-5.62305
 20
-161.824
 11
-5.85449
 21
-161.526
  0
LINE
  8
0
 10
-5.85449
 20
-161.526
 11
-6.06641
 21
-161.215
  0
LINE
  8
0
 10
-6.06641
 20
-161.215
 11
-6.25781
 21
-160.891
  0
LINE
  8
0
 10
-6.25781
 20
-160.891
 11
-6.42871
 21
-160.555
  0
LINE
  8
0
 10
-6.42871
 20
-160.555
 11
-6.5791
 21
-160.209
  0
LINE
  8
0
 10
-6.5791
 20
-160.209
 11
-6.70605
 21
-159.854
  0
LINE
  8
0
 10
-6.70605
 20
-159.854
 11
-6.81152
 21
-159.492
  0
LINE
  8
0
 10
-6.81152
 20
-159.492
 11
-6.89355
 21
-159.124
  0
LINE
  8
0
 10
-6.89355
 20
-159.124
 11
-6.95312
 21
-158.752
  0
LINE
  8
0
 10
-6.95312
 20
-158.752
 11
-6.98828
 21
-158.377
  0
LINE
  8
0
 10
-6.98828
 20
-158.377
 11
-7
 21
-158
  0
LINE
  8
0
 10
-7
 20
-158
 11
-6.98828
 21
-157.623
  0
LINE
  8
0
 10
-6.98828
 20
-157.623
 11
-6.95312
 21
-157.248
  0
LINE
  8
0
 10
-6.95312
 20
-157.248
 11
-6.89355
 21
-156.876
  0
LINE
  8
0
 10
-6.89355
 20
-156.876
 11
-6.81152
 21
-156.508
  0
LINE
  8
0
 10
-6.81152
 20
-156.508
 11
-6.70605
 21
-156.146
  0
LINE
  8
0
 10
-6.70605
 20
-156.146
 11
-6.5791
 21
-155.791
  0
LINE
  8
0
 10
-6.5791
 20
-155.791
 11
-6.42871
 21
-155.445
  0
LINE
  8
0
 10
-6.42871
 20
-155.445
 11
-6.25781
 21
-155.109
  0
LINE
  8
0
 10
-6.25781
 20
-155.109
 11
-6.06641
 21
-154.785
  0
LINE
  8
0
 10
-6.06641
 20
-154.785
 11
-5.85449
 21
-154.474
  0
LINE
  8
0
 10
-5.85449
 20
-154.474
 11
-5.62305
 21
-154.176
  0
LINE
  8
0
 10
-5.62305
 20
-154.176
 11
-5.37402
 21
-153.893
  0
LINE
  8
0
 10
-5.37402
 20
-153.893
 11
-5.10742
 21
-153.626
  0
LINE
  8
0
 10
-5.10742
 20
-153.626
 11
-4.82422
 21
-153.377
  0
LINE
  8
0
 10
-4.82422
 20
-153.377
 11
-4.52637
 21
-153.146
  0
LINE
  8
0
 10
-4.52637
 20
-153.146
 11
-4.21484
 21
-152.934
  0
LINE
  8
0
 10
-4.21484
 20
-152.934
 11
-3.89062
 21
-152.742
  0
LINE
  8
0
 10
-3.89062
 20
-152.742
 11
-3.55469
 21
-152.571
  0
LINE
  8
0
 10
-3.55469
 20
-152.571
 11
-3.20898
 21
-152.421
  0
LINE
  8
0
 10
-3.20898
 20
-152.421
 11
-2.85449
 21
-152.294
  0
LINE
  8
0
 10
-2.85449
 20
-152.294
 11
-2.49219
 21
-152.188
  0
LINE
  8
0
 10
-2.49219
 20
-152.188
 11
-2.12402
 21
-152.106
  0
LINE
  8
0
 10
-2.12402
 20
-152.106
 11
-1.75195
 21
-152.047
  0
LINE
  8
0
 10
-1.75195
 20
-152.047
 11
-1.37695
 21
-152.012
  0
LINE
  8
0
 10
-1.37695
 20
-152.012
 11
-1
 21
-152
  0
LINE
  8
0
 10
-1
 20
-152
 11
-0.623047
 21
-152.012
  0
LINE
  8
0
 10
-0.623047
 20
-152.012
 11
-0.248047
 21
-152.047
  0
LINE
  8
0
 10
-0.248047
 20
-152.047
 11
0.124023
 21
-152.106
  0
LINE
  8
0
 10
0.124023
 20
-152.106
 11
0.492188
 21
-152.188
  0
LINE
  8
0
 10
0.492188
 20
-152.188
 11
0.854492
 21
-152.294
  0
LINE
  8
0
 10
0.854492
 20
-152.294
 11
1.20898
 21
-152.421
  0
LINE
  8
0
 10
1.20898
 20
-152.421
 11
1.55469
 21
-152.571
  0
LINE
  8
0
 10
1.55469
 20
-152.571
 11
1.89062
 21
-152.742
  0
LINE
  8
0
 10
1.89062
 20
-152.742
 11
2.21484
 21
-152.934
  0
LINE
  8
0
 10
2.21484
 20
-152.934
 11
2.52637
 21
-153.146
  0
LINE
  8
0
 10
2.52637
 20
-153.146
 11
2.82422
 21
-153.377
  0
LINE
  8
0
 10
2.82422
 20
-153.377
 11
3.10742
 21
-153.626
  0
LINE
  8
0
 10
3.10742
 20
-153.626
 11
3.37402
 21
-153.893
  0
LINE
  8
0
 10
3.37402
 20
-153.893
 11
3.62305
 21
-154.176
  0
LINE
  8
0
 10
3.62305
 20
-154.176
 11
3.85449
 21
-154.474
  0
LINE
  8
0
 10
3.85449
 20
-154.474
 11
4.06641
 21
-154.785
  0
LINE
  8
0
 10
4.06641
 20
-154.785
 11
4.25781
 21
-155.109
  0
LINE
  8
0
 10
4.25781
 20
-155.109
 11
4.42871
 21
-155.445
  0
LINE
  8
0
 10
4.42871
 20
-155.445
 11
4.5791
 21
-155.791
  0
LINE
  8
0
 10
4.5791
 20
-155.791
 11
4.70605
 21
-156.146
  0
LINE
  8
0
 10
4.70605
 20
-156.146
 11
4.81152
 21
-156.508
  0
LINE
  8
0
 10
4.81152
 20
-156.508
 11
4.89355
 21
-156.876
  0
LINE
  8
0
 10
4.89355
 20
-156.876
 11
4.95312
 21
-157.248
  0
LINE
  8
0
 10
4.95312
 20
-157.248
 11
4.98828
 21
-157.623
  0
LINE
  8
0
 10
4.98828
 20
-157.623
 11
5
 21
-158
  0
LINE
  8
0
 10
5
 20
-158
 11
4.98828
 21
-158.377
  0
LINE
  8
0
 10
4.98828
 20
-158.377
 11
4.95312
 21
-158.752
  0
LINE
  8
0
 10
4.95312
 20
-158.752
 11
4.89355
 21
-159.124
  0
LINE
  8
0
 10
4.89355
 20
-159.124
 11
4.81152
 21
-159.492
  0
LINE
  8
0
 10
4.81152
 20
-159.492
 11
4.70605
 21
-159.854
  0
LINE
  8
0
 10
4.70605
 20
-159.854
 11
4.5791
 21
-160.209
  0
LINE
  8
0
 10
4.5791
 20
-160.209
 11
4.42871
 21
-160.555
  0
LINE
  8
0
 10
4.42871
 20
-160.555
 11
4.25781
 21
-160.891
  0
LINE
  8
0
 10
4.25781
 20
-160.891
 11
4.06641
 21
-161.215
  0
LINE
  8
0
 10
4.06641
 20
-161.215
 11
3.85449
 21
-161.526
  0
LINE
  8
0
 10
3.85449
 20
-161.526
 11
3.62305
 21
-161.824
  0
LINE
  8
0
 10
3.62305
 20
-161.824
 11
3.37402
 21
-162.107
  0
LINE
  8
0
 10
3.37402
 20
-162.107
 11
3.10742
 21
-162.374
  0
LINE
  8
0
 10
3.10742
 20
-162.374
 11
2.82422
 21
-162.623
  0
LINE
  8
0
 10
2.82422
 20
-162.623
 11
2.52637
 21
-162.854
  0
LINE
  8
0
 10
2.52637
 20
-162.854
 11
2.21484
 21
-163.066
  0
LINE
  8
0
 10
2.21484
 20
-163.066
 11
1.89062
 21
-163.258
  0
LINE
  8
0
 10
1.89062
 20
-163.258
 11
1.55469
 21
-163.429
  0
LINE
  8
0
 10
1.55469
 20
-163.429
 11
1.20898
 21
-163.579
  0
LINE
  8
0
 10
1.20898
 20
-163.579
 11
0.854492
 21
-163.706
  0
LINE
  8
0
 10
0.854492
 20
-163.706
 11
0.492188
 21
-163.812
  0
LINE
  8
0
 10
0.492188
 20
-163.812
 11
0.124023
 21
-163.894
  0
LINE
  8
0
 10
0.124023
 20
-163.894
 11
-0.248047
 21
-163.953
  0
LINE
  8
0
 10
-0.248047
 20
-163.953
 11
-0.623047
 21
-163.988
  0
LINE
  8
0
 10
-0.623047
 20
-163.988
 11
-1
 21
-164
  0
LINE
  8
0
 10
-1
 20
-164
 11
-1.37695
 21
-163.988
  0
LINE
  8
0
 10
-19.377
 20
-163.988
 11
-19.752
 21
-163.953
  0
LINE
  8
0
 10
-19.752
 20
-163.953
 11
-20.124
 21
-163.894
  0
LINE
  8
0
 10
-20.124
 20
-163.894
 11
-20.4922
 21
-163.812
  0
LINE
  8
0
 10
-20.4922
 20
-163.812
 11
-20.8545
 21
-163.706
  0
LINE
  8
0
 10
-20.8545
 20
-163.706
 11
-21.209
 21
-163.579
  0
LINE
  8
0
 10
-21.209
 20
-163.579
 11
-21.5547
 21
-163.429
  0
LINE
  8
0
 10
-21.5547
 20
-163.429
 11
-21.8906
 21
-163.258
  0
LINE
  8
0
 10
-21.8906
 20
-163.258
 11
-22.2148
 21
-163.066
  0
LINE
  8
0
 10
-22.2148
 20
-163.066
 11
-22.5264
 21
-162.854
  0
LINE
  8
0
 10
-22.5264
 20
-162.854
 11
-22.8242
 21
-162.623
  0
LINE
  8
0
 10
-22.8242
 20
-162.623
 11
-23.1074
 21
-162.374
  0
LINE
  8
0
 10
-23.1074
 20
-162.374
 11
-23.374
 21
-162.107
  0
LINE
  8
0
 10
-23.374
 20
-162.107
 11
-23.623
 21
-161.824
  0
LINE
  8
0
 10
-23.623
 20
-161.824
 11
-23.8545
 21
-161.526
  0
LINE
  8
0
 10
-23.8545
 20
-161.526
 11
-24.0664
 21
-161.215
  0
LINE
  8
0
 10
-24.0664
 20
-161.215
 11
-24.2578
 21
-160.891
  0
LINE
  8
0
 10
-24.2578
 20
-160.891
 11
-24.4287
 21
-160.555
  0
LINE
  8
0
 10
-24.4287
 20
-160.555
 11
-24.5791
 21
-160.209
  0
LINE
  8
0
 10
-24.5791
 20
-160.209
 11
-24.7061
 21
-159.854
  0
LINE
  8
0
 10
-24.7061
 20
-159.854
 11
-24.8115
 21
-159.492
  0
LINE
  8
0
 10
-24.8115
 20
-159.492
 11
-24.8936
 21
-159.124
  0
LINE
  8
0
 10
-24.8936
 20
-159.124
 11
-24.9531
 21
-158.752
  0
LINE
  8
0
 10
-24.9531
 20
-158.752
 11
-24.9883
 21
-158.377
  0
LINE
  8
0
 10
-24.9883
 20
-158.377
 11
-25
 21
-158
  0
LINE
  8
0
 10
-25
 20
-158
 11
-24.9883
 21
-157.623
  0
LINE
  8
0
 10
-24.9883
 20
-157.623
 11
-24.9531
 21
-157.248
  0
LINE
  8
0
 10
-24.9531
 20
-157.248
 11
-24.8936
 21
-156.876
  0
LINE
  8
0
 10
-24.8936
 20
-156.876
 11
-24.8115
 21
-156.508
  0
LINE
  8
0
 10
-24.8115
 20
-156.508
 11
-24.7061
 21
-156.146
  0
LINE
  8
0
 10
-24.7061
 20
-156.146
 11
-24.5791
 21
-155.791
  0
LINE
  8
0
 10
-24.5791
 20
-155.791
 11
-24.4287
 21
-155.445
  0
LINE
  8
0
 10
-24.4287
 20
-155.445
 11
-24.2578
 21
-155.109
  0
LINE
  8
0
 10
-24.2578
 20
-155.109
 11
-24.0664
 21
-154.785
  0
LINE
  8
0
 10
-24.0664
 20
-154.785
 11
-23.8545
 21
-154.474
  0
LINE
  8
0
 10
-23.8545
 20
-154.474
 11
-23.623
 21
-154.176
  0
LINE
  8
0
 10
-23.623
 20
-154.176
 11
-23.374
 21
-153.893
  0
LINE
  8
0
 10
-23.374
 20
-153.893
 11
-23.1074
 21
-153.626
  0
LINE
  8
0
 10
-23.1074
 20
-153.626
 11
-22.8242
 21
-153.377
  0
LINE
  8
0
 10
-22.8242
 20
-153.377
 11
-22.5264
 21
-153.146
  0
LINE
  8
0
 10
-22.5264
 20
-153.146
 11
-22.2148
 21
-152.934
  0
LINE
  8
0
 10
-22.2148
 20
-152.934
 11
-21.8906
 21
-152.742
  0
LINE
  8
0
 10
-21.8906
 20
-152.742
 11
-21.5547
 21
-152.571
  0
LINE
  8
0
 10
-21.5547
 20
-152.571
 11
-21.209
 21
-152.421
  0
LINE
  8
0
 10
-21.209
 20
-152.421
 11
-20.8545
 21
-152.294
  0
LINE
  8
0
 10
-20.8545
 20
-152.294
 11
-20.4922
 21
-152.188
  0
LINE
  8
0
 10
-20.4922
 20
-152.188
 11
-20.124
 21
-152.106
  0
LINE
  8
0
 10
-20.124
 20
-152.106
 11
-19.752
 21
-152.047
  0
LINE
  8
0
 10
-19.752
 20
-152.047
 11
-19.377
 21
-152.012
  0
LINE
  8
0
 10
-19.377
 20
-152.012
 11
-19
 21
-152
  0
LINE
  8
0
 10
-19
 20
-152
 11
-18.623
 21
-152.012
  0
LINE
  8
0
 10
-18.623
 20
-152.012
 11
-18.248
 21
-152.047
  0
LINE
  8
0
 10
-18.248
 20
-152.047
 11
-17.876
 21
-152.106
  0
LINE
  8
0
 10
-17.876
 20
-152.106
 11
-17.5078
 21
-152.188
  0
LINE
  8
0
 10
-17.5078
 20
-152.188
 11
-17.1455
 21
-152.294
  0
LINE
  8
0
 10
-17.1455
 20
-152.294
 11
-16.791
 21
-152.421
  0
LINE
  8
0
 10
-16.791
 20
-152.421
 11
-16.4453
 21
-152.571
  0
LINE
  8
0
 10
-16.4453
 20
-152.571
 11
-16.1094
 21
-152.742
  0
LINE
  8
0
 10
-16.1094
 20
-152.742
 11
-15.7852
 21
-152.934
  0
LINE
  8
0
 10
-15.7852
 20
-152.934
 11
-15.4736
 21
-153.146
  0
LINE
  8
0
 10
-15.4736
 20
-153.146
 11
-15.1758
 21
-153.377
  0
LINE
  8
0
 10
-15.1758
 20
-153.377
 11
-14.8926
 21
-153.626
  0
LINE
  8
0
 10
-14.8926
 20
-153.626
 11
-14.626
 21
-153.893
  0
LINE
  8
0
 10
-14.626
 20
-153.893
 11
-14.377
 21
-154.176
  0
LINE
  8
0
 10
-14.377
 20
-154.176
 11
-14.1455
 21
-154.474
  0
LINE
  8
0
 10
-14.1455
 20
-154.474
 11
-13.9336
 21
-154.785
  0
LINE
  8
0
 10
-13.9336
 20
-154.785
 11
-13.7422
 21
-155.109
  0
LINE
  8
0
 10
-13.7422
 20
-155.109
 11
-13.5713
 21
-155.445
  0
LINE
  8
0
 10
-13.5713
 20
-155.445
 11
-13.4209
 21
-155.791
  0
LINE
  8
0
 10
-13.4209
 20
-155.791
 11
-13.2939
 21
-156.146
  0
LINE
  8
0
 10
-13.2939
 20
-156.146
 11
-13.1885
 21
-156.508
  0
LINE
  8
0
 10
-13.1885
 20
-156.508
 11
-13.1064
 21
-156.876
  0
LINE
  8
0
 10
-13.1064
 20
-156.876
 11
-13.0469
 21
-157.248
  0
LINE
  8
0
 10
-13.0469
 20
-157.248
 11
-13.0117
 21
-157.623
  0
LINE
  8
0
 10
-13.0117
 20
-157.623
 11
-13
 21
-158
  0
LINE
  8
0
 10
-13
 20
-158
 11
-13.0117
 21
-158.377
  0
LINE
  8
0
 10
-13.0117
 20
-158.377
 11
-13.0469
 21
-158.752
  0
LINE
  8
0
 10
-13.0469
 20
-158.752
 11
-13.1064
 21
-159.124
  0
LINE
  8
0
 10
-13.1064
 20
-159.124
 11
-13.1885
 21
-159.492
  0
LINE
  8
0
 10
-13.1885
 20
-159.492
 11
-13.2939
 21
-159.854
  0
LINE
  8
0
 10
-13.2939
 20
-159.854
 11
-13.4209
 21
-160.209
  0
LINE
  8
0
 10
-13.4209
 20
-160.209
 11
-13.5713
 21
-160.555
  0
LINE
  8
0
 10
-13.5713
 20
-160.555
 11
-13.7422
 21
-160.891
  0
LINE
  8
0
 10
-13.7422
 20
-160.891
 11
-13.9336
 21
-161.215
  0
LINE
  8
0
 10
-13.9336
 20
-161.215
 11
-14.1455
 21
-161.526
  0
LINE
  8
0
 10
-14.1455
 20
-161.526
 11
-14.377
 21
-161.824
  0
LINE
  8
0
 10
-14.377
 20
-161.824
 11
-14.626
 21
-162.107
  0
LINE
  8
0
 10
-14.626
 20
-162.107
 11
-14.8926
 21
-162.374
  0
LINE
  8
0
 10
-14.8926
 20
-162.374
 11
-15.1758
 21
-162.623
  0
LINE
  8
0
 10
-15.1758
 20
-162.623
 11
-15.4736
 21
-162.854
  0
LINE
  8
0
 10
-15.4736
 20
-162.854
 11
-15.7852
 21
-163.066
  0
LINE
  8
0
 10
-15.7852
 20
-163.066
 11
-16.1094
 21
-163.258
  0
LINE
  8
0
 10
-16.1094
 20
-163.258
 11
-16.4453
 21
-163.429
  0
LINE
  8
0
 10
-16.4453
 20
-163.429
 11
-16.791
 21
-163.579
  0
LINE
  8
0
 10
-16.791
 20
-163.579
 11
-17.1455
 21
-163.706
  0
LINE
  8
0
 10
-17.1455
 20
-163.706
 11
-17.5078
 21
-163.812
  0
LINE
  8
0
 10
-17.5078
 20
-163.812
 11
-17.876
 21
-163.894
  0
LINE
  8
0
 10
-17.876
 20
-163.894
 11
-18.248
 21
-163.953
  0
LINE
  8
0
 10
-18.248
 20
-163.953
 11
-18.623
 21
-163.988
  0
LINE
  8
0
 10
-18.623
 20
-163.988
 11
-19
 21
-164
  0
LINE
  8
0
 10
-19
 20
-164
 11
-19.377
 21
-163.988
  0
LINE
  8
0
 10
39.3744
 20
-168.996
 11
39.2493
 21
-168.984
  0
LINE
  8
0
 10
39.2493
 20
-168.984
 11
39.1252
 21
-168.965
  0
LINE
  8
0
 10
39.1252
 20
-168.965
 11
39.0026
 21
-168.937
  0
LINE
  8
0
 10
39.0026
 20
-168.937
 11
38.882
 21
-168.902
  0
LINE
  8
0
 10
38.882
 20
-168.902
 11
38.7637
 21
-168.86
  0
LINE
  8
0
 10
38.7637
 20
-168.86
 11
38.6484
 21
-168.81
  0
LINE
  8
0
 10
38.6484
 20
-168.81
 11
38.5365
 21
-168.753
  0
LINE
  8
0
 10
38.5365
 20
-168.753
 11
38.4283
 21
-168.689
  0
LINE
  8
0
 10
38.4283
 20
-168.689
 11
38.3244
 21
-168.618
  0
LINE
  8
0
 10
38.3244
 20
-168.618
 11
38.2251
 21
-168.541
  0
LINE
  8
0
 10
38.2251
 20
-168.541
 11
38.1309
 21
-168.458
  0
LINE
  8
0
 10
38.1309
 20
-168.458
 11
38.0421
 21
-168.369
  0
LINE
  8
0
 10
38.0421
 20
-168.369
 11
37.959
 21
-168.275
  0
LINE
  8
0
 10
37.959
 20
-168.275
 11
37.882
 21
-168.176
  0
LINE
  8
0
 10
37.882
 20
-168.176
 11
37.8113
 21
-168.072
  0
LINE
  8
0
 10
37.8113
 20
-168.072
 11
37.7474
 21
-167.964
  0
LINE
  8
0
 10
37.7474
 20
-167.964
 11
37.6903
 21
-167.852
  0
LINE
  8
0
 10
37.6903
 20
-167.852
 11
37.6404
 21
-167.736
  0
LINE
  8
0
 10
37.6404
 20
-167.736
 11
37.5979
 21
-167.618
  0
LINE
  8
0
 10
37.5979
 20
-167.618
 11
37.5628
 21
-167.497
  0
LINE
  8
0
 10
37.5628
 20
-167.497
 11
37.5354
 21
-167.375
  0
LINE
  8
0
 10
37.5354
 20
-167.375
 11
37.5158
 21
-167.251
  0
LINE
  8
0
 10
37.5158
 20
-167.251
 11
37.5039
 21
-167.126
  0
LINE
  8
0
 10
37.5039
 20
-167.126
 11
37.501
 21
-166.969
  0
LINE
  8
0
 10
37.501
 20
-166.969
 11
37.5039
 21
-166.874
  0
LINE
  8
0
 10
37.5039
 20
-166.874
 11
37.5158
 21
-166.749
  0
LINE
  8
0
 10
37.5158
 20
-166.749
 11
37.5354
 21
-166.625
  0
LINE
  8
0
 10
37.5354
 20
-166.625
 11
37.5628
 21
-166.503
  0
LINE
  8
0
 10
37.5628
 20
-166.503
 11
37.5979
 21
-166.382
  0
LINE
  8
0
 10
37.5979
 20
-166.382
 11
37.6404
 21
-166.264
  0
LINE
  8
0
 10
37.6404
 20
-166.264
 11
37.6903
 21
-166.148
  0
LINE
  8
0
 10
37.6903
 20
-166.148
 11
37.7474
 21
-166.036
  0
LINE
  8
0
 10
37.7474
 20
-166.036
 11
37.8113
 21
-165.928
  0
LINE
  8
0
 10
37.8113
 20
-165.928
 11
37.882
 21
-165.824
  0
LINE
  8
0
 10
37.882
 20
-165.824
 11
37.959
 21
-165.725
  0
LINE
  8
0
 10
37.959
 20
-165.725
 11
38.0421
 21
-165.631
  0
LINE
  8
0
 10
38.0421
 20
-165.631
 11
38.1309
 21
-165.542
  0
LINE
  8
0
 10
38.1309
 20
-165.542
 11
38.2251
 21
-165.459
  0
LINE
  8
0
 10
38.2251
 20
-165.459
 11
38.3244
 21
-165.382
  0
LINE
  8
0
 10
38.3244
 20
-165.382
 11
38.4283
 21
-165.311
  0
LINE
  8
0
 10
38.4283
 20
-165.311
 11
38.5365
 21
-165.247
  0
LINE
  8
0
 10
38.5365
 20
-165.247
 11
38.6484
 21
-165.19
  0
LINE
  8
0
 10
38.6484
 20
-165.19
 11
38.7637
 21
-165.14
  0
LINE
  8
0
 10
38.7637
 20
-165.14
 11
38.882
 21
-165.098
  0
LINE
  8
0
 10
38.882
 20
-165.098
 11
39.0026
 21
-165.063
  0
LINE
  8
0
 10
39.0026
 20
-165.063
 11
39.1252
 21
-165.035
  0
LINE
  8
0
 10
39.1252
 20
-165.035
 11
39.2493
 21
-165.016
  0
LINE
  8
0
 10
39.2493
 20
-165.016
 11
39.3744
 21
-165.004
  0
LINE
  8
0
 10
39.3744
 20
-165.004
 11
39.5
 21
-165
  0
LINE
  8
0
 10
39.5
 20
-165
 11
39.6256
 21
-165.004
  0
LINE
  8
0
 10
39.6256
 20
-165.004
 11
39.7507
 21
-165.016
  0
LINE
  8
0
 10
39.7507
 20
-165.016
 11
39.8748
 21
-165.035
  0
LINE
  8
0
 10
39.8748
 20
-165.035
 11
39.9974
 21
-165.063
  0
LINE
  8
0
 10
39.9974
 20
-165.063
 11
40.118
 21
-165.098
  0
LINE
  8
0
 10
40.118
 20
-165.098
 11
40.2362
 21
-165.14
  0
LINE
  8
0
 10
40.2362
 20
-165.14
 11
40.3515
 21
-165.19
  0
LINE
  8
0
 10
40.3515
 20
-165.19
 11
40.4635
 21
-165.247
  0
LINE
  8
0
 10
40.4635
 20
-165.247
 11
40.5716
 21
-165.311
  0
LINE
  8
0
 10
40.5716
 20
-165.311
 11
40.6756
 21
-165.382
  0
LINE
  8
0
 10
40.6756
 20
-165.382
 11
40.7748
 21
-165.459
  0
LINE
  8
0
 10
40.7748
 20
-165.459
 11
40.8691
 21
-165.542
  0
LINE
  8
0
 10
40.8691
 20
-165.542
 11
40.9579
 21
-165.631
  0
LINE
  8
0
 10
40.9579
 20
-165.631
 11
41.041
 21
-165.725
  0
LINE
  8
0
 10
41.041
 20
-165.725
 11
41.118
 21
-165.824
  0
LINE
  8
0
 10
41.118
 20
-165.824
 11
41.1886
 21
-165.928
  0
LINE
  8
0
 10
41.1886
 20
-165.928
 11
41.2526
 21
-166.036
  0
LINE
  8
0
 10
41.2526
 20
-166.036
 11
41.3096
 21
-166.148
  0
LINE
  8
0
 10
41.3096
 20
-166.148
 11
41.3595
 21
-166.264
  0
LINE
  8
0
 10
41.3595
 20
-166.264
 11
41.4021
 21
-166.382
  0
LINE
  8
0
 10
41.4021
 20
-166.382
 11
41.4372
 21
-166.503
  0
LINE
  8
0
 10
41.4372
 20
-166.503
 11
41.4646
 21
-166.625
  0
LINE
  8
0
 10
41.4646
 20
-166.625
 11
41.4842
 21
-166.749
  0
LINE
  8
0
 10
41.4842
 20
-166.749
 11
41.496
 21
-166.874
  0
LINE
  8
0
 10
41.496
 20
-166.874
 11
41.4999
 21
-167.004
  0
LINE
  8
0
 10
41.4999
 20
-167.004
 11
41.496
 21
-167.126
  0
LINE
  8
0
 10
41.496
 20
-167.126
 11
41.4842
 21
-167.251
  0
LINE
  8
0
 10
41.4842
 20
-167.251
 11
41.4646
 21
-167.375
  0
LINE
  8
0
 10
41.4646
 20
-167.375
 11
41.4372
 21
-167.497
  0
LINE
  8
0
 10
41.4372
 20
-167.497
 11
41.4021
 21
-167.618
  0
LINE
  8
0
 10
41.4021
 20
-167.618
 11
41.3595
 21
-167.736
  0
LINE
  8
0
 10
41.3595
 20
-167.736
 11
41.3096
 21
-167.852
  0
LINE
  8
0
 10
41.3096
 20
-167.852
 11
41.2526
 21
-167.964
  0
LINE
  8
0
 10
41.2526
 20
-167.964
 11
41.1886
 21
-168.072
  0
LINE
  8
0
 10
41.1886
 20
-168.072
 11
41.118
 21
-168.176
  0
LINE
  8
0
 10
41.118
 20
-168.176
 11
41.041
 21
-168.275
  0
LINE
  8
0
 10
41.041
 20
-168.275
 11
40.9579
 21
-168.369
  0
LINE
  8
0
 10
40.9579
 20
-168.369
 11
40.8691
 21
-168.458
  0
LINE
  8
0
 10
40.8691
 20
-168.458
 11
40.7748
 21
-168.541
  0
LINE
  8
0
 10
40.7748
 20
-168.541
 11
40.6756
 21
-168.618
  0
LINE
  8
0
 10
40.6756
 20
-168.618
 11
40.5716
 21
-168.689
  0
LINE
  8
0
 10
40.5716
 20
-168.689
 11
40.4635
 21
-168.753
  0
LINE
  8
0
 10
40.4635
 20
-168.753
 11
40.3515
 21
-168.81
  0
LINE
  8
0
 10
40.3515
 20
-168.81
 11
40.2362
 21
-168.86
  0
LINE
  8
0
 10
40.2362
 20
-168.86
 11
40.118
 21
-168.902
  0
LINE
  8
0
 10
40.118
 20
-168.902
 11
39.9974
 21
-168.937
  0
LINE
  8
0
 10
39.9974
 20
-168.937
 11
39.8748
 21
-168.965
  0
LINE
  8
0
 10
39.8748
 20
-168.965
 11
39.7507
 21
-168.984
  0
LINE
  8
0
 10
39.7507
 20
-168.984
 11
39.6087
 21
-168.997
  0
LINE
  8
0
 10
39.6087
 20
-168.997
 11
39.5
 21
-169
  0
LINE
  8
0
 10
39.5
 20
-169
 11
39.3744
 21
-168.996
  0
LINE
  8
0
 10
-39.6256
 20
-168.996
 11
-39.7507
 21
-168.984
  0
LINE
  8
0
 10
-39.7507
 20
-168.984
 11
-39.8748
 21
-168.965
  0
LINE
  8
0
 10
-39.8748
 20
-168.965
 11
-39.9974
 21
-168.937
  0
LINE
  8
0
 10
-39.9974
 20
-168.937
 11
-40.118
 21
-168.902
  0
LINE
  8
0
 10
-40.118
 20
-168.902
 11
-40.2362
 21
-168.86
  0
LINE
  8
0
 10
-40.2362
 20
-168.86
 11
-40.3515
 21
-168.81
  0
LINE
  8
0
 10
-40.3515
 20
-168.81
 11
-40.4635
 21
-168.753
  0
LINE
  8
0
 10
-40.4635
 20
-168.753
 11
-40.5717
 21
-168.689
  0
LINE
  8
0
 10
-40.5717
 20
-168.689
 11
-40.6756
 21
-168.618
  0
LINE
  8
0
 10
-40.6756
 20
-168.618
 11
-40.7748
 21
-168.541
  0
LINE
  8
0
 10
-40.7748
 20
-168.541
 11
-40.8691
 21
-168.458
  0
LINE
  8
0
 10
-40.8691
 20
-168.458
 11
-40.9579
 21
-168.369
  0
LINE
  8
0
 10
-40.9579
 20
-168.369
 11
-41.041
 21
-168.275
  0
LINE
  8
0
 10
-41.041
 20
-168.275
 11
-41.118
 21
-168.176
  0
LINE
  8
0
 10
-41.118
 20
-168.176
 11
-41.1886
 21
-168.072
  0
LINE
  8
0
 10
-41.1886
 20
-168.072
 11
-41.2526
 21
-167.964
  0
LINE
  8
0
 10
-41.2526
 20
-167.964
 11
-41.3096
 21
-167.852
  0
LINE
  8
0
 10
-41.3096
 20
-167.852
 11
-41.3595
 21
-167.736
  0
LINE
  8
0
 10
-41.3595
 20
-167.736
 11
-41.4021
 21
-167.618
  0
LINE
  8
0
 10
-41.4021
 20
-167.618
 11
-41.4372
 21
-167.497
  0
LINE
  8
0
 10
-41.4372
 20
-167.497
 11
-41.4646
 21
-167.375
  0
LINE
  8
0
 10
-41.4646
 20
-167.375
 11
-41.4842
 21
-167.251
  0
LINE
  8
0
 10
-41.4842
 20
-167.251
 11
-41.497
 21
-167.094
  0
LINE
  8
0
 10
-41.497
 20
-167.094
 11
-41.4995
 21
-166.983
  0
LINE
  8
0
 10
-41.4995
 20
-166.983
 11
-41.496
 21
-166.874
  0
LINE
  8
0
 10
-41.496
 20
-166.874
 11
-41.4842
 21
-166.749
  0
LINE
  8
0
 10
-41.4842
 20
-166.749
 11
-41.4646
 21
-166.625
  0
LINE
  8
0
 10
-41.4646
 20
-166.625
 11
-41.4372
 21
-166.503
  0
LINE
  8
0
 10
-41.4372
 20
-166.503
 11
-41.4021
 21
-166.382
  0
LINE
  8
0
 10
-41.4021
 20
-166.382
 11
-41.3595
 21
-166.264
  0
LINE
  8
0
 10
-41.3595
 20
-166.264
 11
-41.3096
 21
-166.148
  0
LINE
  8
0
 10
-41.3096
 20
-166.148
 11
-41.2526
 21
-166.036
  0
LINE
  8
0
 10
-41.2526
 20
-166.036
 11
-41.1886
 21
-165.928
  0
LINE
  8
0
 10
-41.1886
 20
-165.928
 11
-41.118
 21
-165.824
  0
LINE
  8
0
 10
-41.118
 20
-165.824
 11
-41.041
 21
-165.725
  0
LINE
  8
0
 10
-41.041
 20
-165.725
 11
-40.9579
 21
-165.631
  0
LINE
  8
0
 10
-40.9579
 20
-165.631
 11
-40.8691
 21
-165.542
  0
LINE
  8
0
 10
-40.8691
 20
-165.542
 11
-40.7748
 21
-165.459
  0
LINE
  8
0
 10
-40.7748
 20
-165.459
 11
-40.6756
 21
-165.382
  0
LINE
  8
0
 10
-40.6756
 20
-165.382
 11
-40.5717
 21
-165.311
  0
LINE
  8
0
 10
-40.5717
 20
-165.311
 11
-40.4635
 21
-165.247
  0
LINE
  8
0
 10
-40.4635
 20
-165.247
 11
-40.3515
 21
-165.19
  0
LINE
  8
0
 10
-40.3515
 20
-165.19
 11
-40.2362
 21
-165.14
  0
LINE
  8
0
 10
-40.2362
 20
-165.14
 11
-40.118
 21
-165.098
  0
LINE
  8
0
 10
-40.118
 20
-165.098
 11
-39.9974
 21
-165.063
  0
LINE
  8
0
 10
-39.9974
 20
-165.063
 11
-39.8748
 21
-165.035
  0
LINE
  8
0
 10
-39.8748
 20
-165.035
 11
-39.7507
 21
-165.016
  0
LINE
  8
0
 10
-39.7507
 20
-165.016
 11
-39.6256
 21
-165.004
  0
LINE
  8
0
 10
-39.6256
 20
-165.004
 11
-39.5
 21
-165
  0
LINE
  8
0
 10
-39.5
 20
-165
 11
-39.3744
 21
-165.004
  0
LINE
  8
0
 10
-39.3744
 20
-165.004
 11
-39.2493
 21
-165.016
  0
LINE
  8
0
 10
-39.2493
 20
-165.016
 11
-39.1252
 21
-165.035
  0
LINE
  8
0
 10
-39.1252
 20
-165.035
 11
-39.0026
 21
-165.063
  0
LINE
  8
0
 10
-39.0026
 20
-165.063
 11
-38.882
 21
-165.098
  0
LINE
  8
0
 10
-38.882
 20
-165.098
 11
-38.7637
 21
-165.14
  0
LINE
  8
0
 10
-38.7637
 20
-165.14
 11
-38.6484
 21
-165.19
  0
LINE
  8
0
 10
-38.6484
 20
-165.19
 11
-38.5365
 21
-165.247
  0
LINE
  8
0
 10
-38.5365
 20
-165.247
 11
-38.4283
 21
-165.311
  0
LINE
  8
0
 10
-38.4283
 20
-165.311
 11
-38.3244
 21
-165.382
  0
LINE
  8
0
 10
-38.3244
 20
-165.382
 11
-38.2251
 21
-165.459
  0
LINE
  8
0
 10
-38.2251
 20
-165.459
 11
-38.1309
 21
-165.542
  0
LINE
  8
0
 10
-38.1309
 20
-165.542
 11
-38.0421
 21
-165.631
  0
LINE
  8
0
 10
-38.0421
 20
-165.631
 11
-37.959
 21
-165.725
  0
LINE
  8
0
 10
-37.959
 20
-165.725
 11
-37.882
 21
-165.824
  0
LINE
  8
0
 10
-37.882
 20
-165.824
 11
-37.8113
 21
-165.928
  0
LINE
  8
0
 10
-37.8113
 20
-165.928
 11
-37.7474
 21
-166.036
  0
LINE
  8
0
 10
-37.7474
 20
-166.036
 11
-37.6903
 21
-166.148
  0
LINE
  8
0
 10
-37.6903
 20
-166.148
 11
-37.6404
 21
-166.264
  0
LINE
  8
0
 10
-37.6404
 20
-166.264
 11
-37.5979
 21
-166.382
  0
LINE
  8
0
 10
-37.5979
 20
-166.382
 11
-37.5628
 21
-166.503
  0
LINE
  8
0
 10
-37.5628
 20
-166.503
 11
-37.5354
 21
-166.625
  0
LINE
  8
0
 10
-37.5354
 20
-166.625
 11
-37.5158
 21
-166.749
  0
LINE
  8
0
 10
-37.5158
 20
-166.749
 11
-37.5039
 21
-166.874
  0
LINE
  8
0
 10
-37.5039
 20
-166.874
 11
-37.5
 21
-167
  0
LINE
  8
0
 10
-37.5
 20
-167
 11
-37.5039
 21
-167.126
  0
LINE
  8
0
 10
-37.5039
 20
-167.126
 11
-37.5158
 21
-167.251
  0
LINE
  8
0
 10
-37.5158
 20
-167.251
 11
-37.5354
 21
-167.375
  0
LINE
  8
0
 10
-37.5354
 20
-167.375
 11
-37.5628
 21
-167.497
  0
LINE
  8
0
 10
-37.5628
 20
-167.497
 11
-37.5979
 21
-167.618
  0
LINE
  8
0
 10
-37.5979
 20
-167.618
 11
-37.6404
 21
-167.736
  0
LINE
  8
0
 10
-37.6404
 20
-167.736
 11
-37.6903
 21
-167.852
  0
LINE
  8
0
 10
-37.6903
 20
-167.852
 11
-37.7474
 21
-167.964
  0
LINE
  8
0
 10
-37.7474
 20
-167.964
 11
-37.8113
 21
-168.072
  0
LINE
  8
0
 10
-37.8113
 20
-168.072
 11
-37.882
 21
-168.176
  0
LINE
  8
0
 10
-37.882
 20
-168.176
 11
-37.959
 21
-168.275
  0
LINE
  8
0
 10
-37.959
 20
-168.275
 11
-38.0421
 21
-168.369
  0
LINE
  8
0
 10
-38.0421
 20
-168.369
 11
-38.1309
 21
-168.458
  0
LINE
  8
0
 10
-38.1309
 20
-168.458
 11
-38.2251
 21
-168.541
  0
LINE
  8
0
 10
-38.2251
 20
-168.541
 11
-38.3244
 21
-168.618
  0
LINE
  8
0
 10
-38.3244
 20
-168.618
 11
-38.4283
 21
-168.689
  0
LINE
  8
0
 10
-38.4283
 20
-168.689
 11
-38.5365
 21
-168.753
  0
LINE
  8
0
 10
-38.5365
 20
-168.753
 11
-38.6484
 21
-168.81
  0
LINE
  8
0
 10
-38.6484
 20
-168.81
 11
-38.7637
 21
-168.86
  0
LINE
  8
0
 10
-38.7637
 20
-168.86
 11
-38.882
 21
-168.902
  0
LINE
  8
0
 10
-38.882
 20
-168.902
 11
-39.0026
 21
-168.937
  0
LINE
  8
0
 10
-39.0026
 20
-168.937
 11
-39.1252
 21
-168.965
  0
LINE
  8
0
 10
-39.1252
 20
-168.965
 11
-39.2493
 21
-168.984
  0
LINE
  8
0
 10
-39.2493
 20
-168.984
 11
-39.3744
 21
-168.996
  0
LINE
  8
0
 10
-39.3744
 20
-168.996
 11
-39.5
 21
-169
  0
LINE
  8
0
 10
-39.5
 20
-169
 11
-39.6256
 21
-168.996
  0
LINE
  8
0
 10
-0.779297
 20
-168.573
 11
-1.05078
 21
-168.543
  0
LINE
  8
0
 10
-1.05078
 20
-168.543
 11
-1.21387
 21
-168.475
  0
LINE
  8
0
 10
-1.21387
 20
-168.475
 11
-1.34668
 21
-168.324
  0
LINE
  8
0
 10
-1.34668
 20
-168.324
 11
-1.40137
 21
-168.086
  0
LINE
  8
0
 10
-1.40137
 20
-168.086
 11
-1.11523
 21
-167.652
  0
LINE
  8
0
 10
-1.11523
 20
-167.652
 11
-1.49609
 21
-167.172
  0
LINE
  8
0
 10
-1.49609
 20
-167.172
 11
-1.44141
 21
-166.909
  0
LINE
  8
0
 10
-1.44141
 20
-166.909
 11
-1.29785
 21
-166.721
  0
LINE
  8
0
 10
-1.29785
 20
-166.721
 11
-1.10254
 21
-166.616
  0
LINE
  8
0
 10
-1.10254
 20
-166.616
 11
-0.820312
 21
-166.573
  0
LINE
  8
0
 10
-0.820312
 20
-166.573
 11
0.0283203
 21
-166.573
  0
LINE
  8
0
 10
0.0283203
 20
-166.573
 11
0.0283203
 21
-168.573
  0
LINE
  8
0
 10
0.0283203
 20
-168.573
 11
-0.779297
 21
-168.573
  0
LINE
  8
0
 10
-0.245117
 20
-166.815
 11
-0.795898
 21
-166.815
  0
LINE
  8
0
 10
-0.795898
 20
-166.815
 11
-0.981445
 21
-166.84
  0
LINE
  8
0
 10
-0.981445
 20
-166.84
 11
-1.09668
 21
-166.896
  0
LINE
  8
0
 10
-1.09668
 20
-166.896
 11
-1.18262
 21
-167.004
  0
LINE
  8
0
 10
-1.18262
 20
-167.004
 11
-1.21875
 21
-167.175
  0
LINE
  8
0
 10
-1.21875
 20
-167.175
 11
-1.17773
 21
-167.346
  0
LINE
  8
0
 10
-1.17773
 20
-167.346
 11
-1.0791
 21
-167.448
  0
LINE
  8
0
 10
-1.0791
 20
-167.448
 11
-0.96582
 21
-167.491
  0
LINE
  8
0
 10
-0.96582
 20
-167.491
 11
-0.764648
 21
-167.511
  0
LINE
  8
0
 10
-0.764648
 20
-167.511
 11
-0.245117
 21
-167.511
  0
LINE
  8
0
 10
-0.245117
 20
-167.511
 11
-0.245117
 21
-166.815
  0
LINE
  8
0
 10
-0.245117
 20
-167.733
 11
-0.720703
 21
-167.733
  0
LINE
  8
0
 10
-0.720703
 20
-167.733
 11
-0.902344
 21
-167.752
  0
LINE
  8
0
 10
-0.902344
 20
-167.752
 11
-1.00684
 21
-167.793
  0
LINE
  8
0
 10
-1.00684
 20
-167.793
 11
-1.09277
 21
-167.889
  0
LINE
  8
0
 10
-1.09277
 20
-167.889
 11
-1.12891
 21
-168.048
  0
LINE
  8
0
 10
-1.12891
 20
-168.048
 11
-1.09473
 21
-168.196
  0
LINE
  8
0
 10
-1.09473
 20
-168.196
 11
-1.0127
 21
-168.287
  0
LINE
  8
0
 10
-1.0127
 20
-168.287
 11
-0.913086
 21
-168.327
  0
LINE
  8
0
 10
-0.913086
 20
-168.327
 11
-0.742188
 21
-168.346
  0
LINE
  8
0
 10
-0.742188
 20
-168.346
 11
-0.245117
 21
-168.346
  0
LINE
  8
0
 10
-0.245117
 20
-168.346
 11
-0.245117
 21
-167.733
  0
LINE
  8
0
 10
-19.2627
 20
-168.579
 11
-20.0088
 21
-166.579
  0
LINE
  8
0
 10
-20.0088
 20
-166.579
 11
-19.7139
 21
-166.579
  0
LINE
  8
0
 10
-19.7139
 20
-166.579
 11
-19.502
 21
-167.177
  0
LINE
  8
0
 10
-19.502
 20
-167.177
 11
-18.7158
 21
-167.177
  0
LINE
  8
0
 10
-18.7158
 20
-167.177
 11
-18.501
 21
-166.579
  0
LINE
  8
0
 10
-18.501
 20
-166.579
 11
-18.2197
 21
-166.579
  0
LINE
  8
0
 10
-18.2197
 20
-166.579
 11
-18.9629
 21
-168.579
  0
LINE
  8
0
 10
-18.9629
 20
-168.579
 11
-19.2627
 21
-168.579
  0
LINE
  8
0
 10
-18.7988
 20
-167.41
 11
-19.4219
 21
-167.41
  0
LINE
  8
0
 10
-19.4219
 20
-167.41
 11
-19.1133
 21
-168.292
  0
LINE
  8
0
 10
-19.1133
 20
-168.292
 11
-18.7988
 21
-167.41
  0
LINE
  8
0
 10
25.0781
 20
-168.659
 11
24.7871
 21
-168.442
  0
LINE
  8
0
 10
24.7871
 20
-168.442
 11
24.623
 21
-168.141
  0
LINE
  8
0
 10
24.623
 20
-168.141
 11
24.5557
 21
-167.69
  0
LINE
  8
0
 10
24.5557
 20
-167.69
 11
24.623
 21
-167.239
  0
LINE
  8
0
 10
24.623
 20
-167.239
 11
24.7861
 21
-166.938
  0
LINE
  8
0
 10
24.7861
 20
-166.938
 11
25.0781
 21
-166.722
  0
LINE
  8
0
 10
25.0781
 20
-166.722
 11
25.502
 21
-166.636
  0
LINE
  8
0
 10
25.502
 20
-166.636
 11
25.9248
 21
-166.722
  0
LINE
  8
0
 10
25.9248
 20
-166.722
 11
26.2178
 21
-166.938
  0
LINE
  8
0
 10
26.2178
 20
-166.938
 11
26.3818
 21
-167.24
  0
LINE
  8
0
 10
26.3818
 20
-167.24
 11
26.4502
 21
-167.69
  0
LINE
  8
0
 10
26.4502
 20
-167.69
 11
26.3818
 21
-168.141
  0
LINE
  8
0
 10
26.3818
 20
-168.141
 11
26.2178
 21
-168.442
  0
LINE
  8
0
 10
26.2178
 20
-168.442
 11
25.9248
 21
-168.659
  0
LINE
  8
0
 10
25.9248
 20
-168.659
 11
25.502
 21
-168.744
  0
LINE
  8
0
 10
25.502
 20
-168.744
 11
25.0781
 21
-168.659
  0
LINE
  8
0
 10
25.8037
 20
-168.438
 11
26.0176
 21
-168.258
  0
LINE
  8
0
 10
26.0176
 20
-168.258
 11
26.125
 21
-168.03
  0
LINE
  8
0
 10
26.125
 20
-168.03
 11
26.1689
 21
-167.69
  0
LINE
  8
0
 10
26.1689
 20
-167.69
 11
26.125
 21
-167.35
  0
LINE
  8
0
 10
26.125
 20
-167.35
 11
26.0176
 21
-167.122
  0
LINE
  8
0
 10
26.0176
 20
-167.122
 11
25.8037
 21
-166.941
  0
LINE
  8
0
 10
25.8037
 20
-166.941
 11
25.502
 21
-166.872
  0
LINE
  8
0
 10
25.502
 20
-166.872
 11
25.1992
 21
-166.941
  0
LINE
  8
0
 10
25.1992
 20
-166.941
 11
24.9873
 21
-167.123
  0
LINE
  8
0
 10
24.9873
 20
-167.123
 11
24.8809
 21
-167.35
  0
LINE
  8
0
 10
24.8809
 20
-167.35
 11
24.8369
 21
-167.69
  0
LINE
  8
0
 10
24.8369
 20
-167.69
 11
24.8809
 21
-168.03
  0
LINE
  8
0
 10
24.8809
 20
-168.03
 11
24.9873
 21
-168.258
  0
LINE
  8
0
 10
24.9873
 20
-168.258
 11
25.1992
 21
-168.438
  0
LINE
  8
0
 10
25.1992
 20
-168.438
 11
25.502
 21
-168.508
  0
LINE
  8
0
 10
25.502
 20
-168.508
 11
25.8037
 21
-168.438
  0
LINE
  8
0
 10
22.6592
 20
-168.691
 11
22.6592
 21
-167.451
  0
LINE
  8
0
 10
22.6592
 20
-167.451
 11
22.7207
 21
-167.075
  0
LINE
  8
0
 10
22.7207
 20
-167.075
 11
22.8652
 21
-166.843
  0
LINE
  8
0
 10
22.8652
 20
-166.843
 11
23.0977
 21
-166.698
  0
LINE
  8
0
 10
23.0977
 20
-166.698
 11
23.4736
 21
-166.636
  0
LINE
  8
0
 10
23.4736
 20
-166.636
 11
23.832
 21
-166.701
  0
LINE
  8
0
 10
23.832
 20
-166.701
 11
24.0498
 21
-166.854
  0
LINE
  8
0
 10
24.0498
 20
-166.854
 11
24.1709
 21
-167.077
  0
LINE
  8
0
 10
24.1709
 20
-167.077
 11
24.2256
 21
-167.451
  0
LINE
  8
0
 10
24.2256
 20
-167.451
 11
24.2256
 21
-168.691
  0
LINE
  8
0
 10
24.2256
 20
-168.691
 11
23.9521
 21
-168.691
  0
LINE
  8
0
 10
23.9521
 20
-168.691
 11
23.9521
 21
-167.448
  0
LINE
  8
0
 10
23.9521
 20
-167.448
 11
23.916
 21
-167.188
  0
LINE
  8
0
 10
23.916
 20
-167.188
 11
23.8369
 21
-167.041
  0
LINE
  8
0
 10
23.8369
 20
-167.041
 11
23.6924
 21
-166.941
  0
LINE
  8
0
 10
23.6924
 20
-166.941
 11
23.4434
 21
-166.897
  0
LINE
  8
0
 10
23.4434
 20
-166.897
 11
23.1973
 21
-166.941
  0
LINE
  8
0
 10
23.1973
 20
-166.941
 11
23.0508
 21
-167.042
  0
LINE
  8
0
 10
23.0508
 20
-167.042
 11
22.9688
 21
-167.192
  0
LINE
  8
0
 10
22.9688
 20
-167.192
 11
22.9316
 21
-167.448
  0
LINE
  8
0
 10
22.9316
 20
-167.448
 11
22.9316
 21
-168.691
  0
LINE
  8
0
 10
22.9316
 20
-168.691
 11
22.6592
 21
-168.691
  0
LINE
  8
0
 10
17.3467
 20
-168.691
 11
17.3467
 21
-167.451
  0
LINE
  8
0
 10
17.3467
 20
-167.451
 11
17.4082
 21
-167.075
  0
LINE
  8
0
 10
17.4082
 20
-167.075
 11
17.5527
 21
-166.843
  0
LINE
  8
0
 10
17.5527
 20
-166.843
 11
17.7852
 21
-166.698
  0
LINE
  8
0
 10
17.7852
 20
-166.698
 11
18.1611
 21
-166.636
  0
LINE
  8
0
 10
18.1611
 20
-166.636
 11
18.5195
 21
-166.701
  0
LINE
  8
0
 10
18.5195
 20
-166.701
 11
18.7363
 21
-166.854
  0
LINE
  8
0
 10
18.7363
 20
-166.854
 11
18.8584
 21
-167.077
  0
LINE
  8
0
 10
18.8584
 20
-167.077
 11
18.9121
 21
-167.451
  0
LINE
  8
0
 10
18.9121
 20
-167.451
 11
18.9121
 21
-168.691
  0
LINE
  8
0
 10
18.9121
 20
-168.691
 11
18.6396
 21
-168.691
  0
LINE
  8
0
 10
18.6396
 20
-168.691
 11
18.6396
 21
-167.448
  0
LINE
  8
0
 10
18.6396
 20
-167.448
 11
18.6035
 21
-167.188
  0
LINE
  8
0
 10
18.6035
 20
-167.188
 11
18.5234
 21
-167.041
  0
LINE
  8
0
 10
18.5234
 20
-167.041
 11
18.3799
 21
-166.941
  0
LINE
  8
0
 10
18.3799
 20
-166.941
 11
18.1309
 21
-166.897
  0
LINE
  8
0
 10
18.1309
 20
-166.897
 11
17.8848
 21
-166.941
  0
LINE
  8
0
 10
17.8848
 20
-166.941
 11
17.7383
 21
-167.042
  0
LINE
  8
0
 10
17.7383
 20
-167.042
 11
17.6553
 21
-167.192
  0
LINE
  8
0
 10
17.6553
 20
-167.192
 11
17.6191
 21
-167.448
  0
LINE
  8
0
 10
17.6191
 20
-167.448
 11
17.6191
 21
-168.691
  0
LINE
  8
0
 10
17.6191
 20
-168.691
 11
17.3467
 21
-168.691
  0
LINE
  8
0
 10
20.8955
 20
-168.691
 11
20.8955
 21
-168.449
  0
LINE
  8
0
 10
20.8955
 20
-168.449
 11
21.5264
 21
-168.449
  0
LINE
  8
0
 10
21.5264
 20
-168.449
 11
21.5264
 21
-166.691
  0
LINE
  8
0
 10
21.5264
 20
-166.691
 11
21.7998
 21
-166.691
  0
LINE
  8
0
 10
21.7998
 20
-166.691
 11
21.7998
 21
-168.449
  0
LINE
  8
0
 10
21.7998
 20
-168.449
 11
22.4307
 21
-168.449
  0
LINE
  8
0
 10
22.4307
 20
-168.449
 11
22.4307
 21
-168.691
  0
LINE
  8
0
 10
22.4307
 20
-168.691
 11
20.8955
 21
-168.691
  0
LINE
  8
0
 10
15.583
 20
-168.691
 11
15.583
 21
-168.449
  0
LINE
  8
0
 10
15.583
 20
-168.449
 11
16.2139
 21
-168.449
  0
LINE
  8
0
 10
16.2139
 20
-168.449
 11
16.2139
 21
-166.691
  0
LINE
  8
0
 10
16.2139
 20
-166.691
 11
16.4863
 21
-166.691
  0
LINE
  8
0
 10
16.4863
 20
-166.691
 11
16.4863
 21
-168.449
  0
LINE
  8
0
 10
16.4863
 20
-168.449
 11
17.1182
 21
-168.449
  0
LINE
  8
0
 10
17.1182
 20
-168.449
 11
17.1182
 21
-168.691
  0
LINE
  8
0
 10
17.1182
 20
-168.691
 11
15.583
 21
-168.691
  0
LINE
  8
0
 10
19.916
 20
-168.691
 11
19.4766
 21
-168.619
  0
LINE
  8
0
 10
19.4766
 20
-168.619
 11
19.2236
 21
-168.114
  0
LINE
  8
0
 10
19.2236
 20
-168.114
 11
19.4795
 21
-167.615
  0
LINE
  8
0
 10
19.4795
 20
-167.615
 11
19.9697
 21
-167.534
  0
LINE
  8
0
 10
19.9697
 20
-167.534
 11
20.3809
 21
-167.534
  0
LINE
  8
0
 10
20.3809
 20
-167.534
 11
20.3809
 21
-166.691
  0
LINE
  8
0
 10
20.3809
 20
-166.691
 11
20.6533
 21
-166.691
  0
LINE
  8
0
 10
20.6533
 20
-166.691
 11
20.6533
 21
-168.691
  0
LINE
  8
0
 10
20.6533
 20
-168.691
 11
19.916
 21
-168.691
  0
LINE
  8
0
 10
20.3809
 20
-167.776
 11
19.9248
 21
-167.776
  0
LINE
  8
0
 10
19.9248
 20
-167.776
 11
19.7188
 21
-167.796
  0
LINE
  8
0
 10
19.7188
 20
-167.796
 11
19.6182
 21
-167.835
  0
LINE
  8
0
 10
19.6182
 20
-167.835
 11
19.5361
 21
-167.93
  0
LINE
  8
0
 10
19.5361
 20
-167.93
 11
19.499
 21
-168.112
  0
LINE
  8
0
 10
19.499
 20
-168.112
 11
19.5342
 21
-168.289
  0
LINE
  8
0
 10
19.5342
 20
-168.289
 11
19.6113
 21
-168.383
  0
LINE
  8
0
 10
19.6113
 20
-168.383
 11
19.7109
 21
-168.426
  0
LINE
  8
0
 10
19.7109
 20
-168.426
 11
19.9053
 21
-168.446
  0
LINE
  8
0
 10
19.9053
 20
-168.446
 11
20.3809
 21
-168.446
  0
LINE
  8
0
 10
20.3809
 20
-168.446
 11
20.3809
 21
-167.776
  0
LINE
  8
0
 10
20.623
 20
-182.988
 11
20.248
 21
-182.953
  0
LINE
  8
0
 10
20.248
 20
-182.953
 11
19.876
 21
-182.894
  0
LINE
  8
0
 10
19.876
 20
-182.894
 11
19.5078
 21
-182.812
  0
LINE
  8
0
 10
19.5078
 20
-182.812
 11
19.1455
 21
-182.706
  0
LINE
  8
0
 10
19.1455
 20
-182.706
 11
18.791
 21
-182.579
  0
LINE
  8
0
 10
18.791
 20
-182.579
 11
18.4453
 21
-182.429
  0
LINE
  8
0
 10
18.4453
 20
-182.429
 11
18.1094
 21
-182.258
  0
LINE
  8
0
 10
18.1094
 20
-182.258
 11
17.7852
 21
-182.066
  0
LINE
  8
0
 10
17.7852
 20
-182.066
 11
17.4736
 21
-181.854
  0
LINE
  8
0
 10
17.4736
 20
-181.854
 11
17.1758
 21
-181.623
  0
LINE
  8
0
 10
17.1758
 20
-181.623
 11
16.8926
 21
-181.374
  0
LINE
  8
0
 10
16.8926
 20
-181.374
 11
16.626
 21
-181.107
  0
LINE
  8
0
 10
16.626
 20
-181.107
 11
16.377
 21
-180.824
  0
LINE
  8
0
 10
16.377
 20
-180.824
 11
16.1455
 21
-180.526
  0
LINE
  8
0
 10
16.1455
 20
-180.526
 11
15.9336
 21
-180.215
  0
LINE
  8
0
 10
15.9336
 20
-180.215
 11
15.7422
 21
-179.891
  0
LINE
  8
0
 10
15.7422
 20
-179.891
 11
15.5713
 21
-179.555
  0
LINE
  8
0
 10
15.5713
 20
-179.555
 11
15.4209
 21
-179.209
  0
LINE
  8
0
 10
15.4209
 20
-179.209
 11
15.2939
 21
-178.854
  0
LINE
  8
0
 10
15.2939
 20
-178.854
 11
15.1885
 21
-178.492
  0
LINE
  8
0
 10
15.1885
 20
-178.492
 11
15.1064
 21
-178.124
  0
LINE
  8
0
 10
15.1064
 20
-178.124
 11
15.0469
 21
-177.752
  0
LINE
  8
0
 10
15.0469
 20
-177.752
 11
15.0117
 21
-177.377
  0
LINE
  8
0
 10
15.0117
 20
-177.377
 11
15
 21
-177
  0
LINE
  8
0
 10
15
 20
-177
 11
15.0117
 21
-176.623
  0
LINE
  8
0
 10
15.0117
 20
-176.623
 11
15.0469
 21
-176.248
  0
LINE
  8
0
 10
15.0469
 20
-176.248
 11
15.1064
 21
-175.876
  0
LINE
  8
0
 10
15.1064
 20
-175.876
 11
15.1885
 21
-175.508
  0
LINE
  8
0
 10
15.1885
 20
-175.508
 11
15.2939
 21
-175.146
  0
LINE
  8
0
 10
15.2939
 20
-175.146
 11
15.4209
 21
-174.791
  0
LINE
  8
0
 10
15.4209
 20
-174.791
 11
15.5713
 21
-174.445
  0
LINE
  8
0
 10
15.5713
 20
-174.445
 11
15.7422
 21
-174.109
  0
LINE
  8
0
 10
15.7422
 20
-174.109
 11
15.9336
 21
-173.785
  0
LINE
  8
0
 10
15.9336
 20
-173.785
 11
16.1455
 21
-173.474
  0
LINE
  8
0
 10
16.1455
 20
-173.474
 11
16.377
 21
-173.176
  0
LINE
  8
0
 10
16.377
 20
-173.176
 11
16.626
 21
-172.893
  0
LINE
  8
0
 10
16.626
 20
-172.893
 11
16.8926
 21
-172.626
  0
LINE
  8
0
 10
16.8926
 20
-172.626
 11
17.1758
 21
-172.377
  0
LINE
  8
0
 10
17.1758
 20
-172.377
 11
17.4736
 21
-172.146
  0
LINE
  8
0
 10
17.4736
 20
-172.146
 11
17.7852
 21
-171.934
  0
LINE
  8
0
 10
17.7852
 20
-171.934
 11
18.1094
 21
-171.742
  0
LINE
  8
0
 10
18.1094
 20
-171.742
 11
18.4453
 21
-171.571
  0
LINE
  8
0
 10
18.4453
 20
-171.571
 11
18.791
 21
-171.421
  0
LINE
  8
0
 10
18.791
 20
-171.421
 11
19.1455
 21
-171.294
  0
LINE
  8
0
 10
19.1455
 20
-171.294
 11
19.5078
 21
-171.188
  0
LINE
  8
0
 10
19.5078
 20
-171.188
 11
19.876
 21
-171.106
  0
LINE
  8
0
 10
19.876
 20
-171.106
 11
20.248
 21
-171.047
  0
LINE
  8
0
 10
20.248
 20
-171.047
 11
20.623
 21
-171.012
  0
LINE
  8
0
 10
20.623
 20
-171.012
 11
21
 21
-171
  0
LINE
  8
0
 10
21
 20
-171
 11
21.377
 21
-171.012
  0
LINE
  8
0
 10
21.377
 20
-171.012
 11
21.752
 21
-171.047
  0
LINE
  8
0
 10
21.752
 20
-171.047
 11
22.124
 21
-171.106
  0
LINE
  8
0
 10
22.124
 20
-171.106
 11
22.4922
 21
-171.188
  0
LINE
  8
0
 10
22.4922
 20
-171.188
 11
22.8545
 21
-171.294
  0
LINE
  8
0
 10
22.8545
 20
-171.294
 11
23.209
 21
-171.421
  0
LINE
  8
0
 10
23.209
 20
-171.421
 11
23.5547
 21
-171.571
  0
LINE
  8
0
 10
23.5547
 20
-171.571
 11
23.8906
 21
-171.742
  0
LINE
  8
0
 10
23.8906
 20
-171.742
 11
24.2148
 21
-171.934
  0
LINE
  8
0
 10
24.2148
 20
-171.934
 11
24.5264
 21
-172.146
  0
LINE
  8
0
 10
24.5264
 20
-172.146
 11
24.8242
 21
-172.377
  0
LINE
  8
0
 10
24.8242
 20
-172.377
 11
25.1074
 21
-172.626
  0
LINE
  8
0
 10
25.1074
 20
-172.626
 11
25.374
 21
-172.893
  0
LINE
  8
0
 10
25.374
 20
-172.893
 11
25.623
 21
-173.176
  0
LINE
  8
0
 10
25.623
 20
-173.176
 11
25.8545
 21
-173.474
  0
LINE
  8
0
 10
25.8545
 20
-173.474
 11
26.0664
 21
-173.785
  0
LINE
  8
0
 10
26.0664
 20
-173.785
 11
26.2578
 21
-174.109
  0
LINE
  8
0
 10
26.2578
 20
-174.109
 11
26.4287
 21
-174.445
  0
LINE
  8
0
 10
26.4287
 20
-174.445
 11
26.5791
 21
-174.791
  0
LINE
  8
0
 10
26.5791
 20
-174.791
 11
26.7061
 21
-175.146
  0
LINE
  8
0
 10
26.7061
 20
-175.146
 11
26.8115
 21
-175.508
  0
LINE
  8
0
 10
26.8115
 20
-175.508
 11
26.8936
 21
-175.876
  0
LINE
  8
0
 10
26.8936
 20
-175.876
 11
26.9531
 21
-176.248
  0
LINE
  8
0
 10
26.9531
 20
-176.248
 11
26.9883
 21
-176.623
  0
LINE
  8
0
 10
26.9883
 20
-176.623
 11
27
 21
-177
  0
LINE
  8
0
 10
27
 20
-177
 11
26.9883
 21
-177.377
  0
LINE
  8
0
 10
26.9883
 20
-177.377
 11
26.9531
 21
-177.752
  0
LINE
  8
0
 10
26.9531
 20
-177.752
 11
26.8936
 21
-178.124
  0
LINE
  8
0
 10
26.8936
 20
-178.124
 11
26.8115
 21
-178.492
  0
LINE
  8
0
 10
26.8115
 20
-178.492
 11
26.7061
 21
-178.854
  0
LINE
  8
0
 10
26.7061
 20
-178.854
 11
26.5791
 21
-179.209
  0
LINE
  8
0
 10
26.5791
 20
-179.209
 11
26.4287
 21
-179.555
  0
LINE
  8
0
 10
26.4287
 20
-179.555
 11
26.2578
 21
-179.891
  0
LINE
  8
0
 10
26.2578
 20
-179.891
 11
26.0664
 21
-180.215
  0
LINE
  8
0
 10
26.0664
 20
-180.215
 11
25.8545
 21
-180.526
  0
LINE
  8
0
 10
25.8545
 20
-180.526
 11
25.623
 21
-180.824
  0
LINE
  8
0
 10
25.623
 20
-180.824
 11
25.374
 21
-181.107
  0
LINE
  8
0
 10
25.374
 20
-181.107
 11
25.1074
 21
-181.374
  0
LINE
  8
0
 10
25.1074
 20
-181.374
 11
24.8242
 21
-181.623
  0
LINE
  8
0
 10
24.8242
 20
-181.623
 11
24.5264
 21
-181.854
  0
LINE
  8
0
 10
24.5264
 20
-181.854
 11
24.2148
 21
-182.066
  0
LINE
  8
0
 10
24.2148
 20
-182.066
 11
23.8906
 21
-182.258
  0
LINE
  8
0
 10
23.8906
 20
-182.258
 11
23.5547
 21
-182.429
  0
LINE
  8
0
 10
23.5547
 20
-182.429
 11
23.209
 21
-182.579
  0
LINE
  8
0
 10
23.209
 20
-182.579
 11
22.8545
 21
-182.706
  0
LINE
  8
0
 10
22.8545
 20
-182.706
 11
22.4922
 21
-182.812
  0
LINE
  8
0
 10
22.4922
 20
-182.812
 11
22.124
 21
-182.894
  0
LINE
  8
0
 10
22.124
 20
-182.894
 11
21.752
 21
-182.953
  0
LINE
  8
0
 10
21.752
 20
-182.953
 11
21.377
 21
-182.988
  0
LINE
  8
0
 10
21.377
 20
-182.988
 11
21
 21
-183
  0
LINE
  8
0
 10
21
 20
-183
 11
20.623
 21
-182.988
  0
LINE
  8
0
 10
-19.377
 20
-182.988
 11
-19.752
 21
-182.953
  0
LINE
  8
0
 10
-19.752
 20
-182.953
 11
-20.124
 21
-182.894
  0
LINE
  8
0
 10
-20.124
 20
-182.894
 11
-20.4922
 21
-182.812
  0
LINE
  8
0
 10
-20.4922
 20
-182.812
 11
-20.8545
 21
-182.706
  0
LINE
  8
0
 10
-20.8545
 20
-182.706
 11
-21.209
 21
-182.579
  0
LINE
  8
0
 10
-21.209
 20
-182.579
 11
-21.5547
 21
-182.429
  0
LINE
  8
0
 10
-21.5547
 20
-182.429
 11
-21.8906
 21
-182.258
  0
LINE
  8
0
 10
-21.8906
 20
-182.258
 11
-22.2148
 21
-182.066
  0
LINE
  8
0
 10
-22.2148
 20
-182.066
 11
-22.5264
 21
-181.854
  0
LINE
  8
0
 10
-22.5264
 20
-181.854
 11
-22.8242
 21
-181.623
  0
LINE
  8
0
 10
-22.8242
 20
-181.623
 11
-23.1074
 21
-181.374
  0
LINE
  8
0
 10
-23.1074
 20
-181.374
 11
-23.374
 21
-181.107
  0
LINE
  8
0
 10
-23.374
 20
-181.107
 11
-23.623
 21
-180.824
  0
LINE
  8
0
 10
-23.623
 20
-180.824
 11
-23.8545
 21
-180.526
  0
LINE
  8
0
 10
-23.8545
 20
-180.526
 11
-24.0664
 21
-180.215
  0
LINE
  8
0
 10
-24.0664
 20
-180.215
 11
-24.2578
 21
-179.891
  0
LINE
  8
0
 10
-24.2578
 20
-179.891
 11
-24.4287
 21
-179.555
  0
LINE
  8
0
 10
-24.4287
 20
-179.555
 11
-24.5791
 21
-179.209
  0
LINE
  8
0
 10
-24.5791
 20
-179.209
 11
-24.7061
 21
-178.854
  0
LINE
  8
0
 10
-24.7061
 20
-178.854
 11
-24.8115
 21
-178.492
  0
LINE
  8
0
 10
-24.8115
 20
-178.492
 11
-24.8936
 21
-178.124
  0
LINE
  8
0
 10
-24.8936
 20
-178.124
 11
-24.9531
 21
-177.752
  0
LINE
  8
0
 10
-24.9531
 20
-177.752
 11
-24.9883
 21
-177.377
  0
LINE
  8
0
 10
-24.9883
 20
-177.377
 11
-25
 21
-177
  0
LINE
  8
0
 10
-25
 20
-177
 11
-24.9883
 21
-176.623
  0
LINE
  8
0
 10
-24.9883
 20
-176.623
 11
-24.9531
 21
-176.248
  0
LINE
  8
0
 10
-24.9531
 20
-176.248
 11
-24.8936
 21
-175.876
  0
LINE
  8
0
 10
-24.8936
 20
-175.876
 11
-24.8115
 21
-175.508
  0
LINE
  8
0
 10
-24.8115
 20
-175.508
 11
-24.7061
 21
-175.146
  0
LINE
  8
0
 10
-24.7061
 20
-175.146
 11
-24.5791
 21
-174.791
  0
LINE
  8
0
 10
-24.5791
 20
-174.791
 11
-24.4287
 21
-174.445
  0
LINE
  8
0
 10
-24.4287
 20
-174.445
 11
-24.2578
 21
-174.109
  0
LINE
  8
0
 10
-24.2578
 20
-174.109
 11
-24.0664
 21
-173.785
  0
LINE
  8
0
 10
-24.0664
 20
-173.785
 11
-23.8545
 21
-173.474
  0
LINE
  8
0
 10
-23.8545
 20
-173.474
 11
-23.623
 21
-173.176
  0
LINE
  8
0
 10
-23.623
 20
-173.176
 11
-23.374
 21
-172.893
  0
LINE
  8
0
 10
-23.374
 20
-172.893
 11
-23.1074
 21
-172.626
  0
LINE
  8
0
 10
-23.1074
 20
-172.626
 11
-22.8242
 21
-172.377
  0
LINE
  8
0
 10
-22.8242
 20
-172.377
 11
-22.5264
 21
-172.146
  0
LINE
  8
0
 10
-22.5264
 20
-172.146
 11
-22.2148
 21
-171.934
  0
LINE
  8
0
 10
-22.2148
 20
-171.934
 11
-21.8906
 21
-171.742
  0
LINE
  8
0
 10
-21.8906
 20
-171.742
 11
-21.5547
 21
-171.571
  0
LINE
  8
0
 10
-21.5547
 20
-171.571
 11
-21.209
 21
-171.421
  0
LINE
  8
0
 10
-21.209
 20
-171.421
 11
-20.8545
 21
-171.294
  0
LINE
  8
0
 10
-20.8545
 20
-171.294
 11
-20.4922
 21
-171.188
  0
LINE
  8
0
 10
-20.4922
 20
-171.188
 11
-20.124
 21
-171.106
  0
LINE
  8
0
 10
-20.124
 20
-171.106
 11
-19.752
 21
-171.047
  0
LINE
  8
0
 10
-19.752
 20
-171.047
 11
-19.377
 21
-171.012
  0
LINE
  8
0
 10
-19.377
 20
-171.012
 11
-19
 21
-171
  0
LINE
  8
0
 10
-19
 20
-171
 11
-18.623
 21
-171.012
  0
LINE
  8
0
 10
-18.623
 20
-171.012
 11
-18.248
 21
-171.047
  0
LINE
  8
0
 10
-18.248
 20
-171.047
 11
-17.876
 21
-171.106
  0
LINE
  8
0
 10
-17.876
 20
-171.106
 11
-17.5078
 21
-171.188
  0
LINE
  8
0
 10
-17.5078
 20
-171.188
 11
-17.1455
 21
-171.294
  0
LINE
  8
0
 10
-17.1455
 20
-171.294
 11
-16.791
 21
-171.421
  0
LINE
  8
0
 10
-16.791
 20
-171.421
 11
-16.4453
 21
-171.571
  0
LINE
  8
0
 10
-16.4453
 20
-171.571
 11
-16.1094
 21
-171.742
  0
LINE
  8
0
 10
-16.1094
 20
-171.742
 11
-15.7852
 21
-171.934
  0
LINE
  8
0
 10
-15.7852
 20
-171.934
 11
-15.4736
 21
-172.146
  0
LINE
  8
0
 10
-15.4736
 20
-172.146
 11
-15.1758
 21
-172.377
  0
LINE
  8
0
 10
-15.1758
 20
-172.377
 11
-14.8926
 21
-172.626
  0
LINE
  8
0
 10
-14.8926
 20
-172.626
 11
-14.626
 21
-172.893
  0
LINE
  8
0
 10
-14.626
 20
-172.893
 11
-14.377
 21
-173.176
  0
LINE
  8
0
 10
-14.377
 20
-173.176
 11
-14.1455
 21
-173.474
  0
LINE
  8
0
 10
-14.1455
 20
-173.474
 11
-13.9336
 21
-173.785
  0
LINE
  8
0
 10
-13.9336
 20
-173.785
 11
-13.7422
 21
-174.109
  0
LINE
  8
0
 10
-13.7422
 20
-174.109
 11
-13.5713
 21
-174.445
  0
LINE
  8
0
 10
-13.5713
 20
-174.445
 11
-13.4209
 21
-174.791
  0
LINE
  8
0
 10
-13.4209
 20
-174.791
 11
-13.2939
 21
-175.146
  0
LINE
  8
0
 10
-13.2939
 20
-175.146
 11
-13.1885
 21
-175.508
  0
LINE
  8
0
 10
-13.1885
 20
-175.508
 11
-13.1064
 21
-175.876
  0
LINE
  8
0
 10
-13.1064
 20
-175.876
 11
-13.0469
 21
-176.248
  0
LINE
  8
0
 10
-13.0469
 20
-176.248
 11
-13.0117
 21
-176.623
  0
LINE
  8
0
 10
-13.0117
 20
-176.623
 11
-13
 21
-177
  0
LINE
  8
0
 10
-13
 20
-177
 11
-13.0117
 21
-177.377
  0
LINE
  8
0
 10
-13.0117
 20
-177.377
 11
-13.0469
 21
-177.752
  0
LINE
  8
0
 10
-13.0469
 20
-177.752
 11
-13.1064
 21
-178.124
  0
LINE
  8
0
 10
-13.1064
 20
-178.124
 11
-13.1885
 21
-178.492
  0
LINE
  8
0
 10
-13.1885
 20
-178.492
 11
-13.2939
 21
-178.854
  0
LINE
  8
0
 10
-13.2939
 20
-178.854
 11
-13.4209
 21
-179.209
  0
LINE
  8
0
 10
-13.4209
 20
-179.209
 11
-13.5713
 21
-179.555
  0
LINE
  8
0
 10
-13.5713
 20
-179.555
 11
-13.7422
 21
-179.891
  0
LINE
  8
0
 10
-13.7422
 20
-179.891
 11
-13.9336
 21
-180.215
  0
LINE
  8
0
 10
-13.9336
 20
-180.215
 11
-14.1455
 21
-180.526
  0
LINE
  8
0
 10
-14.1455
 20
-180.526
 11
-14.377
 21
-180.824
  0
LINE
  8
0
 10
-14.377
 20
-180.824
 11
-14.626
 21
-181.107
  0
LINE
  8
0
 10
-14.626
 20
-181.107
 11
-14.8926
 21
-181.374
  0
LINE
  8
0
 10
-14.8926
 20
-181.374
 11
-15.1758
 21
-181.623
  0
LINE
  8
0
 10
-15.1758
 20
-181.623
 11
-15.4736
 21
-181.854
  0
LINE
  8
0
 10
-15.4736
 20
-181.854
 11
-15.7852
 21
-182.066
  0
LINE
  8
0
 10
-15.7852
 20
-182.066
 11
-16.1094
 21
-182.258
  0
LINE
  8
0
 10
-16.1094
 20
-182.258
 11
-16.4453
 21
-182.429
  0
LINE
  8
0
 10
-16.4453
 20
-182.429
 11
-16.791
 21
-182.579
  0
LINE
  8
0
 10
-16.791
 20
-182.579
 11
-17.1455
 21
-182.706
  0
LINE
  8
0
 10
-17.1455
 20
-182.706
 11
-17.5078
 21
-182.812
  0
LINE
  8
0
 10
-17.5078
 20
-182.812
 11
-17.876
 21
-182.894
  0
LINE
  8
0
 10
-17.876
 20
-182.894
 11
-18.248
 21
-182.953
  0
LINE
  8
0
 10
-18.248
 20
-182.953
 11
-18.623
 21
-182.988
  0
LINE
  8
0
 10
-18.623
 20
-182.988
 11
-19
 21
-183
  0
LINE
  8
0
 10
-19
 20
-183
 11
-19.377
 21
-182.988
  0
LINE
  8
0
 10
-1.37695
 20
-182.988
 11
-1.75195
 21
-182.953
  0
LINE
  8
0
 10
-1.75195
 20
-182.953
 11
-2.12402
 21
-182.894
  0
LINE
  8
0
 10
-2.12402
 20
-182.894
 11
-2.49219
 21
-182.812
  0
LINE
  8
0
 10
-2.49219
 20
-182.812
 11
-2.85449
 21
-182.706
  0
LINE
  8
0
 10
-2.85449
 20
-182.706
 11
-3.20898
 21
-182.579
  0
LINE
  8
0
 10
-3.20898
 20
-182.579
 11
-3.55469
 21
-182.429
  0
LINE
  8
0
 10
-3.55469
 20
-182.429
 11
-3.89062
 21
-182.258
  0
LINE
  8
0
 10
-3.89062
 20
-182.258
 11
-4.21484
 21
-182.066
  0
LINE
  8
0
 10
-4.21484
 20
-182.066
 11
-4.52637
 21
-181.854
  0
LINE
  8
0
 10
-4.52637
 20
-181.854
 11
-4.82422
 21
-181.623
  0
LINE
  8
0
 10
-4.82422
 20
-181.623
 11
-5.10742
 21
-181.374
  0
LINE
  8
0
 10
-5.10742
 20
-181.374
 11
-5.37402
 21
-181.107
  0
LINE
  8
0
 10
-5.37402
 20
-181.107
 11
-5.62305
 21
-180.824
  0
LINE
  8
0
 10
-5.62305
 20
-180.824
 11
-5.85449
 21
-180.526
  0
LINE
  8
0
 10
-5.85449
 20
-180.526
 11
-6.06641
 21
-180.215
  0
LINE
  8
0
 10
-6.06641
 20
-180.215
 11
-6.25781
 21
-179.891
  0
LINE
  8
0
 10
-6.25781
 20
-179.891
 11
-6.42871
 21
-179.555
  0
LINE
  8
0
 10
-6.42871
 20
-179.555
 11
-6.5791
 21
-179.209
  0
LINE
  8
0
 10
-6.5791
 20
-179.209
 11
-6.70605
 21
-178.854
  0
LINE
  8
0
 10
-6.70605
 20
-178.854
 11
-6.81152
 21
-178.492
  0
LINE
  8
0
 10
-6.81152
 20
-178.492
 11
-6.89355
 21
-178.124
  0
LINE
  8
0
 10
-6.89355
 20
-178.124
 11
-6.95312
 21
-177.752
  0
LINE
  8
0
 10
-6.95312
 20
-177.752
 11
-6.98828
 21
-177.377
  0
LINE
  8
0
 10
-6.98828
 20
-177.377
 11
-7
 21
-177
  0
LINE
  8
0
 10
-7
 20
-177
 11
-6.98828
 21
-176.623
  0
LINE
  8
0
 10
-6.98828
 20
-176.623
 11
-6.95312
 21
-176.248
  0
LINE
  8
0
 10
-6.95312
 20
-176.248
 11
-6.89355
 21
-175.876
  0
LINE
  8
0
 10
-6.89355
 20
-175.876
 11
-6.81152
 21
-175.508
  0
LINE
  8
0
 10
-6.81152
 20
-175.508
 11
-6.70605
 21
-175.146
  0
LINE
  8
0
 10
-6.70605
 20
-175.146
 11
-6.5791
 21
-174.791
  0
LINE
  8
0
 10
-6.5791
 20
-174.791
 11
-6.42871
 21
-174.445
  0
LINE
  8
0
 10
-6.42871
 20
-174.445
 11
-6.25781
 21
-174.109
  0
LINE
  8
0
 10
-6.25781
 20
-174.109
 11
-6.06641
 21
-173.785
  0
LINE
  8
0
 10
-6.06641
 20
-173.785
 11
-5.85449
 21
-173.474
  0
LINE
  8
0
 10
-5.85449
 20
-173.474
 11
-5.62305
 21
-173.176
  0
LINE
  8
0
 10
-5.62305
 20
-173.176
 11
-5.37402
 21
-172.893
  0
LINE
  8
0
 10
-5.37402
 20
-172.893
 11
-5.10742
 21
-172.626
  0
LINE
  8
0
 10
-5.10742
 20
-172.626
 11
-4.82422
 21
-172.377
  0
LINE
  8
0
 10
-4.82422
 20
-172.377
 11
-4.52637
 21
-172.146
  0
LINE
  8
0
 10
-4.52637
 20
-172.146
 11
-4.21484
 21
-171.934
  0
LINE
  8
0
 10
-4.21484
 20
-171.934
 11
-3.89062
 21
-171.742
  0
LINE
  8
0
 10
-3.89062
 20
-171.742
 11
-3.55469
 21
-171.571
  0
LINE
  8
0
 10
-3.55469
 20
-171.571
 11
-3.20898
 21
-171.421
  0
LINE
  8
0
 10
-3.20898
 20
-171.421
 11
-2.85449
 21
-171.294
  0
LINE
  8
0
 10
-2.85449
 20
-171.294
 11
-2.49219
 21
-171.188
  0
LINE
  8
0
 10
-2.49219
 20
-171.188
 11
-2.12402
 21
-171.106
  0
LINE
  8
0
 10
-2.12402
 20
-171.106
 11
-1.75195
 21
-171.047
  0
LINE
  8
0
 10
-1.75195
 20
-171.047
 11
-1.37695
 21
-171.012
  0
LINE
  8
0
 10
-1.37695
 20
-171.012
 11
-1
 21
-171
  0
LINE
  8
0
 10
-1
 20
-171
 11
-0.623047
 21
-171.012
  0
LINE
  8
0
 10
-0.623047
 20
-171.012
 11
-0.248047
 21
-171.047
  0
LINE
  8
0
 10
-0.248047
 20
-171.047
 11
0.124023
 21
-171.106
  0
LINE
  8
0
 10
0.124023
 20
-171.106
 11
0.492188
 21
-171.188
  0
LINE
  8
0
 10
0.492188
 20
-171.188
 11
0.854492
 21
-171.294
  0
LINE
  8
0
 10
0.854492
 20
-171.294
 11
1.20898
 21
-171.421
  0
LINE
  8
0
 10
1.20898
 20
-171.421
 11
1.55469
 21
-171.571
  0
LINE
  8
0
 10
1.55469
 20
-171.571
 11
1.89062
 21
-171.742
  0
LINE
  8
0
 10
1.89062
 20
-171.742
 11
2.21484
 21
-171.934
  0
LINE
  8
0
 10
2.21484
 20
-171.934
 11
2.52637
 21
-172.146
  0
LINE
  8
0
 10
2.52637
 20
-172.146
 11
2.82422
 21
-172.377
  0
LINE
  8
0
 10
2.82422
 20
-172.377
 11
3.10742
 21
-172.626
  0
LINE
  8
0
 10
3.10742
 20
-172.626
 11
3.37402
 21
-172.893
  0
LINE
  8
0
 10
3.37402
 20
-172.893
 11
3.62305
 21
-173.176
  0
LINE
  8
0
 10
3.62305
 20
-173.176
 11
3.85449
 21
-173.474
  0
LINE
  8
0
 10
3.85449
 20
-173.474
 11
4.06641
 21
-173.785
  0
LINE
  8
0
 10
4.06641
 20
-173.785
 11
4.25781
 21
-174.109
  0
LINE
  8
0
 10
4.25781
 20
-174.109
 11
4.42871
 21
-174.445
  0
LINE
  8
0
 10
4.42871
 20
-174.445
 11
4.5791
 21
-174.791
  0
LINE
  8
0
 10
4.5791
 20
-174.791
 11
4.70605
 21
-175.146
  0
LINE
  8
0
 10
4.70605
 20
-175.146
 11
4.81152
 21
-175.508
  0
LINE
  8
0
 10
4.81152
 20
-175.508
 11
4.89355
 21
-175.876
  0
LINE
  8
0
 10
4.89355
 20
-175.876
 11
4.95312
 21
-176.248
  0
LINE
  8
0
 10
4.95312
 20
-176.248
 11
4.98828
 21
-176.623
  0
LINE
  8
0
 10
4.98828
 20
-176.623
 11
5
 21
-177
  0
LINE
  8
0
 10
5
 20
-177
 11
4.98828
 21
-177.377
  0
LINE
  8
0
 10
4.98828
 20
-177.377
 11
4.95312
 21
-177.752
  0
LINE
  8
0
 10
4.95312
 20
-177.752
 11
4.89355
 21
-178.124
  0
LINE
  8
0
 10
4.89355
 20
-178.124
 11
4.81152
 21
-178.492
  0
LINE
  8
0
 10
4.81152
 20
-178.492
 11
4.70605
 21
-178.854
  0
LINE
  8
0
 10
4.70605
 20
-178.854
 11
4.5791
 21
-179.209
  0
LINE
  8
0
 10
4.5791
 20
-179.209
 11
4.42871
 21
-179.555
  0
LINE
  8
0
 10
4.42871
 20
-179.555
 11
4.25781
 21
-179.891
  0
LINE
  8
0
 10
4.25781
 20
-179.891
 11
4.06641
 21
-180.215
  0
LINE
  8
0
 10
4.06641
 20
-180.215
 11
3.85449
 21
-180.526
  0
LINE
  8
0
 10
3.85449
 20
-180.526
 11
3.62305
 21
-180.824
  0
LINE
  8
0
 10
3.62305
 20
-180.824
 11
3.37402
 21
-181.107
  0
LINE
  8
0
 10
3.37402
 20
-181.107
 11
3.10742
 21
-181.374
  0
LINE
  8
0
 10
3.10742
 20
-181.374
 11
2.82422
 21
-181.623
  0
LINE
  8
0
 10
2.82422
 20
-181.623
 11
2.52637
 21
-181.854
  0
LINE
  8
0
 10
2.52637
 20
-181.854
 11
2.21484
 21
-182.066
  0
LINE
  8
0
 10
2.21484
 20
-182.066
 11
1.89062
 21
-182.258
  0
LINE
  8
0
 10
1.89062
 20
-182.258
 11
1.55469
 21
-182.429
  0
LINE
  8
0
 10
1.55469
 20
-182.429
 11
1.20898
 21
-182.579
  0
LINE
  8
0
 10
1.20898
 20
-182.579
 11
0.854492
 21
-182.706
  0
LINE
  8
0
 10
0.854492
 20
-182.706
 11
0.492188
 21
-182.812
  0
LINE
  8
0
 10
0.492188
 20
-182.812
 11
0.124023
 21
-182.894
  0
LINE
  8
0
 10
0.124023
 20
-182.894
 11
-0.248047
 21
-182.953
  0
LINE
  8
0
 10
-0.248047
 20
-182.953
 11
-0.623047
 21
-182.988
  0
LINE
  8
0
 10
-0.623047
 20
-182.988
 11
-1
 21
-183
  0
LINE
  8
0
 10
-1
 20
-183
 11
-1.37695
 21
-182.988
  0
LINE
  8
0
 10
-7.5
 20
-240.5
 11
7.5
 21
-240.5
  0
LINE
  8
0
 10
7.5
 20
-240.5
 11
7.5
 21
-243.5
  0
LINE
  8
0
 10
7.5
 20
-243.5
 11
17.5
 21
-243.5
  0
LINE
  8
0
 10
17.5
 20
-243.5
 11
17.5
 21
-240.5
  0
LINE
  8
0
 10
17.5
 20
-240.5
 11
22.5
 21
-240.5
  0
LINE
  8
0
 10
22.5
 20
-240.5
 11
22.5
 21
-235.5
  0
LINE
  8
0
 10
22.5
 20
-235.5
 11
25.5
 21
-235.5
  0
LINE
  8
0
 10
25.5
 20
-235.5
 11
25.5
 21
-225.5
  0
LINE
  8
0
 10
25.5
 20
-225.5
 11
22.5
 21
-225.5
  0
LINE
  8
0
 10
22.5
 20
-225.5
 11
22.5
 21
-219.001
  0
LINE
  8
0
 10
22.5
 20
-219.001
 11
17.75
 21
-219.001
  0
LINE
  8
0
 10
17.75
 20
-219.001
 11
17.75
 21
-220.751
  0
LINE
  8
0
 10
17.75
 20
-220.751
 11
14.25
 21
-220.751
  0
LINE
  8
0
 10
14.25
 20
-220.751
 11
14.25
 21
-219.001
  0
LINE
  8
0
 10
14.25
 20
-219.001
 11
9.5
 21
-219.001
  0
LINE
  8
0
 10
9.5
 20
-219.001
 11
9.5
 21
-214.999
  0
LINE
  8
0
 10
9.5
 20
-214.999
 11
14.25
 21
-214.999
  0
LINE
  8
0
 10
14.25
 20
-214.999
 11
14.25
 21
-213.249
  0
LINE
  8
0
 10
14.25
 20
-213.249
 11
17.75
 21
-213.249
  0
LINE
  8
0
 10
17.75
 20
-213.249
 11
17.75
 21
-214.999
  0
LINE
  8
0
 10
17.75
 20
-214.999
 11
22.5
 21
-214.999
  0
LINE
  8
0
 10
22.5
 20
-214.999
 11
22.5
 21
-212.5
  0
LINE
  8
0
 10
22.5
 20
-212.5
 11
25.5
 21
-212.5
  0
LINE
  8
0
 10
25.5
 20
-212.5
 11
25.5
 21
-202.5
  0
LINE
  8
0
 10
25.5
 20
-202.5
 11
22.5
 21
-202.5
  0
LINE
  8
0
 10
22.5
 20
-202.5
 11
22.5
 21
-197.5
  0
LINE
  8
0
 10
22.5
 20
-197.5
 11
17.5
 21
-197.5
  0
LINE
  8
0
 10
17.5
 20
-197.5
 11
17.5
 21
-194.5
  0
LINE
  8
0
 10
17.5
 20
-194.5
 11
7.5
 21
-194.5
  0
LINE
  8
0
 10
7.5
 20
-194.5
 11
7.5
 21
-197.5
  0
LINE
  8
0
 10
7.5
 20
-197.5
 11
-7.5
 21
-197.5
  0
LINE
  8
0
 10
-7.5
 20
-197.5
 11
-7.5
 21
-194.5
  0
LINE
  8
0
 10
-7.5
 20
-194.5
 11
-17.5
 21
-194.5
  0
LINE
  8
0
 10
-17.5
 20
-194.5
 11
-17.5
 21
-197.5
  0
LINE
  8
0
 10
-17.5
 20
-197.5
 11
-22.5
 21
-197.5
  0
LINE
  8
0
 10
-22.5
 20
-197.5
 11
-22.5
 21
-202.5
  0
LINE
  8
0
 10
-22.5
 20
-202.5
 11
-25.5
 21
-202.5
  0
LINE
  8
0
 10
-25.5
 20
-202.5
 11
-25.5
 21
-212.5
  0
LINE
  8
0
 10
-25.5
 20
-212.5
 11
-22.5
 21
-212.5
  0
LINE
  8
0
 10
-22.5
 20
-212.5
 11
-22.5
 21
-214.999
  0
LINE
  8
0
 10
-22.5
 20
-214.999
 11
-17.75
 21
-214.999
  0
LINE
  8
0
 10
-17.75
 20
-214.999
 11
-17.75
 21
-213.249
  0
LINE
  8
0
 10
-17.75
 20
-213.249
 11
-14.25
 21
-213.249
  0
LINE
  8
0
 10
-14.25
 20
-213.249
 11
-14.25
 21
-214.999
  0
LINE
  8
0
 10
-14.25
 20
-214.999
 11
-9.5
 21
-214.999
  0
LINE
  8
0
 10
-9.5
 20
-214.999
 11
-9.5
 21
-219.001
  0
LINE
  8
0
 10
-9.5
 20
-219.001
 11
-14.25
 21
-219.001
  0
LINE
  8
0
 10
-14.25
 20
-219.001
 11
-14.25
 21
-220.751
  0
LINE
  8
0
 10
-14.25
 20
-220.751
 11
-17.75
 21
-220.751
  0
LINE
  8
0
 10
-17.75
 20
-220.751
 11
-17.75
 21
-219.001
  0
LINE
  8
0
 10
-17.75
 20
-219.001
 11
-22.5
 21
-219.001
  0
LINE
  8
0
 10
-22.5
 20
-219.001
 11
-22.5
 21
-225.5
  0
LINE
  8
0
 10
-22.5
 20
-225.5
 11
-25.5
 21
-225.5
  0
LINE
  8
0
 10
-25.5
 20
-225.5
 11
-25.5
 21
-235.5
  0
LINE
  8
0
 10
-25.5
 20
-235.5
 11
-22.5
 21
-235.5
  0
LINE
  8
0
 10
-22.5
 20
-235.5
 11
-22.5
 21
-240.5
  0
LINE
  8
0
 10
-22.5
 20
-240.5
 11
-17.5
 21
-240.5
  0
LINE
  8
0
 10
-17.5
 20
-240.5
 11
-17.5
 21
-243.5
  0
LINE
  8
0
 10
-17.5
 20
-243.5
 11
-7.5
 21
-243.5
  0
LINE
  8
0
 10
-7.5
 20
-243.5
 11
-7.5
 21
-240.5
  0
LINE
  8
0
 10
-7.5
 20
-294.5
 11
7.5
 21
-294.5
  0
LINE
  8
0
 10
7.5
 20
-294.5
 11
7.5
 21
-297.5
  0
LINE
  8
0
 10
7.5
 20
-297.5
 11
17.5
 21
-297.5
  0
LINE
  8
0
 10
17.5
 20
-297.5
 11
17.5
 21
-294.5
  0
LINE
  8
0
 10
17.5
 20
-294.5
 11
22.5
 21
-294.5
  0
LINE
  8
0
 10
22.5
 20
-294.5
 11
22.5
 21
-289.5
  0
LINE
  8
0
 10
22.5
 20
-289.5
 11
25.5
 21
-289.5
  0
LINE
  8
0
 10
25.5
 20
-289.5
 11
25.5
 21
-279.5
  0
LINE
  8
0
 10
25.5
 20
-279.5
 11
22.5
 21
-279.5
  0
LINE
  8
0
 10
22.5
 20
-279.5
 11
22.5
 21
-273
  0
LINE
  8
0
 10
22.5
 20
-273
 11
17.75
 21
-273
  0
LINE
  8
0
 10
17.75
 20
-273
 11
17.75
 21
-274.75
  0
LINE
  8
0
 10
17.75
 20
-274.75
 11
14.25
 21
-274.75
  0
LINE
  8
0
 10
14.25
 20
-274.75
 11
14.25
 21
-273
  0
LINE
  8
0
 10
14.25
 20
-273
 11
9.5
 21
-273
  0
LINE
  8
0
 10
9.5
 20
-273
 11
9.5
 21
-269
  0
LINE
  8
0
 10
9.5
 20
-269
 11
14.25
 21
-269
  0
LINE
  8
0
 10
14.25
 20
-269
 11
14.25
 21
-267.25
  0
LINE
  8
0
 10
14.25
 20
-267.25
 11
17.75
 21
-267.25
  0
LINE
  8
0
 10
17.75
 20
-267.25
 11
17.75
 21
-269
  0
LINE
  8
0
 10
17.75
 20
-269
 11
22.5
 21
-269
  0
LINE
  8
0
 10
22.5
 20
-269
 11
22.5
 21
-266.5
  0
LINE
  8
0
 10
22.5
 20
-266.5
 11
25.5
 21
-266.5
  0
LINE
  8
0
 10
25.5
 20
-266.5
 11
25.5
 21
-256.5
  0
LINE
  8
0
 10
25.5
 20
-256.5
 11
22.5
 21
-256.5
  0
LINE
  8
0
 10
22.5
 20
-256.5
 11
22.5
 21
-251.5
  0
LINE
  8
0
 10
22.5
 20
-251.5
 11
17.5
 21
-251.5
  0
LINE
  8
0
 10
17.5
 20
-251.5
 11
17.5
 21
-248.5
  0
LINE
  8
0
 10
17.5
 20
-248.5
 11
7.5
 21
-248.5
  0
LINE
  8
0
 10
7.5
 20
-248.5
 11
7.5
 21
-251.5
  0
LINE
  8
0
 10
7.5
 20
-251.5
 11
-7.5
 21
-251.5
  0
LINE
  8
0
 10
-7.5
 20
-251.5
 11
-7.5
 21
-248.5
  0
LINE
  8
0
 10
-7.5
 20
-248.5
 11
-17.5
 21
-248.5
  0
LINE
  8
0
 10
-17.5
 20
-248.5
 11
-17.5
 21
-251.5
  0
LINE
  8
0
 10
-17.5
 20
-251.5
 11
-22.5
 21
-251.5
  0
LINE
  8
0
 10
-22.5
 20
-251.5
 11
-22.5
 21
-256.5
  0
LINE
  8
0
 10
-22.5
 20
-256.5
 11
-25.5
 21
-256.5
  0
LINE
  8
0
 10
-25.5
 20
-256.5
 11
-25.5
 21
-266.5
  0
LINE
  8
0
 10
-25.5
 20
-266.5
 11
-22.5
 21
-266.5
  0
LINE
  8
0
 10
-22.5
 20
-266.5
 11
-22.5
 21
-269
  0
LINE
  8
0
 10
-22.5
 20
-269
 11
-17.75
 21
-269
  0
LINE
  8
0
 10
-17.75
 20
-269
 11
-17.75
 21
-267.25
  0
LINE
  8
0
 10
-17.75
 20
-267.25
 11
-14.25
 21
-267.25
  0
LINE
  8
0
 10
-14.25
 20
-267.25
 11
-14.25
 21
-269
  0
LINE
  8
0
 10
-14.25
 20
-269
 11
-9.5
 21
-269
  0
LINE
  8
0
 10
-9.5
 20
-269
 11
-9.5
 21
-273
  0
LINE
  8
0
 10
-9.5
 20
-273
 11
-14.25
 21
-273
  0
LINE
  8
0
 10
-14.25
 20
-273
 11
-14.25
 21
-274.75
  0
LINE
  8
0
 10
-14.25
 20
-274.75
 11
-17.75
 21
-274.75
  0
LINE
  8
0
 10
-17.75
 20
-274.75
 11
-17.75
 21
-273
  0
LINE
  8
0
 10
-17.75
 20
-273
 11
-22.5
 21
-273
  0
LINE
  8
0
 10
-22.5
 20
-273
 11
-22.5
 21
-279.5
  0
LINE
  8
0
 10
-22.5
 20
-279.5
 11
-25.5
 21
-279.5
  0
LINE
  8
0
 10
-25.5
 20
-279.5
 11
-25.5
 21
-289.5
  0
LINE
  8
0
 10
-25.5
 20
-289.5
 11
-22.5
 21
-289.5
  0
LINE
  8
0
 10
-22.5
 20
-289.5
 11
-22.5
 21
-294.5
  0
LINE
  8
0
 10
-22.5
 20
-294.5
 11
-17.5
 21
-294.5
  0
LINE
  8
0
 10
-17.5
 20
-294.5
 11
-17.5
 21
-297.5
  0
LINE
  8
0
 10
-17.5
 20
-297.5
 11
-7.5
 21
-297.5
  0
LINE
  8
0
 10
-7.5
 20
-297.5
 11
-7.5
 21
-294.5
  0
ENDSEC
  0
SECTION
  2
OBJECTS
  0
DICTIONARY
  0
ENDSEC
  0
EOF
