G04 #@! TF.FileFunction,Copper,L1,Top,Signal*
%FSLAX46Y46*%
G04 Gerber Fmt 4.6, Leading zero omitted, Abs format (unit mm)*
G04 Created by KiCad (PCBNEW 4.0.6) date Thu Jun  8 14:30:20 2017*
%MOMM*%
%LPD*%
G01*
G04 APERTURE LIST*
%ADD10C,0.100000*%
%ADD11C,0.010000*%
%ADD12C,1.500000*%
%ADD13C,2.524000*%
%ADD14C,3.000000*%
%ADD15O,4.000000X2.000000*%
%ADD16O,2.540000X4.000000*%
%ADD17C,0.600000*%
%ADD18C,0.500000*%
%ADD19C,0.254000*%
G04 APERTURE END LIST*
D10*
D11*
G36*
X154749744Y-124089918D02*
X154805201Y-124117568D01*
X154854148Y-124168480D01*
X154867629Y-124187338D01*
X154882314Y-124212015D01*
X154891842Y-124238816D01*
X154897293Y-124274587D01*
X154899747Y-124326169D01*
X154900286Y-124394267D01*
X154897852Y-124487588D01*
X154889394Y-124557657D01*
X154873174Y-124609931D01*
X154847454Y-124649869D01*
X154810497Y-124682929D01*
X154807782Y-124684886D01*
X154771360Y-124704908D01*
X154727502Y-124714815D01*
X154671724Y-124717257D01*
X154581048Y-124717257D01*
X154581010Y-124805283D01*
X154580166Y-124854308D01*
X154575024Y-124883065D01*
X154561587Y-124900311D01*
X154535858Y-124914808D01*
X154529679Y-124917769D01*
X154500764Y-124931648D01*
X154478376Y-124940414D01*
X154461729Y-124941171D01*
X154450036Y-124931023D01*
X154442510Y-124907073D01*
X154438366Y-124866426D01*
X154436815Y-124806186D01*
X154437071Y-124723455D01*
X154438349Y-124615339D01*
X154438748Y-124583000D01*
X154440185Y-124471524D01*
X154441472Y-124398603D01*
X154580971Y-124398603D01*
X154581755Y-124460499D01*
X154585240Y-124500997D01*
X154593124Y-124527708D01*
X154607105Y-124548244D01*
X154616597Y-124558260D01*
X154655404Y-124587567D01*
X154689763Y-124589952D01*
X154725216Y-124565750D01*
X154726114Y-124564857D01*
X154740539Y-124546153D01*
X154749313Y-124520732D01*
X154753739Y-124481584D01*
X154755118Y-124421697D01*
X154755143Y-124408430D01*
X154751812Y-124325901D01*
X154740969Y-124268691D01*
X154721340Y-124233766D01*
X154691650Y-124218094D01*
X154674491Y-124216514D01*
X154633766Y-124223926D01*
X154605832Y-124248330D01*
X154589017Y-124292980D01*
X154581650Y-124361130D01*
X154580971Y-124398603D01*
X154441472Y-124398603D01*
X154441708Y-124385245D01*
X154443677Y-124320333D01*
X154446450Y-124272958D01*
X154450388Y-124239290D01*
X154455849Y-124215498D01*
X154463192Y-124197753D01*
X154472777Y-124182224D01*
X154476887Y-124176381D01*
X154531405Y-124121185D01*
X154600336Y-124089890D01*
X154680072Y-124081165D01*
X154749744Y-124089918D01*
X154749744Y-124089918D01*
G37*
X154749744Y-124089918D02*
X154805201Y-124117568D01*
X154854148Y-124168480D01*
X154867629Y-124187338D01*
X154882314Y-124212015D01*
X154891842Y-124238816D01*
X154897293Y-124274587D01*
X154899747Y-124326169D01*
X154900286Y-124394267D01*
X154897852Y-124487588D01*
X154889394Y-124557657D01*
X154873174Y-124609931D01*
X154847454Y-124649869D01*
X154810497Y-124682929D01*
X154807782Y-124684886D01*
X154771360Y-124704908D01*
X154727502Y-124714815D01*
X154671724Y-124717257D01*
X154581048Y-124717257D01*
X154581010Y-124805283D01*
X154580166Y-124854308D01*
X154575024Y-124883065D01*
X154561587Y-124900311D01*
X154535858Y-124914808D01*
X154529679Y-124917769D01*
X154500764Y-124931648D01*
X154478376Y-124940414D01*
X154461729Y-124941171D01*
X154450036Y-124931023D01*
X154442510Y-124907073D01*
X154438366Y-124866426D01*
X154436815Y-124806186D01*
X154437071Y-124723455D01*
X154438349Y-124615339D01*
X154438748Y-124583000D01*
X154440185Y-124471524D01*
X154441472Y-124398603D01*
X154580971Y-124398603D01*
X154581755Y-124460499D01*
X154585240Y-124500997D01*
X154593124Y-124527708D01*
X154607105Y-124548244D01*
X154616597Y-124558260D01*
X154655404Y-124587567D01*
X154689763Y-124589952D01*
X154725216Y-124565750D01*
X154726114Y-124564857D01*
X154740539Y-124546153D01*
X154749313Y-124520732D01*
X154753739Y-124481584D01*
X154755118Y-124421697D01*
X154755143Y-124408430D01*
X154751812Y-124325901D01*
X154740969Y-124268691D01*
X154721340Y-124233766D01*
X154691650Y-124218094D01*
X154674491Y-124216514D01*
X154633766Y-124223926D01*
X154605832Y-124248330D01*
X154589017Y-124292980D01*
X154581650Y-124361130D01*
X154580971Y-124398603D01*
X154441472Y-124398603D01*
X154441708Y-124385245D01*
X154443677Y-124320333D01*
X154446450Y-124272958D01*
X154450388Y-124239290D01*
X154455849Y-124215498D01*
X154463192Y-124197753D01*
X154472777Y-124182224D01*
X154476887Y-124176381D01*
X154531405Y-124121185D01*
X154600336Y-124089890D01*
X154680072Y-124081165D01*
X154749744Y-124089918D01*
G36*
X155866093Y-124097780D02*
X155912672Y-124124723D01*
X155945057Y-124151466D01*
X155968742Y-124179484D01*
X155985059Y-124213748D01*
X155995339Y-124259227D01*
X156000914Y-124320892D01*
X156003116Y-124403711D01*
X156003371Y-124463246D01*
X156003371Y-124682391D01*
X155941686Y-124710044D01*
X155880000Y-124737697D01*
X155872743Y-124497670D01*
X155869744Y-124408028D01*
X155866598Y-124342962D01*
X155862701Y-124298026D01*
X155857447Y-124268770D01*
X155850231Y-124250748D01*
X155840450Y-124239511D01*
X155837312Y-124237079D01*
X155789761Y-124218083D01*
X155741697Y-124225600D01*
X155713086Y-124245543D01*
X155701447Y-124259675D01*
X155693391Y-124278220D01*
X155688271Y-124306334D01*
X155685441Y-124349173D01*
X155684256Y-124411895D01*
X155684057Y-124477261D01*
X155684018Y-124559268D01*
X155682614Y-124617316D01*
X155677914Y-124656465D01*
X155667987Y-124681780D01*
X155650903Y-124698323D01*
X155624732Y-124711156D01*
X155589775Y-124724491D01*
X155551596Y-124739007D01*
X155556141Y-124481389D01*
X155557971Y-124388519D01*
X155560112Y-124319889D01*
X155563181Y-124270711D01*
X155567794Y-124236198D01*
X155574568Y-124211562D01*
X155584119Y-124192016D01*
X155595634Y-124174770D01*
X155651190Y-124119680D01*
X155718980Y-124087822D01*
X155792713Y-124080191D01*
X155866093Y-124097780D01*
X155866093Y-124097780D01*
G37*
X155866093Y-124097780D02*
X155912672Y-124124723D01*
X155945057Y-124151466D01*
X155968742Y-124179484D01*
X155985059Y-124213748D01*
X155995339Y-124259227D01*
X156000914Y-124320892D01*
X156003116Y-124403711D01*
X156003371Y-124463246D01*
X156003371Y-124682391D01*
X155941686Y-124710044D01*
X155880000Y-124737697D01*
X155872743Y-124497670D01*
X155869744Y-124408028D01*
X155866598Y-124342962D01*
X155862701Y-124298026D01*
X155857447Y-124268770D01*
X155850231Y-124250748D01*
X155840450Y-124239511D01*
X155837312Y-124237079D01*
X155789761Y-124218083D01*
X155741697Y-124225600D01*
X155713086Y-124245543D01*
X155701447Y-124259675D01*
X155693391Y-124278220D01*
X155688271Y-124306334D01*
X155685441Y-124349173D01*
X155684256Y-124411895D01*
X155684057Y-124477261D01*
X155684018Y-124559268D01*
X155682614Y-124617316D01*
X155677914Y-124656465D01*
X155667987Y-124681780D01*
X155650903Y-124698323D01*
X155624732Y-124711156D01*
X155589775Y-124724491D01*
X155551596Y-124739007D01*
X155556141Y-124481389D01*
X155557971Y-124388519D01*
X155560112Y-124319889D01*
X155563181Y-124270711D01*
X155567794Y-124236198D01*
X155574568Y-124211562D01*
X155584119Y-124192016D01*
X155595634Y-124174770D01*
X155651190Y-124119680D01*
X155718980Y-124087822D01*
X155792713Y-124080191D01*
X155866093Y-124097780D01*
G36*
X154191115Y-124091962D02*
X154259145Y-124127733D01*
X154309351Y-124185301D01*
X154327185Y-124222312D01*
X154341063Y-124277882D01*
X154348167Y-124348096D01*
X154348840Y-124424727D01*
X154343427Y-124499552D01*
X154332270Y-124564342D01*
X154315714Y-124610873D01*
X154310626Y-124618887D01*
X154250355Y-124678707D01*
X154178769Y-124714535D01*
X154101092Y-124725020D01*
X154022548Y-124708810D01*
X154000689Y-124699092D01*
X153958122Y-124669143D01*
X153920763Y-124629433D01*
X153917232Y-124624397D01*
X153902881Y-124600124D01*
X153893394Y-124574178D01*
X153887790Y-124540022D01*
X153885086Y-124491119D01*
X153884299Y-124420935D01*
X153884286Y-124405200D01*
X153884322Y-124400192D01*
X154029429Y-124400192D01*
X154030273Y-124466430D01*
X154033596Y-124510386D01*
X154040583Y-124538779D01*
X154052416Y-124558325D01*
X154058457Y-124564857D01*
X154093186Y-124589680D01*
X154126903Y-124588548D01*
X154160995Y-124567016D01*
X154181329Y-124544029D01*
X154193371Y-124510478D01*
X154200134Y-124457569D01*
X154200598Y-124451399D01*
X154201752Y-124355513D01*
X154189688Y-124284299D01*
X154164570Y-124238194D01*
X154126560Y-124217635D01*
X154112992Y-124216514D01*
X154077364Y-124222152D01*
X154052994Y-124241686D01*
X154038093Y-124279042D01*
X154030875Y-124338150D01*
X154029429Y-124400192D01*
X153884322Y-124400192D01*
X153884826Y-124330413D01*
X153887096Y-124278159D01*
X153892068Y-124241949D01*
X153900713Y-124215299D01*
X153914005Y-124191722D01*
X153916943Y-124187338D01*
X153966313Y-124128249D01*
X154020109Y-124093947D01*
X154085602Y-124080331D01*
X154107842Y-124079665D01*
X154191115Y-124091962D01*
X154191115Y-124091962D01*
G37*
X154191115Y-124091962D02*
X154259145Y-124127733D01*
X154309351Y-124185301D01*
X154327185Y-124222312D01*
X154341063Y-124277882D01*
X154348167Y-124348096D01*
X154348840Y-124424727D01*
X154343427Y-124499552D01*
X154332270Y-124564342D01*
X154315714Y-124610873D01*
X154310626Y-124618887D01*
X154250355Y-124678707D01*
X154178769Y-124714535D01*
X154101092Y-124725020D01*
X154022548Y-124708810D01*
X154000689Y-124699092D01*
X153958122Y-124669143D01*
X153920763Y-124629433D01*
X153917232Y-124624397D01*
X153902881Y-124600124D01*
X153893394Y-124574178D01*
X153887790Y-124540022D01*
X153885086Y-124491119D01*
X153884299Y-124420935D01*
X153884286Y-124405200D01*
X153884322Y-124400192D01*
X154029429Y-124400192D01*
X154030273Y-124466430D01*
X154033596Y-124510386D01*
X154040583Y-124538779D01*
X154052416Y-124558325D01*
X154058457Y-124564857D01*
X154093186Y-124589680D01*
X154126903Y-124588548D01*
X154160995Y-124567016D01*
X154181329Y-124544029D01*
X154193371Y-124510478D01*
X154200134Y-124457569D01*
X154200598Y-124451399D01*
X154201752Y-124355513D01*
X154189688Y-124284299D01*
X154164570Y-124238194D01*
X154126560Y-124217635D01*
X154112992Y-124216514D01*
X154077364Y-124222152D01*
X154052994Y-124241686D01*
X154038093Y-124279042D01*
X154030875Y-124338150D01*
X154029429Y-124400192D01*
X153884322Y-124400192D01*
X153884826Y-124330413D01*
X153887096Y-124278159D01*
X153892068Y-124241949D01*
X153900713Y-124215299D01*
X153914005Y-124191722D01*
X153916943Y-124187338D01*
X153966313Y-124128249D01*
X154020109Y-124093947D01*
X154085602Y-124080331D01*
X154107842Y-124079665D01*
X154191115Y-124091962D01*
G36*
X155318303Y-124101239D02*
X155375527Y-124139735D01*
X155419749Y-124195335D01*
X155446167Y-124266086D01*
X155451510Y-124318162D01*
X155450903Y-124339893D01*
X155445822Y-124356531D01*
X155431855Y-124371437D01*
X155404589Y-124387973D01*
X155359612Y-124409498D01*
X155292511Y-124439374D01*
X155292171Y-124439524D01*
X155230407Y-124467813D01*
X155179759Y-124492933D01*
X155145404Y-124512179D01*
X155132518Y-124522848D01*
X155132514Y-124522934D01*
X155143872Y-124546166D01*
X155170431Y-124571774D01*
X155200923Y-124590221D01*
X155216370Y-124593886D01*
X155258515Y-124581212D01*
X155294808Y-124549471D01*
X155312517Y-124514572D01*
X155329552Y-124488845D01*
X155362922Y-124459546D01*
X155402149Y-124434235D01*
X155436756Y-124420471D01*
X155443993Y-124419714D01*
X155452139Y-124432160D01*
X155452630Y-124463972D01*
X155446643Y-124506866D01*
X155435357Y-124552558D01*
X155419950Y-124592761D01*
X155419171Y-124594322D01*
X155372804Y-124659062D01*
X155312711Y-124703097D01*
X155244465Y-124724711D01*
X155173638Y-124722185D01*
X155105804Y-124693804D01*
X155102788Y-124691808D01*
X155049427Y-124643448D01*
X155014340Y-124580352D01*
X154994922Y-124497387D01*
X154992316Y-124474078D01*
X154987701Y-124364055D01*
X154993233Y-124312748D01*
X155132514Y-124312748D01*
X155134324Y-124344753D01*
X155144222Y-124354093D01*
X155168898Y-124347105D01*
X155207795Y-124330587D01*
X155251275Y-124309881D01*
X155252356Y-124309333D01*
X155289209Y-124289949D01*
X155304000Y-124277013D01*
X155300353Y-124263451D01*
X155284995Y-124245632D01*
X155245923Y-124219845D01*
X155203846Y-124217950D01*
X155166103Y-124236717D01*
X155140034Y-124272915D01*
X155132514Y-124312748D01*
X154993233Y-124312748D01*
X154997194Y-124276027D01*
X155021550Y-124206212D01*
X155055456Y-124157302D01*
X155116653Y-124107878D01*
X155184063Y-124083359D01*
X155252880Y-124081797D01*
X155318303Y-124101239D01*
X155318303Y-124101239D01*
G37*
X155318303Y-124101239D02*
X155375527Y-124139735D01*
X155419749Y-124195335D01*
X155446167Y-124266086D01*
X155451510Y-124318162D01*
X155450903Y-124339893D01*
X155445822Y-124356531D01*
X155431855Y-124371437D01*
X155404589Y-124387973D01*
X155359612Y-124409498D01*
X155292511Y-124439374D01*
X155292171Y-124439524D01*
X155230407Y-124467813D01*
X155179759Y-124492933D01*
X155145404Y-124512179D01*
X155132518Y-124522848D01*
X155132514Y-124522934D01*
X155143872Y-124546166D01*
X155170431Y-124571774D01*
X155200923Y-124590221D01*
X155216370Y-124593886D01*
X155258515Y-124581212D01*
X155294808Y-124549471D01*
X155312517Y-124514572D01*
X155329552Y-124488845D01*
X155362922Y-124459546D01*
X155402149Y-124434235D01*
X155436756Y-124420471D01*
X155443993Y-124419714D01*
X155452139Y-124432160D01*
X155452630Y-124463972D01*
X155446643Y-124506866D01*
X155435357Y-124552558D01*
X155419950Y-124592761D01*
X155419171Y-124594322D01*
X155372804Y-124659062D01*
X155312711Y-124703097D01*
X155244465Y-124724711D01*
X155173638Y-124722185D01*
X155105804Y-124693804D01*
X155102788Y-124691808D01*
X155049427Y-124643448D01*
X155014340Y-124580352D01*
X154994922Y-124497387D01*
X154992316Y-124474078D01*
X154987701Y-124364055D01*
X154993233Y-124312748D01*
X155132514Y-124312748D01*
X155134324Y-124344753D01*
X155144222Y-124354093D01*
X155168898Y-124347105D01*
X155207795Y-124330587D01*
X155251275Y-124309881D01*
X155252356Y-124309333D01*
X155289209Y-124289949D01*
X155304000Y-124277013D01*
X155300353Y-124263451D01*
X155284995Y-124245632D01*
X155245923Y-124219845D01*
X155203846Y-124217950D01*
X155166103Y-124236717D01*
X155140034Y-124272915D01*
X155132514Y-124312748D01*
X154993233Y-124312748D01*
X154997194Y-124276027D01*
X155021550Y-124206212D01*
X155055456Y-124157302D01*
X155116653Y-124107878D01*
X155184063Y-124083359D01*
X155252880Y-124081797D01*
X155318303Y-124101239D01*
G36*
X156525886Y-124021289D02*
X156530139Y-124080613D01*
X156535025Y-124115572D01*
X156541795Y-124130820D01*
X156551702Y-124131015D01*
X156554914Y-124129195D01*
X156597644Y-124116015D01*
X156653227Y-124116785D01*
X156709737Y-124130333D01*
X156745082Y-124147861D01*
X156781321Y-124175861D01*
X156807813Y-124207549D01*
X156825999Y-124247813D01*
X156837322Y-124301543D01*
X156843222Y-124373626D01*
X156845143Y-124468951D01*
X156845177Y-124487237D01*
X156845200Y-124692646D01*
X156799491Y-124708580D01*
X156767027Y-124719420D01*
X156749215Y-124724468D01*
X156748691Y-124724514D01*
X156746937Y-124710828D01*
X156745444Y-124673076D01*
X156744326Y-124616224D01*
X156743697Y-124545234D01*
X156743600Y-124502073D01*
X156743398Y-124416973D01*
X156742358Y-124355981D01*
X156739831Y-124314177D01*
X156735164Y-124286642D01*
X156727707Y-124268456D01*
X156716811Y-124254698D01*
X156710007Y-124248073D01*
X156663272Y-124221375D01*
X156612272Y-124219375D01*
X156566001Y-124241955D01*
X156557444Y-124250107D01*
X156544893Y-124265436D01*
X156536188Y-124283618D01*
X156530631Y-124309909D01*
X156527526Y-124349562D01*
X156526176Y-124407832D01*
X156525886Y-124488173D01*
X156525886Y-124692646D01*
X156480177Y-124708580D01*
X156447713Y-124719420D01*
X156429901Y-124724468D01*
X156429377Y-124724514D01*
X156428037Y-124710623D01*
X156426828Y-124671439D01*
X156425801Y-124610700D01*
X156425002Y-124532141D01*
X156424481Y-124439498D01*
X156424286Y-124336509D01*
X156424286Y-123939342D01*
X156471457Y-123919444D01*
X156518629Y-123899547D01*
X156525886Y-124021289D01*
X156525886Y-124021289D01*
G37*
X156525886Y-124021289D02*
X156530139Y-124080613D01*
X156535025Y-124115572D01*
X156541795Y-124130820D01*
X156551702Y-124131015D01*
X156554914Y-124129195D01*
X156597644Y-124116015D01*
X156653227Y-124116785D01*
X156709737Y-124130333D01*
X156745082Y-124147861D01*
X156781321Y-124175861D01*
X156807813Y-124207549D01*
X156825999Y-124247813D01*
X156837322Y-124301543D01*
X156843222Y-124373626D01*
X156845143Y-124468951D01*
X156845177Y-124487237D01*
X156845200Y-124692646D01*
X156799491Y-124708580D01*
X156767027Y-124719420D01*
X156749215Y-124724468D01*
X156748691Y-124724514D01*
X156746937Y-124710828D01*
X156745444Y-124673076D01*
X156744326Y-124616224D01*
X156743697Y-124545234D01*
X156743600Y-124502073D01*
X156743398Y-124416973D01*
X156742358Y-124355981D01*
X156739831Y-124314177D01*
X156735164Y-124286642D01*
X156727707Y-124268456D01*
X156716811Y-124254698D01*
X156710007Y-124248073D01*
X156663272Y-124221375D01*
X156612272Y-124219375D01*
X156566001Y-124241955D01*
X156557444Y-124250107D01*
X156544893Y-124265436D01*
X156536188Y-124283618D01*
X156530631Y-124309909D01*
X156527526Y-124349562D01*
X156526176Y-124407832D01*
X156525886Y-124488173D01*
X156525886Y-124692646D01*
X156480177Y-124708580D01*
X156447713Y-124719420D01*
X156429901Y-124724468D01*
X156429377Y-124724514D01*
X156428037Y-124710623D01*
X156426828Y-124671439D01*
X156425801Y-124610700D01*
X156425002Y-124532141D01*
X156424481Y-124439498D01*
X156424286Y-124336509D01*
X156424286Y-123939342D01*
X156471457Y-123919444D01*
X156518629Y-123899547D01*
X156525886Y-124021289D01*
G36*
X157189744Y-124120968D02*
X157246616Y-124142087D01*
X157247267Y-124142493D01*
X157282440Y-124168380D01*
X157308407Y-124198633D01*
X157326670Y-124238058D01*
X157338732Y-124291462D01*
X157346096Y-124363651D01*
X157350264Y-124459432D01*
X157350629Y-124473078D01*
X157355876Y-124678842D01*
X157311716Y-124701678D01*
X157279763Y-124717110D01*
X157260470Y-124724423D01*
X157259578Y-124724514D01*
X157256239Y-124711022D01*
X157253587Y-124674626D01*
X157251956Y-124621452D01*
X157251600Y-124578393D01*
X157251592Y-124508641D01*
X157248403Y-124464837D01*
X157237288Y-124443944D01*
X157213501Y-124442925D01*
X157172296Y-124458741D01*
X157110086Y-124487815D01*
X157064341Y-124511963D01*
X157040813Y-124532913D01*
X157033896Y-124555747D01*
X157033886Y-124556877D01*
X157045299Y-124596212D01*
X157079092Y-124617462D01*
X157130809Y-124620539D01*
X157168061Y-124620006D01*
X157187703Y-124630735D01*
X157199952Y-124656505D01*
X157207002Y-124689337D01*
X157196842Y-124707966D01*
X157193017Y-124710632D01*
X157157001Y-124721340D01*
X157106566Y-124722856D01*
X157054626Y-124715759D01*
X157017822Y-124702788D01*
X156966938Y-124659585D01*
X156938014Y-124599446D01*
X156932286Y-124552462D01*
X156936657Y-124510082D01*
X156952475Y-124475488D01*
X156983797Y-124444763D01*
X157034678Y-124413990D01*
X157109176Y-124379252D01*
X157113714Y-124377288D01*
X157180821Y-124346287D01*
X157222232Y-124320862D01*
X157239981Y-124298014D01*
X157236107Y-124274745D01*
X157212643Y-124248056D01*
X157205627Y-124241914D01*
X157158630Y-124218100D01*
X157109933Y-124219103D01*
X157067522Y-124242451D01*
X157039384Y-124285675D01*
X157036769Y-124294160D01*
X157011308Y-124335308D01*
X156979001Y-124355128D01*
X156932286Y-124374770D01*
X156932286Y-124323950D01*
X156946496Y-124250082D01*
X156988675Y-124182327D01*
X157010624Y-124159661D01*
X157060517Y-124130569D01*
X157123967Y-124117400D01*
X157189744Y-124120968D01*
X157189744Y-124120968D01*
G37*
X157189744Y-124120968D02*
X157246616Y-124142087D01*
X157247267Y-124142493D01*
X157282440Y-124168380D01*
X157308407Y-124198633D01*
X157326670Y-124238058D01*
X157338732Y-124291462D01*
X157346096Y-124363651D01*
X157350264Y-124459432D01*
X157350629Y-124473078D01*
X157355876Y-124678842D01*
X157311716Y-124701678D01*
X157279763Y-124717110D01*
X157260470Y-124724423D01*
X157259578Y-124724514D01*
X157256239Y-124711022D01*
X157253587Y-124674626D01*
X157251956Y-124621452D01*
X157251600Y-124578393D01*
X157251592Y-124508641D01*
X157248403Y-124464837D01*
X157237288Y-124443944D01*
X157213501Y-124442925D01*
X157172296Y-124458741D01*
X157110086Y-124487815D01*
X157064341Y-124511963D01*
X157040813Y-124532913D01*
X157033896Y-124555747D01*
X157033886Y-124556877D01*
X157045299Y-124596212D01*
X157079092Y-124617462D01*
X157130809Y-124620539D01*
X157168061Y-124620006D01*
X157187703Y-124630735D01*
X157199952Y-124656505D01*
X157207002Y-124689337D01*
X157196842Y-124707966D01*
X157193017Y-124710632D01*
X157157001Y-124721340D01*
X157106566Y-124722856D01*
X157054626Y-124715759D01*
X157017822Y-124702788D01*
X156966938Y-124659585D01*
X156938014Y-124599446D01*
X156932286Y-124552462D01*
X156936657Y-124510082D01*
X156952475Y-124475488D01*
X156983797Y-124444763D01*
X157034678Y-124413990D01*
X157109176Y-124379252D01*
X157113714Y-124377288D01*
X157180821Y-124346287D01*
X157222232Y-124320862D01*
X157239981Y-124298014D01*
X157236107Y-124274745D01*
X157212643Y-124248056D01*
X157205627Y-124241914D01*
X157158630Y-124218100D01*
X157109933Y-124219103D01*
X157067522Y-124242451D01*
X157039384Y-124285675D01*
X157036769Y-124294160D01*
X157011308Y-124335308D01*
X156979001Y-124355128D01*
X156932286Y-124374770D01*
X156932286Y-124323950D01*
X156946496Y-124250082D01*
X156988675Y-124182327D01*
X157010624Y-124159661D01*
X157060517Y-124130569D01*
X157123967Y-124117400D01*
X157189744Y-124120968D01*
G36*
X157679926Y-124119755D02*
X157745858Y-124144084D01*
X157799273Y-124187117D01*
X157820164Y-124217409D01*
X157842939Y-124272994D01*
X157842466Y-124313186D01*
X157818562Y-124340217D01*
X157809717Y-124344813D01*
X157771530Y-124359144D01*
X157752028Y-124355472D01*
X157745422Y-124331407D01*
X157745086Y-124318114D01*
X157732992Y-124269210D01*
X157701471Y-124234999D01*
X157657659Y-124218476D01*
X157608695Y-124222634D01*
X157568894Y-124244227D01*
X157555450Y-124256544D01*
X157545921Y-124271487D01*
X157539485Y-124294075D01*
X157535317Y-124329328D01*
X157532597Y-124382266D01*
X157530502Y-124457907D01*
X157529960Y-124481857D01*
X157527981Y-124563790D01*
X157525731Y-124621455D01*
X157522357Y-124659608D01*
X157517006Y-124683004D01*
X157508824Y-124696398D01*
X157496959Y-124704545D01*
X157489362Y-124708144D01*
X157457102Y-124720452D01*
X157438111Y-124724514D01*
X157431836Y-124710948D01*
X157428006Y-124669934D01*
X157426600Y-124600999D01*
X157427598Y-124503669D01*
X157427908Y-124488657D01*
X157430101Y-124399859D01*
X157432693Y-124335019D01*
X157436382Y-124289067D01*
X157441864Y-124256935D01*
X157449835Y-124233553D01*
X157460993Y-124213852D01*
X157466830Y-124205410D01*
X157500296Y-124168057D01*
X157537727Y-124139003D01*
X157542309Y-124136467D01*
X157609426Y-124116443D01*
X157679926Y-124119755D01*
X157679926Y-124119755D01*
G37*
X157679926Y-124119755D02*
X157745858Y-124144084D01*
X157799273Y-124187117D01*
X157820164Y-124217409D01*
X157842939Y-124272994D01*
X157842466Y-124313186D01*
X157818562Y-124340217D01*
X157809717Y-124344813D01*
X157771530Y-124359144D01*
X157752028Y-124355472D01*
X157745422Y-124331407D01*
X157745086Y-124318114D01*
X157732992Y-124269210D01*
X157701471Y-124234999D01*
X157657659Y-124218476D01*
X157608695Y-124222634D01*
X157568894Y-124244227D01*
X157555450Y-124256544D01*
X157545921Y-124271487D01*
X157539485Y-124294075D01*
X157535317Y-124329328D01*
X157532597Y-124382266D01*
X157530502Y-124457907D01*
X157529960Y-124481857D01*
X157527981Y-124563790D01*
X157525731Y-124621455D01*
X157522357Y-124659608D01*
X157517006Y-124683004D01*
X157508824Y-124696398D01*
X157496959Y-124704545D01*
X157489362Y-124708144D01*
X157457102Y-124720452D01*
X157438111Y-124724514D01*
X157431836Y-124710948D01*
X157428006Y-124669934D01*
X157426600Y-124600999D01*
X157427598Y-124503669D01*
X157427908Y-124488657D01*
X157430101Y-124399859D01*
X157432693Y-124335019D01*
X157436382Y-124289067D01*
X157441864Y-124256935D01*
X157449835Y-124233553D01*
X157460993Y-124213852D01*
X157466830Y-124205410D01*
X157500296Y-124168057D01*
X157537727Y-124139003D01*
X157542309Y-124136467D01*
X157609426Y-124116443D01*
X157679926Y-124119755D01*
G36*
X158340117Y-124235358D02*
X158339933Y-124343837D01*
X158339219Y-124427287D01*
X158337675Y-124489704D01*
X158335001Y-124535085D01*
X158330894Y-124567429D01*
X158325055Y-124590733D01*
X158317182Y-124608995D01*
X158311221Y-124619418D01*
X158261855Y-124675945D01*
X158199264Y-124711377D01*
X158130013Y-124724090D01*
X158060668Y-124712463D01*
X158019375Y-124691568D01*
X157976025Y-124655422D01*
X157946481Y-124611276D01*
X157928655Y-124553462D01*
X157920463Y-124476313D01*
X157919302Y-124419714D01*
X157919458Y-124415647D01*
X158020857Y-124415647D01*
X158021476Y-124480550D01*
X158024314Y-124523514D01*
X158030840Y-124551622D01*
X158042523Y-124571953D01*
X158056483Y-124587288D01*
X158103365Y-124616890D01*
X158153701Y-124619419D01*
X158201276Y-124594705D01*
X158204979Y-124591356D01*
X158220783Y-124573935D01*
X158230693Y-124553209D01*
X158236058Y-124522362D01*
X158238228Y-124474577D01*
X158238571Y-124421748D01*
X158237827Y-124355381D01*
X158234748Y-124311106D01*
X158228061Y-124282009D01*
X158216496Y-124261173D01*
X158207013Y-124250107D01*
X158162960Y-124222198D01*
X158112224Y-124218843D01*
X158063796Y-124240159D01*
X158054450Y-124248073D01*
X158038540Y-124265647D01*
X158028610Y-124286587D01*
X158023278Y-124317782D01*
X158021163Y-124366122D01*
X158020857Y-124415647D01*
X157919458Y-124415647D01*
X157922810Y-124328568D01*
X157934726Y-124260086D01*
X157957135Y-124208600D01*
X157992124Y-124168443D01*
X158019375Y-124147861D01*
X158068907Y-124125625D01*
X158126316Y-124115304D01*
X158179682Y-124118067D01*
X158209543Y-124129212D01*
X158221261Y-124132383D01*
X158229037Y-124120557D01*
X158234465Y-124088866D01*
X158238571Y-124040593D01*
X158243067Y-123986829D01*
X158249313Y-123954482D01*
X158260676Y-123935985D01*
X158280528Y-123923770D01*
X158293000Y-123918362D01*
X158340171Y-123898601D01*
X158340117Y-124235358D01*
X158340117Y-124235358D01*
G37*
X158340117Y-124235358D02*
X158339933Y-124343837D01*
X158339219Y-124427287D01*
X158337675Y-124489704D01*
X158335001Y-124535085D01*
X158330894Y-124567429D01*
X158325055Y-124590733D01*
X158317182Y-124608995D01*
X158311221Y-124619418D01*
X158261855Y-124675945D01*
X158199264Y-124711377D01*
X158130013Y-124724090D01*
X158060668Y-124712463D01*
X158019375Y-124691568D01*
X157976025Y-124655422D01*
X157946481Y-124611276D01*
X157928655Y-124553462D01*
X157920463Y-124476313D01*
X157919302Y-124419714D01*
X157919458Y-124415647D01*
X158020857Y-124415647D01*
X158021476Y-124480550D01*
X158024314Y-124523514D01*
X158030840Y-124551622D01*
X158042523Y-124571953D01*
X158056483Y-124587288D01*
X158103365Y-124616890D01*
X158153701Y-124619419D01*
X158201276Y-124594705D01*
X158204979Y-124591356D01*
X158220783Y-124573935D01*
X158230693Y-124553209D01*
X158236058Y-124522362D01*
X158238228Y-124474577D01*
X158238571Y-124421748D01*
X158237827Y-124355381D01*
X158234748Y-124311106D01*
X158228061Y-124282009D01*
X158216496Y-124261173D01*
X158207013Y-124250107D01*
X158162960Y-124222198D01*
X158112224Y-124218843D01*
X158063796Y-124240159D01*
X158054450Y-124248073D01*
X158038540Y-124265647D01*
X158028610Y-124286587D01*
X158023278Y-124317782D01*
X158021163Y-124366122D01*
X158020857Y-124415647D01*
X157919458Y-124415647D01*
X157922810Y-124328568D01*
X157934726Y-124260086D01*
X157957135Y-124208600D01*
X157992124Y-124168443D01*
X158019375Y-124147861D01*
X158068907Y-124125625D01*
X158126316Y-124115304D01*
X158179682Y-124118067D01*
X158209543Y-124129212D01*
X158221261Y-124132383D01*
X158229037Y-124120557D01*
X158234465Y-124088866D01*
X158238571Y-124040593D01*
X158243067Y-123986829D01*
X158249313Y-123954482D01*
X158260676Y-123935985D01*
X158280528Y-123923770D01*
X158293000Y-123918362D01*
X158340171Y-123898601D01*
X158340117Y-124235358D01*
G36*
X158929833Y-124128663D02*
X158932048Y-124166850D01*
X158933784Y-124224886D01*
X158934899Y-124298180D01*
X158935257Y-124375055D01*
X158935257Y-124635196D01*
X158889326Y-124681127D01*
X158857675Y-124709429D01*
X158829890Y-124720893D01*
X158791915Y-124720168D01*
X158776840Y-124718321D01*
X158729726Y-124712948D01*
X158690756Y-124709869D01*
X158681257Y-124709585D01*
X158649233Y-124711445D01*
X158603432Y-124716114D01*
X158585674Y-124718321D01*
X158542057Y-124721735D01*
X158512745Y-124714320D01*
X158483680Y-124691427D01*
X158473188Y-124681127D01*
X158427257Y-124635196D01*
X158427257Y-124148602D01*
X158464226Y-124131758D01*
X158496059Y-124119282D01*
X158514683Y-124114914D01*
X158519458Y-124128718D01*
X158523921Y-124167286D01*
X158527775Y-124226356D01*
X158530722Y-124301663D01*
X158532143Y-124365286D01*
X158536114Y-124615657D01*
X158570759Y-124620556D01*
X158602268Y-124617131D01*
X158617708Y-124606041D01*
X158622023Y-124585308D01*
X158625708Y-124541145D01*
X158628469Y-124479146D01*
X158630012Y-124404909D01*
X158630235Y-124366706D01*
X158630457Y-124146783D01*
X158676166Y-124130849D01*
X158708518Y-124120015D01*
X158726115Y-124114962D01*
X158726623Y-124114914D01*
X158728388Y-124128648D01*
X158730329Y-124166730D01*
X158732282Y-124224482D01*
X158734084Y-124297227D01*
X158735343Y-124365286D01*
X158739314Y-124615657D01*
X158826400Y-124615657D01*
X158830396Y-124387240D01*
X158834392Y-124158822D01*
X158876847Y-124136868D01*
X158908192Y-124121793D01*
X158926744Y-124114951D01*
X158927279Y-124114914D01*
X158929833Y-124128663D01*
X158929833Y-124128663D01*
G37*
X158929833Y-124128663D02*
X158932048Y-124166850D01*
X158933784Y-124224886D01*
X158934899Y-124298180D01*
X158935257Y-124375055D01*
X158935257Y-124635196D01*
X158889326Y-124681127D01*
X158857675Y-124709429D01*
X158829890Y-124720893D01*
X158791915Y-124720168D01*
X158776840Y-124718321D01*
X158729726Y-124712948D01*
X158690756Y-124709869D01*
X158681257Y-124709585D01*
X158649233Y-124711445D01*
X158603432Y-124716114D01*
X158585674Y-124718321D01*
X158542057Y-124721735D01*
X158512745Y-124714320D01*
X158483680Y-124691427D01*
X158473188Y-124681127D01*
X158427257Y-124635196D01*
X158427257Y-124148602D01*
X158464226Y-124131758D01*
X158496059Y-124119282D01*
X158514683Y-124114914D01*
X158519458Y-124128718D01*
X158523921Y-124167286D01*
X158527775Y-124226356D01*
X158530722Y-124301663D01*
X158532143Y-124365286D01*
X158536114Y-124615657D01*
X158570759Y-124620556D01*
X158602268Y-124617131D01*
X158617708Y-124606041D01*
X158622023Y-124585308D01*
X158625708Y-124541145D01*
X158628469Y-124479146D01*
X158630012Y-124404909D01*
X158630235Y-124366706D01*
X158630457Y-124146783D01*
X158676166Y-124130849D01*
X158708518Y-124120015D01*
X158726115Y-124114962D01*
X158726623Y-124114914D01*
X158728388Y-124128648D01*
X158730329Y-124166730D01*
X158732282Y-124224482D01*
X158734084Y-124297227D01*
X158735343Y-124365286D01*
X158739314Y-124615657D01*
X158826400Y-124615657D01*
X158830396Y-124387240D01*
X158834392Y-124158822D01*
X158876847Y-124136868D01*
X158908192Y-124121793D01*
X158926744Y-124114951D01*
X158927279Y-124114914D01*
X158929833Y-124128663D01*
G36*
X159294876Y-124126335D02*
X159336667Y-124145344D01*
X159369469Y-124168378D01*
X159393503Y-124194133D01*
X159410097Y-124227358D01*
X159420577Y-124272800D01*
X159426271Y-124335207D01*
X159428507Y-124419327D01*
X159428743Y-124474721D01*
X159428743Y-124690826D01*
X159391774Y-124707670D01*
X159362656Y-124719981D01*
X159348231Y-124724514D01*
X159345472Y-124711025D01*
X159343282Y-124674653D01*
X159341942Y-124621542D01*
X159341657Y-124579372D01*
X159340434Y-124518447D01*
X159337136Y-124470115D01*
X159332321Y-124440518D01*
X159328496Y-124434229D01*
X159302783Y-124440652D01*
X159262418Y-124457125D01*
X159215679Y-124479458D01*
X159170845Y-124503457D01*
X159136193Y-124524930D01*
X159120002Y-124539685D01*
X159119938Y-124539845D01*
X159121330Y-124567152D01*
X159133818Y-124593219D01*
X159155743Y-124614392D01*
X159187743Y-124621474D01*
X159215092Y-124620649D01*
X159253826Y-124620042D01*
X159274158Y-124629116D01*
X159286369Y-124653092D01*
X159287909Y-124657613D01*
X159293203Y-124691806D01*
X159279047Y-124712568D01*
X159242148Y-124722462D01*
X159202289Y-124724292D01*
X159130562Y-124710727D01*
X159093432Y-124691355D01*
X159047576Y-124645845D01*
X159023256Y-124589983D01*
X159021073Y-124530957D01*
X159041629Y-124475953D01*
X159072549Y-124441486D01*
X159103420Y-124422189D01*
X159151942Y-124397759D01*
X159208485Y-124372985D01*
X159217910Y-124369199D01*
X159280019Y-124341791D01*
X159315822Y-124317634D01*
X159327337Y-124293619D01*
X159316580Y-124266635D01*
X159298114Y-124245543D01*
X159254469Y-124219572D01*
X159206446Y-124217624D01*
X159162406Y-124237637D01*
X159130709Y-124277551D01*
X159126549Y-124287848D01*
X159102327Y-124325724D01*
X159066965Y-124353842D01*
X159022343Y-124376917D01*
X159022343Y-124311485D01*
X159024969Y-124271506D01*
X159036230Y-124239997D01*
X159061199Y-124206378D01*
X159085169Y-124180484D01*
X159122441Y-124143817D01*
X159151401Y-124124121D01*
X159182505Y-124116220D01*
X159217713Y-124114914D01*
X159294876Y-124126335D01*
X159294876Y-124126335D01*
G37*
X159294876Y-124126335D02*
X159336667Y-124145344D01*
X159369469Y-124168378D01*
X159393503Y-124194133D01*
X159410097Y-124227358D01*
X159420577Y-124272800D01*
X159426271Y-124335207D01*
X159428507Y-124419327D01*
X159428743Y-124474721D01*
X159428743Y-124690826D01*
X159391774Y-124707670D01*
X159362656Y-124719981D01*
X159348231Y-124724514D01*
X159345472Y-124711025D01*
X159343282Y-124674653D01*
X159341942Y-124621542D01*
X159341657Y-124579372D01*
X159340434Y-124518447D01*
X159337136Y-124470115D01*
X159332321Y-124440518D01*
X159328496Y-124434229D01*
X159302783Y-124440652D01*
X159262418Y-124457125D01*
X159215679Y-124479458D01*
X159170845Y-124503457D01*
X159136193Y-124524930D01*
X159120002Y-124539685D01*
X159119938Y-124539845D01*
X159121330Y-124567152D01*
X159133818Y-124593219D01*
X159155743Y-124614392D01*
X159187743Y-124621474D01*
X159215092Y-124620649D01*
X159253826Y-124620042D01*
X159274158Y-124629116D01*
X159286369Y-124653092D01*
X159287909Y-124657613D01*
X159293203Y-124691806D01*
X159279047Y-124712568D01*
X159242148Y-124722462D01*
X159202289Y-124724292D01*
X159130562Y-124710727D01*
X159093432Y-124691355D01*
X159047576Y-124645845D01*
X159023256Y-124589983D01*
X159021073Y-124530957D01*
X159041629Y-124475953D01*
X159072549Y-124441486D01*
X159103420Y-124422189D01*
X159151942Y-124397759D01*
X159208485Y-124372985D01*
X159217910Y-124369199D01*
X159280019Y-124341791D01*
X159315822Y-124317634D01*
X159327337Y-124293619D01*
X159316580Y-124266635D01*
X159298114Y-124245543D01*
X159254469Y-124219572D01*
X159206446Y-124217624D01*
X159162406Y-124237637D01*
X159130709Y-124277551D01*
X159126549Y-124287848D01*
X159102327Y-124325724D01*
X159066965Y-124353842D01*
X159022343Y-124376917D01*
X159022343Y-124311485D01*
X159024969Y-124271506D01*
X159036230Y-124239997D01*
X159061199Y-124206378D01*
X159085169Y-124180484D01*
X159122441Y-124143817D01*
X159151401Y-124124121D01*
X159182505Y-124116220D01*
X159217713Y-124114914D01*
X159294876Y-124126335D01*
G36*
X159802600Y-124128752D02*
X159819948Y-124136334D01*
X159861356Y-124169128D01*
X159896765Y-124216547D01*
X159918664Y-124267151D01*
X159922229Y-124292098D01*
X159910279Y-124326927D01*
X159884067Y-124345357D01*
X159855964Y-124356516D01*
X159843095Y-124358572D01*
X159836829Y-124343649D01*
X159824456Y-124311175D01*
X159819028Y-124296502D01*
X159788590Y-124245744D01*
X159744520Y-124220427D01*
X159688010Y-124221206D01*
X159683825Y-124222203D01*
X159653655Y-124236507D01*
X159631476Y-124264393D01*
X159616327Y-124309287D01*
X159607250Y-124374615D01*
X159603286Y-124463804D01*
X159602914Y-124511261D01*
X159602730Y-124586071D01*
X159601522Y-124637069D01*
X159598309Y-124669471D01*
X159592109Y-124688495D01*
X159581940Y-124699356D01*
X159566819Y-124707272D01*
X159565946Y-124707670D01*
X159536828Y-124719981D01*
X159522403Y-124724514D01*
X159520186Y-124710809D01*
X159518289Y-124672925D01*
X159516847Y-124615715D01*
X159515998Y-124544027D01*
X159515829Y-124491565D01*
X159516692Y-124390047D01*
X159520070Y-124313032D01*
X159527142Y-124256023D01*
X159539088Y-124214526D01*
X159557090Y-124184043D01*
X159582327Y-124160080D01*
X159607247Y-124143355D01*
X159667171Y-124121097D01*
X159736911Y-124116076D01*
X159802600Y-124128752D01*
X159802600Y-124128752D01*
G37*
X159802600Y-124128752D02*
X159819948Y-124136334D01*
X159861356Y-124169128D01*
X159896765Y-124216547D01*
X159918664Y-124267151D01*
X159922229Y-124292098D01*
X159910279Y-124326927D01*
X159884067Y-124345357D01*
X159855964Y-124356516D01*
X159843095Y-124358572D01*
X159836829Y-124343649D01*
X159824456Y-124311175D01*
X159819028Y-124296502D01*
X159788590Y-124245744D01*
X159744520Y-124220427D01*
X159688010Y-124221206D01*
X159683825Y-124222203D01*
X159653655Y-124236507D01*
X159631476Y-124264393D01*
X159616327Y-124309287D01*
X159607250Y-124374615D01*
X159603286Y-124463804D01*
X159602914Y-124511261D01*
X159602730Y-124586071D01*
X159601522Y-124637069D01*
X159598309Y-124669471D01*
X159592109Y-124688495D01*
X159581940Y-124699356D01*
X159566819Y-124707272D01*
X159565946Y-124707670D01*
X159536828Y-124719981D01*
X159522403Y-124724514D01*
X159520186Y-124710809D01*
X159518289Y-124672925D01*
X159516847Y-124615715D01*
X159515998Y-124544027D01*
X159515829Y-124491565D01*
X159516692Y-124390047D01*
X159520070Y-124313032D01*
X159527142Y-124256023D01*
X159539088Y-124214526D01*
X159557090Y-124184043D01*
X159582327Y-124160080D01*
X159607247Y-124143355D01*
X159667171Y-124121097D01*
X159736911Y-124116076D01*
X159802600Y-124128752D01*
G36*
X160303595Y-124136966D02*
X160361021Y-124174497D01*
X160388719Y-124208096D01*
X160410662Y-124269064D01*
X160412405Y-124317308D01*
X160408457Y-124381816D01*
X160259686Y-124446934D01*
X160187349Y-124480202D01*
X160140084Y-124506964D01*
X160115507Y-124530144D01*
X160111237Y-124552667D01*
X160124889Y-124577455D01*
X160139943Y-124593886D01*
X160183746Y-124620235D01*
X160231389Y-124622081D01*
X160275145Y-124601546D01*
X160307289Y-124560752D01*
X160313038Y-124546347D01*
X160340576Y-124501356D01*
X160372258Y-124482182D01*
X160415714Y-124465779D01*
X160415714Y-124527966D01*
X160411872Y-124570283D01*
X160396823Y-124605969D01*
X160365280Y-124646943D01*
X160360592Y-124652267D01*
X160325506Y-124688720D01*
X160295347Y-124708283D01*
X160257615Y-124717283D01*
X160226335Y-124720230D01*
X160170385Y-124720965D01*
X160130555Y-124711660D01*
X160105708Y-124697846D01*
X160066656Y-124667467D01*
X160039625Y-124634613D01*
X160022517Y-124593294D01*
X160013238Y-124537521D01*
X160009693Y-124461305D01*
X160009410Y-124422622D01*
X160010372Y-124376247D01*
X160098007Y-124376247D01*
X160099023Y-124401126D01*
X160101556Y-124405200D01*
X160118274Y-124399665D01*
X160154249Y-124385017D01*
X160202331Y-124364190D01*
X160212386Y-124359714D01*
X160273152Y-124328814D01*
X160306632Y-124301657D01*
X160313990Y-124276220D01*
X160296391Y-124250481D01*
X160281856Y-124239109D01*
X160229410Y-124216364D01*
X160180322Y-124220122D01*
X160139227Y-124247884D01*
X160110758Y-124297152D01*
X160101631Y-124336257D01*
X160098007Y-124376247D01*
X160010372Y-124376247D01*
X160011285Y-124332249D01*
X160018196Y-124265384D01*
X160031884Y-124216695D01*
X160054096Y-124180849D01*
X160086574Y-124152513D01*
X160100733Y-124143355D01*
X160165053Y-124119507D01*
X160235473Y-124118006D01*
X160303595Y-124136966D01*
X160303595Y-124136966D01*
G37*
X160303595Y-124136966D02*
X160361021Y-124174497D01*
X160388719Y-124208096D01*
X160410662Y-124269064D01*
X160412405Y-124317308D01*
X160408457Y-124381816D01*
X160259686Y-124446934D01*
X160187349Y-124480202D01*
X160140084Y-124506964D01*
X160115507Y-124530144D01*
X160111237Y-124552667D01*
X160124889Y-124577455D01*
X160139943Y-124593886D01*
X160183746Y-124620235D01*
X160231389Y-124622081D01*
X160275145Y-124601546D01*
X160307289Y-124560752D01*
X160313038Y-124546347D01*
X160340576Y-124501356D01*
X160372258Y-124482182D01*
X160415714Y-124465779D01*
X160415714Y-124527966D01*
X160411872Y-124570283D01*
X160396823Y-124605969D01*
X160365280Y-124646943D01*
X160360592Y-124652267D01*
X160325506Y-124688720D01*
X160295347Y-124708283D01*
X160257615Y-124717283D01*
X160226335Y-124720230D01*
X160170385Y-124720965D01*
X160130555Y-124711660D01*
X160105708Y-124697846D01*
X160066656Y-124667467D01*
X160039625Y-124634613D01*
X160022517Y-124593294D01*
X160013238Y-124537521D01*
X160009693Y-124461305D01*
X160009410Y-124422622D01*
X160010372Y-124376247D01*
X160098007Y-124376247D01*
X160099023Y-124401126D01*
X160101556Y-124405200D01*
X160118274Y-124399665D01*
X160154249Y-124385017D01*
X160202331Y-124364190D01*
X160212386Y-124359714D01*
X160273152Y-124328814D01*
X160306632Y-124301657D01*
X160313990Y-124276220D01*
X160296391Y-124250481D01*
X160281856Y-124239109D01*
X160229410Y-124216364D01*
X160180322Y-124220122D01*
X160139227Y-124247884D01*
X160110758Y-124297152D01*
X160101631Y-124336257D01*
X160098007Y-124376247D01*
X160010372Y-124376247D01*
X160011285Y-124332249D01*
X160018196Y-124265384D01*
X160031884Y-124216695D01*
X160054096Y-124180849D01*
X160086574Y-124152513D01*
X160100733Y-124143355D01*
X160165053Y-124119507D01*
X160235473Y-124118006D01*
X160303595Y-124136966D01*
G36*
X157253910Y-119412348D02*
X157332454Y-119412778D01*
X157389298Y-119413942D01*
X157428105Y-119416207D01*
X157452538Y-119419940D01*
X157466262Y-119425506D01*
X157472940Y-119433273D01*
X157476236Y-119443605D01*
X157476556Y-119444943D01*
X157481562Y-119469079D01*
X157490829Y-119516701D01*
X157503392Y-119582741D01*
X157518287Y-119662128D01*
X157534551Y-119749796D01*
X157535119Y-119752875D01*
X157551410Y-119838789D01*
X157566652Y-119914696D01*
X157579861Y-119976045D01*
X157590054Y-120018282D01*
X157596248Y-120036855D01*
X157596543Y-120037184D01*
X157614788Y-120046253D01*
X157652405Y-120061367D01*
X157701271Y-120079262D01*
X157701543Y-120079358D01*
X157763093Y-120102493D01*
X157835657Y-120131965D01*
X157904057Y-120161597D01*
X157907294Y-120163062D01*
X158018702Y-120213626D01*
X158265399Y-120045160D01*
X158341077Y-119993803D01*
X158409631Y-119947889D01*
X158467088Y-119910030D01*
X158509476Y-119882837D01*
X158532825Y-119868921D01*
X158535042Y-119867889D01*
X158552010Y-119872484D01*
X158583701Y-119894655D01*
X158631352Y-119935447D01*
X158696198Y-119995905D01*
X158762397Y-120060227D01*
X158826214Y-120123612D01*
X158883329Y-120181451D01*
X158930305Y-120230175D01*
X158963703Y-120266210D01*
X158980085Y-120285984D01*
X158980694Y-120287002D01*
X158982505Y-120300572D01*
X158975683Y-120322733D01*
X158958540Y-120356478D01*
X158929393Y-120404800D01*
X158886555Y-120470692D01*
X158829448Y-120555517D01*
X158778766Y-120630177D01*
X158733461Y-120697140D01*
X158696150Y-120752516D01*
X158669452Y-120792420D01*
X158655985Y-120812962D01*
X158655137Y-120814356D01*
X158656781Y-120834038D01*
X158669245Y-120872293D01*
X158690048Y-120921889D01*
X158697462Y-120937728D01*
X158729814Y-121008290D01*
X158764328Y-121088353D01*
X158792365Y-121157629D01*
X158812568Y-121209045D01*
X158828615Y-121248119D01*
X158837888Y-121268541D01*
X158839041Y-121270114D01*
X158856096Y-121272721D01*
X158896298Y-121279863D01*
X158954302Y-121290523D01*
X159024763Y-121303685D01*
X159102335Y-121318333D01*
X159181672Y-121333449D01*
X159257431Y-121348018D01*
X159324264Y-121361022D01*
X159376828Y-121371445D01*
X159409776Y-121378270D01*
X159417857Y-121380199D01*
X159426205Y-121384962D01*
X159432506Y-121395718D01*
X159437045Y-121416098D01*
X159440104Y-121449734D01*
X159441967Y-121500255D01*
X159442918Y-121571292D01*
X159443240Y-121666476D01*
X159443257Y-121705492D01*
X159443257Y-122022799D01*
X159367057Y-122037839D01*
X159324663Y-122045995D01*
X159261400Y-122057899D01*
X159184962Y-122072116D01*
X159103043Y-122087210D01*
X159080400Y-122091355D01*
X159004806Y-122106053D01*
X158938953Y-122120505D01*
X158888366Y-122133375D01*
X158858574Y-122143322D01*
X158853612Y-122146287D01*
X158841426Y-122167283D01*
X158823953Y-122207967D01*
X158804577Y-122260322D01*
X158800734Y-122271600D01*
X158775339Y-122341523D01*
X158743817Y-122420418D01*
X158712969Y-122491266D01*
X158712817Y-122491595D01*
X158661447Y-122602733D01*
X158830399Y-122851253D01*
X158999352Y-123099772D01*
X158782429Y-123317058D01*
X158716819Y-123381726D01*
X158656979Y-123438733D01*
X158606267Y-123485033D01*
X158568046Y-123517584D01*
X158545675Y-123533343D01*
X158542466Y-123534343D01*
X158523626Y-123526469D01*
X158485180Y-123504578D01*
X158431330Y-123471267D01*
X158366276Y-123429131D01*
X158295940Y-123381943D01*
X158224555Y-123333810D01*
X158160908Y-123291928D01*
X158109041Y-123258871D01*
X158072995Y-123237218D01*
X158056867Y-123229543D01*
X158037189Y-123236037D01*
X157999875Y-123253150D01*
X157952621Y-123277326D01*
X157947612Y-123280013D01*
X157883977Y-123311927D01*
X157840341Y-123327579D01*
X157813202Y-123327745D01*
X157799057Y-123313204D01*
X157798975Y-123313000D01*
X157791905Y-123295779D01*
X157775042Y-123254899D01*
X157749695Y-123193525D01*
X157717171Y-123114819D01*
X157678778Y-123021947D01*
X157635822Y-122918072D01*
X157594222Y-122817502D01*
X157548504Y-122706516D01*
X157506526Y-122603703D01*
X157469548Y-122512215D01*
X157438827Y-122435201D01*
X157415622Y-122375815D01*
X157401190Y-122337209D01*
X157396743Y-122322800D01*
X157407896Y-122306272D01*
X157437069Y-122279930D01*
X157475971Y-122250887D01*
X157586757Y-122159039D01*
X157673351Y-122053759D01*
X157734716Y-121937266D01*
X157769815Y-121811776D01*
X157777608Y-121679507D01*
X157771943Y-121618457D01*
X157741078Y-121491795D01*
X157687920Y-121379941D01*
X157615767Y-121284001D01*
X157527917Y-121205076D01*
X157427665Y-121144270D01*
X157318310Y-121102687D01*
X157203147Y-121081428D01*
X157085475Y-121081599D01*
X156968590Y-121104301D01*
X156855789Y-121150638D01*
X156750369Y-121221713D01*
X156706368Y-121261911D01*
X156621979Y-121365129D01*
X156563222Y-121477925D01*
X156529704Y-121597010D01*
X156521035Y-121719095D01*
X156536823Y-121840893D01*
X156576678Y-121959116D01*
X156640207Y-122070475D01*
X156727021Y-122171684D01*
X156824029Y-122250887D01*
X156864437Y-122281162D01*
X156892982Y-122307219D01*
X156903257Y-122322825D01*
X156897877Y-122339843D01*
X156882575Y-122380500D01*
X156858612Y-122441642D01*
X156827244Y-122520119D01*
X156789732Y-122612780D01*
X156747333Y-122716472D01*
X156705663Y-122817526D01*
X156659690Y-122928607D01*
X156617107Y-123031541D01*
X156579221Y-123123165D01*
X156547340Y-123200316D01*
X156522771Y-123259831D01*
X156506820Y-123298544D01*
X156500910Y-123313000D01*
X156486948Y-123327685D01*
X156459940Y-123327642D01*
X156416413Y-123312099D01*
X156352890Y-123280284D01*
X156352388Y-123280013D01*
X156304560Y-123255323D01*
X156265897Y-123237338D01*
X156244095Y-123229614D01*
X156243133Y-123229543D01*
X156226721Y-123237378D01*
X156190487Y-123259165D01*
X156138474Y-123292328D01*
X156074725Y-123334291D01*
X156004060Y-123381943D01*
X155932116Y-123430191D01*
X155867274Y-123472151D01*
X155813735Y-123505227D01*
X155775697Y-123526821D01*
X155757533Y-123534343D01*
X155740808Y-123524457D01*
X155707180Y-123496826D01*
X155660010Y-123454495D01*
X155602658Y-123400505D01*
X155538484Y-123337899D01*
X155517497Y-123316983D01*
X155300499Y-123099623D01*
X155465668Y-122857220D01*
X155515864Y-122782781D01*
X155559919Y-122715972D01*
X155595362Y-122660665D01*
X155619719Y-122620729D01*
X155630522Y-122600036D01*
X155630838Y-122598563D01*
X155625143Y-122579058D01*
X155609826Y-122539822D01*
X155587537Y-122487430D01*
X155571893Y-122452355D01*
X155542641Y-122385201D01*
X155515094Y-122317358D01*
X155493737Y-122260034D01*
X155487935Y-122242572D01*
X155471452Y-122195938D01*
X155455340Y-122159905D01*
X155446490Y-122146287D01*
X155426960Y-122137952D01*
X155384334Y-122126137D01*
X155324145Y-122112181D01*
X155251922Y-122097422D01*
X155219600Y-122091355D01*
X155137522Y-122076273D01*
X155058795Y-122061669D01*
X154991109Y-122048980D01*
X154942160Y-122039642D01*
X154932943Y-122037839D01*
X154856743Y-122022799D01*
X154856743Y-121705492D01*
X154856914Y-121601154D01*
X154857616Y-121522213D01*
X154859134Y-121465038D01*
X154861749Y-121425999D01*
X154865746Y-121401465D01*
X154871409Y-121387805D01*
X154879020Y-121381389D01*
X154882143Y-121380199D01*
X154900978Y-121375980D01*
X154942588Y-121367562D01*
X155001630Y-121355961D01*
X155072757Y-121342195D01*
X155150625Y-121327280D01*
X155229887Y-121312232D01*
X155305198Y-121298069D01*
X155371213Y-121285806D01*
X155422587Y-121276461D01*
X155453975Y-121271050D01*
X155460959Y-121270114D01*
X155467285Y-121257596D01*
X155481290Y-121224246D01*
X155500355Y-121176377D01*
X155507634Y-121157629D01*
X155536996Y-121085195D01*
X155571571Y-121005170D01*
X155602537Y-120937728D01*
X155625323Y-120886159D01*
X155640482Y-120843785D01*
X155645542Y-120817834D01*
X155644736Y-120814356D01*
X155634041Y-120797936D01*
X155609620Y-120761417D01*
X155574095Y-120708687D01*
X155530087Y-120643635D01*
X155480217Y-120570151D01*
X155470356Y-120555645D01*
X155412492Y-120469704D01*
X155369956Y-120404261D01*
X155341054Y-120356304D01*
X155324090Y-120322820D01*
X155317367Y-120300795D01*
X155319190Y-120287217D01*
X155319236Y-120287131D01*
X155333586Y-120269297D01*
X155365323Y-120234817D01*
X155411010Y-120187268D01*
X155467204Y-120130222D01*
X155530468Y-120067255D01*
X155537602Y-120060227D01*
X155617330Y-119983020D01*
X155678857Y-119926330D01*
X155723421Y-119889110D01*
X155752257Y-119870315D01*
X155764958Y-119867889D01*
X155783494Y-119878471D01*
X155821961Y-119902916D01*
X155876386Y-119938612D01*
X155942798Y-119982947D01*
X156017225Y-120033311D01*
X156034601Y-120045160D01*
X156281297Y-120213626D01*
X156392706Y-120163062D01*
X156460457Y-120133595D01*
X156533183Y-120103959D01*
X156595703Y-120080330D01*
X156598457Y-120079358D01*
X156647360Y-120061457D01*
X156685057Y-120046320D01*
X156703425Y-120037210D01*
X156703456Y-120037184D01*
X156709285Y-120020717D01*
X156719192Y-119980219D01*
X156732195Y-119920242D01*
X156747309Y-119845340D01*
X156763552Y-119760064D01*
X156764881Y-119752875D01*
X156781175Y-119665014D01*
X156796133Y-119585260D01*
X156808791Y-119518681D01*
X156818186Y-119470347D01*
X156823354Y-119445325D01*
X156823444Y-119444943D01*
X156826589Y-119434299D01*
X156832704Y-119426262D01*
X156845453Y-119420467D01*
X156868500Y-119416547D01*
X156905509Y-119414135D01*
X156960144Y-119412865D01*
X157036067Y-119412371D01*
X157136944Y-119412286D01*
X157150000Y-119412286D01*
X157253910Y-119412348D01*
X157253910Y-119412348D01*
G37*
X157253910Y-119412348D02*
X157332454Y-119412778D01*
X157389298Y-119413942D01*
X157428105Y-119416207D01*
X157452538Y-119419940D01*
X157466262Y-119425506D01*
X157472940Y-119433273D01*
X157476236Y-119443605D01*
X157476556Y-119444943D01*
X157481562Y-119469079D01*
X157490829Y-119516701D01*
X157503392Y-119582741D01*
X157518287Y-119662128D01*
X157534551Y-119749796D01*
X157535119Y-119752875D01*
X157551410Y-119838789D01*
X157566652Y-119914696D01*
X157579861Y-119976045D01*
X157590054Y-120018282D01*
X157596248Y-120036855D01*
X157596543Y-120037184D01*
X157614788Y-120046253D01*
X157652405Y-120061367D01*
X157701271Y-120079262D01*
X157701543Y-120079358D01*
X157763093Y-120102493D01*
X157835657Y-120131965D01*
X157904057Y-120161597D01*
X157907294Y-120163062D01*
X158018702Y-120213626D01*
X158265399Y-120045160D01*
X158341077Y-119993803D01*
X158409631Y-119947889D01*
X158467088Y-119910030D01*
X158509476Y-119882837D01*
X158532825Y-119868921D01*
X158535042Y-119867889D01*
X158552010Y-119872484D01*
X158583701Y-119894655D01*
X158631352Y-119935447D01*
X158696198Y-119995905D01*
X158762397Y-120060227D01*
X158826214Y-120123612D01*
X158883329Y-120181451D01*
X158930305Y-120230175D01*
X158963703Y-120266210D01*
X158980085Y-120285984D01*
X158980694Y-120287002D01*
X158982505Y-120300572D01*
X158975683Y-120322733D01*
X158958540Y-120356478D01*
X158929393Y-120404800D01*
X158886555Y-120470692D01*
X158829448Y-120555517D01*
X158778766Y-120630177D01*
X158733461Y-120697140D01*
X158696150Y-120752516D01*
X158669452Y-120792420D01*
X158655985Y-120812962D01*
X158655137Y-120814356D01*
X158656781Y-120834038D01*
X158669245Y-120872293D01*
X158690048Y-120921889D01*
X158697462Y-120937728D01*
X158729814Y-121008290D01*
X158764328Y-121088353D01*
X158792365Y-121157629D01*
X158812568Y-121209045D01*
X158828615Y-121248119D01*
X158837888Y-121268541D01*
X158839041Y-121270114D01*
X158856096Y-121272721D01*
X158896298Y-121279863D01*
X158954302Y-121290523D01*
X159024763Y-121303685D01*
X159102335Y-121318333D01*
X159181672Y-121333449D01*
X159257431Y-121348018D01*
X159324264Y-121361022D01*
X159376828Y-121371445D01*
X159409776Y-121378270D01*
X159417857Y-121380199D01*
X159426205Y-121384962D01*
X159432506Y-121395718D01*
X159437045Y-121416098D01*
X159440104Y-121449734D01*
X159441967Y-121500255D01*
X159442918Y-121571292D01*
X159443240Y-121666476D01*
X159443257Y-121705492D01*
X159443257Y-122022799D01*
X159367057Y-122037839D01*
X159324663Y-122045995D01*
X159261400Y-122057899D01*
X159184962Y-122072116D01*
X159103043Y-122087210D01*
X159080400Y-122091355D01*
X159004806Y-122106053D01*
X158938953Y-122120505D01*
X158888366Y-122133375D01*
X158858574Y-122143322D01*
X158853612Y-122146287D01*
X158841426Y-122167283D01*
X158823953Y-122207967D01*
X158804577Y-122260322D01*
X158800734Y-122271600D01*
X158775339Y-122341523D01*
X158743817Y-122420418D01*
X158712969Y-122491266D01*
X158712817Y-122491595D01*
X158661447Y-122602733D01*
X158830399Y-122851253D01*
X158999352Y-123099772D01*
X158782429Y-123317058D01*
X158716819Y-123381726D01*
X158656979Y-123438733D01*
X158606267Y-123485033D01*
X158568046Y-123517584D01*
X158545675Y-123533343D01*
X158542466Y-123534343D01*
X158523626Y-123526469D01*
X158485180Y-123504578D01*
X158431330Y-123471267D01*
X158366276Y-123429131D01*
X158295940Y-123381943D01*
X158224555Y-123333810D01*
X158160908Y-123291928D01*
X158109041Y-123258871D01*
X158072995Y-123237218D01*
X158056867Y-123229543D01*
X158037189Y-123236037D01*
X157999875Y-123253150D01*
X157952621Y-123277326D01*
X157947612Y-123280013D01*
X157883977Y-123311927D01*
X157840341Y-123327579D01*
X157813202Y-123327745D01*
X157799057Y-123313204D01*
X157798975Y-123313000D01*
X157791905Y-123295779D01*
X157775042Y-123254899D01*
X157749695Y-123193525D01*
X157717171Y-123114819D01*
X157678778Y-123021947D01*
X157635822Y-122918072D01*
X157594222Y-122817502D01*
X157548504Y-122706516D01*
X157506526Y-122603703D01*
X157469548Y-122512215D01*
X157438827Y-122435201D01*
X157415622Y-122375815D01*
X157401190Y-122337209D01*
X157396743Y-122322800D01*
X157407896Y-122306272D01*
X157437069Y-122279930D01*
X157475971Y-122250887D01*
X157586757Y-122159039D01*
X157673351Y-122053759D01*
X157734716Y-121937266D01*
X157769815Y-121811776D01*
X157777608Y-121679507D01*
X157771943Y-121618457D01*
X157741078Y-121491795D01*
X157687920Y-121379941D01*
X157615767Y-121284001D01*
X157527917Y-121205076D01*
X157427665Y-121144270D01*
X157318310Y-121102687D01*
X157203147Y-121081428D01*
X157085475Y-121081599D01*
X156968590Y-121104301D01*
X156855789Y-121150638D01*
X156750369Y-121221713D01*
X156706368Y-121261911D01*
X156621979Y-121365129D01*
X156563222Y-121477925D01*
X156529704Y-121597010D01*
X156521035Y-121719095D01*
X156536823Y-121840893D01*
X156576678Y-121959116D01*
X156640207Y-122070475D01*
X156727021Y-122171684D01*
X156824029Y-122250887D01*
X156864437Y-122281162D01*
X156892982Y-122307219D01*
X156903257Y-122322825D01*
X156897877Y-122339843D01*
X156882575Y-122380500D01*
X156858612Y-122441642D01*
X156827244Y-122520119D01*
X156789732Y-122612780D01*
X156747333Y-122716472D01*
X156705663Y-122817526D01*
X156659690Y-122928607D01*
X156617107Y-123031541D01*
X156579221Y-123123165D01*
X156547340Y-123200316D01*
X156522771Y-123259831D01*
X156506820Y-123298544D01*
X156500910Y-123313000D01*
X156486948Y-123327685D01*
X156459940Y-123327642D01*
X156416413Y-123312099D01*
X156352890Y-123280284D01*
X156352388Y-123280013D01*
X156304560Y-123255323D01*
X156265897Y-123237338D01*
X156244095Y-123229614D01*
X156243133Y-123229543D01*
X156226721Y-123237378D01*
X156190487Y-123259165D01*
X156138474Y-123292328D01*
X156074725Y-123334291D01*
X156004060Y-123381943D01*
X155932116Y-123430191D01*
X155867274Y-123472151D01*
X155813735Y-123505227D01*
X155775697Y-123526821D01*
X155757533Y-123534343D01*
X155740808Y-123524457D01*
X155707180Y-123496826D01*
X155660010Y-123454495D01*
X155602658Y-123400505D01*
X155538484Y-123337899D01*
X155517497Y-123316983D01*
X155300499Y-123099623D01*
X155465668Y-122857220D01*
X155515864Y-122782781D01*
X155559919Y-122715972D01*
X155595362Y-122660665D01*
X155619719Y-122620729D01*
X155630522Y-122600036D01*
X155630838Y-122598563D01*
X155625143Y-122579058D01*
X155609826Y-122539822D01*
X155587537Y-122487430D01*
X155571893Y-122452355D01*
X155542641Y-122385201D01*
X155515094Y-122317358D01*
X155493737Y-122260034D01*
X155487935Y-122242572D01*
X155471452Y-122195938D01*
X155455340Y-122159905D01*
X155446490Y-122146287D01*
X155426960Y-122137952D01*
X155384334Y-122126137D01*
X155324145Y-122112181D01*
X155251922Y-122097422D01*
X155219600Y-122091355D01*
X155137522Y-122076273D01*
X155058795Y-122061669D01*
X154991109Y-122048980D01*
X154942160Y-122039642D01*
X154932943Y-122037839D01*
X154856743Y-122022799D01*
X154856743Y-121705492D01*
X154856914Y-121601154D01*
X154857616Y-121522213D01*
X154859134Y-121465038D01*
X154861749Y-121425999D01*
X154865746Y-121401465D01*
X154871409Y-121387805D01*
X154879020Y-121381389D01*
X154882143Y-121380199D01*
X154900978Y-121375980D01*
X154942588Y-121367562D01*
X155001630Y-121355961D01*
X155072757Y-121342195D01*
X155150625Y-121327280D01*
X155229887Y-121312232D01*
X155305198Y-121298069D01*
X155371213Y-121285806D01*
X155422587Y-121276461D01*
X155453975Y-121271050D01*
X155460959Y-121270114D01*
X155467285Y-121257596D01*
X155481290Y-121224246D01*
X155500355Y-121176377D01*
X155507634Y-121157629D01*
X155536996Y-121085195D01*
X155571571Y-121005170D01*
X155602537Y-120937728D01*
X155625323Y-120886159D01*
X155640482Y-120843785D01*
X155645542Y-120817834D01*
X155644736Y-120814356D01*
X155634041Y-120797936D01*
X155609620Y-120761417D01*
X155574095Y-120708687D01*
X155530087Y-120643635D01*
X155480217Y-120570151D01*
X155470356Y-120555645D01*
X155412492Y-120469704D01*
X155369956Y-120404261D01*
X155341054Y-120356304D01*
X155324090Y-120322820D01*
X155317367Y-120300795D01*
X155319190Y-120287217D01*
X155319236Y-120287131D01*
X155333586Y-120269297D01*
X155365323Y-120234817D01*
X155411010Y-120187268D01*
X155467204Y-120130222D01*
X155530468Y-120067255D01*
X155537602Y-120060227D01*
X155617330Y-119983020D01*
X155678857Y-119926330D01*
X155723421Y-119889110D01*
X155752257Y-119870315D01*
X155764958Y-119867889D01*
X155783494Y-119878471D01*
X155821961Y-119902916D01*
X155876386Y-119938612D01*
X155942798Y-119982947D01*
X156017225Y-120033311D01*
X156034601Y-120045160D01*
X156281297Y-120213626D01*
X156392706Y-120163062D01*
X156460457Y-120133595D01*
X156533183Y-120103959D01*
X156595703Y-120080330D01*
X156598457Y-120079358D01*
X156647360Y-120061457D01*
X156685057Y-120046320D01*
X156703425Y-120037210D01*
X156703456Y-120037184D01*
X156709285Y-120020717D01*
X156719192Y-119980219D01*
X156732195Y-119920242D01*
X156747309Y-119845340D01*
X156763552Y-119760064D01*
X156764881Y-119752875D01*
X156781175Y-119665014D01*
X156796133Y-119585260D01*
X156808791Y-119518681D01*
X156818186Y-119470347D01*
X156823354Y-119445325D01*
X156823444Y-119444943D01*
X156826589Y-119434299D01*
X156832704Y-119426262D01*
X156845453Y-119420467D01*
X156868500Y-119416547D01*
X156905509Y-119414135D01*
X156960144Y-119412865D01*
X157036067Y-119412371D01*
X157136944Y-119412286D01*
X157150000Y-119412286D01*
X157253910Y-119412348D01*
D12*
X133350000Y-110070000D03*
X133350000Y-112570000D03*
X133350000Y-115070000D03*
X135850000Y-110070000D03*
X135850000Y-112570000D03*
X135850000Y-115070000D03*
X140850000Y-110070000D03*
X140850000Y-112570000D03*
X140850000Y-115070000D03*
X143350000Y-110070000D03*
X143350000Y-112570000D03*
X143350000Y-115070000D03*
D13*
X165525000Y-60070000D03*
X165520000Y-72770000D03*
X159170000Y-60070000D03*
X159170000Y-72770000D03*
X152820000Y-60070000D03*
X152820000Y-72770000D03*
X168680000Y-61340000D03*
X168690000Y-74040000D03*
X162350000Y-61340000D03*
X162340000Y-74040000D03*
X155990000Y-61330000D03*
X156000000Y-74040000D03*
X171570000Y-62610000D03*
X165525000Y-78070000D03*
X165520000Y-90770000D03*
X159170000Y-78070000D03*
X159170000Y-90770000D03*
X152820000Y-78070000D03*
X152820000Y-90770000D03*
X168680000Y-79340000D03*
X168690000Y-92040000D03*
X162350000Y-79340000D03*
X162340000Y-92040000D03*
X155990000Y-79330000D03*
X156000000Y-92040000D03*
X171570000Y-80610000D03*
X165525000Y-100070000D03*
X165520000Y-112770000D03*
X159170000Y-100070000D03*
X159170000Y-112770000D03*
X152820000Y-100070000D03*
X152820000Y-112770000D03*
X168680000Y-101340000D03*
X168690000Y-114040000D03*
X162350000Y-101340000D03*
X162340000Y-114040000D03*
X155990000Y-101330000D03*
X156000000Y-114040000D03*
X171570000Y-102610000D03*
D14*
X141050000Y-102770000D03*
X136350000Y-102770000D03*
X131650000Y-102770000D03*
X141050000Y-97970000D03*
X136350000Y-97970000D03*
X131650000Y-97970000D03*
X141050000Y-93170000D03*
X136350000Y-93170000D03*
X131650000Y-93170000D03*
X141050000Y-88370000D03*
X136350000Y-88370000D03*
X131650000Y-88370000D03*
D15*
X137850000Y-69570000D03*
X137850000Y-67070000D03*
X137850000Y-62070000D03*
X137850000Y-59570000D03*
D16*
X132850000Y-64570000D03*
D15*
X137850000Y-82570000D03*
X137850000Y-80070000D03*
X137850000Y-75070000D03*
X137850000Y-72570000D03*
D16*
X132850000Y-77570000D03*
D12*
X153350000Y-64570000D03*
X145850000Y-84070000D03*
X154850000Y-82070000D03*
X149750000Y-87170000D03*
D17*
X134050000Y-104060000D03*
D12*
X144350000Y-97570000D03*
D18*
X147350000Y-63070000D02*
X143850000Y-59570000D01*
X143850000Y-59570000D02*
X137850000Y-59570000D01*
X147350000Y-63070000D02*
X150350000Y-60070000D01*
X150350000Y-60070000D02*
X152820000Y-60070000D01*
X153010160Y-59963647D02*
X152820000Y-60070000D01*
X131650000Y-102770000D02*
X131650000Y-103370000D01*
X131650000Y-103370000D02*
X133850000Y-105570000D01*
X133850000Y-105570000D02*
X143350000Y-105570000D01*
X143350000Y-105570000D02*
X147350000Y-102070000D01*
X147350000Y-102070000D02*
X147350000Y-63070000D01*
X153350000Y-64570000D02*
X158850000Y-64570000D01*
X158850000Y-64570000D02*
X162080000Y-61340000D01*
X162080000Y-61340000D02*
X162350000Y-61340000D01*
X137850000Y-72570000D02*
X141850000Y-72570000D01*
X145850000Y-97970000D02*
X141050000Y-102770000D01*
X145850000Y-76570000D02*
X145850000Y-84070000D01*
X145850000Y-84070000D02*
X145850000Y-97970000D01*
X141850000Y-72570000D02*
X145850000Y-76570000D01*
X141050000Y-102770000D02*
X141650000Y-102770000D01*
X159850000Y-82070000D02*
X162350000Y-79570000D01*
X154850000Y-82070000D02*
X159850000Y-82070000D01*
X162350000Y-79570000D02*
X162350000Y-79340000D01*
X162350000Y-79570000D02*
X162350000Y-79340000D01*
X155990000Y-79330000D02*
X155990000Y-78430000D01*
X155990000Y-78430000D02*
X149750000Y-84670000D01*
X149750000Y-84670000D02*
X149750000Y-87170000D01*
X141050000Y-93170000D02*
X140450000Y-93170000D01*
X140450000Y-93170000D02*
X137850000Y-90570000D01*
X137850000Y-90570000D02*
X134850000Y-90570000D01*
X134850000Y-90570000D02*
X133850000Y-89570000D01*
X133850000Y-89570000D02*
X133850000Y-84070000D01*
X133850000Y-84070000D02*
X134850000Y-83070000D01*
X134850000Y-83070000D02*
X134850000Y-78070000D01*
X134850000Y-78070000D02*
X137850000Y-75070000D01*
X135850000Y-112570000D02*
X137620000Y-112570000D01*
X137620000Y-112570000D02*
X137620000Y-111300000D01*
X138430000Y-110490000D02*
X138430000Y-109220000D01*
X137620000Y-111300000D02*
X138430000Y-110490000D01*
X138430000Y-109220000D02*
X139700000Y-107950000D01*
X139700000Y-107950000D02*
X153035000Y-107950000D01*
X153035000Y-107950000D02*
X160020000Y-100965000D01*
X160020000Y-100965000D02*
X159170000Y-100115000D01*
X159170000Y-100115000D02*
X159170000Y-100070000D01*
X133350000Y-112570000D02*
X132080000Y-111300000D01*
X146619990Y-106270010D02*
X151558001Y-101331999D01*
X132080000Y-111300000D02*
X132080000Y-107950000D01*
X132080000Y-107950000D02*
X133759990Y-106270010D01*
X133759990Y-106270010D02*
X146619990Y-106270010D01*
X151558001Y-101331999D02*
X152820000Y-100070000D01*
X146685000Y-109220000D02*
X154470000Y-109220000D01*
X154470000Y-109220000D02*
X162350000Y-101340000D01*
X144862001Y-111042999D02*
X146685000Y-109220000D01*
X143350000Y-112570000D02*
X144862001Y-111057999D01*
X144862001Y-111057999D02*
X144862001Y-111042999D01*
X134020000Y-100300000D02*
X134020000Y-104030000D01*
X134020000Y-104030000D02*
X134050000Y-104060000D01*
X136350000Y-97970000D02*
X134020000Y-100300000D01*
X136350000Y-88370000D02*
X136350000Y-87570000D01*
X136350000Y-87570000D02*
X138850000Y-85070000D01*
X138850000Y-85070000D02*
X142350000Y-85070000D01*
X142350000Y-85070000D02*
X144350000Y-87070000D01*
X144350000Y-87070000D02*
X144350000Y-97570000D01*
D19*
G36*
X132618409Y-48593161D02*
X131221929Y-49526259D01*
X130288831Y-50922739D01*
X129961170Y-52570000D01*
X130288831Y-54217261D01*
X131221929Y-55613741D01*
X132618409Y-56546839D01*
X134265670Y-56874500D01*
X134434330Y-56874500D01*
X136081591Y-56546839D01*
X137478071Y-55613741D01*
X138411169Y-54217261D01*
X138738830Y-52570000D01*
X138411169Y-50922739D01*
X137478071Y-49526259D01*
X136081591Y-48593161D01*
X134768648Y-48332000D01*
X166931352Y-48332000D01*
X165618409Y-48593161D01*
X164221929Y-49526259D01*
X163288831Y-50922739D01*
X162961170Y-52570000D01*
X163288831Y-54217261D01*
X164221929Y-55613741D01*
X165618409Y-56546839D01*
X167265670Y-56874500D01*
X167434330Y-56874500D01*
X169081591Y-56546839D01*
X170478071Y-55613741D01*
X171411169Y-54217261D01*
X171738830Y-52570000D01*
X171411169Y-50922739D01*
X170478071Y-49526259D01*
X169081591Y-48593161D01*
X167768648Y-48332000D01*
X172588000Y-48332000D01*
X172588000Y-60968712D01*
X171897056Y-60703689D01*
X171142647Y-60723639D01*
X170567661Y-60961806D01*
X170566361Y-60912647D01*
X170316043Y-60308326D01*
X170021994Y-60177611D01*
X168859605Y-61340000D01*
X168873748Y-61354143D01*
X168694143Y-61533748D01*
X168680000Y-61519605D01*
X167517611Y-62681994D01*
X167648326Y-62976043D01*
X168352944Y-63246311D01*
X169107353Y-63226361D01*
X169682339Y-62988194D01*
X169683639Y-63037353D01*
X169933957Y-63641674D01*
X170228006Y-63772389D01*
X171390395Y-62610000D01*
X171376253Y-62595858D01*
X171555858Y-62416253D01*
X171570000Y-62430395D01*
X171584143Y-62416253D01*
X171763748Y-62595858D01*
X171749605Y-62610000D01*
X171763748Y-62624143D01*
X171584143Y-62803748D01*
X171570000Y-62789605D01*
X170407611Y-63951994D01*
X170538326Y-64246043D01*
X171242944Y-64516311D01*
X171997353Y-64496361D01*
X172588000Y-64251707D01*
X172588000Y-78968712D01*
X171897056Y-78703689D01*
X171142647Y-78723639D01*
X170567661Y-78961806D01*
X170566361Y-78912647D01*
X170316043Y-78308326D01*
X170021994Y-78177611D01*
X168859605Y-79340000D01*
X168873748Y-79354143D01*
X168694143Y-79533748D01*
X168680000Y-79519605D01*
X167517611Y-80681994D01*
X167648326Y-80976043D01*
X168352944Y-81246311D01*
X169107353Y-81226361D01*
X169682339Y-80988194D01*
X169683639Y-81037353D01*
X169933957Y-81641674D01*
X170228006Y-81772389D01*
X171390395Y-80610000D01*
X171376253Y-80595858D01*
X171555858Y-80416253D01*
X171570000Y-80430395D01*
X171584143Y-80416253D01*
X171763748Y-80595858D01*
X171749605Y-80610000D01*
X171763748Y-80624143D01*
X171584143Y-80803748D01*
X171570000Y-80789605D01*
X170407611Y-81951994D01*
X170538326Y-82246043D01*
X171242944Y-82516311D01*
X171997353Y-82496361D01*
X172588000Y-82251707D01*
X172588000Y-100968712D01*
X171897056Y-100703689D01*
X171142647Y-100723639D01*
X170567661Y-100961806D01*
X170566361Y-100912647D01*
X170316043Y-100308326D01*
X170021994Y-100177611D01*
X168859605Y-101340000D01*
X168873748Y-101354143D01*
X168694143Y-101533748D01*
X168680000Y-101519605D01*
X167517611Y-102681994D01*
X167648326Y-102976043D01*
X168352944Y-103246311D01*
X169107353Y-103226361D01*
X169682339Y-102988194D01*
X169683639Y-103037353D01*
X169933957Y-103641674D01*
X170228006Y-103772389D01*
X171390395Y-102610000D01*
X171376253Y-102595858D01*
X171555858Y-102416253D01*
X171570000Y-102430395D01*
X171584143Y-102416253D01*
X171763748Y-102595858D01*
X171749605Y-102610000D01*
X171763748Y-102624143D01*
X171584143Y-102803748D01*
X171570000Y-102789605D01*
X170407611Y-103951994D01*
X170538326Y-104246043D01*
X171242944Y-104516311D01*
X171997353Y-104496361D01*
X172588000Y-104251707D01*
X172588000Y-126808000D01*
X167768648Y-126808000D01*
X169081591Y-126546839D01*
X170478071Y-125613741D01*
X171411169Y-124217261D01*
X171738830Y-122570000D01*
X171411169Y-120922739D01*
X170478071Y-119526259D01*
X169081591Y-118593161D01*
X167434330Y-118265500D01*
X167265670Y-118265500D01*
X165618409Y-118593161D01*
X164221929Y-119526259D01*
X163288831Y-120922739D01*
X162961170Y-122570000D01*
X163288831Y-124217261D01*
X164221929Y-125613741D01*
X165618409Y-126546839D01*
X166931352Y-126808000D01*
X134768648Y-126808000D01*
X136081591Y-126546839D01*
X137478071Y-125613741D01*
X138285238Y-124405729D01*
X153244286Y-124405729D01*
X153244299Y-124421464D01*
X153244962Y-124424784D01*
X153244339Y-124428111D01*
X153245126Y-124498295D01*
X153248074Y-124512292D01*
X153246062Y-124526453D01*
X153248766Y-124575356D01*
X153257404Y-124608963D01*
X153256234Y-124643642D01*
X153261838Y-124677798D01*
X153283045Y-124734314D01*
X153292315Y-124793959D01*
X153301802Y-124819905D01*
X153321674Y-124852544D01*
X153322287Y-124856208D01*
X153334230Y-124875319D01*
X153351966Y-124925843D01*
X153366317Y-124950116D01*
X153383075Y-124968830D01*
X153393207Y-124991818D01*
X153396739Y-124996854D01*
X153427357Y-125026128D01*
X153431662Y-125033198D01*
X153433931Y-125034856D01*
X153454626Y-125067972D01*
X153491985Y-125107682D01*
X153536316Y-125139300D01*
X153536690Y-125139892D01*
X153545734Y-125146276D01*
X153589852Y-125192571D01*
X153632419Y-125222520D01*
X153659239Y-125234393D01*
X153663175Y-125238386D01*
X153692797Y-125250906D01*
X153695289Y-125252683D01*
X153697043Y-125253088D01*
X153740696Y-125283903D01*
X153762555Y-125293621D01*
X153824718Y-125307651D01*
X153860759Y-125323607D01*
X153865056Y-125323710D01*
X153893190Y-125335601D01*
X153971625Y-125351789D01*
X153999213Y-125373974D01*
X154030548Y-125414376D01*
X154042242Y-125424524D01*
X154110484Y-125463455D01*
X154153969Y-125498424D01*
X154185459Y-125507635D01*
X154243925Y-125542969D01*
X154252025Y-125544201D01*
X154259144Y-125548262D01*
X154373946Y-125562773D01*
X154393642Y-125568534D01*
X154404380Y-125567368D01*
X154412788Y-125568647D01*
X154465898Y-125580292D01*
X154476688Y-125578364D01*
X154490802Y-125580510D01*
X154507449Y-125579753D01*
X154608877Y-125554739D01*
X154711718Y-125536360D01*
X154734106Y-125527594D01*
X154743600Y-125521515D01*
X154749900Y-125519961D01*
X154758664Y-125513511D01*
X154777709Y-125508624D01*
X154806251Y-125494923D01*
X154806253Y-125494923D01*
X154812432Y-125491962D01*
X154829618Y-125479080D01*
X154850027Y-125472390D01*
X154875756Y-125457893D01*
X154876523Y-125457235D01*
X154877482Y-125456917D01*
X154926709Y-125414386D01*
X154940850Y-125408204D01*
X154975104Y-125372594D01*
X154998635Y-125352390D01*
X155012246Y-125342188D01*
X155014036Y-125339168D01*
X155022387Y-125331997D01*
X155039130Y-125335389D01*
X155150827Y-125361778D01*
X155221654Y-125364304D01*
X155329308Y-125346854D01*
X155371365Y-125342193D01*
X155414732Y-125351618D01*
X155532803Y-125378731D01*
X155536573Y-125378096D01*
X155540307Y-125378907D01*
X155659521Y-125357373D01*
X155719536Y-125347257D01*
X155776026Y-125356729D01*
X155898384Y-125377433D01*
X155898859Y-125377324D01*
X155899341Y-125377405D01*
X156020687Y-125349431D01*
X156141801Y-125321701D01*
X156180938Y-125304157D01*
X156237106Y-125334950D01*
X156239897Y-125335255D01*
X156242366Y-125336581D01*
X156300888Y-125342463D01*
X156355487Y-125360127D01*
X156398485Y-125356688D01*
X156402675Y-125357833D01*
X156423031Y-125355256D01*
X156485345Y-125362062D01*
X156485869Y-125362016D01*
X156488313Y-125361303D01*
X156490830Y-125361556D01*
X156546234Y-125344871D01*
X156580859Y-125342101D01*
X156580925Y-125342134D01*
X156629554Y-125345489D01*
X156674801Y-125360127D01*
X156717799Y-125356688D01*
X156721989Y-125357833D01*
X156742345Y-125355256D01*
X156804659Y-125362062D01*
X156805183Y-125362016D01*
X156817405Y-125358450D01*
X156830048Y-125359322D01*
X156875469Y-125344077D01*
X156923721Y-125340218D01*
X156932662Y-125337684D01*
X156967982Y-125349867D01*
X157019923Y-125356964D01*
X157073178Y-125353735D01*
X157082149Y-125355241D01*
X157090746Y-125357901D01*
X157095413Y-125357467D01*
X157125795Y-125362567D01*
X157176230Y-125361051D01*
X157199613Y-125355665D01*
X157203554Y-125355482D01*
X157241028Y-125364128D01*
X157282361Y-125357204D01*
X157324532Y-125361209D01*
X157325425Y-125361118D01*
X157350077Y-125353546D01*
X157393595Y-125352921D01*
X157437118Y-125359757D01*
X157439044Y-125360197D01*
X157439464Y-125360126D01*
X157464053Y-125363988D01*
X157517253Y-125351144D01*
X157571973Y-125350358D01*
X157590965Y-125346296D01*
X157627258Y-125330649D01*
X157629751Y-125330617D01*
X157640504Y-125326003D01*
X157685238Y-125318410D01*
X157717498Y-125306102D01*
X157738877Y-125292674D01*
X157763363Y-125286524D01*
X157770743Y-125283028D01*
X157771706Y-125283515D01*
X157817183Y-125296204D01*
X157828821Y-125302542D01*
X157846721Y-125304446D01*
X157864633Y-125309444D01*
X157954837Y-125343652D01*
X158024182Y-125355279D01*
X158134857Y-125351933D01*
X158245572Y-125353571D01*
X158314823Y-125340858D01*
X158340930Y-125330494D01*
X158347947Y-125331043D01*
X158355790Y-125334775D01*
X158385101Y-125342190D01*
X158488841Y-125347529D01*
X158591998Y-125359783D01*
X158635615Y-125356370D01*
X158649855Y-125352361D01*
X158664607Y-125353435D01*
X158675382Y-125352096D01*
X158680926Y-125351531D01*
X158701614Y-125353890D01*
X158714084Y-125355418D01*
X158747232Y-125352946D01*
X158779699Y-125360051D01*
X158817674Y-125360776D01*
X158823351Y-125359759D01*
X158829007Y-125360892D01*
X158943283Y-125338325D01*
X158963108Y-125336847D01*
X158969639Y-125333553D01*
X158988365Y-125330198D01*
X159011633Y-125339580D01*
X159083360Y-125353145D01*
X159145625Y-125352557D01*
X159158723Y-125357001D01*
X159179141Y-125355659D01*
X159231642Y-125363619D01*
X159271501Y-125361789D01*
X159282090Y-125359173D01*
X159291841Y-125362025D01*
X159346878Y-125356051D01*
X159367331Y-125359964D01*
X159406324Y-125351911D01*
X159430982Y-125351778D01*
X159466013Y-125362025D01*
X159521050Y-125356051D01*
X159541503Y-125359964D01*
X159568940Y-125354298D01*
X159624604Y-125356301D01*
X159668110Y-125340088D01*
X159714270Y-125335077D01*
X159728695Y-125330544D01*
X159755799Y-125315708D01*
X159786058Y-125309459D01*
X159815176Y-125297148D01*
X159822646Y-125292077D01*
X159831433Y-125290007D01*
X159832306Y-125289609D01*
X159840749Y-125283529D01*
X159846171Y-125282264D01*
X159848760Y-125280408D01*
X159899949Y-125296866D01*
X159920765Y-125307303D01*
X159933256Y-125315414D01*
X159948120Y-125318168D01*
X159984960Y-125334879D01*
X160024789Y-125344184D01*
X160049699Y-125345010D01*
X160057301Y-125347454D01*
X160076362Y-125345894D01*
X160102418Y-125346758D01*
X160178792Y-125360910D01*
X160234742Y-125360175D01*
X160260338Y-125354733D01*
X160286366Y-125357408D01*
X160317646Y-125354461D01*
X160360944Y-125341527D01*
X160406105Y-125339819D01*
X160443837Y-125330819D01*
X160531400Y-125290608D01*
X160556914Y-125282986D01*
X160560867Y-125279770D01*
X160581675Y-125275216D01*
X160599536Y-125262781D01*
X160643634Y-125245215D01*
X160673793Y-125225652D01*
X160726386Y-125174472D01*
X160786618Y-125132540D01*
X160821704Y-125096087D01*
X160829476Y-125083959D01*
X160840920Y-125075215D01*
X160845608Y-125069891D01*
X160856327Y-125051412D01*
X160872413Y-125037349D01*
X160903955Y-124996375D01*
X160940427Y-124922711D01*
X160973218Y-124874306D01*
X160978588Y-124867660D01*
X160979258Y-124865390D01*
X160986532Y-124854653D01*
X161001581Y-124818967D01*
X161008531Y-124785155D01*
X161014754Y-124772586D01*
X161016519Y-124746296D01*
X161021400Y-124722550D01*
X161049250Y-124628151D01*
X161053092Y-124585834D01*
X161049998Y-124556702D01*
X161055714Y-124527966D01*
X161055714Y-124465779D01*
X161046993Y-124421934D01*
X161047262Y-124420912D01*
X161051210Y-124356404D01*
X161046971Y-124325244D01*
X161051988Y-124294200D01*
X161050245Y-124245957D01*
X161027509Y-124149920D01*
X161012847Y-124052332D01*
X160990904Y-123991363D01*
X160934406Y-123897499D01*
X160890385Y-123815575D01*
X160889515Y-123813534D01*
X160889036Y-123813065D01*
X160882551Y-123800996D01*
X160854853Y-123767397D01*
X160780098Y-123706322D01*
X160711151Y-123638765D01*
X160653725Y-123601234D01*
X160562742Y-123564628D01*
X160475200Y-123520401D01*
X160407078Y-123501441D01*
X160313872Y-123494428D01*
X160221835Y-123478151D01*
X160151415Y-123479652D01*
X160047571Y-123502618D01*
X159962755Y-123516194D01*
X159923864Y-123500345D01*
X159858175Y-123487669D01*
X159774240Y-123488149D01*
X159690953Y-123477728D01*
X159621213Y-123482749D01*
X159533814Y-123506770D01*
X159476237Y-123516020D01*
X159488517Y-123497609D01*
X159534326Y-123451059D01*
X159557126Y-123394743D01*
X159590839Y-123344196D01*
X159603527Y-123280129D01*
X159628035Y-123219593D01*
X159627548Y-123158836D01*
X159639351Y-123099237D01*
X159626557Y-123035194D01*
X159626033Y-122969885D01*
X159602333Y-122913940D01*
X159590430Y-122854360D01*
X159554101Y-122800088D01*
X159528625Y-122739952D01*
X159479650Y-122667914D01*
X159487966Y-122666314D01*
X159489417Y-122665724D01*
X159490986Y-122665726D01*
X159567186Y-122650686D01*
X159625892Y-122626471D01*
X159688174Y-122614082D01*
X159740195Y-122579323D01*
X159798034Y-122555465D01*
X159843004Y-122510627D01*
X159895805Y-122475347D01*
X159930565Y-122423325D01*
X159974871Y-122379150D01*
X159999259Y-122320518D01*
X160034540Y-122267716D01*
X160046746Y-122206351D01*
X160070774Y-122148585D01*
X160070868Y-122085084D01*
X160083257Y-122022799D01*
X160083257Y-121705492D01*
X160083229Y-121705353D01*
X160083257Y-121705213D01*
X160083240Y-121666197D01*
X160083052Y-121665253D01*
X160083236Y-121664311D01*
X160082914Y-121569127D01*
X160082267Y-121565932D01*
X160082861Y-121562724D01*
X160081910Y-121491688D01*
X160080319Y-121484213D01*
X160081532Y-121476670D01*
X160079669Y-121426150D01*
X160075631Y-121409149D01*
X160077474Y-121391769D01*
X160074415Y-121358133D01*
X160065350Y-121327425D01*
X160066490Y-121308170D01*
X160062166Y-121295691D01*
X160061739Y-121276967D01*
X160057200Y-121256587D01*
X160044339Y-121227435D01*
X160043542Y-121216161D01*
X160016559Y-121162143D01*
X160003716Y-121118635D01*
X159998632Y-121112345D01*
X159984728Y-121072220D01*
X159978427Y-121061464D01*
X159963902Y-121045111D01*
X159956405Y-121028118D01*
X159943412Y-121015704D01*
X159931953Y-120992764D01*
X159868439Y-120937636D01*
X159812594Y-120874763D01*
X159799249Y-120868287D01*
X159793368Y-120861941D01*
X159773192Y-120852672D01*
X159769536Y-120848957D01*
X159763162Y-120846257D01*
X159743368Y-120829077D01*
X159735020Y-120824315D01*
X159650551Y-120796122D01*
X159587937Y-120765735D01*
X159583381Y-120765465D01*
X159566455Y-120757689D01*
X159558374Y-120755760D01*
X159548599Y-120755389D01*
X159539592Y-120751574D01*
X159506645Y-120744749D01*
X159503871Y-120744727D01*
X159501310Y-120743668D01*
X159474660Y-120738383D01*
X159477417Y-120735359D01*
X159506564Y-120687037D01*
X159514565Y-120664872D01*
X159529132Y-120646348D01*
X159546275Y-120612603D01*
X159561174Y-120559532D01*
X159587356Y-120511029D01*
X159594178Y-120488869D01*
X159595459Y-120476384D01*
X159600990Y-120465119D01*
X159604902Y-120403771D01*
X159613770Y-120372182D01*
X159612521Y-120361737D01*
X159617286Y-120345763D01*
X159613065Y-120304854D01*
X159619675Y-120240459D01*
X159616082Y-120228437D01*
X159616881Y-120215910D01*
X159615070Y-120202341D01*
X159613622Y-120198101D01*
X159613846Y-120193628D01*
X159596606Y-120145318D01*
X159591659Y-120097366D01*
X159564312Y-120046768D01*
X159563855Y-120043909D01*
X159558168Y-120034655D01*
X159548169Y-120001200D01*
X159545110Y-119997442D01*
X159534382Y-119966020D01*
X159531422Y-119962657D01*
X159529917Y-119958439D01*
X159529308Y-119957421D01*
X159496311Y-119920952D01*
X159472925Y-119877684D01*
X159456543Y-119857911D01*
X159442546Y-119846532D01*
X159433100Y-119831163D01*
X159399702Y-119795128D01*
X159394509Y-119791365D01*
X159391042Y-119785966D01*
X159344066Y-119737243D01*
X159340864Y-119735018D01*
X159338718Y-119731762D01*
X159281604Y-119673923D01*
X159278988Y-119672151D01*
X159277223Y-119669529D01*
X159213406Y-119606144D01*
X159210422Y-119604165D01*
X159208391Y-119601218D01*
X159142192Y-119536896D01*
X159136555Y-119533246D01*
X159132631Y-119527796D01*
X159067785Y-119467338D01*
X159056070Y-119460090D01*
X159047554Y-119449262D01*
X158999903Y-119408470D01*
X158972398Y-119393025D01*
X158950576Y-119370248D01*
X158918885Y-119348077D01*
X158818009Y-119303739D01*
X158803726Y-119296648D01*
X158754336Y-119266633D01*
X158738261Y-119264148D01*
X158719299Y-119254734D01*
X158702331Y-119250140D01*
X158694908Y-119249634D01*
X158690277Y-119247598D01*
X158660036Y-119246951D01*
X158641714Y-119246005D01*
X158604474Y-119243464D01*
X158507552Y-119228480D01*
X158480736Y-119235023D01*
X158453195Y-119233144D01*
X158445134Y-119235857D01*
X158440492Y-119235617D01*
X158357395Y-119265116D01*
X158264954Y-119287671D01*
X158262737Y-119288703D01*
X158241186Y-119304483D01*
X158216519Y-119312783D01*
X158211986Y-119316737D01*
X158205166Y-119319158D01*
X158181817Y-119333074D01*
X158173865Y-119340245D01*
X158163899Y-119344157D01*
X158121511Y-119371350D01*
X158118645Y-119374112D01*
X158115348Y-119375452D01*
X158109778Y-119346831D01*
X158108258Y-119343117D01*
X158108225Y-119339104D01*
X158103219Y-119314968D01*
X158099380Y-119305909D01*
X158099002Y-119296077D01*
X158098682Y-119294739D01*
X158088656Y-119272940D01*
X158085963Y-119249097D01*
X158082667Y-119238765D01*
X158081301Y-119236295D01*
X158080961Y-119233499D01*
X158059805Y-119196012D01*
X158055715Y-119176218D01*
X158025647Y-119131931D01*
X158005778Y-119085049D01*
X157999305Y-119078681D01*
X157994333Y-119067871D01*
X157981682Y-119056156D01*
X157961819Y-119020239D01*
X157959614Y-119018481D01*
X157958228Y-119016026D01*
X157951551Y-119008259D01*
X157930480Y-118991760D01*
X157915448Y-118969620D01*
X157834042Y-118916094D01*
X157827767Y-118909920D01*
X157824028Y-118908407D01*
X157818944Y-118904427D01*
X157783949Y-118872430D01*
X157773017Y-118868465D01*
X157754937Y-118854308D01*
X157729157Y-118847129D01*
X157706796Y-118832426D01*
X157693072Y-118826860D01*
X157619557Y-118812802D01*
X157549199Y-118787282D01*
X157524766Y-118783549D01*
X157494611Y-118784899D01*
X157465396Y-118777294D01*
X157426589Y-118775029D01*
X157414409Y-118776721D01*
X157402401Y-118774076D01*
X157345557Y-118772912D01*
X157340744Y-118773767D01*
X157335958Y-118772788D01*
X157257414Y-118772358D01*
X157255853Y-118772660D01*
X157254292Y-118772348D01*
X157150382Y-118772286D01*
X157150191Y-118772324D01*
X157150000Y-118772286D01*
X157136944Y-118772286D01*
X157136675Y-118772339D01*
X157136405Y-118772286D01*
X157035528Y-118772371D01*
X157033715Y-118772733D01*
X157031903Y-118772385D01*
X156955980Y-118772879D01*
X156950641Y-118773977D01*
X156945271Y-118773038D01*
X156890636Y-118774308D01*
X156877366Y-118777270D01*
X156863887Y-118775490D01*
X156826877Y-118777902D01*
X156794594Y-118786540D01*
X156761185Y-118785608D01*
X156738138Y-118789528D01*
X156661000Y-118818989D01*
X156580619Y-118837833D01*
X156567870Y-118843627D01*
X156541335Y-118862690D01*
X156510442Y-118873318D01*
X156440688Y-118934996D01*
X156365065Y-118989325D01*
X156349079Y-119015102D01*
X156328941Y-119031874D01*
X156327046Y-119035481D01*
X156323370Y-119038732D01*
X156317255Y-119046769D01*
X156306589Y-119068623D01*
X156304084Y-119070958D01*
X156300102Y-119079694D01*
X156293832Y-119085872D01*
X156269498Y-119143423D01*
X156233454Y-119201543D01*
X156230567Y-119219163D01*
X156212821Y-119252948D01*
X156209676Y-119263592D01*
X156209273Y-119268010D01*
X156207725Y-119271182D01*
X156206934Y-119284064D01*
X156200500Y-119298176D01*
X156200410Y-119298558D01*
X156200094Y-119307569D01*
X156196583Y-119315873D01*
X156191415Y-119340895D01*
X156191387Y-119344704D01*
X156189944Y-119348231D01*
X156184658Y-119375425D01*
X156172961Y-119367753D01*
X156168612Y-119365995D01*
X156165221Y-119362756D01*
X156126754Y-119338312D01*
X156112413Y-119332754D01*
X156100797Y-119322666D01*
X156082261Y-119312084D01*
X155987042Y-119280277D01*
X155894592Y-119241155D01*
X155869351Y-119240963D01*
X155845411Y-119232966D01*
X155745274Y-119240018D01*
X155644884Y-119239254D01*
X155632182Y-119241680D01*
X155613362Y-119249308D01*
X155596312Y-119250509D01*
X155542924Y-119277160D01*
X155532368Y-119278292D01*
X155505353Y-119293032D01*
X155402790Y-119334150D01*
X155373954Y-119352945D01*
X155346663Y-119379620D01*
X155313161Y-119397900D01*
X155268597Y-119435120D01*
X155258676Y-119447424D01*
X155245188Y-119455659D01*
X155183661Y-119512349D01*
X155178900Y-119518879D01*
X155172109Y-119523261D01*
X155092381Y-119600468D01*
X155090791Y-119602767D01*
X155088453Y-119604304D01*
X155081319Y-119611332D01*
X155080378Y-119612718D01*
X155078986Y-119613643D01*
X155015722Y-119676610D01*
X155013927Y-119679282D01*
X155011264Y-119681091D01*
X154955070Y-119738137D01*
X154952842Y-119741526D01*
X154949516Y-119743846D01*
X154903829Y-119791395D01*
X154900069Y-119797273D01*
X154894432Y-119801387D01*
X154862695Y-119835867D01*
X154851479Y-119854258D01*
X154834961Y-119868083D01*
X154820611Y-119885916D01*
X154798000Y-119929220D01*
X154765756Y-119965797D01*
X154762088Y-119976512D01*
X154754894Y-119985273D01*
X154754848Y-119985360D01*
X154738311Y-120039817D01*
X154732673Y-120049062D01*
X154731499Y-120056578D01*
X154705029Y-120107272D01*
X154700725Y-120155773D01*
X154684882Y-120202054D01*
X154683059Y-120215632D01*
X154683379Y-120220715D01*
X154682290Y-120224301D01*
X154682913Y-120230640D01*
X154680341Y-120239171D01*
X154687227Y-120307862D01*
X154682954Y-120356010D01*
X154686473Y-120367221D01*
X154685949Y-120371566D01*
X154694892Y-120403556D01*
X154698752Y-120464854D01*
X154704048Y-120475664D01*
X154705249Y-120487640D01*
X154711972Y-120509665D01*
X154738230Y-120558586D01*
X154753179Y-120612061D01*
X154770143Y-120645545D01*
X154784832Y-120664267D01*
X154792904Y-120686655D01*
X154821806Y-120734612D01*
X154825240Y-120738382D01*
X154819196Y-120739570D01*
X154817509Y-120740264D01*
X154815682Y-120740270D01*
X154774072Y-120748688D01*
X154767839Y-120751294D01*
X154761086Y-120751456D01*
X154742251Y-120755675D01*
X154713857Y-120768243D01*
X154685178Y-120771450D01*
X154670895Y-120779328D01*
X154654258Y-120782145D01*
X154651135Y-120783335D01*
X154631888Y-120795413D01*
X154626671Y-120796449D01*
X154580535Y-120827255D01*
X154513905Y-120856748D01*
X154495470Y-120876091D01*
X154466520Y-120892059D01*
X154458909Y-120898475D01*
X154450122Y-120909475D01*
X154439617Y-120916067D01*
X154432475Y-120926120D01*
X154418997Y-120935120D01*
X154371490Y-121006172D01*
X154341620Y-121037513D01*
X154337917Y-121047098D01*
X154321539Y-121064659D01*
X154317478Y-121075519D01*
X154303050Y-121093580D01*
X154295878Y-121118395D01*
X154294994Y-121119640D01*
X154294666Y-121121073D01*
X154280200Y-121142709D01*
X154274537Y-121156369D01*
X154260048Y-121229097D01*
X154234074Y-121298555D01*
X154230077Y-121323089D01*
X154231143Y-121353675D01*
X154223180Y-121383225D01*
X154220565Y-121422264D01*
X154222258Y-121435264D01*
X154219359Y-121448052D01*
X154217841Y-121505227D01*
X154218813Y-121510894D01*
X154217641Y-121516522D01*
X154216939Y-121595463D01*
X154217380Y-121597788D01*
X154216915Y-121600105D01*
X154216744Y-121704443D01*
X154216847Y-121704967D01*
X154216743Y-121705492D01*
X154216743Y-122022799D01*
X154229132Y-122085082D01*
X154229226Y-122148585D01*
X154253254Y-122206351D01*
X154265460Y-122267716D01*
X154300741Y-122320518D01*
X154325129Y-122379150D01*
X154369435Y-122423325D01*
X154404195Y-122475347D01*
X154456996Y-122510627D01*
X154501966Y-122555465D01*
X154559805Y-122579323D01*
X154611826Y-122614082D01*
X154674108Y-122626471D01*
X154732814Y-122650686D01*
X154809014Y-122665726D01*
X154809568Y-122665725D01*
X154810077Y-122665934D01*
X154819294Y-122667738D01*
X154820332Y-122667735D01*
X154771606Y-122739245D01*
X154745935Y-122799665D01*
X154709421Y-122854213D01*
X154697585Y-122913461D01*
X154673955Y-122969075D01*
X154673360Y-123034721D01*
X154660500Y-123099090D01*
X154672238Y-123158360D01*
X154671690Y-123218781D01*
X154696259Y-123279652D01*
X154709012Y-123344048D01*
X154742541Y-123394317D01*
X154763657Y-123446635D01*
X154759849Y-123446157D01*
X154685107Y-123451500D01*
X154610456Y-123444962D01*
X154530720Y-123453687D01*
X154434245Y-123484096D01*
X154386679Y-123495225D01*
X154385870Y-123494985D01*
X154284610Y-123458828D01*
X154201337Y-123446531D01*
X154144653Y-123449353D01*
X154088685Y-123439952D01*
X154066445Y-123440618D01*
X154011607Y-123453243D01*
X153955331Y-123453729D01*
X153889838Y-123467345D01*
X153783592Y-123512432D01*
X153676022Y-123554313D01*
X153622226Y-123588616D01*
X153551470Y-123656404D01*
X153475180Y-123717898D01*
X153425810Y-123776987D01*
X153409458Y-123806943D01*
X153385290Y-123831044D01*
X153382353Y-123835428D01*
X153372768Y-123858479D01*
X153356500Y-123877417D01*
X153343207Y-123900994D01*
X153323229Y-123961890D01*
X153291942Y-124017820D01*
X153283297Y-124044470D01*
X153276628Y-124101044D01*
X153258017Y-124154887D01*
X153253045Y-124191097D01*
X153254847Y-124221145D01*
X153247699Y-124250383D01*
X153245429Y-124302637D01*
X153247222Y-124314267D01*
X153244843Y-124325790D01*
X153244339Y-124395570D01*
X153244341Y-124395581D01*
X153244339Y-124395592D01*
X153244303Y-124400599D01*
X153244794Y-124403164D01*
X153244286Y-124405729D01*
X138285238Y-124405729D01*
X138411169Y-124217261D01*
X138738830Y-122570000D01*
X138411169Y-120922739D01*
X137478071Y-119526259D01*
X136081591Y-118593161D01*
X134434330Y-118265500D01*
X134265670Y-118265500D01*
X132618409Y-118593161D01*
X131221929Y-119526259D01*
X130288831Y-120922739D01*
X129961170Y-122570000D01*
X130288831Y-124217261D01*
X131221929Y-125613741D01*
X132618409Y-126546839D01*
X133931352Y-126808000D01*
X129112000Y-126808000D01*
X129112000Y-116041517D01*
X132558088Y-116041517D01*
X132626077Y-116282460D01*
X133145171Y-116467201D01*
X133695448Y-116439230D01*
X134073923Y-116282460D01*
X134141912Y-116041517D01*
X135058088Y-116041517D01*
X135126077Y-116282460D01*
X135645171Y-116467201D01*
X136195448Y-116439230D01*
X136573923Y-116282460D01*
X136641912Y-116041517D01*
X140058088Y-116041517D01*
X140126077Y-116282460D01*
X140645171Y-116467201D01*
X141195448Y-116439230D01*
X141573923Y-116282460D01*
X141641912Y-116041517D01*
X142558088Y-116041517D01*
X142626077Y-116282460D01*
X143145171Y-116467201D01*
X143695448Y-116439230D01*
X144073923Y-116282460D01*
X144141912Y-116041517D01*
X143350000Y-115249605D01*
X142558088Y-116041517D01*
X141641912Y-116041517D01*
X140850000Y-115249605D01*
X140058088Y-116041517D01*
X136641912Y-116041517D01*
X135850000Y-115249605D01*
X135058088Y-116041517D01*
X134141912Y-116041517D01*
X133350000Y-115249605D01*
X132558088Y-116041517D01*
X129112000Y-116041517D01*
X129112000Y-114865171D01*
X131952799Y-114865171D01*
X131980770Y-115415448D01*
X132137540Y-115793923D01*
X132378483Y-115861912D01*
X133170395Y-115070000D01*
X133529605Y-115070000D01*
X134321517Y-115861912D01*
X134562460Y-115793923D01*
X134597157Y-115696430D01*
X134637540Y-115793923D01*
X134878483Y-115861912D01*
X135670395Y-115070000D01*
X136029605Y-115070000D01*
X136821517Y-115861912D01*
X137062460Y-115793923D01*
X137247201Y-115274829D01*
X137226378Y-114865171D01*
X139452799Y-114865171D01*
X139480770Y-115415448D01*
X139637540Y-115793923D01*
X139878483Y-115861912D01*
X140670395Y-115070000D01*
X141029605Y-115070000D01*
X141821517Y-115861912D01*
X142062460Y-115793923D01*
X142097157Y-115696430D01*
X142137540Y-115793923D01*
X142378483Y-115861912D01*
X143170395Y-115070000D01*
X143529605Y-115070000D01*
X144321517Y-115861912D01*
X144562460Y-115793923D01*
X144747201Y-115274829D01*
X144719230Y-114724552D01*
X144562460Y-114346077D01*
X144321517Y-114278088D01*
X143529605Y-115070000D01*
X143170395Y-115070000D01*
X142378483Y-114278088D01*
X142137540Y-114346077D01*
X142102843Y-114443570D01*
X142062460Y-114346077D01*
X141821517Y-114278088D01*
X141029605Y-115070000D01*
X140670395Y-115070000D01*
X139878483Y-114278088D01*
X139637540Y-114346077D01*
X139452799Y-114865171D01*
X137226378Y-114865171D01*
X137219230Y-114724552D01*
X137062460Y-114346077D01*
X136821517Y-114278088D01*
X136029605Y-115070000D01*
X135670395Y-115070000D01*
X134878483Y-114278088D01*
X134637540Y-114346077D01*
X134602843Y-114443570D01*
X134562460Y-114346077D01*
X134321517Y-114278088D01*
X133529605Y-115070000D01*
X133170395Y-115070000D01*
X132378483Y-114278088D01*
X132137540Y-114346077D01*
X131952799Y-114865171D01*
X129112000Y-114865171D01*
X129112000Y-98392815D01*
X129514630Y-98392815D01*
X129838980Y-99177800D01*
X130439041Y-99778909D01*
X131223459Y-100104628D01*
X132072815Y-100105370D01*
X132857800Y-99781020D01*
X133458909Y-99180959D01*
X133784628Y-98396541D01*
X133785370Y-97547185D01*
X133461020Y-96762200D01*
X132860959Y-96161091D01*
X132076541Y-95835372D01*
X131227185Y-95834630D01*
X130442200Y-96158980D01*
X129841091Y-96759041D01*
X129515372Y-97543459D01*
X129514630Y-98392815D01*
X129112000Y-98392815D01*
X129112000Y-93592815D01*
X129514630Y-93592815D01*
X129838980Y-94377800D01*
X130439041Y-94978909D01*
X131223459Y-95304628D01*
X132072815Y-95305370D01*
X132857800Y-94981020D01*
X133458909Y-94380959D01*
X133784628Y-93596541D01*
X133785370Y-92747185D01*
X133461020Y-91962200D01*
X132860959Y-91361091D01*
X132076541Y-91035372D01*
X131227185Y-91034630D01*
X130442200Y-91358980D01*
X129841091Y-91959041D01*
X129515372Y-92743459D01*
X129514630Y-93592815D01*
X129112000Y-93592815D01*
X129112000Y-88792815D01*
X129514630Y-88792815D01*
X129838980Y-89577800D01*
X130439041Y-90178909D01*
X131223459Y-90504628D01*
X132072815Y-90505370D01*
X132857800Y-90181020D01*
X133071681Y-89967512D01*
X133188718Y-90142672D01*
X133224210Y-90195790D01*
X134224208Y-91195787D01*
X134224210Y-91195790D01*
X134416054Y-91323975D01*
X134511326Y-91387634D01*
X134850000Y-91455001D01*
X134850005Y-91455000D01*
X135046012Y-91455000D01*
X134541091Y-91959041D01*
X134215372Y-92743459D01*
X134214630Y-93592815D01*
X134538980Y-94377800D01*
X135139041Y-94978909D01*
X135923459Y-95304628D01*
X136772815Y-95305370D01*
X137557800Y-94981020D01*
X138158909Y-94380959D01*
X138484628Y-93596541D01*
X138485370Y-92747185D01*
X138281005Y-92252584D01*
X138915247Y-92886826D01*
X138914630Y-93592815D01*
X139238980Y-94377800D01*
X139839041Y-94978909D01*
X140623459Y-95304628D01*
X141472815Y-95305370D01*
X142257800Y-94981020D01*
X142858909Y-94380959D01*
X143184628Y-93596541D01*
X143185370Y-92747185D01*
X142861020Y-91962200D01*
X142260959Y-91361091D01*
X141476541Y-91035372D01*
X140627185Y-91034630D01*
X139876420Y-91344841D01*
X138475790Y-89944210D01*
X138422606Y-89908674D01*
X138188675Y-89752367D01*
X138132484Y-89741190D01*
X138020677Y-89718950D01*
X138158909Y-89580959D01*
X138484628Y-88796541D01*
X138484631Y-88792815D01*
X138914630Y-88792815D01*
X139238980Y-89577800D01*
X139839041Y-90178909D01*
X140623459Y-90504628D01*
X141472815Y-90505370D01*
X142257800Y-90181020D01*
X142858909Y-89580959D01*
X143184628Y-88796541D01*
X143185370Y-87947185D01*
X142861020Y-87162200D01*
X142260959Y-86561091D01*
X141476541Y-86235372D01*
X140627185Y-86234630D01*
X139842200Y-86558980D01*
X139241091Y-87159041D01*
X138915372Y-87943459D01*
X138914630Y-88792815D01*
X138484631Y-88792815D01*
X138485370Y-87947185D01*
X138161020Y-87162200D01*
X138085266Y-87086314D01*
X139216579Y-85955000D01*
X141983420Y-85955000D01*
X143465000Y-87436579D01*
X143465000Y-96496477D01*
X143176539Y-96784436D01*
X143022996Y-97154210D01*
X142861020Y-96762200D01*
X142260959Y-96161091D01*
X141476541Y-95835372D01*
X140627185Y-95834630D01*
X139842200Y-96158980D01*
X139241091Y-96759041D01*
X138915372Y-97543459D01*
X138914630Y-98392815D01*
X139238980Y-99177800D01*
X139839041Y-99778909D01*
X140623459Y-100104628D01*
X141472815Y-100105370D01*
X142257800Y-99781020D01*
X142858909Y-99180959D01*
X143184628Y-98396541D01*
X143184657Y-98363020D01*
X143564436Y-98743461D01*
X143748521Y-98819900D01*
X141799107Y-100769313D01*
X141476541Y-100635372D01*
X140627185Y-100634630D01*
X139842200Y-100958980D01*
X139241091Y-101559041D01*
X138915372Y-102343459D01*
X138914630Y-103192815D01*
X139238980Y-103977800D01*
X139839041Y-104578909D01*
X140094536Y-104685000D01*
X137306150Y-104685000D01*
X137557800Y-104581020D01*
X138158909Y-103980959D01*
X138484628Y-103196541D01*
X138485370Y-102347185D01*
X138161020Y-101562200D01*
X137560959Y-100961091D01*
X136776541Y-100635372D01*
X135927185Y-100634630D01*
X135142200Y-100958980D01*
X134905000Y-101195766D01*
X134905000Y-100666580D01*
X135600893Y-99970687D01*
X135923459Y-100104628D01*
X136772815Y-100105370D01*
X137557800Y-99781020D01*
X138158909Y-99180959D01*
X138484628Y-98396541D01*
X138485370Y-97547185D01*
X138161020Y-96762200D01*
X137560959Y-96161091D01*
X136776541Y-95835372D01*
X135927185Y-95834630D01*
X135142200Y-96158980D01*
X134541091Y-96759041D01*
X134215372Y-97543459D01*
X134214630Y-98392815D01*
X134349411Y-98719009D01*
X133394210Y-99674210D01*
X133202367Y-99961325D01*
X133202367Y-99961326D01*
X133134999Y-100300000D01*
X133135000Y-100300005D01*
X133135000Y-101235611D01*
X132860959Y-100961091D01*
X132076541Y-100635372D01*
X131227185Y-100634630D01*
X130442200Y-100958980D01*
X129841091Y-101559041D01*
X129515372Y-102343459D01*
X129514630Y-103192815D01*
X129838980Y-103977800D01*
X130439041Y-104578909D01*
X131223459Y-104904628D01*
X131933669Y-104905248D01*
X132903421Y-105875000D01*
X131454210Y-107324210D01*
X131262367Y-107611325D01*
X131262367Y-107611326D01*
X131194999Y-107950000D01*
X131195000Y-107950005D01*
X131195000Y-111299995D01*
X131194999Y-111300000D01*
X131225879Y-111455240D01*
X131262367Y-111638675D01*
X131359761Y-111784436D01*
X131454210Y-111925790D01*
X131965116Y-112436695D01*
X131964760Y-112844285D01*
X132175169Y-113353515D01*
X132564436Y-113743461D01*
X132732754Y-113813353D01*
X132626077Y-113857540D01*
X132558088Y-114098483D01*
X133350000Y-114890395D01*
X134141912Y-114098483D01*
X134073923Y-113857540D01*
X133959389Y-113816778D01*
X134133515Y-113744831D01*
X134523461Y-113355564D01*
X134599927Y-113171414D01*
X134675169Y-113353515D01*
X135064436Y-113743461D01*
X135232754Y-113813353D01*
X135126077Y-113857540D01*
X135058088Y-114098483D01*
X135850000Y-114890395D01*
X136641912Y-114098483D01*
X136573923Y-113857540D01*
X136459389Y-113816778D01*
X136633515Y-113744831D01*
X136923852Y-113455000D01*
X137620000Y-113455000D01*
X137958675Y-113387633D01*
X138245790Y-113195790D01*
X138437633Y-112908675D01*
X138505000Y-112570000D01*
X138505000Y-111666580D01*
X139055787Y-111115792D01*
X139055790Y-111115790D01*
X139247633Y-110828675D01*
X139272368Y-110704324D01*
X139315001Y-110490000D01*
X139315000Y-110489995D01*
X139315000Y-109586580D01*
X140066579Y-108835000D01*
X140212105Y-108835000D01*
X140066485Y-108895169D01*
X139676539Y-109284436D01*
X139465241Y-109793298D01*
X139464760Y-110344285D01*
X139675169Y-110853515D01*
X140064436Y-111243461D01*
X140248586Y-111319927D01*
X140066485Y-111395169D01*
X139676539Y-111784436D01*
X139465241Y-112293298D01*
X139464760Y-112844285D01*
X139675169Y-113353515D01*
X140064436Y-113743461D01*
X140232754Y-113813353D01*
X140126077Y-113857540D01*
X140058088Y-114098483D01*
X140850000Y-114890395D01*
X141641912Y-114098483D01*
X141573923Y-113857540D01*
X141459389Y-113816778D01*
X141633515Y-113744831D01*
X142023461Y-113355564D01*
X142099927Y-113171414D01*
X142175169Y-113353515D01*
X142564436Y-113743461D01*
X142732754Y-113813353D01*
X142626077Y-113857540D01*
X142558088Y-114098483D01*
X143350000Y-114890395D01*
X144141912Y-114098483D01*
X144073923Y-113857540D01*
X143959389Y-113816778D01*
X144133515Y-113744831D01*
X144523461Y-113355564D01*
X144610612Y-113145681D01*
X150922672Y-113145681D01*
X151210864Y-113843160D01*
X151744033Y-114377260D01*
X152441008Y-114666670D01*
X153195681Y-114667328D01*
X153893160Y-114379136D01*
X154102886Y-114169775D01*
X154102672Y-114415681D01*
X154390864Y-115113160D01*
X154924033Y-115647260D01*
X155621008Y-115936670D01*
X156375681Y-115937328D01*
X157073160Y-115649136D01*
X157607260Y-115115967D01*
X157896670Y-114418992D01*
X157896879Y-114179761D01*
X158094033Y-114377260D01*
X158791008Y-114666670D01*
X159545681Y-114667328D01*
X160243160Y-114379136D01*
X160442878Y-114179766D01*
X160442672Y-114415681D01*
X160730864Y-115113160D01*
X161264033Y-115647260D01*
X161961008Y-115936670D01*
X162715681Y-115937328D01*
X163413160Y-115649136D01*
X163947260Y-115115967D01*
X164236670Y-114418992D01*
X164236887Y-114169753D01*
X164444033Y-114377260D01*
X165141008Y-114666670D01*
X165895681Y-114667328D01*
X166593160Y-114379136D01*
X166792878Y-114179766D01*
X166792672Y-114415681D01*
X167080864Y-115113160D01*
X167614033Y-115647260D01*
X168311008Y-115936670D01*
X169065681Y-115937328D01*
X169763160Y-115649136D01*
X170297260Y-115115967D01*
X170586670Y-114418992D01*
X170587328Y-113664319D01*
X170299136Y-112966840D01*
X169765967Y-112432740D01*
X169068992Y-112143330D01*
X168314319Y-112142672D01*
X167616840Y-112430864D01*
X167417122Y-112630234D01*
X167417328Y-112394319D01*
X167129136Y-111696840D01*
X166595967Y-111162740D01*
X165898992Y-110873330D01*
X165144319Y-110872672D01*
X164446840Y-111160864D01*
X163912740Y-111694033D01*
X163623330Y-112391008D01*
X163623113Y-112640247D01*
X163415967Y-112432740D01*
X162718992Y-112143330D01*
X161964319Y-112142672D01*
X161266840Y-112430864D01*
X161067122Y-112630234D01*
X161067328Y-112394319D01*
X160779136Y-111696840D01*
X160245967Y-111162740D01*
X159548992Y-110873330D01*
X158794319Y-110872672D01*
X158096840Y-111160864D01*
X157562740Y-111694033D01*
X157273330Y-112391008D01*
X157273121Y-112630239D01*
X157075967Y-112432740D01*
X156378992Y-112143330D01*
X155624319Y-112142672D01*
X154926840Y-112430864D01*
X154717114Y-112640225D01*
X154717328Y-112394319D01*
X154429136Y-111696840D01*
X153895967Y-111162740D01*
X153198992Y-110873330D01*
X152444319Y-110872672D01*
X151746840Y-111160864D01*
X151212740Y-111694033D01*
X150923330Y-112391008D01*
X150922672Y-113145681D01*
X144610612Y-113145681D01*
X144734759Y-112846702D01*
X144735117Y-112436462D01*
X145487788Y-111683791D01*
X145487791Y-111683789D01*
X145517996Y-111638584D01*
X147051579Y-110105000D01*
X154469995Y-110105000D01*
X154470000Y-110105001D01*
X154752484Y-110048810D01*
X154808675Y-110037633D01*
X155095790Y-109845790D01*
X155095791Y-109845789D01*
X161782984Y-103158595D01*
X161971008Y-103236670D01*
X162725681Y-103237328D01*
X163423160Y-102949136D01*
X163957260Y-102415967D01*
X164246670Y-101718992D01*
X164246840Y-101523642D01*
X164248903Y-101525705D01*
X164362612Y-101411996D01*
X164493326Y-101706043D01*
X165197944Y-101976311D01*
X165952353Y-101956361D01*
X166556674Y-101706043D01*
X166687388Y-101411996D01*
X166786872Y-101511480D01*
X166793639Y-101767353D01*
X167043957Y-102371674D01*
X167338006Y-102502389D01*
X168500395Y-101340000D01*
X168486253Y-101325858D01*
X168665858Y-101146253D01*
X168680000Y-101160395D01*
X169842389Y-99998006D01*
X169711674Y-99703957D01*
X169007056Y-99433689D01*
X168252647Y-99453639D01*
X167648326Y-99703957D01*
X167517612Y-99998004D01*
X167418128Y-99898520D01*
X167411361Y-99642647D01*
X167161043Y-99038326D01*
X166866994Y-98907611D01*
X165704605Y-100070000D01*
X165718748Y-100084143D01*
X165539143Y-100263748D01*
X165525000Y-100249605D01*
X165510858Y-100263748D01*
X165331253Y-100084143D01*
X165345395Y-100070000D01*
X164183006Y-98907611D01*
X163888957Y-99038326D01*
X163618689Y-99742944D01*
X163623656Y-99930774D01*
X163425967Y-99732740D01*
X162728992Y-99443330D01*
X161974319Y-99442672D01*
X161276840Y-99730864D01*
X161067114Y-99940225D01*
X161067328Y-99694319D01*
X160779136Y-98996840D01*
X160510771Y-98728006D01*
X164362611Y-98728006D01*
X165525000Y-99890395D01*
X166687389Y-98728006D01*
X166556674Y-98433957D01*
X165852056Y-98163689D01*
X165097647Y-98183639D01*
X164493326Y-98433957D01*
X164362611Y-98728006D01*
X160510771Y-98728006D01*
X160245967Y-98462740D01*
X159548992Y-98173330D01*
X158794319Y-98172672D01*
X158096840Y-98460864D01*
X157562740Y-98994033D01*
X157273330Y-99691008D01*
X157273121Y-99930256D01*
X157065967Y-99722740D01*
X156368992Y-99433330D01*
X155614319Y-99432672D01*
X154916840Y-99720864D01*
X154717131Y-99920225D01*
X154717328Y-99694319D01*
X154429136Y-98996840D01*
X153895967Y-98462740D01*
X153198992Y-98173330D01*
X152444319Y-98172672D01*
X151746840Y-98460864D01*
X151212740Y-98994033D01*
X150923330Y-99691008D01*
X150922672Y-100445681D01*
X151001635Y-100636785D01*
X150932211Y-100706209D01*
X150932209Y-100706212D01*
X146253410Y-105385010D01*
X144905371Y-105385010D01*
X147932777Y-102736030D01*
X147950972Y-102712373D01*
X147975790Y-102695790D01*
X148055661Y-102576255D01*
X148143294Y-102462312D01*
X148151051Y-102433492D01*
X148167633Y-102408675D01*
X148195676Y-102267693D01*
X148233041Y-102128869D01*
X148229178Y-102099270D01*
X148235000Y-102070000D01*
X148235000Y-91145681D01*
X150922672Y-91145681D01*
X151210864Y-91843160D01*
X151744033Y-92377260D01*
X152441008Y-92666670D01*
X153195681Y-92667328D01*
X153893160Y-92379136D01*
X154102886Y-92169775D01*
X154102672Y-92415681D01*
X154390864Y-93113160D01*
X154924033Y-93647260D01*
X155621008Y-93936670D01*
X156375681Y-93937328D01*
X157073160Y-93649136D01*
X157607260Y-93115967D01*
X157896670Y-92418992D01*
X157896879Y-92179761D01*
X158094033Y-92377260D01*
X158791008Y-92666670D01*
X159545681Y-92667328D01*
X160243160Y-92379136D01*
X160442878Y-92179766D01*
X160442672Y-92415681D01*
X160730864Y-93113160D01*
X161264033Y-93647260D01*
X161961008Y-93936670D01*
X162715681Y-93937328D01*
X163413160Y-93649136D01*
X163947260Y-93115967D01*
X164236670Y-92418992D01*
X164236887Y-92169753D01*
X164444033Y-92377260D01*
X165141008Y-92666670D01*
X165895681Y-92667328D01*
X166593160Y-92379136D01*
X166792878Y-92179766D01*
X166792672Y-92415681D01*
X167080864Y-93113160D01*
X167614033Y-93647260D01*
X168311008Y-93936670D01*
X169065681Y-93937328D01*
X169763160Y-93649136D01*
X170297260Y-93115967D01*
X170586670Y-92418992D01*
X170587328Y-91664319D01*
X170299136Y-90966840D01*
X169765967Y-90432740D01*
X169068992Y-90143330D01*
X168314319Y-90142672D01*
X167616840Y-90430864D01*
X167417122Y-90630234D01*
X167417328Y-90394319D01*
X167129136Y-89696840D01*
X166595967Y-89162740D01*
X165898992Y-88873330D01*
X165144319Y-88872672D01*
X164446840Y-89160864D01*
X163912740Y-89694033D01*
X163623330Y-90391008D01*
X163623113Y-90640247D01*
X163415967Y-90432740D01*
X162718992Y-90143330D01*
X161964319Y-90142672D01*
X161266840Y-90430864D01*
X161067122Y-90630234D01*
X161067328Y-90394319D01*
X160779136Y-89696840D01*
X160245967Y-89162740D01*
X159548992Y-88873330D01*
X158794319Y-88872672D01*
X158096840Y-89160864D01*
X157562740Y-89694033D01*
X157273330Y-90391008D01*
X157273121Y-90630239D01*
X157075967Y-90432740D01*
X156378992Y-90143330D01*
X155624319Y-90142672D01*
X154926840Y-90430864D01*
X154717114Y-90640225D01*
X154717328Y-90394319D01*
X154429136Y-89696840D01*
X153895967Y-89162740D01*
X153198992Y-88873330D01*
X152444319Y-88872672D01*
X151746840Y-89160864D01*
X151212740Y-89694033D01*
X150923330Y-90391008D01*
X150922672Y-91145681D01*
X148235000Y-91145681D01*
X148235000Y-87444285D01*
X148364760Y-87444285D01*
X148575169Y-87953515D01*
X148964436Y-88343461D01*
X149473298Y-88554759D01*
X150024285Y-88555240D01*
X150533515Y-88344831D01*
X150923461Y-87955564D01*
X151134759Y-87446702D01*
X151135240Y-86895715D01*
X150924831Y-86386485D01*
X150635000Y-86096148D01*
X150635000Y-85036580D01*
X153464880Y-82206699D01*
X153464760Y-82344285D01*
X153675169Y-82853515D01*
X154064436Y-83243461D01*
X154573298Y-83454759D01*
X155124285Y-83455240D01*
X155633515Y-83244831D01*
X155923852Y-82955000D01*
X159849995Y-82955000D01*
X159850000Y-82955001D01*
X160150789Y-82895169D01*
X160188675Y-82887633D01*
X160475790Y-82695790D01*
X161945501Y-81226079D01*
X161971008Y-81236670D01*
X162725681Y-81237328D01*
X163423160Y-80949136D01*
X163957260Y-80415967D01*
X164246670Y-79718992D01*
X164246840Y-79523642D01*
X164248903Y-79525705D01*
X164362612Y-79411996D01*
X164493326Y-79706043D01*
X165197944Y-79976311D01*
X165952353Y-79956361D01*
X166556674Y-79706043D01*
X166687388Y-79411996D01*
X166786872Y-79511480D01*
X166793639Y-79767353D01*
X167043957Y-80371674D01*
X167338006Y-80502389D01*
X168500395Y-79340000D01*
X168486253Y-79325858D01*
X168665858Y-79146253D01*
X168680000Y-79160395D01*
X169842389Y-77998006D01*
X169711674Y-77703957D01*
X169007056Y-77433689D01*
X168252647Y-77453639D01*
X167648326Y-77703957D01*
X167517612Y-77998004D01*
X167418128Y-77898520D01*
X167411361Y-77642647D01*
X167161043Y-77038326D01*
X166866994Y-76907611D01*
X165704605Y-78070000D01*
X165718748Y-78084143D01*
X165539143Y-78263748D01*
X165525000Y-78249605D01*
X165510858Y-78263748D01*
X165331253Y-78084143D01*
X165345395Y-78070000D01*
X164183006Y-76907611D01*
X163888957Y-77038326D01*
X163618689Y-77742944D01*
X163623656Y-77930774D01*
X163425967Y-77732740D01*
X162728992Y-77443330D01*
X161974319Y-77442672D01*
X161276840Y-77730864D01*
X161067114Y-77940225D01*
X161067328Y-77694319D01*
X160779136Y-76996840D01*
X160510771Y-76728006D01*
X164362611Y-76728006D01*
X165525000Y-77890395D01*
X166687389Y-76728006D01*
X166556674Y-76433957D01*
X165852056Y-76163689D01*
X165097647Y-76183639D01*
X164493326Y-76433957D01*
X164362611Y-76728006D01*
X160510771Y-76728006D01*
X160245967Y-76462740D01*
X159548992Y-76173330D01*
X158794319Y-76172672D01*
X158096840Y-76460864D01*
X157562740Y-76994033D01*
X157273330Y-77691008D01*
X157273121Y-77930256D01*
X157065967Y-77722740D01*
X156368992Y-77433330D01*
X155614319Y-77432672D01*
X154916840Y-77720864D01*
X154717131Y-77920225D01*
X154717328Y-77694319D01*
X154429136Y-76996840D01*
X153895967Y-76462740D01*
X153198992Y-76173330D01*
X152444319Y-76172672D01*
X151746840Y-76460864D01*
X151212740Y-76994033D01*
X150923330Y-77691008D01*
X150922672Y-78445681D01*
X151210864Y-79143160D01*
X151744033Y-79677260D01*
X152441008Y-79966670D01*
X153195681Y-79967328D01*
X153204903Y-79963517D01*
X149124210Y-84044210D01*
X148932367Y-84331325D01*
X148932367Y-84331326D01*
X148864999Y-84670000D01*
X148865000Y-84670005D01*
X148865000Y-86096477D01*
X148576539Y-86384436D01*
X148365241Y-86893298D01*
X148364760Y-87444285D01*
X148235000Y-87444285D01*
X148235000Y-73145681D01*
X150922672Y-73145681D01*
X151210864Y-73843160D01*
X151744033Y-74377260D01*
X152441008Y-74666670D01*
X153195681Y-74667328D01*
X153893160Y-74379136D01*
X154102886Y-74169775D01*
X154102672Y-74415681D01*
X154390864Y-75113160D01*
X154924033Y-75647260D01*
X155621008Y-75936670D01*
X156375681Y-75937328D01*
X157073160Y-75649136D01*
X157607260Y-75115967D01*
X157896670Y-74418992D01*
X157896879Y-74179761D01*
X158094033Y-74377260D01*
X158791008Y-74666670D01*
X159545681Y-74667328D01*
X160243160Y-74379136D01*
X160442878Y-74179766D01*
X160442672Y-74415681D01*
X160730864Y-75113160D01*
X161264033Y-75647260D01*
X161961008Y-75936670D01*
X162715681Y-75937328D01*
X163413160Y-75649136D01*
X163947260Y-75115967D01*
X164236670Y-74418992D01*
X164236887Y-74169753D01*
X164444033Y-74377260D01*
X165141008Y-74666670D01*
X165895681Y-74667328D01*
X166593160Y-74379136D01*
X166792878Y-74179766D01*
X166792672Y-74415681D01*
X167080864Y-75113160D01*
X167614033Y-75647260D01*
X168311008Y-75936670D01*
X169065681Y-75937328D01*
X169763160Y-75649136D01*
X170297260Y-75115967D01*
X170586670Y-74418992D01*
X170587328Y-73664319D01*
X170299136Y-72966840D01*
X169765967Y-72432740D01*
X169068992Y-72143330D01*
X168314319Y-72142672D01*
X167616840Y-72430864D01*
X167417122Y-72630234D01*
X167417328Y-72394319D01*
X167129136Y-71696840D01*
X166595967Y-71162740D01*
X165898992Y-70873330D01*
X165144319Y-70872672D01*
X164446840Y-71160864D01*
X163912740Y-71694033D01*
X163623330Y-72391008D01*
X163623113Y-72640247D01*
X163415967Y-72432740D01*
X162718992Y-72143330D01*
X161964319Y-72142672D01*
X161266840Y-72430864D01*
X161067122Y-72630234D01*
X161067328Y-72394319D01*
X160779136Y-71696840D01*
X160245967Y-71162740D01*
X159548992Y-70873330D01*
X158794319Y-70872672D01*
X158096840Y-71160864D01*
X157562740Y-71694033D01*
X157273330Y-72391008D01*
X157273121Y-72630239D01*
X157075967Y-72432740D01*
X156378992Y-72143330D01*
X155624319Y-72142672D01*
X154926840Y-72430864D01*
X154717114Y-72640225D01*
X154717328Y-72394319D01*
X154429136Y-71696840D01*
X153895967Y-71162740D01*
X153198992Y-70873330D01*
X152444319Y-70872672D01*
X151746840Y-71160864D01*
X151212740Y-71694033D01*
X150923330Y-72391008D01*
X150922672Y-73145681D01*
X148235000Y-73145681D01*
X148235000Y-63436580D01*
X150716579Y-60955000D01*
X151133118Y-60955000D01*
X151210864Y-61143160D01*
X151744033Y-61677260D01*
X152441008Y-61966670D01*
X153195681Y-61967328D01*
X153893160Y-61679136D01*
X154092869Y-61479775D01*
X154092672Y-61705681D01*
X154380864Y-62403160D01*
X154914033Y-62937260D01*
X155611008Y-63226670D01*
X156365681Y-63227328D01*
X157063160Y-62939136D01*
X157597260Y-62405967D01*
X157886670Y-61708992D01*
X157886879Y-61469744D01*
X158094033Y-61677260D01*
X158791008Y-61966670D01*
X159545681Y-61967328D01*
X160243160Y-61679136D01*
X160452886Y-61469775D01*
X160452672Y-61715681D01*
X160452692Y-61715729D01*
X158483420Y-63685000D01*
X154423523Y-63685000D01*
X154135564Y-63396539D01*
X153626702Y-63185241D01*
X153075715Y-63184760D01*
X152566485Y-63395169D01*
X152176539Y-63784436D01*
X151965241Y-64293298D01*
X151964760Y-64844285D01*
X152175169Y-65353515D01*
X152564436Y-65743461D01*
X153073298Y-65954759D01*
X153624285Y-65955240D01*
X154133515Y-65744831D01*
X154423852Y-65455000D01*
X158849995Y-65455000D01*
X158850000Y-65455001D01*
X159132484Y-65398810D01*
X159188675Y-65387633D01*
X159475790Y-65195790D01*
X161592203Y-63079376D01*
X161971008Y-63236670D01*
X162725681Y-63237328D01*
X163423160Y-62949136D01*
X163957260Y-62415967D01*
X164246670Y-61718992D01*
X164246840Y-61523642D01*
X164248903Y-61525705D01*
X164362612Y-61411996D01*
X164493326Y-61706043D01*
X165197944Y-61976311D01*
X165952353Y-61956361D01*
X166556674Y-61706043D01*
X166687388Y-61411996D01*
X166786872Y-61511480D01*
X166793639Y-61767353D01*
X167043957Y-62371674D01*
X167338006Y-62502389D01*
X168500395Y-61340000D01*
X168486253Y-61325858D01*
X168665858Y-61146253D01*
X168680000Y-61160395D01*
X169842389Y-59998006D01*
X169711674Y-59703957D01*
X169007056Y-59433689D01*
X168252647Y-59453639D01*
X167648326Y-59703957D01*
X167517612Y-59998004D01*
X167418128Y-59898520D01*
X167411361Y-59642647D01*
X167161043Y-59038326D01*
X166866994Y-58907611D01*
X165704605Y-60070000D01*
X165718748Y-60084143D01*
X165539143Y-60263748D01*
X165525000Y-60249605D01*
X165510858Y-60263748D01*
X165331253Y-60084143D01*
X165345395Y-60070000D01*
X164183006Y-58907611D01*
X163888957Y-59038326D01*
X163618689Y-59742944D01*
X163623656Y-59930774D01*
X163425967Y-59732740D01*
X162728992Y-59443330D01*
X161974319Y-59442672D01*
X161276840Y-59730864D01*
X161067114Y-59940225D01*
X161067328Y-59694319D01*
X160779136Y-58996840D01*
X160510771Y-58728006D01*
X164362611Y-58728006D01*
X165525000Y-59890395D01*
X166687389Y-58728006D01*
X166556674Y-58433957D01*
X165852056Y-58163689D01*
X165097647Y-58183639D01*
X164493326Y-58433957D01*
X164362611Y-58728006D01*
X160510771Y-58728006D01*
X160245967Y-58462740D01*
X159548992Y-58173330D01*
X158794319Y-58172672D01*
X158096840Y-58460864D01*
X157562740Y-58994033D01*
X157273330Y-59691008D01*
X157273121Y-59930256D01*
X157065967Y-59722740D01*
X156368992Y-59433330D01*
X155614319Y-59432672D01*
X154916840Y-59720864D01*
X154717131Y-59920225D01*
X154717328Y-59694319D01*
X154429136Y-58996840D01*
X153895967Y-58462740D01*
X153198992Y-58173330D01*
X152444319Y-58172672D01*
X151746840Y-58460864D01*
X151212740Y-58994033D01*
X151133443Y-59185000D01*
X150350005Y-59185000D01*
X150350000Y-59184999D01*
X150067516Y-59241190D01*
X150011325Y-59252367D01*
X149724210Y-59444210D01*
X149724208Y-59444213D01*
X147350000Y-61818421D01*
X144475790Y-58944210D01*
X144364000Y-58869515D01*
X144188675Y-58752367D01*
X144132484Y-58741190D01*
X143850000Y-58684999D01*
X143849995Y-58685000D01*
X140238899Y-58685000D01*
X140057743Y-58413880D01*
X139527310Y-58059457D01*
X138901623Y-57935000D01*
X136798377Y-57935000D01*
X136172690Y-58059457D01*
X135642257Y-58413880D01*
X135287834Y-58944313D01*
X135163377Y-59570000D01*
X135287834Y-60195687D01*
X135642257Y-60726120D01*
X135782759Y-60820000D01*
X135642257Y-60913880D01*
X135287834Y-61444313D01*
X135163377Y-62070000D01*
X135287834Y-62695687D01*
X135642257Y-63226120D01*
X136172690Y-63580543D01*
X136798377Y-63705000D01*
X138901623Y-63705000D01*
X139527310Y-63580543D01*
X140057743Y-63226120D01*
X140412166Y-62695687D01*
X140536623Y-62070000D01*
X140412166Y-61444313D01*
X140057743Y-60913880D01*
X139917241Y-60820000D01*
X140057743Y-60726120D01*
X140238899Y-60455000D01*
X143483420Y-60455000D01*
X146465000Y-63436579D01*
X146465000Y-75933421D01*
X142475790Y-71944210D01*
X142364000Y-71869515D01*
X142188675Y-71752367D01*
X142132484Y-71741190D01*
X141850000Y-71684999D01*
X141849995Y-71685000D01*
X140238899Y-71685000D01*
X140057743Y-71413880D01*
X139543089Y-71070000D01*
X140057743Y-70726120D01*
X140412166Y-70195687D01*
X140536623Y-69570000D01*
X140412166Y-68944313D01*
X140057743Y-68413880D01*
X139917241Y-68320000D01*
X140057743Y-68226120D01*
X140412166Y-67695687D01*
X140536623Y-67070000D01*
X140412166Y-66444313D01*
X140057743Y-65913880D01*
X139527310Y-65559457D01*
X138901623Y-65435000D01*
X136798377Y-65435000D01*
X136172690Y-65559457D01*
X135642257Y-65913880D01*
X135287834Y-66444313D01*
X135163377Y-67070000D01*
X135287834Y-67695687D01*
X135642257Y-68226120D01*
X135782759Y-68320000D01*
X135642257Y-68413880D01*
X135287834Y-68944313D01*
X135163377Y-69570000D01*
X135287834Y-70195687D01*
X135642257Y-70726120D01*
X136156911Y-71070000D01*
X135642257Y-71413880D01*
X135287834Y-71944313D01*
X135163377Y-72570000D01*
X135287834Y-73195687D01*
X135642257Y-73726120D01*
X135782759Y-73820000D01*
X135642257Y-73913880D01*
X135287834Y-74444313D01*
X135163377Y-75070000D01*
X135287834Y-75695687D01*
X135562166Y-76106255D01*
X134755000Y-76913420D01*
X134755000Y-76713000D01*
X134561390Y-75993655D01*
X134107236Y-75403159D01*
X133461679Y-75031409D01*
X133272781Y-74982507D01*
X132977000Y-75098374D01*
X132977000Y-77443000D01*
X132997000Y-77443000D01*
X132997000Y-77697000D01*
X132977000Y-77697000D01*
X132977000Y-80041626D01*
X133272781Y-80157493D01*
X133461679Y-80108591D01*
X133965000Y-79818749D01*
X133965000Y-82034482D01*
X133897592Y-81871343D01*
X133550485Y-81523629D01*
X133096734Y-81335215D01*
X132605421Y-81334786D01*
X132151343Y-81522408D01*
X131803629Y-81869515D01*
X131615215Y-82323266D01*
X131614786Y-82814579D01*
X131802408Y-83268657D01*
X132149515Y-83616371D01*
X132603266Y-83804785D01*
X133017683Y-83805147D01*
X132964999Y-84070000D01*
X132965000Y-84070005D01*
X132965000Y-86665314D01*
X132860959Y-86561091D01*
X132076541Y-86235372D01*
X131227185Y-86234630D01*
X130442200Y-86558980D01*
X129841091Y-87159041D01*
X129515372Y-87943459D01*
X129514630Y-88792815D01*
X129112000Y-88792815D01*
X129112000Y-82814579D01*
X129114786Y-82814579D01*
X129302408Y-83268657D01*
X129649515Y-83616371D01*
X130103266Y-83804785D01*
X130594579Y-83805214D01*
X131048657Y-83617592D01*
X131396371Y-83270485D01*
X131584785Y-82816734D01*
X131585214Y-82325421D01*
X131397592Y-81871343D01*
X131050485Y-81523629D01*
X130596734Y-81335215D01*
X130105421Y-81334786D01*
X129651343Y-81522408D01*
X129303629Y-81869515D01*
X129115215Y-82323266D01*
X129114786Y-82814579D01*
X129112000Y-82814579D01*
X129112000Y-77697000D01*
X130945000Y-77697000D01*
X130945000Y-78427000D01*
X131138610Y-79146345D01*
X131592764Y-79736841D01*
X132238321Y-80108591D01*
X132427219Y-80157493D01*
X132723000Y-80041626D01*
X132723000Y-77697000D01*
X130945000Y-77697000D01*
X129112000Y-77697000D01*
X129112000Y-76713000D01*
X130945000Y-76713000D01*
X130945000Y-77443000D01*
X132723000Y-77443000D01*
X132723000Y-75098374D01*
X132427219Y-74982507D01*
X132238321Y-75031409D01*
X131592764Y-75403159D01*
X131138610Y-75993655D01*
X130945000Y-76713000D01*
X129112000Y-76713000D01*
X129112000Y-72814579D01*
X129114786Y-72814579D01*
X129302408Y-73268657D01*
X129649515Y-73616371D01*
X130103266Y-73804785D01*
X130594579Y-73805214D01*
X131048657Y-73617592D01*
X131396371Y-73270485D01*
X131584785Y-72816734D01*
X131584786Y-72814579D01*
X131614786Y-72814579D01*
X131802408Y-73268657D01*
X132149515Y-73616371D01*
X132603266Y-73804785D01*
X133094579Y-73805214D01*
X133548657Y-73617592D01*
X133896371Y-73270485D01*
X134084785Y-72816734D01*
X134085214Y-72325421D01*
X133897592Y-71871343D01*
X133550485Y-71523629D01*
X133096734Y-71335215D01*
X132605421Y-71334786D01*
X132151343Y-71522408D01*
X131803629Y-71869515D01*
X131615215Y-72323266D01*
X131614786Y-72814579D01*
X131584786Y-72814579D01*
X131585214Y-72325421D01*
X131397592Y-71871343D01*
X131050485Y-71523629D01*
X130596734Y-71335215D01*
X130105421Y-71334786D01*
X129651343Y-71522408D01*
X129303629Y-71869515D01*
X129115215Y-72323266D01*
X129114786Y-72814579D01*
X129112000Y-72814579D01*
X129112000Y-69814579D01*
X129114786Y-69814579D01*
X129302408Y-70268657D01*
X129649515Y-70616371D01*
X130103266Y-70804785D01*
X130594579Y-70805214D01*
X131048657Y-70617592D01*
X131396371Y-70270485D01*
X131584785Y-69816734D01*
X131584786Y-69814579D01*
X131614786Y-69814579D01*
X131802408Y-70268657D01*
X132149515Y-70616371D01*
X132603266Y-70804785D01*
X133094579Y-70805214D01*
X133548657Y-70617592D01*
X133896371Y-70270485D01*
X134084785Y-69816734D01*
X134085214Y-69325421D01*
X133897592Y-68871343D01*
X133550485Y-68523629D01*
X133096734Y-68335215D01*
X132605421Y-68334786D01*
X132151343Y-68522408D01*
X131803629Y-68869515D01*
X131615215Y-69323266D01*
X131614786Y-69814579D01*
X131584786Y-69814579D01*
X131585214Y-69325421D01*
X131397592Y-68871343D01*
X131050485Y-68523629D01*
X130596734Y-68335215D01*
X130105421Y-68334786D01*
X129651343Y-68522408D01*
X129303629Y-68869515D01*
X129115215Y-69323266D01*
X129114786Y-69814579D01*
X129112000Y-69814579D01*
X129112000Y-64697000D01*
X130945000Y-64697000D01*
X130945000Y-65427000D01*
X131138610Y-66146345D01*
X131592764Y-66736841D01*
X132238321Y-67108591D01*
X132427219Y-67157493D01*
X132723000Y-67041626D01*
X132723000Y-64697000D01*
X132977000Y-64697000D01*
X132977000Y-67041626D01*
X133272781Y-67157493D01*
X133461679Y-67108591D01*
X134107236Y-66736841D01*
X134561390Y-66146345D01*
X134755000Y-65427000D01*
X134755000Y-64697000D01*
X132977000Y-64697000D01*
X132723000Y-64697000D01*
X130945000Y-64697000D01*
X129112000Y-64697000D01*
X129112000Y-63713000D01*
X130945000Y-63713000D01*
X130945000Y-64443000D01*
X132723000Y-64443000D01*
X132723000Y-62098374D01*
X132977000Y-62098374D01*
X132977000Y-64443000D01*
X134755000Y-64443000D01*
X134755000Y-63713000D01*
X134561390Y-62993655D01*
X134107236Y-62403159D01*
X133461679Y-62031409D01*
X133272781Y-61982507D01*
X132977000Y-62098374D01*
X132723000Y-62098374D01*
X132427219Y-61982507D01*
X132238321Y-62031409D01*
X131592764Y-62403159D01*
X131138610Y-62993655D01*
X130945000Y-63713000D01*
X129112000Y-63713000D01*
X129112000Y-59814579D01*
X129114786Y-59814579D01*
X129302408Y-60268657D01*
X129649515Y-60616371D01*
X130103266Y-60804785D01*
X130594579Y-60805214D01*
X131048657Y-60617592D01*
X131396371Y-60270485D01*
X131584785Y-59816734D01*
X131584786Y-59814579D01*
X131614786Y-59814579D01*
X131802408Y-60268657D01*
X132149515Y-60616371D01*
X132603266Y-60804785D01*
X133094579Y-60805214D01*
X133548657Y-60617592D01*
X133896371Y-60270485D01*
X134084785Y-59816734D01*
X134085214Y-59325421D01*
X133897592Y-58871343D01*
X133550485Y-58523629D01*
X133096734Y-58335215D01*
X132605421Y-58334786D01*
X132151343Y-58522408D01*
X131803629Y-58869515D01*
X131615215Y-59323266D01*
X131614786Y-59814579D01*
X131584786Y-59814579D01*
X131585214Y-59325421D01*
X131397592Y-58871343D01*
X131050485Y-58523629D01*
X130596734Y-58335215D01*
X130105421Y-58334786D01*
X129651343Y-58522408D01*
X129303629Y-58869515D01*
X129115215Y-59323266D01*
X129114786Y-59814579D01*
X129112000Y-59814579D01*
X129112000Y-48332000D01*
X133931352Y-48332000D01*
X132618409Y-48593161D01*
X132618409Y-48593161D01*
G37*
X132618409Y-48593161D02*
X131221929Y-49526259D01*
X130288831Y-50922739D01*
X129961170Y-52570000D01*
X130288831Y-54217261D01*
X131221929Y-55613741D01*
X132618409Y-56546839D01*
X134265670Y-56874500D01*
X134434330Y-56874500D01*
X136081591Y-56546839D01*
X137478071Y-55613741D01*
X138411169Y-54217261D01*
X138738830Y-52570000D01*
X138411169Y-50922739D01*
X137478071Y-49526259D01*
X136081591Y-48593161D01*
X134768648Y-48332000D01*
X166931352Y-48332000D01*
X165618409Y-48593161D01*
X164221929Y-49526259D01*
X163288831Y-50922739D01*
X162961170Y-52570000D01*
X163288831Y-54217261D01*
X164221929Y-55613741D01*
X165618409Y-56546839D01*
X167265670Y-56874500D01*
X167434330Y-56874500D01*
X169081591Y-56546839D01*
X170478071Y-55613741D01*
X171411169Y-54217261D01*
X171738830Y-52570000D01*
X171411169Y-50922739D01*
X170478071Y-49526259D01*
X169081591Y-48593161D01*
X167768648Y-48332000D01*
X172588000Y-48332000D01*
X172588000Y-60968712D01*
X171897056Y-60703689D01*
X171142647Y-60723639D01*
X170567661Y-60961806D01*
X170566361Y-60912647D01*
X170316043Y-60308326D01*
X170021994Y-60177611D01*
X168859605Y-61340000D01*
X168873748Y-61354143D01*
X168694143Y-61533748D01*
X168680000Y-61519605D01*
X167517611Y-62681994D01*
X167648326Y-62976043D01*
X168352944Y-63246311D01*
X169107353Y-63226361D01*
X169682339Y-62988194D01*
X169683639Y-63037353D01*
X169933957Y-63641674D01*
X170228006Y-63772389D01*
X171390395Y-62610000D01*
X171376253Y-62595858D01*
X171555858Y-62416253D01*
X171570000Y-62430395D01*
X171584143Y-62416253D01*
X171763748Y-62595858D01*
X171749605Y-62610000D01*
X171763748Y-62624143D01*
X171584143Y-62803748D01*
X171570000Y-62789605D01*
X170407611Y-63951994D01*
X170538326Y-64246043D01*
X171242944Y-64516311D01*
X171997353Y-64496361D01*
X172588000Y-64251707D01*
X172588000Y-78968712D01*
X171897056Y-78703689D01*
X171142647Y-78723639D01*
X170567661Y-78961806D01*
X170566361Y-78912647D01*
X170316043Y-78308326D01*
X170021994Y-78177611D01*
X168859605Y-79340000D01*
X168873748Y-79354143D01*
X168694143Y-79533748D01*
X168680000Y-79519605D01*
X167517611Y-80681994D01*
X167648326Y-80976043D01*
X168352944Y-81246311D01*
X169107353Y-81226361D01*
X169682339Y-80988194D01*
X169683639Y-81037353D01*
X169933957Y-81641674D01*
X170228006Y-81772389D01*
X171390395Y-80610000D01*
X171376253Y-80595858D01*
X171555858Y-80416253D01*
X171570000Y-80430395D01*
X171584143Y-80416253D01*
X171763748Y-80595858D01*
X171749605Y-80610000D01*
X171763748Y-80624143D01*
X171584143Y-80803748D01*
X171570000Y-80789605D01*
X170407611Y-81951994D01*
X170538326Y-82246043D01*
X171242944Y-82516311D01*
X171997353Y-82496361D01*
X172588000Y-82251707D01*
X172588000Y-100968712D01*
X171897056Y-100703689D01*
X171142647Y-100723639D01*
X170567661Y-100961806D01*
X170566361Y-100912647D01*
X170316043Y-100308326D01*
X170021994Y-100177611D01*
X168859605Y-101340000D01*
X168873748Y-101354143D01*
X168694143Y-101533748D01*
X168680000Y-101519605D01*
X167517611Y-102681994D01*
X167648326Y-102976043D01*
X168352944Y-103246311D01*
X169107353Y-103226361D01*
X169682339Y-102988194D01*
X169683639Y-103037353D01*
X169933957Y-103641674D01*
X170228006Y-103772389D01*
X171390395Y-102610000D01*
X171376253Y-102595858D01*
X171555858Y-102416253D01*
X171570000Y-102430395D01*
X171584143Y-102416253D01*
X171763748Y-102595858D01*
X171749605Y-102610000D01*
X171763748Y-102624143D01*
X171584143Y-102803748D01*
X171570000Y-102789605D01*
X170407611Y-103951994D01*
X170538326Y-104246043D01*
X171242944Y-104516311D01*
X171997353Y-104496361D01*
X172588000Y-104251707D01*
X172588000Y-126808000D01*
X167768648Y-126808000D01*
X169081591Y-126546839D01*
X170478071Y-125613741D01*
X171411169Y-124217261D01*
X171738830Y-122570000D01*
X171411169Y-120922739D01*
X170478071Y-119526259D01*
X169081591Y-118593161D01*
X167434330Y-118265500D01*
X167265670Y-118265500D01*
X165618409Y-118593161D01*
X164221929Y-119526259D01*
X163288831Y-120922739D01*
X162961170Y-122570000D01*
X163288831Y-124217261D01*
X164221929Y-125613741D01*
X165618409Y-126546839D01*
X166931352Y-126808000D01*
X134768648Y-126808000D01*
X136081591Y-126546839D01*
X137478071Y-125613741D01*
X138285238Y-124405729D01*
X153244286Y-124405729D01*
X153244299Y-124421464D01*
X153244962Y-124424784D01*
X153244339Y-124428111D01*
X153245126Y-124498295D01*
X153248074Y-124512292D01*
X153246062Y-124526453D01*
X153248766Y-124575356D01*
X153257404Y-124608963D01*
X153256234Y-124643642D01*
X153261838Y-124677798D01*
X153283045Y-124734314D01*
X153292315Y-124793959D01*
X153301802Y-124819905D01*
X153321674Y-124852544D01*
X153322287Y-124856208D01*
X153334230Y-124875319D01*
X153351966Y-124925843D01*
X153366317Y-124950116D01*
X153383075Y-124968830D01*
X153393207Y-124991818D01*
X153396739Y-124996854D01*
X153427357Y-125026128D01*
X153431662Y-125033198D01*
X153433931Y-125034856D01*
X153454626Y-125067972D01*
X153491985Y-125107682D01*
X153536316Y-125139300D01*
X153536690Y-125139892D01*
X153545734Y-125146276D01*
X153589852Y-125192571D01*
X153632419Y-125222520D01*
X153659239Y-125234393D01*
X153663175Y-125238386D01*
X153692797Y-125250906D01*
X153695289Y-125252683D01*
X153697043Y-125253088D01*
X153740696Y-125283903D01*
X153762555Y-125293621D01*
X153824718Y-125307651D01*
X153860759Y-125323607D01*
X153865056Y-125323710D01*
X153893190Y-125335601D01*
X153971625Y-125351789D01*
X153999213Y-125373974D01*
X154030548Y-125414376D01*
X154042242Y-125424524D01*
X154110484Y-125463455D01*
X154153969Y-125498424D01*
X154185459Y-125507635D01*
X154243925Y-125542969D01*
X154252025Y-125544201D01*
X154259144Y-125548262D01*
X154373946Y-125562773D01*
X154393642Y-125568534D01*
X154404380Y-125567368D01*
X154412788Y-125568647D01*
X154465898Y-125580292D01*
X154476688Y-125578364D01*
X154490802Y-125580510D01*
X154507449Y-125579753D01*
X154608877Y-125554739D01*
X154711718Y-125536360D01*
X154734106Y-125527594D01*
X154743600Y-125521515D01*
X154749900Y-125519961D01*
X154758664Y-125513511D01*
X154777709Y-125508624D01*
X154806251Y-125494923D01*
X154806253Y-125494923D01*
X154812432Y-125491962D01*
X154829618Y-125479080D01*
X154850027Y-125472390D01*
X154875756Y-125457893D01*
X154876523Y-125457235D01*
X154877482Y-125456917D01*
X154926709Y-125414386D01*
X154940850Y-125408204D01*
X154975104Y-125372594D01*
X154998635Y-125352390D01*
X155012246Y-125342188D01*
X155014036Y-125339168D01*
X155022387Y-125331997D01*
X155039130Y-125335389D01*
X155150827Y-125361778D01*
X155221654Y-125364304D01*
X155329308Y-125346854D01*
X155371365Y-125342193D01*
X155414732Y-125351618D01*
X155532803Y-125378731D01*
X155536573Y-125378096D01*
X155540307Y-125378907D01*
X155659521Y-125357373D01*
X155719536Y-125347257D01*
X155776026Y-125356729D01*
X155898384Y-125377433D01*
X155898859Y-125377324D01*
X155899341Y-125377405D01*
X156020687Y-125349431D01*
X156141801Y-125321701D01*
X156180938Y-125304157D01*
X156237106Y-125334950D01*
X156239897Y-125335255D01*
X156242366Y-125336581D01*
X156300888Y-125342463D01*
X156355487Y-125360127D01*
X156398485Y-125356688D01*
X156402675Y-125357833D01*
X156423031Y-125355256D01*
X156485345Y-125362062D01*
X156485869Y-125362016D01*
X156488313Y-125361303D01*
X156490830Y-125361556D01*
X156546234Y-125344871D01*
X156580859Y-125342101D01*
X156580925Y-125342134D01*
X156629554Y-125345489D01*
X156674801Y-125360127D01*
X156717799Y-125356688D01*
X156721989Y-125357833D01*
X156742345Y-125355256D01*
X156804659Y-125362062D01*
X156805183Y-125362016D01*
X156817405Y-125358450D01*
X156830048Y-125359322D01*
X156875469Y-125344077D01*
X156923721Y-125340218D01*
X156932662Y-125337684D01*
X156967982Y-125349867D01*
X157019923Y-125356964D01*
X157073178Y-125353735D01*
X157082149Y-125355241D01*
X157090746Y-125357901D01*
X157095413Y-125357467D01*
X157125795Y-125362567D01*
X157176230Y-125361051D01*
X157199613Y-125355665D01*
X157203554Y-125355482D01*
X157241028Y-125364128D01*
X157282361Y-125357204D01*
X157324532Y-125361209D01*
X157325425Y-125361118D01*
X157350077Y-125353546D01*
X157393595Y-125352921D01*
X157437118Y-125359757D01*
X157439044Y-125360197D01*
X157439464Y-125360126D01*
X157464053Y-125363988D01*
X157517253Y-125351144D01*
X157571973Y-125350358D01*
X157590965Y-125346296D01*
X157627258Y-125330649D01*
X157629751Y-125330617D01*
X157640504Y-125326003D01*
X157685238Y-125318410D01*
X157717498Y-125306102D01*
X157738877Y-125292674D01*
X157763363Y-125286524D01*
X157770743Y-125283028D01*
X157771706Y-125283515D01*
X157817183Y-125296204D01*
X157828821Y-125302542D01*
X157846721Y-125304446D01*
X157864633Y-125309444D01*
X157954837Y-125343652D01*
X158024182Y-125355279D01*
X158134857Y-125351933D01*
X158245572Y-125353571D01*
X158314823Y-125340858D01*
X158340930Y-125330494D01*
X158347947Y-125331043D01*
X158355790Y-125334775D01*
X158385101Y-125342190D01*
X158488841Y-125347529D01*
X158591998Y-125359783D01*
X158635615Y-125356370D01*
X158649855Y-125352361D01*
X158664607Y-125353435D01*
X158675382Y-125352096D01*
X158680926Y-125351531D01*
X158701614Y-125353890D01*
X158714084Y-125355418D01*
X158747232Y-125352946D01*
X158779699Y-125360051D01*
X158817674Y-125360776D01*
X158823351Y-125359759D01*
X158829007Y-125360892D01*
X158943283Y-125338325D01*
X158963108Y-125336847D01*
X158969639Y-125333553D01*
X158988365Y-125330198D01*
X159011633Y-125339580D01*
X159083360Y-125353145D01*
X159145625Y-125352557D01*
X159158723Y-125357001D01*
X159179141Y-125355659D01*
X159231642Y-125363619D01*
X159271501Y-125361789D01*
X159282090Y-125359173D01*
X159291841Y-125362025D01*
X159346878Y-125356051D01*
X159367331Y-125359964D01*
X159406324Y-125351911D01*
X159430982Y-125351778D01*
X159466013Y-125362025D01*
X159521050Y-125356051D01*
X159541503Y-125359964D01*
X159568940Y-125354298D01*
X159624604Y-125356301D01*
X159668110Y-125340088D01*
X159714270Y-125335077D01*
X159728695Y-125330544D01*
X159755799Y-125315708D01*
X159786058Y-125309459D01*
X159815176Y-125297148D01*
X159822646Y-125292077D01*
X159831433Y-125290007D01*
X159832306Y-125289609D01*
X159840749Y-125283529D01*
X159846171Y-125282264D01*
X159848760Y-125280408D01*
X159899949Y-125296866D01*
X159920765Y-125307303D01*
X159933256Y-125315414D01*
X159948120Y-125318168D01*
X159984960Y-125334879D01*
X160024789Y-125344184D01*
X160049699Y-125345010D01*
X160057301Y-125347454D01*
X160076362Y-125345894D01*
X160102418Y-125346758D01*
X160178792Y-125360910D01*
X160234742Y-125360175D01*
X160260338Y-125354733D01*
X160286366Y-125357408D01*
X160317646Y-125354461D01*
X160360944Y-125341527D01*
X160406105Y-125339819D01*
X160443837Y-125330819D01*
X160531400Y-125290608D01*
X160556914Y-125282986D01*
X160560867Y-125279770D01*
X160581675Y-125275216D01*
X160599536Y-125262781D01*
X160643634Y-125245215D01*
X160673793Y-125225652D01*
X160726386Y-125174472D01*
X160786618Y-125132540D01*
X160821704Y-125096087D01*
X160829476Y-125083959D01*
X160840920Y-125075215D01*
X160845608Y-125069891D01*
X160856327Y-125051412D01*
X160872413Y-125037349D01*
X160903955Y-124996375D01*
X160940427Y-124922711D01*
X160973218Y-124874306D01*
X160978588Y-124867660D01*
X160979258Y-124865390D01*
X160986532Y-124854653D01*
X161001581Y-124818967D01*
X161008531Y-124785155D01*
X161014754Y-124772586D01*
X161016519Y-124746296D01*
X161021400Y-124722550D01*
X161049250Y-124628151D01*
X161053092Y-124585834D01*
X161049998Y-124556702D01*
X161055714Y-124527966D01*
X161055714Y-124465779D01*
X161046993Y-124421934D01*
X161047262Y-124420912D01*
X161051210Y-124356404D01*
X161046971Y-124325244D01*
X161051988Y-124294200D01*
X161050245Y-124245957D01*
X161027509Y-124149920D01*
X161012847Y-124052332D01*
X160990904Y-123991363D01*
X160934406Y-123897499D01*
X160890385Y-123815575D01*
X160889515Y-123813534D01*
X160889036Y-123813065D01*
X160882551Y-123800996D01*
X160854853Y-123767397D01*
X160780098Y-123706322D01*
X160711151Y-123638765D01*
X160653725Y-123601234D01*
X160562742Y-123564628D01*
X160475200Y-123520401D01*
X160407078Y-123501441D01*
X160313872Y-123494428D01*
X160221835Y-123478151D01*
X160151415Y-123479652D01*
X160047571Y-123502618D01*
X159962755Y-123516194D01*
X159923864Y-123500345D01*
X159858175Y-123487669D01*
X159774240Y-123488149D01*
X159690953Y-123477728D01*
X159621213Y-123482749D01*
X159533814Y-123506770D01*
X159476237Y-123516020D01*
X159488517Y-123497609D01*
X159534326Y-123451059D01*
X159557126Y-123394743D01*
X159590839Y-123344196D01*
X159603527Y-123280129D01*
X159628035Y-123219593D01*
X159627548Y-123158836D01*
X159639351Y-123099237D01*
X159626557Y-123035194D01*
X159626033Y-122969885D01*
X159602333Y-122913940D01*
X159590430Y-122854360D01*
X159554101Y-122800088D01*
X159528625Y-122739952D01*
X159479650Y-122667914D01*
X159487966Y-122666314D01*
X159489417Y-122665724D01*
X159490986Y-122665726D01*
X159567186Y-122650686D01*
X159625892Y-122626471D01*
X159688174Y-122614082D01*
X159740195Y-122579323D01*
X159798034Y-122555465D01*
X159843004Y-122510627D01*
X159895805Y-122475347D01*
X159930565Y-122423325D01*
X159974871Y-122379150D01*
X159999259Y-122320518D01*
X160034540Y-122267716D01*
X160046746Y-122206351D01*
X160070774Y-122148585D01*
X160070868Y-122085084D01*
X160083257Y-122022799D01*
X160083257Y-121705492D01*
X160083229Y-121705353D01*
X160083257Y-121705213D01*
X160083240Y-121666197D01*
X160083052Y-121665253D01*
X160083236Y-121664311D01*
X160082914Y-121569127D01*
X160082267Y-121565932D01*
X160082861Y-121562724D01*
X160081910Y-121491688D01*
X160080319Y-121484213D01*
X160081532Y-121476670D01*
X160079669Y-121426150D01*
X160075631Y-121409149D01*
X160077474Y-121391769D01*
X160074415Y-121358133D01*
X160065350Y-121327425D01*
X160066490Y-121308170D01*
X160062166Y-121295691D01*
X160061739Y-121276967D01*
X160057200Y-121256587D01*
X160044339Y-121227435D01*
X160043542Y-121216161D01*
X160016559Y-121162143D01*
X160003716Y-121118635D01*
X159998632Y-121112345D01*
X159984728Y-121072220D01*
X159978427Y-121061464D01*
X159963902Y-121045111D01*
X159956405Y-121028118D01*
X159943412Y-121015704D01*
X159931953Y-120992764D01*
X159868439Y-120937636D01*
X159812594Y-120874763D01*
X159799249Y-120868287D01*
X159793368Y-120861941D01*
X159773192Y-120852672D01*
X159769536Y-120848957D01*
X159763162Y-120846257D01*
X159743368Y-120829077D01*
X159735020Y-120824315D01*
X159650551Y-120796122D01*
X159587937Y-120765735D01*
X159583381Y-120765465D01*
X159566455Y-120757689D01*
X159558374Y-120755760D01*
X159548599Y-120755389D01*
X159539592Y-120751574D01*
X159506645Y-120744749D01*
X159503871Y-120744727D01*
X159501310Y-120743668D01*
X159474660Y-120738383D01*
X159477417Y-120735359D01*
X159506564Y-120687037D01*
X159514565Y-120664872D01*
X159529132Y-120646348D01*
X159546275Y-120612603D01*
X159561174Y-120559532D01*
X159587356Y-120511029D01*
X159594178Y-120488869D01*
X159595459Y-120476384D01*
X159600990Y-120465119D01*
X159604902Y-120403771D01*
X159613770Y-120372182D01*
X159612521Y-120361737D01*
X159617286Y-120345763D01*
X159613065Y-120304854D01*
X159619675Y-120240459D01*
X159616082Y-120228437D01*
X159616881Y-120215910D01*
X159615070Y-120202341D01*
X159613622Y-120198101D01*
X159613846Y-120193628D01*
X159596606Y-120145318D01*
X159591659Y-120097366D01*
X159564312Y-120046768D01*
X159563855Y-120043909D01*
X159558168Y-120034655D01*
X159548169Y-120001200D01*
X159545110Y-119997442D01*
X159534382Y-119966020D01*
X159531422Y-119962657D01*
X159529917Y-119958439D01*
X159529308Y-119957421D01*
X159496311Y-119920952D01*
X159472925Y-119877684D01*
X159456543Y-119857911D01*
X159442546Y-119846532D01*
X159433100Y-119831163D01*
X159399702Y-119795128D01*
X159394509Y-119791365D01*
X159391042Y-119785966D01*
X159344066Y-119737243D01*
X159340864Y-119735018D01*
X159338718Y-119731762D01*
X159281604Y-119673923D01*
X159278988Y-119672151D01*
X159277223Y-119669529D01*
X159213406Y-119606144D01*
X159210422Y-119604165D01*
X159208391Y-119601218D01*
X159142192Y-119536896D01*
X159136555Y-119533246D01*
X159132631Y-119527796D01*
X159067785Y-119467338D01*
X159056070Y-119460090D01*
X159047554Y-119449262D01*
X158999903Y-119408470D01*
X158972398Y-119393025D01*
X158950576Y-119370248D01*
X158918885Y-119348077D01*
X158818009Y-119303739D01*
X158803726Y-119296648D01*
X158754336Y-119266633D01*
X158738261Y-119264148D01*
X158719299Y-119254734D01*
X158702331Y-119250140D01*
X158694908Y-119249634D01*
X158690277Y-119247598D01*
X158660036Y-119246951D01*
X158641714Y-119246005D01*
X158604474Y-119243464D01*
X158507552Y-119228480D01*
X158480736Y-119235023D01*
X158453195Y-119233144D01*
X158445134Y-119235857D01*
X158440492Y-119235617D01*
X158357395Y-119265116D01*
X158264954Y-119287671D01*
X158262737Y-119288703D01*
X158241186Y-119304483D01*
X158216519Y-119312783D01*
X158211986Y-119316737D01*
X158205166Y-119319158D01*
X158181817Y-119333074D01*
X158173865Y-119340245D01*
X158163899Y-119344157D01*
X158121511Y-119371350D01*
X158118645Y-119374112D01*
X158115348Y-119375452D01*
X158109778Y-119346831D01*
X158108258Y-119343117D01*
X158108225Y-119339104D01*
X158103219Y-119314968D01*
X158099380Y-119305909D01*
X158099002Y-119296077D01*
X158098682Y-119294739D01*
X158088656Y-119272940D01*
X158085963Y-119249097D01*
X158082667Y-119238765D01*
X158081301Y-119236295D01*
X158080961Y-119233499D01*
X158059805Y-119196012D01*
X158055715Y-119176218D01*
X158025647Y-119131931D01*
X158005778Y-119085049D01*
X157999305Y-119078681D01*
X157994333Y-119067871D01*
X157981682Y-119056156D01*
X157961819Y-119020239D01*
X157959614Y-119018481D01*
X157958228Y-119016026D01*
X157951551Y-119008259D01*
X157930480Y-118991760D01*
X157915448Y-118969620D01*
X157834042Y-118916094D01*
X157827767Y-118909920D01*
X157824028Y-118908407D01*
X157818944Y-118904427D01*
X157783949Y-118872430D01*
X157773017Y-118868465D01*
X157754937Y-118854308D01*
X157729157Y-118847129D01*
X157706796Y-118832426D01*
X157693072Y-118826860D01*
X157619557Y-118812802D01*
X157549199Y-118787282D01*
X157524766Y-118783549D01*
X157494611Y-118784899D01*
X157465396Y-118777294D01*
X157426589Y-118775029D01*
X157414409Y-118776721D01*
X157402401Y-118774076D01*
X157345557Y-118772912D01*
X157340744Y-118773767D01*
X157335958Y-118772788D01*
X157257414Y-118772358D01*
X157255853Y-118772660D01*
X157254292Y-118772348D01*
X157150382Y-118772286D01*
X157150191Y-118772324D01*
X157150000Y-118772286D01*
X157136944Y-118772286D01*
X157136675Y-118772339D01*
X157136405Y-118772286D01*
X157035528Y-118772371D01*
X157033715Y-118772733D01*
X157031903Y-118772385D01*
X156955980Y-118772879D01*
X156950641Y-118773977D01*
X156945271Y-118773038D01*
X156890636Y-118774308D01*
X156877366Y-118777270D01*
X156863887Y-118775490D01*
X156826877Y-118777902D01*
X156794594Y-118786540D01*
X156761185Y-118785608D01*
X156738138Y-118789528D01*
X156661000Y-118818989D01*
X156580619Y-118837833D01*
X156567870Y-118843627D01*
X156541335Y-118862690D01*
X156510442Y-118873318D01*
X156440688Y-118934996D01*
X156365065Y-118989325D01*
X156349079Y-119015102D01*
X156328941Y-119031874D01*
X156327046Y-119035481D01*
X156323370Y-119038732D01*
X156317255Y-119046769D01*
X156306589Y-119068623D01*
X156304084Y-119070958D01*
X156300102Y-119079694D01*
X156293832Y-119085872D01*
X156269498Y-119143423D01*
X156233454Y-119201543D01*
X156230567Y-119219163D01*
X156212821Y-119252948D01*
X156209676Y-119263592D01*
X156209273Y-119268010D01*
X156207725Y-119271182D01*
X156206934Y-119284064D01*
X156200500Y-119298176D01*
X156200410Y-119298558D01*
X156200094Y-119307569D01*
X156196583Y-119315873D01*
X156191415Y-119340895D01*
X156191387Y-119344704D01*
X156189944Y-119348231D01*
X156184658Y-119375425D01*
X156172961Y-119367753D01*
X156168612Y-119365995D01*
X156165221Y-119362756D01*
X156126754Y-119338312D01*
X156112413Y-119332754D01*
X156100797Y-119322666D01*
X156082261Y-119312084D01*
X155987042Y-119280277D01*
X155894592Y-119241155D01*
X155869351Y-119240963D01*
X155845411Y-119232966D01*
X155745274Y-119240018D01*
X155644884Y-119239254D01*
X155632182Y-119241680D01*
X155613362Y-119249308D01*
X155596312Y-119250509D01*
X155542924Y-119277160D01*
X155532368Y-119278292D01*
X155505353Y-119293032D01*
X155402790Y-119334150D01*
X155373954Y-119352945D01*
X155346663Y-119379620D01*
X155313161Y-119397900D01*
X155268597Y-119435120D01*
X155258676Y-119447424D01*
X155245188Y-119455659D01*
X155183661Y-119512349D01*
X155178900Y-119518879D01*
X155172109Y-119523261D01*
X155092381Y-119600468D01*
X155090791Y-119602767D01*
X155088453Y-119604304D01*
X155081319Y-119611332D01*
X155080378Y-119612718D01*
X155078986Y-119613643D01*
X155015722Y-119676610D01*
X155013927Y-119679282D01*
X155011264Y-119681091D01*
X154955070Y-119738137D01*
X154952842Y-119741526D01*
X154949516Y-119743846D01*
X154903829Y-119791395D01*
X154900069Y-119797273D01*
X154894432Y-119801387D01*
X154862695Y-119835867D01*
X154851479Y-119854258D01*
X154834961Y-119868083D01*
X154820611Y-119885916D01*
X154798000Y-119929220D01*
X154765756Y-119965797D01*
X154762088Y-119976512D01*
X154754894Y-119985273D01*
X154754848Y-119985360D01*
X154738311Y-120039817D01*
X154732673Y-120049062D01*
X154731499Y-120056578D01*
X154705029Y-120107272D01*
X154700725Y-120155773D01*
X154684882Y-120202054D01*
X154683059Y-120215632D01*
X154683379Y-120220715D01*
X154682290Y-120224301D01*
X154682913Y-120230640D01*
X154680341Y-120239171D01*
X154687227Y-120307862D01*
X154682954Y-120356010D01*
X154686473Y-120367221D01*
X154685949Y-120371566D01*
X154694892Y-120403556D01*
X154698752Y-120464854D01*
X154704048Y-120475664D01*
X154705249Y-120487640D01*
X154711972Y-120509665D01*
X154738230Y-120558586D01*
X154753179Y-120612061D01*
X154770143Y-120645545D01*
X154784832Y-120664267D01*
X154792904Y-120686655D01*
X154821806Y-120734612D01*
X154825240Y-120738382D01*
X154819196Y-120739570D01*
X154817509Y-120740264D01*
X154815682Y-120740270D01*
X154774072Y-120748688D01*
X154767839Y-120751294D01*
X154761086Y-120751456D01*
X154742251Y-120755675D01*
X154713857Y-120768243D01*
X154685178Y-120771450D01*
X154670895Y-120779328D01*
X154654258Y-120782145D01*
X154651135Y-120783335D01*
X154631888Y-120795413D01*
X154626671Y-120796449D01*
X154580535Y-120827255D01*
X154513905Y-120856748D01*
X154495470Y-120876091D01*
X154466520Y-120892059D01*
X154458909Y-120898475D01*
X154450122Y-120909475D01*
X154439617Y-120916067D01*
X154432475Y-120926120D01*
X154418997Y-120935120D01*
X154371490Y-121006172D01*
X154341620Y-121037513D01*
X154337917Y-121047098D01*
X154321539Y-121064659D01*
X154317478Y-121075519D01*
X154303050Y-121093580D01*
X154295878Y-121118395D01*
X154294994Y-121119640D01*
X154294666Y-121121073D01*
X154280200Y-121142709D01*
X154274537Y-121156369D01*
X154260048Y-121229097D01*
X154234074Y-121298555D01*
X154230077Y-121323089D01*
X154231143Y-121353675D01*
X154223180Y-121383225D01*
X154220565Y-121422264D01*
X154222258Y-121435264D01*
X154219359Y-121448052D01*
X154217841Y-121505227D01*
X154218813Y-121510894D01*
X154217641Y-121516522D01*
X154216939Y-121595463D01*
X154217380Y-121597788D01*
X154216915Y-121600105D01*
X154216744Y-121704443D01*
X154216847Y-121704967D01*
X154216743Y-121705492D01*
X154216743Y-122022799D01*
X154229132Y-122085082D01*
X154229226Y-122148585D01*
X154253254Y-122206351D01*
X154265460Y-122267716D01*
X154300741Y-122320518D01*
X154325129Y-122379150D01*
X154369435Y-122423325D01*
X154404195Y-122475347D01*
X154456996Y-122510627D01*
X154501966Y-122555465D01*
X154559805Y-122579323D01*
X154611826Y-122614082D01*
X154674108Y-122626471D01*
X154732814Y-122650686D01*
X154809014Y-122665726D01*
X154809568Y-122665725D01*
X154810077Y-122665934D01*
X154819294Y-122667738D01*
X154820332Y-122667735D01*
X154771606Y-122739245D01*
X154745935Y-122799665D01*
X154709421Y-122854213D01*
X154697585Y-122913461D01*
X154673955Y-122969075D01*
X154673360Y-123034721D01*
X154660500Y-123099090D01*
X154672238Y-123158360D01*
X154671690Y-123218781D01*
X154696259Y-123279652D01*
X154709012Y-123344048D01*
X154742541Y-123394317D01*
X154763657Y-123446635D01*
X154759849Y-123446157D01*
X154685107Y-123451500D01*
X154610456Y-123444962D01*
X154530720Y-123453687D01*
X154434245Y-123484096D01*
X154386679Y-123495225D01*
X154385870Y-123494985D01*
X154284610Y-123458828D01*
X154201337Y-123446531D01*
X154144653Y-123449353D01*
X154088685Y-123439952D01*
X154066445Y-123440618D01*
X154011607Y-123453243D01*
X153955331Y-123453729D01*
X153889838Y-123467345D01*
X153783592Y-123512432D01*
X153676022Y-123554313D01*
X153622226Y-123588616D01*
X153551470Y-123656404D01*
X153475180Y-123717898D01*
X153425810Y-123776987D01*
X153409458Y-123806943D01*
X153385290Y-123831044D01*
X153382353Y-123835428D01*
X153372768Y-123858479D01*
X153356500Y-123877417D01*
X153343207Y-123900994D01*
X153323229Y-123961890D01*
X153291942Y-124017820D01*
X153283297Y-124044470D01*
X153276628Y-124101044D01*
X153258017Y-124154887D01*
X153253045Y-124191097D01*
X153254847Y-124221145D01*
X153247699Y-124250383D01*
X153245429Y-124302637D01*
X153247222Y-124314267D01*
X153244843Y-124325790D01*
X153244339Y-124395570D01*
X153244341Y-124395581D01*
X153244339Y-124395592D01*
X153244303Y-124400599D01*
X153244794Y-124403164D01*
X153244286Y-124405729D01*
X138285238Y-124405729D01*
X138411169Y-124217261D01*
X138738830Y-122570000D01*
X138411169Y-120922739D01*
X137478071Y-119526259D01*
X136081591Y-118593161D01*
X134434330Y-118265500D01*
X134265670Y-118265500D01*
X132618409Y-118593161D01*
X131221929Y-119526259D01*
X130288831Y-120922739D01*
X129961170Y-122570000D01*
X130288831Y-124217261D01*
X131221929Y-125613741D01*
X132618409Y-126546839D01*
X133931352Y-126808000D01*
X129112000Y-126808000D01*
X129112000Y-116041517D01*
X132558088Y-116041517D01*
X132626077Y-116282460D01*
X133145171Y-116467201D01*
X133695448Y-116439230D01*
X134073923Y-116282460D01*
X134141912Y-116041517D01*
X135058088Y-116041517D01*
X135126077Y-116282460D01*
X135645171Y-116467201D01*
X136195448Y-116439230D01*
X136573923Y-116282460D01*
X136641912Y-116041517D01*
X140058088Y-116041517D01*
X140126077Y-116282460D01*
X140645171Y-116467201D01*
X141195448Y-116439230D01*
X141573923Y-116282460D01*
X141641912Y-116041517D01*
X142558088Y-116041517D01*
X142626077Y-116282460D01*
X143145171Y-116467201D01*
X143695448Y-116439230D01*
X144073923Y-116282460D01*
X144141912Y-116041517D01*
X143350000Y-115249605D01*
X142558088Y-116041517D01*
X141641912Y-116041517D01*
X140850000Y-115249605D01*
X140058088Y-116041517D01*
X136641912Y-116041517D01*
X135850000Y-115249605D01*
X135058088Y-116041517D01*
X134141912Y-116041517D01*
X133350000Y-115249605D01*
X132558088Y-116041517D01*
X129112000Y-116041517D01*
X129112000Y-114865171D01*
X131952799Y-114865171D01*
X131980770Y-115415448D01*
X132137540Y-115793923D01*
X132378483Y-115861912D01*
X133170395Y-115070000D01*
X133529605Y-115070000D01*
X134321517Y-115861912D01*
X134562460Y-115793923D01*
X134597157Y-115696430D01*
X134637540Y-115793923D01*
X134878483Y-115861912D01*
X135670395Y-115070000D01*
X136029605Y-115070000D01*
X136821517Y-115861912D01*
X137062460Y-115793923D01*
X137247201Y-115274829D01*
X137226378Y-114865171D01*
X139452799Y-114865171D01*
X139480770Y-115415448D01*
X139637540Y-115793923D01*
X139878483Y-115861912D01*
X140670395Y-115070000D01*
X141029605Y-115070000D01*
X141821517Y-115861912D01*
X142062460Y-115793923D01*
X142097157Y-115696430D01*
X142137540Y-115793923D01*
X142378483Y-115861912D01*
X143170395Y-115070000D01*
X143529605Y-115070000D01*
X144321517Y-115861912D01*
X144562460Y-115793923D01*
X144747201Y-115274829D01*
X144719230Y-114724552D01*
X144562460Y-114346077D01*
X144321517Y-114278088D01*
X143529605Y-115070000D01*
X143170395Y-115070000D01*
X142378483Y-114278088D01*
X142137540Y-114346077D01*
X142102843Y-114443570D01*
X142062460Y-114346077D01*
X141821517Y-114278088D01*
X141029605Y-115070000D01*
X140670395Y-115070000D01*
X139878483Y-114278088D01*
X139637540Y-114346077D01*
X139452799Y-114865171D01*
X137226378Y-114865171D01*
X137219230Y-114724552D01*
X137062460Y-114346077D01*
X136821517Y-114278088D01*
X136029605Y-115070000D01*
X135670395Y-115070000D01*
X134878483Y-114278088D01*
X134637540Y-114346077D01*
X134602843Y-114443570D01*
X134562460Y-114346077D01*
X134321517Y-114278088D01*
X133529605Y-115070000D01*
X133170395Y-115070000D01*
X132378483Y-114278088D01*
X132137540Y-114346077D01*
X131952799Y-114865171D01*
X129112000Y-114865171D01*
X129112000Y-98392815D01*
X129514630Y-98392815D01*
X129838980Y-99177800D01*
X130439041Y-99778909D01*
X131223459Y-100104628D01*
X132072815Y-100105370D01*
X132857800Y-99781020D01*
X133458909Y-99180959D01*
X133784628Y-98396541D01*
X133785370Y-97547185D01*
X133461020Y-96762200D01*
X132860959Y-96161091D01*
X132076541Y-95835372D01*
X131227185Y-95834630D01*
X130442200Y-96158980D01*
X129841091Y-96759041D01*
X129515372Y-97543459D01*
X129514630Y-98392815D01*
X129112000Y-98392815D01*
X129112000Y-93592815D01*
X129514630Y-93592815D01*
X129838980Y-94377800D01*
X130439041Y-94978909D01*
X131223459Y-95304628D01*
X132072815Y-95305370D01*
X132857800Y-94981020D01*
X133458909Y-94380959D01*
X133784628Y-93596541D01*
X133785370Y-92747185D01*
X133461020Y-91962200D01*
X132860959Y-91361091D01*
X132076541Y-91035372D01*
X131227185Y-91034630D01*
X130442200Y-91358980D01*
X129841091Y-91959041D01*
X129515372Y-92743459D01*
X129514630Y-93592815D01*
X129112000Y-93592815D01*
X129112000Y-88792815D01*
X129514630Y-88792815D01*
X129838980Y-89577800D01*
X130439041Y-90178909D01*
X131223459Y-90504628D01*
X132072815Y-90505370D01*
X132857800Y-90181020D01*
X133071681Y-89967512D01*
X133188718Y-90142672D01*
X133224210Y-90195790D01*
X134224208Y-91195787D01*
X134224210Y-91195790D01*
X134416054Y-91323975D01*
X134511326Y-91387634D01*
X134850000Y-91455001D01*
X134850005Y-91455000D01*
X135046012Y-91455000D01*
X134541091Y-91959041D01*
X134215372Y-92743459D01*
X134214630Y-93592815D01*
X134538980Y-94377800D01*
X135139041Y-94978909D01*
X135923459Y-95304628D01*
X136772815Y-95305370D01*
X137557800Y-94981020D01*
X138158909Y-94380959D01*
X138484628Y-93596541D01*
X138485370Y-92747185D01*
X138281005Y-92252584D01*
X138915247Y-92886826D01*
X138914630Y-93592815D01*
X139238980Y-94377800D01*
X139839041Y-94978909D01*
X140623459Y-95304628D01*
X141472815Y-95305370D01*
X142257800Y-94981020D01*
X142858909Y-94380959D01*
X143184628Y-93596541D01*
X143185370Y-92747185D01*
X142861020Y-91962200D01*
X142260959Y-91361091D01*
X141476541Y-91035372D01*
X140627185Y-91034630D01*
X139876420Y-91344841D01*
X138475790Y-89944210D01*
X138422606Y-89908674D01*
X138188675Y-89752367D01*
X138132484Y-89741190D01*
X138020677Y-89718950D01*
X138158909Y-89580959D01*
X138484628Y-88796541D01*
X138484631Y-88792815D01*
X138914630Y-88792815D01*
X139238980Y-89577800D01*
X139839041Y-90178909D01*
X140623459Y-90504628D01*
X141472815Y-90505370D01*
X142257800Y-90181020D01*
X142858909Y-89580959D01*
X143184628Y-88796541D01*
X143185370Y-87947185D01*
X142861020Y-87162200D01*
X142260959Y-86561091D01*
X141476541Y-86235372D01*
X140627185Y-86234630D01*
X139842200Y-86558980D01*
X139241091Y-87159041D01*
X138915372Y-87943459D01*
X138914630Y-88792815D01*
X138484631Y-88792815D01*
X138485370Y-87947185D01*
X138161020Y-87162200D01*
X138085266Y-87086314D01*
X139216579Y-85955000D01*
X141983420Y-85955000D01*
X143465000Y-87436579D01*
X143465000Y-96496477D01*
X143176539Y-96784436D01*
X143022996Y-97154210D01*
X142861020Y-96762200D01*
X142260959Y-96161091D01*
X141476541Y-95835372D01*
X140627185Y-95834630D01*
X139842200Y-96158980D01*
X139241091Y-96759041D01*
X138915372Y-97543459D01*
X138914630Y-98392815D01*
X139238980Y-99177800D01*
X139839041Y-99778909D01*
X140623459Y-100104628D01*
X141472815Y-100105370D01*
X142257800Y-99781020D01*
X142858909Y-99180959D01*
X143184628Y-98396541D01*
X143184657Y-98363020D01*
X143564436Y-98743461D01*
X143748521Y-98819900D01*
X141799107Y-100769313D01*
X141476541Y-100635372D01*
X140627185Y-100634630D01*
X139842200Y-100958980D01*
X139241091Y-101559041D01*
X138915372Y-102343459D01*
X138914630Y-103192815D01*
X139238980Y-103977800D01*
X139839041Y-104578909D01*
X140094536Y-104685000D01*
X137306150Y-104685000D01*
X137557800Y-104581020D01*
X138158909Y-103980959D01*
X138484628Y-103196541D01*
X138485370Y-102347185D01*
X138161020Y-101562200D01*
X137560959Y-100961091D01*
X136776541Y-100635372D01*
X135927185Y-100634630D01*
X135142200Y-100958980D01*
X134905000Y-101195766D01*
X134905000Y-100666580D01*
X135600893Y-99970687D01*
X135923459Y-100104628D01*
X136772815Y-100105370D01*
X137557800Y-99781020D01*
X138158909Y-99180959D01*
X138484628Y-98396541D01*
X138485370Y-97547185D01*
X138161020Y-96762200D01*
X137560959Y-96161091D01*
X136776541Y-95835372D01*
X135927185Y-95834630D01*
X135142200Y-96158980D01*
X134541091Y-96759041D01*
X134215372Y-97543459D01*
X134214630Y-98392815D01*
X134349411Y-98719009D01*
X133394210Y-99674210D01*
X133202367Y-99961325D01*
X133202367Y-99961326D01*
X133134999Y-100300000D01*
X133135000Y-100300005D01*
X133135000Y-101235611D01*
X132860959Y-100961091D01*
X132076541Y-100635372D01*
X131227185Y-100634630D01*
X130442200Y-100958980D01*
X129841091Y-101559041D01*
X129515372Y-102343459D01*
X129514630Y-103192815D01*
X129838980Y-103977800D01*
X130439041Y-104578909D01*
X131223459Y-104904628D01*
X131933669Y-104905248D01*
X132903421Y-105875000D01*
X131454210Y-107324210D01*
X131262367Y-107611325D01*
X131262367Y-107611326D01*
X131194999Y-107950000D01*
X131195000Y-107950005D01*
X131195000Y-111299995D01*
X131194999Y-111300000D01*
X131225879Y-111455240D01*
X131262367Y-111638675D01*
X131359761Y-111784436D01*
X131454210Y-111925790D01*
X131965116Y-112436695D01*
X131964760Y-112844285D01*
X132175169Y-113353515D01*
X132564436Y-113743461D01*
X132732754Y-113813353D01*
X132626077Y-113857540D01*
X132558088Y-114098483D01*
X133350000Y-114890395D01*
X134141912Y-114098483D01*
X134073923Y-113857540D01*
X133959389Y-113816778D01*
X134133515Y-113744831D01*
X134523461Y-113355564D01*
X134599927Y-113171414D01*
X134675169Y-113353515D01*
X135064436Y-113743461D01*
X135232754Y-113813353D01*
X135126077Y-113857540D01*
X135058088Y-114098483D01*
X135850000Y-114890395D01*
X136641912Y-114098483D01*
X136573923Y-113857540D01*
X136459389Y-113816778D01*
X136633515Y-113744831D01*
X136923852Y-113455000D01*
X137620000Y-113455000D01*
X137958675Y-113387633D01*
X138245790Y-113195790D01*
X138437633Y-112908675D01*
X138505000Y-112570000D01*
X138505000Y-111666580D01*
X139055787Y-111115792D01*
X139055790Y-111115790D01*
X139247633Y-110828675D01*
X139272368Y-110704324D01*
X139315001Y-110490000D01*
X139315000Y-110489995D01*
X139315000Y-109586580D01*
X140066579Y-108835000D01*
X140212105Y-108835000D01*
X140066485Y-108895169D01*
X139676539Y-109284436D01*
X139465241Y-109793298D01*
X139464760Y-110344285D01*
X139675169Y-110853515D01*
X140064436Y-111243461D01*
X140248586Y-111319927D01*
X140066485Y-111395169D01*
X139676539Y-111784436D01*
X139465241Y-112293298D01*
X139464760Y-112844285D01*
X139675169Y-113353515D01*
X140064436Y-113743461D01*
X140232754Y-113813353D01*
X140126077Y-113857540D01*
X140058088Y-114098483D01*
X140850000Y-114890395D01*
X141641912Y-114098483D01*
X141573923Y-113857540D01*
X141459389Y-113816778D01*
X141633515Y-113744831D01*
X142023461Y-113355564D01*
X142099927Y-113171414D01*
X142175169Y-113353515D01*
X142564436Y-113743461D01*
X142732754Y-113813353D01*
X142626077Y-113857540D01*
X142558088Y-114098483D01*
X143350000Y-114890395D01*
X144141912Y-114098483D01*
X144073923Y-113857540D01*
X143959389Y-113816778D01*
X144133515Y-113744831D01*
X144523461Y-113355564D01*
X144610612Y-113145681D01*
X150922672Y-113145681D01*
X151210864Y-113843160D01*
X151744033Y-114377260D01*
X152441008Y-114666670D01*
X153195681Y-114667328D01*
X153893160Y-114379136D01*
X154102886Y-114169775D01*
X154102672Y-114415681D01*
X154390864Y-115113160D01*
X154924033Y-115647260D01*
X155621008Y-115936670D01*
X156375681Y-115937328D01*
X157073160Y-115649136D01*
X157607260Y-115115967D01*
X157896670Y-114418992D01*
X157896879Y-114179761D01*
X158094033Y-114377260D01*
X158791008Y-114666670D01*
X159545681Y-114667328D01*
X160243160Y-114379136D01*
X160442878Y-114179766D01*
X160442672Y-114415681D01*
X160730864Y-115113160D01*
X161264033Y-115647260D01*
X161961008Y-115936670D01*
X162715681Y-115937328D01*
X163413160Y-115649136D01*
X163947260Y-115115967D01*
X164236670Y-114418992D01*
X164236887Y-114169753D01*
X164444033Y-114377260D01*
X165141008Y-114666670D01*
X165895681Y-114667328D01*
X166593160Y-114379136D01*
X166792878Y-114179766D01*
X166792672Y-114415681D01*
X167080864Y-115113160D01*
X167614033Y-115647260D01*
X168311008Y-115936670D01*
X169065681Y-115937328D01*
X169763160Y-115649136D01*
X170297260Y-115115967D01*
X170586670Y-114418992D01*
X170587328Y-113664319D01*
X170299136Y-112966840D01*
X169765967Y-112432740D01*
X169068992Y-112143330D01*
X168314319Y-112142672D01*
X167616840Y-112430864D01*
X167417122Y-112630234D01*
X167417328Y-112394319D01*
X167129136Y-111696840D01*
X166595967Y-111162740D01*
X165898992Y-110873330D01*
X165144319Y-110872672D01*
X164446840Y-111160864D01*
X163912740Y-111694033D01*
X163623330Y-112391008D01*
X163623113Y-112640247D01*
X163415967Y-112432740D01*
X162718992Y-112143330D01*
X161964319Y-112142672D01*
X161266840Y-112430864D01*
X161067122Y-112630234D01*
X161067328Y-112394319D01*
X160779136Y-111696840D01*
X160245967Y-111162740D01*
X159548992Y-110873330D01*
X158794319Y-110872672D01*
X158096840Y-111160864D01*
X157562740Y-111694033D01*
X157273330Y-112391008D01*
X157273121Y-112630239D01*
X157075967Y-112432740D01*
X156378992Y-112143330D01*
X155624319Y-112142672D01*
X154926840Y-112430864D01*
X154717114Y-112640225D01*
X154717328Y-112394319D01*
X154429136Y-111696840D01*
X153895967Y-111162740D01*
X153198992Y-110873330D01*
X152444319Y-110872672D01*
X151746840Y-111160864D01*
X151212740Y-111694033D01*
X150923330Y-112391008D01*
X150922672Y-113145681D01*
X144610612Y-113145681D01*
X144734759Y-112846702D01*
X144735117Y-112436462D01*
X145487788Y-111683791D01*
X145487791Y-111683789D01*
X145517996Y-111638584D01*
X147051579Y-110105000D01*
X154469995Y-110105000D01*
X154470000Y-110105001D01*
X154752484Y-110048810D01*
X154808675Y-110037633D01*
X155095790Y-109845790D01*
X155095791Y-109845789D01*
X161782984Y-103158595D01*
X161971008Y-103236670D01*
X162725681Y-103237328D01*
X163423160Y-102949136D01*
X163957260Y-102415967D01*
X164246670Y-101718992D01*
X164246840Y-101523642D01*
X164248903Y-101525705D01*
X164362612Y-101411996D01*
X164493326Y-101706043D01*
X165197944Y-101976311D01*
X165952353Y-101956361D01*
X166556674Y-101706043D01*
X166687388Y-101411996D01*
X166786872Y-101511480D01*
X166793639Y-101767353D01*
X167043957Y-102371674D01*
X167338006Y-102502389D01*
X168500395Y-101340000D01*
X168486253Y-101325858D01*
X168665858Y-101146253D01*
X168680000Y-101160395D01*
X169842389Y-99998006D01*
X169711674Y-99703957D01*
X169007056Y-99433689D01*
X168252647Y-99453639D01*
X167648326Y-99703957D01*
X167517612Y-99998004D01*
X167418128Y-99898520D01*
X167411361Y-99642647D01*
X167161043Y-99038326D01*
X166866994Y-98907611D01*
X165704605Y-100070000D01*
X165718748Y-100084143D01*
X165539143Y-100263748D01*
X165525000Y-100249605D01*
X165510858Y-100263748D01*
X165331253Y-100084143D01*
X165345395Y-100070000D01*
X164183006Y-98907611D01*
X163888957Y-99038326D01*
X163618689Y-99742944D01*
X163623656Y-99930774D01*
X163425967Y-99732740D01*
X162728992Y-99443330D01*
X161974319Y-99442672D01*
X161276840Y-99730864D01*
X161067114Y-99940225D01*
X161067328Y-99694319D01*
X160779136Y-98996840D01*
X160510771Y-98728006D01*
X164362611Y-98728006D01*
X165525000Y-99890395D01*
X166687389Y-98728006D01*
X166556674Y-98433957D01*
X165852056Y-98163689D01*
X165097647Y-98183639D01*
X164493326Y-98433957D01*
X164362611Y-98728006D01*
X160510771Y-98728006D01*
X160245967Y-98462740D01*
X159548992Y-98173330D01*
X158794319Y-98172672D01*
X158096840Y-98460864D01*
X157562740Y-98994033D01*
X157273330Y-99691008D01*
X157273121Y-99930256D01*
X157065967Y-99722740D01*
X156368992Y-99433330D01*
X155614319Y-99432672D01*
X154916840Y-99720864D01*
X154717131Y-99920225D01*
X154717328Y-99694319D01*
X154429136Y-98996840D01*
X153895967Y-98462740D01*
X153198992Y-98173330D01*
X152444319Y-98172672D01*
X151746840Y-98460864D01*
X151212740Y-98994033D01*
X150923330Y-99691008D01*
X150922672Y-100445681D01*
X151001635Y-100636785D01*
X150932211Y-100706209D01*
X150932209Y-100706212D01*
X146253410Y-105385010D01*
X144905371Y-105385010D01*
X147932777Y-102736030D01*
X147950972Y-102712373D01*
X147975790Y-102695790D01*
X148055661Y-102576255D01*
X148143294Y-102462312D01*
X148151051Y-102433492D01*
X148167633Y-102408675D01*
X148195676Y-102267693D01*
X148233041Y-102128869D01*
X148229178Y-102099270D01*
X148235000Y-102070000D01*
X148235000Y-91145681D01*
X150922672Y-91145681D01*
X151210864Y-91843160D01*
X151744033Y-92377260D01*
X152441008Y-92666670D01*
X153195681Y-92667328D01*
X153893160Y-92379136D01*
X154102886Y-92169775D01*
X154102672Y-92415681D01*
X154390864Y-93113160D01*
X154924033Y-93647260D01*
X155621008Y-93936670D01*
X156375681Y-93937328D01*
X157073160Y-93649136D01*
X157607260Y-93115967D01*
X157896670Y-92418992D01*
X157896879Y-92179761D01*
X158094033Y-92377260D01*
X158791008Y-92666670D01*
X159545681Y-92667328D01*
X160243160Y-92379136D01*
X160442878Y-92179766D01*
X160442672Y-92415681D01*
X160730864Y-93113160D01*
X161264033Y-93647260D01*
X161961008Y-93936670D01*
X162715681Y-93937328D01*
X163413160Y-93649136D01*
X163947260Y-93115967D01*
X164236670Y-92418992D01*
X164236887Y-92169753D01*
X164444033Y-92377260D01*
X165141008Y-92666670D01*
X165895681Y-92667328D01*
X166593160Y-92379136D01*
X166792878Y-92179766D01*
X166792672Y-92415681D01*
X167080864Y-93113160D01*
X167614033Y-93647260D01*
X168311008Y-93936670D01*
X169065681Y-93937328D01*
X169763160Y-93649136D01*
X170297260Y-93115967D01*
X170586670Y-92418992D01*
X170587328Y-91664319D01*
X170299136Y-90966840D01*
X169765967Y-90432740D01*
X169068992Y-90143330D01*
X168314319Y-90142672D01*
X167616840Y-90430864D01*
X167417122Y-90630234D01*
X167417328Y-90394319D01*
X167129136Y-89696840D01*
X166595967Y-89162740D01*
X165898992Y-88873330D01*
X165144319Y-88872672D01*
X164446840Y-89160864D01*
X163912740Y-89694033D01*
X163623330Y-90391008D01*
X163623113Y-90640247D01*
X163415967Y-90432740D01*
X162718992Y-90143330D01*
X161964319Y-90142672D01*
X161266840Y-90430864D01*
X161067122Y-90630234D01*
X161067328Y-90394319D01*
X160779136Y-89696840D01*
X160245967Y-89162740D01*
X159548992Y-88873330D01*
X158794319Y-88872672D01*
X158096840Y-89160864D01*
X157562740Y-89694033D01*
X157273330Y-90391008D01*
X157273121Y-90630239D01*
X157075967Y-90432740D01*
X156378992Y-90143330D01*
X155624319Y-90142672D01*
X154926840Y-90430864D01*
X154717114Y-90640225D01*
X154717328Y-90394319D01*
X154429136Y-89696840D01*
X153895967Y-89162740D01*
X153198992Y-88873330D01*
X152444319Y-88872672D01*
X151746840Y-89160864D01*
X151212740Y-89694033D01*
X150923330Y-90391008D01*
X150922672Y-91145681D01*
X148235000Y-91145681D01*
X148235000Y-87444285D01*
X148364760Y-87444285D01*
X148575169Y-87953515D01*
X148964436Y-88343461D01*
X149473298Y-88554759D01*
X150024285Y-88555240D01*
X150533515Y-88344831D01*
X150923461Y-87955564D01*
X151134759Y-87446702D01*
X151135240Y-86895715D01*
X150924831Y-86386485D01*
X150635000Y-86096148D01*
X150635000Y-85036580D01*
X153464880Y-82206699D01*
X153464760Y-82344285D01*
X153675169Y-82853515D01*
X154064436Y-83243461D01*
X154573298Y-83454759D01*
X155124285Y-83455240D01*
X155633515Y-83244831D01*
X155923852Y-82955000D01*
X159849995Y-82955000D01*
X159850000Y-82955001D01*
X160150789Y-82895169D01*
X160188675Y-82887633D01*
X160475790Y-82695790D01*
X161945501Y-81226079D01*
X161971008Y-81236670D01*
X162725681Y-81237328D01*
X163423160Y-80949136D01*
X163957260Y-80415967D01*
X164246670Y-79718992D01*
X164246840Y-79523642D01*
X164248903Y-79525705D01*
X164362612Y-79411996D01*
X164493326Y-79706043D01*
X165197944Y-79976311D01*
X165952353Y-79956361D01*
X166556674Y-79706043D01*
X166687388Y-79411996D01*
X166786872Y-79511480D01*
X166793639Y-79767353D01*
X167043957Y-80371674D01*
X167338006Y-80502389D01*
X168500395Y-79340000D01*
X168486253Y-79325858D01*
X168665858Y-79146253D01*
X168680000Y-79160395D01*
X169842389Y-77998006D01*
X169711674Y-77703957D01*
X169007056Y-77433689D01*
X168252647Y-77453639D01*
X167648326Y-77703957D01*
X167517612Y-77998004D01*
X167418128Y-77898520D01*
X167411361Y-77642647D01*
X167161043Y-77038326D01*
X166866994Y-76907611D01*
X165704605Y-78070000D01*
X165718748Y-78084143D01*
X165539143Y-78263748D01*
X165525000Y-78249605D01*
X165510858Y-78263748D01*
X165331253Y-78084143D01*
X165345395Y-78070000D01*
X164183006Y-76907611D01*
X163888957Y-77038326D01*
X163618689Y-77742944D01*
X163623656Y-77930774D01*
X163425967Y-77732740D01*
X162728992Y-77443330D01*
X161974319Y-77442672D01*
X161276840Y-77730864D01*
X161067114Y-77940225D01*
X161067328Y-77694319D01*
X160779136Y-76996840D01*
X160510771Y-76728006D01*
X164362611Y-76728006D01*
X165525000Y-77890395D01*
X166687389Y-76728006D01*
X166556674Y-76433957D01*
X165852056Y-76163689D01*
X165097647Y-76183639D01*
X164493326Y-76433957D01*
X164362611Y-76728006D01*
X160510771Y-76728006D01*
X160245967Y-76462740D01*
X159548992Y-76173330D01*
X158794319Y-76172672D01*
X158096840Y-76460864D01*
X157562740Y-76994033D01*
X157273330Y-77691008D01*
X157273121Y-77930256D01*
X157065967Y-77722740D01*
X156368992Y-77433330D01*
X155614319Y-77432672D01*
X154916840Y-77720864D01*
X154717131Y-77920225D01*
X154717328Y-77694319D01*
X154429136Y-76996840D01*
X153895967Y-76462740D01*
X153198992Y-76173330D01*
X152444319Y-76172672D01*
X151746840Y-76460864D01*
X151212740Y-76994033D01*
X150923330Y-77691008D01*
X150922672Y-78445681D01*
X151210864Y-79143160D01*
X151744033Y-79677260D01*
X152441008Y-79966670D01*
X153195681Y-79967328D01*
X153204903Y-79963517D01*
X149124210Y-84044210D01*
X148932367Y-84331325D01*
X148932367Y-84331326D01*
X148864999Y-84670000D01*
X148865000Y-84670005D01*
X148865000Y-86096477D01*
X148576539Y-86384436D01*
X148365241Y-86893298D01*
X148364760Y-87444285D01*
X148235000Y-87444285D01*
X148235000Y-73145681D01*
X150922672Y-73145681D01*
X151210864Y-73843160D01*
X151744033Y-74377260D01*
X152441008Y-74666670D01*
X153195681Y-74667328D01*
X153893160Y-74379136D01*
X154102886Y-74169775D01*
X154102672Y-74415681D01*
X154390864Y-75113160D01*
X154924033Y-75647260D01*
X155621008Y-75936670D01*
X156375681Y-75937328D01*
X157073160Y-75649136D01*
X157607260Y-75115967D01*
X157896670Y-74418992D01*
X157896879Y-74179761D01*
X158094033Y-74377260D01*
X158791008Y-74666670D01*
X159545681Y-74667328D01*
X160243160Y-74379136D01*
X160442878Y-74179766D01*
X160442672Y-74415681D01*
X160730864Y-75113160D01*
X161264033Y-75647260D01*
X161961008Y-75936670D01*
X162715681Y-75937328D01*
X163413160Y-75649136D01*
X163947260Y-75115967D01*
X164236670Y-74418992D01*
X164236887Y-74169753D01*
X164444033Y-74377260D01*
X165141008Y-74666670D01*
X165895681Y-74667328D01*
X166593160Y-74379136D01*
X166792878Y-74179766D01*
X166792672Y-74415681D01*
X167080864Y-75113160D01*
X167614033Y-75647260D01*
X168311008Y-75936670D01*
X169065681Y-75937328D01*
X169763160Y-75649136D01*
X170297260Y-75115967D01*
X170586670Y-74418992D01*
X170587328Y-73664319D01*
X170299136Y-72966840D01*
X169765967Y-72432740D01*
X169068992Y-72143330D01*
X168314319Y-72142672D01*
X167616840Y-72430864D01*
X167417122Y-72630234D01*
X167417328Y-72394319D01*
X167129136Y-71696840D01*
X166595967Y-71162740D01*
X165898992Y-70873330D01*
X165144319Y-70872672D01*
X164446840Y-71160864D01*
X163912740Y-71694033D01*
X163623330Y-72391008D01*
X163623113Y-72640247D01*
X163415967Y-72432740D01*
X162718992Y-72143330D01*
X161964319Y-72142672D01*
X161266840Y-72430864D01*
X161067122Y-72630234D01*
X161067328Y-72394319D01*
X160779136Y-71696840D01*
X160245967Y-71162740D01*
X159548992Y-70873330D01*
X158794319Y-70872672D01*
X158096840Y-71160864D01*
X157562740Y-71694033D01*
X157273330Y-72391008D01*
X157273121Y-72630239D01*
X157075967Y-72432740D01*
X156378992Y-72143330D01*
X155624319Y-72142672D01*
X154926840Y-72430864D01*
X154717114Y-72640225D01*
X154717328Y-72394319D01*
X154429136Y-71696840D01*
X153895967Y-71162740D01*
X153198992Y-70873330D01*
X152444319Y-70872672D01*
X151746840Y-71160864D01*
X151212740Y-71694033D01*
X150923330Y-72391008D01*
X150922672Y-73145681D01*
X148235000Y-73145681D01*
X148235000Y-63436580D01*
X150716579Y-60955000D01*
X151133118Y-60955000D01*
X151210864Y-61143160D01*
X151744033Y-61677260D01*
X152441008Y-61966670D01*
X153195681Y-61967328D01*
X153893160Y-61679136D01*
X154092869Y-61479775D01*
X154092672Y-61705681D01*
X154380864Y-62403160D01*
X154914033Y-62937260D01*
X155611008Y-63226670D01*
X156365681Y-63227328D01*
X157063160Y-62939136D01*
X157597260Y-62405967D01*
X157886670Y-61708992D01*
X157886879Y-61469744D01*
X158094033Y-61677260D01*
X158791008Y-61966670D01*
X159545681Y-61967328D01*
X160243160Y-61679136D01*
X160452886Y-61469775D01*
X160452672Y-61715681D01*
X160452692Y-61715729D01*
X158483420Y-63685000D01*
X154423523Y-63685000D01*
X154135564Y-63396539D01*
X153626702Y-63185241D01*
X153075715Y-63184760D01*
X152566485Y-63395169D01*
X152176539Y-63784436D01*
X151965241Y-64293298D01*
X151964760Y-64844285D01*
X152175169Y-65353515D01*
X152564436Y-65743461D01*
X153073298Y-65954759D01*
X153624285Y-65955240D01*
X154133515Y-65744831D01*
X154423852Y-65455000D01*
X158849995Y-65455000D01*
X158850000Y-65455001D01*
X159132484Y-65398810D01*
X159188675Y-65387633D01*
X159475790Y-65195790D01*
X161592203Y-63079376D01*
X161971008Y-63236670D01*
X162725681Y-63237328D01*
X163423160Y-62949136D01*
X163957260Y-62415967D01*
X164246670Y-61718992D01*
X164246840Y-61523642D01*
X164248903Y-61525705D01*
X164362612Y-61411996D01*
X164493326Y-61706043D01*
X165197944Y-61976311D01*
X165952353Y-61956361D01*
X166556674Y-61706043D01*
X166687388Y-61411996D01*
X166786872Y-61511480D01*
X166793639Y-61767353D01*
X167043957Y-62371674D01*
X167338006Y-62502389D01*
X168500395Y-61340000D01*
X168486253Y-61325858D01*
X168665858Y-61146253D01*
X168680000Y-61160395D01*
X169842389Y-59998006D01*
X169711674Y-59703957D01*
X169007056Y-59433689D01*
X168252647Y-59453639D01*
X167648326Y-59703957D01*
X167517612Y-59998004D01*
X167418128Y-59898520D01*
X167411361Y-59642647D01*
X167161043Y-59038326D01*
X166866994Y-58907611D01*
X165704605Y-60070000D01*
X165718748Y-60084143D01*
X165539143Y-60263748D01*
X165525000Y-60249605D01*
X165510858Y-60263748D01*
X165331253Y-60084143D01*
X165345395Y-60070000D01*
X164183006Y-58907611D01*
X163888957Y-59038326D01*
X163618689Y-59742944D01*
X163623656Y-59930774D01*
X163425967Y-59732740D01*
X162728992Y-59443330D01*
X161974319Y-59442672D01*
X161276840Y-59730864D01*
X161067114Y-59940225D01*
X161067328Y-59694319D01*
X160779136Y-58996840D01*
X160510771Y-58728006D01*
X164362611Y-58728006D01*
X165525000Y-59890395D01*
X166687389Y-58728006D01*
X166556674Y-58433957D01*
X165852056Y-58163689D01*
X165097647Y-58183639D01*
X164493326Y-58433957D01*
X164362611Y-58728006D01*
X160510771Y-58728006D01*
X160245967Y-58462740D01*
X159548992Y-58173330D01*
X158794319Y-58172672D01*
X158096840Y-58460864D01*
X157562740Y-58994033D01*
X157273330Y-59691008D01*
X157273121Y-59930256D01*
X157065967Y-59722740D01*
X156368992Y-59433330D01*
X155614319Y-59432672D01*
X154916840Y-59720864D01*
X154717131Y-59920225D01*
X154717328Y-59694319D01*
X154429136Y-58996840D01*
X153895967Y-58462740D01*
X153198992Y-58173330D01*
X152444319Y-58172672D01*
X151746840Y-58460864D01*
X151212740Y-58994033D01*
X151133443Y-59185000D01*
X150350005Y-59185000D01*
X150350000Y-59184999D01*
X150067516Y-59241190D01*
X150011325Y-59252367D01*
X149724210Y-59444210D01*
X149724208Y-59444213D01*
X147350000Y-61818421D01*
X144475790Y-58944210D01*
X144364000Y-58869515D01*
X144188675Y-58752367D01*
X144132484Y-58741190D01*
X143850000Y-58684999D01*
X143849995Y-58685000D01*
X140238899Y-58685000D01*
X140057743Y-58413880D01*
X139527310Y-58059457D01*
X138901623Y-57935000D01*
X136798377Y-57935000D01*
X136172690Y-58059457D01*
X135642257Y-58413880D01*
X135287834Y-58944313D01*
X135163377Y-59570000D01*
X135287834Y-60195687D01*
X135642257Y-60726120D01*
X135782759Y-60820000D01*
X135642257Y-60913880D01*
X135287834Y-61444313D01*
X135163377Y-62070000D01*
X135287834Y-62695687D01*
X135642257Y-63226120D01*
X136172690Y-63580543D01*
X136798377Y-63705000D01*
X138901623Y-63705000D01*
X139527310Y-63580543D01*
X140057743Y-63226120D01*
X140412166Y-62695687D01*
X140536623Y-62070000D01*
X140412166Y-61444313D01*
X140057743Y-60913880D01*
X139917241Y-60820000D01*
X140057743Y-60726120D01*
X140238899Y-60455000D01*
X143483420Y-60455000D01*
X146465000Y-63436579D01*
X146465000Y-75933421D01*
X142475790Y-71944210D01*
X142364000Y-71869515D01*
X142188675Y-71752367D01*
X142132484Y-71741190D01*
X141850000Y-71684999D01*
X141849995Y-71685000D01*
X140238899Y-71685000D01*
X140057743Y-71413880D01*
X139543089Y-71070000D01*
X140057743Y-70726120D01*
X140412166Y-70195687D01*
X140536623Y-69570000D01*
X140412166Y-68944313D01*
X140057743Y-68413880D01*
X139917241Y-68320000D01*
X140057743Y-68226120D01*
X140412166Y-67695687D01*
X140536623Y-67070000D01*
X140412166Y-66444313D01*
X140057743Y-65913880D01*
X139527310Y-65559457D01*
X138901623Y-65435000D01*
X136798377Y-65435000D01*
X136172690Y-65559457D01*
X135642257Y-65913880D01*
X135287834Y-66444313D01*
X135163377Y-67070000D01*
X135287834Y-67695687D01*
X135642257Y-68226120D01*
X135782759Y-68320000D01*
X135642257Y-68413880D01*
X135287834Y-68944313D01*
X135163377Y-69570000D01*
X135287834Y-70195687D01*
X135642257Y-70726120D01*
X136156911Y-71070000D01*
X135642257Y-71413880D01*
X135287834Y-71944313D01*
X135163377Y-72570000D01*
X135287834Y-73195687D01*
X135642257Y-73726120D01*
X135782759Y-73820000D01*
X135642257Y-73913880D01*
X135287834Y-74444313D01*
X135163377Y-75070000D01*
X135287834Y-75695687D01*
X135562166Y-76106255D01*
X134755000Y-76913420D01*
X134755000Y-76713000D01*
X134561390Y-75993655D01*
X134107236Y-75403159D01*
X133461679Y-75031409D01*
X133272781Y-74982507D01*
X132977000Y-75098374D01*
X132977000Y-77443000D01*
X132997000Y-77443000D01*
X132997000Y-77697000D01*
X132977000Y-77697000D01*
X132977000Y-80041626D01*
X133272781Y-80157493D01*
X133461679Y-80108591D01*
X133965000Y-79818749D01*
X133965000Y-82034482D01*
X133897592Y-81871343D01*
X133550485Y-81523629D01*
X133096734Y-81335215D01*
X132605421Y-81334786D01*
X132151343Y-81522408D01*
X131803629Y-81869515D01*
X131615215Y-82323266D01*
X131614786Y-82814579D01*
X131802408Y-83268657D01*
X132149515Y-83616371D01*
X132603266Y-83804785D01*
X133017683Y-83805147D01*
X132964999Y-84070000D01*
X132965000Y-84070005D01*
X132965000Y-86665314D01*
X132860959Y-86561091D01*
X132076541Y-86235372D01*
X131227185Y-86234630D01*
X130442200Y-86558980D01*
X129841091Y-87159041D01*
X129515372Y-87943459D01*
X129514630Y-88792815D01*
X129112000Y-88792815D01*
X129112000Y-82814579D01*
X129114786Y-82814579D01*
X129302408Y-83268657D01*
X129649515Y-83616371D01*
X130103266Y-83804785D01*
X130594579Y-83805214D01*
X131048657Y-83617592D01*
X131396371Y-83270485D01*
X131584785Y-82816734D01*
X131585214Y-82325421D01*
X131397592Y-81871343D01*
X131050485Y-81523629D01*
X130596734Y-81335215D01*
X130105421Y-81334786D01*
X129651343Y-81522408D01*
X129303629Y-81869515D01*
X129115215Y-82323266D01*
X129114786Y-82814579D01*
X129112000Y-82814579D01*
X129112000Y-77697000D01*
X130945000Y-77697000D01*
X130945000Y-78427000D01*
X131138610Y-79146345D01*
X131592764Y-79736841D01*
X132238321Y-80108591D01*
X132427219Y-80157493D01*
X132723000Y-80041626D01*
X132723000Y-77697000D01*
X130945000Y-77697000D01*
X129112000Y-77697000D01*
X129112000Y-76713000D01*
X130945000Y-76713000D01*
X130945000Y-77443000D01*
X132723000Y-77443000D01*
X132723000Y-75098374D01*
X132427219Y-74982507D01*
X132238321Y-75031409D01*
X131592764Y-75403159D01*
X131138610Y-75993655D01*
X130945000Y-76713000D01*
X129112000Y-76713000D01*
X129112000Y-72814579D01*
X129114786Y-72814579D01*
X129302408Y-73268657D01*
X129649515Y-73616371D01*
X130103266Y-73804785D01*
X130594579Y-73805214D01*
X131048657Y-73617592D01*
X131396371Y-73270485D01*
X131584785Y-72816734D01*
X131584786Y-72814579D01*
X131614786Y-72814579D01*
X131802408Y-73268657D01*
X132149515Y-73616371D01*
X132603266Y-73804785D01*
X133094579Y-73805214D01*
X133548657Y-73617592D01*
X133896371Y-73270485D01*
X134084785Y-72816734D01*
X134085214Y-72325421D01*
X133897592Y-71871343D01*
X133550485Y-71523629D01*
X133096734Y-71335215D01*
X132605421Y-71334786D01*
X132151343Y-71522408D01*
X131803629Y-71869515D01*
X131615215Y-72323266D01*
X131614786Y-72814579D01*
X131584786Y-72814579D01*
X131585214Y-72325421D01*
X131397592Y-71871343D01*
X131050485Y-71523629D01*
X130596734Y-71335215D01*
X130105421Y-71334786D01*
X129651343Y-71522408D01*
X129303629Y-71869515D01*
X129115215Y-72323266D01*
X129114786Y-72814579D01*
X129112000Y-72814579D01*
X129112000Y-69814579D01*
X129114786Y-69814579D01*
X129302408Y-70268657D01*
X129649515Y-70616371D01*
X130103266Y-70804785D01*
X130594579Y-70805214D01*
X131048657Y-70617592D01*
X131396371Y-70270485D01*
X131584785Y-69816734D01*
X131584786Y-69814579D01*
X131614786Y-69814579D01*
X131802408Y-70268657D01*
X132149515Y-70616371D01*
X132603266Y-70804785D01*
X133094579Y-70805214D01*
X133548657Y-70617592D01*
X133896371Y-70270485D01*
X134084785Y-69816734D01*
X134085214Y-69325421D01*
X133897592Y-68871343D01*
X133550485Y-68523629D01*
X133096734Y-68335215D01*
X132605421Y-68334786D01*
X132151343Y-68522408D01*
X131803629Y-68869515D01*
X131615215Y-69323266D01*
X131614786Y-69814579D01*
X131584786Y-69814579D01*
X131585214Y-69325421D01*
X131397592Y-68871343D01*
X131050485Y-68523629D01*
X130596734Y-68335215D01*
X130105421Y-68334786D01*
X129651343Y-68522408D01*
X129303629Y-68869515D01*
X129115215Y-69323266D01*
X129114786Y-69814579D01*
X129112000Y-69814579D01*
X129112000Y-64697000D01*
X130945000Y-64697000D01*
X130945000Y-65427000D01*
X131138610Y-66146345D01*
X131592764Y-66736841D01*
X132238321Y-67108591D01*
X132427219Y-67157493D01*
X132723000Y-67041626D01*
X132723000Y-64697000D01*
X132977000Y-64697000D01*
X132977000Y-67041626D01*
X133272781Y-67157493D01*
X133461679Y-67108591D01*
X134107236Y-66736841D01*
X134561390Y-66146345D01*
X134755000Y-65427000D01*
X134755000Y-64697000D01*
X132977000Y-64697000D01*
X132723000Y-64697000D01*
X130945000Y-64697000D01*
X129112000Y-64697000D01*
X129112000Y-63713000D01*
X130945000Y-63713000D01*
X130945000Y-64443000D01*
X132723000Y-64443000D01*
X132723000Y-62098374D01*
X132977000Y-62098374D01*
X132977000Y-64443000D01*
X134755000Y-64443000D01*
X134755000Y-63713000D01*
X134561390Y-62993655D01*
X134107236Y-62403159D01*
X133461679Y-62031409D01*
X133272781Y-61982507D01*
X132977000Y-62098374D01*
X132723000Y-62098374D01*
X132427219Y-61982507D01*
X132238321Y-62031409D01*
X131592764Y-62403159D01*
X131138610Y-62993655D01*
X130945000Y-63713000D01*
X129112000Y-63713000D01*
X129112000Y-59814579D01*
X129114786Y-59814579D01*
X129302408Y-60268657D01*
X129649515Y-60616371D01*
X130103266Y-60804785D01*
X130594579Y-60805214D01*
X131048657Y-60617592D01*
X131396371Y-60270485D01*
X131584785Y-59816734D01*
X131584786Y-59814579D01*
X131614786Y-59814579D01*
X131802408Y-60268657D01*
X132149515Y-60616371D01*
X132603266Y-60804785D01*
X133094579Y-60805214D01*
X133548657Y-60617592D01*
X133896371Y-60270485D01*
X134084785Y-59816734D01*
X134085214Y-59325421D01*
X133897592Y-58871343D01*
X133550485Y-58523629D01*
X133096734Y-58335215D01*
X132605421Y-58334786D01*
X132151343Y-58522408D01*
X131803629Y-58869515D01*
X131615215Y-59323266D01*
X131614786Y-59814579D01*
X131584786Y-59814579D01*
X131585214Y-59325421D01*
X131397592Y-58871343D01*
X131050485Y-58523629D01*
X130596734Y-58335215D01*
X130105421Y-58334786D01*
X129651343Y-58522408D01*
X129303629Y-58869515D01*
X129115215Y-59323266D01*
X129114786Y-59814579D01*
X129112000Y-59814579D01*
X129112000Y-48332000D01*
X133931352Y-48332000D01*
X132618409Y-48593161D01*
M02*
