G04 #@! TF.FileFunction,Legend,Top*
%FSLAX46Y46*%
G04 Gerber Fmt 4.6, Leading zero omitted, Abs format (unit mm)*
G04 Created by KiCad (PCBNEW 4.0.6) date Thu Apr 27 01:27:43 2017*
%MOMM*%
%LPD*%
G01*
G04 APERTURE LIST*
%ADD10C,0.100000*%
%ADD11C,0.120000*%
%ADD12C,0.150000*%
G04 APERTURE END LIST*
D10*
D11*
X136636000Y-122570000D02*
G75*
G03X136636000Y-122570000I-2286000J0D01*
G01*
X169636000Y-122570000D02*
G75*
G03X169636000Y-122570000I-2286000J0D01*
G01*
X169636000Y-52570000D02*
G75*
G03X169636000Y-52570000I-2286000J0D01*
G01*
X136636000Y-52570000D02*
G75*
G03X136636000Y-52570000I-2286000J0D01*
G01*
D12*
X145550000Y-117320000D02*
X145550000Y-107820000D01*
X145550000Y-107820000D02*
X145350000Y-107820000D01*
X128350000Y-107820000D02*
X145350000Y-107820000D01*
X128350000Y-117320000D02*
X145550000Y-117320000D01*
X148550000Y-76270000D02*
X173350000Y-76270000D01*
X148550000Y-58270000D02*
X173250000Y-58270000D01*
X148550000Y-58270000D02*
X148550000Y-76270000D01*
X148550000Y-94270000D02*
X173350000Y-94270000D01*
X148550000Y-76270000D02*
X173250000Y-76270000D01*
X148550000Y-76270000D02*
X148550000Y-94270000D01*
X148550000Y-116270000D02*
X173350000Y-116270000D01*
X148550000Y-98270000D02*
X173250000Y-98270000D01*
X148550000Y-98270000D02*
X148550000Y-116270000D01*
X129650000Y-106770000D02*
X143150000Y-106770000D01*
X143150000Y-106770000D02*
X143150000Y-106670000D01*
X129650000Y-84270000D02*
X129650000Y-84470000D01*
X143150000Y-84270000D02*
X129650000Y-84270000D01*
X143150000Y-106620000D02*
X143150000Y-84320000D01*
X129650000Y-106720000D02*
X129650000Y-84420000D01*
X129450000Y-70870000D02*
X129050000Y-70870000D01*
X129050000Y-70870000D02*
X129050000Y-69370000D01*
X129050000Y-69370000D02*
X128350000Y-69370000D01*
X129350000Y-58270000D02*
X129050000Y-58270000D01*
X129050000Y-58270000D02*
X129050000Y-59770000D01*
X129050000Y-59770000D02*
X128350000Y-59770000D01*
X129350000Y-58270000D02*
X140550000Y-58270000D01*
X140550000Y-58370000D02*
X140550000Y-70870000D01*
X140550000Y-70870000D02*
X129350000Y-70870000D01*
X129450000Y-83870000D02*
X129050000Y-83870000D01*
X129050000Y-83870000D02*
X129050000Y-82370000D01*
X129050000Y-82370000D02*
X128350000Y-82370000D01*
X129350000Y-71270000D02*
X129050000Y-71270000D01*
X129050000Y-71270000D02*
X129050000Y-72770000D01*
X129050000Y-72770000D02*
X128350000Y-72770000D01*
X129350000Y-71270000D02*
X140550000Y-71270000D01*
X140550000Y-71370000D02*
X140550000Y-83870000D01*
X140550000Y-83870000D02*
X129350000Y-83870000D01*
X130723334Y-113022381D02*
X130390000Y-112546190D01*
X130151905Y-113022381D02*
X130151905Y-112022381D01*
X130532858Y-112022381D01*
X130628096Y-112070000D01*
X130675715Y-112117619D01*
X130723334Y-112212857D01*
X130723334Y-112355714D01*
X130675715Y-112450952D01*
X130628096Y-112498571D01*
X130532858Y-112546190D01*
X130151905Y-112546190D01*
X131675715Y-113022381D02*
X131104286Y-113022381D01*
X131390000Y-113022381D02*
X131390000Y-112022381D01*
X131294762Y-112165238D01*
X131199524Y-112260476D01*
X131104286Y-112308095D01*
X155236667Y-67022381D02*
X155236667Y-67736667D01*
X155189047Y-67879524D01*
X155093809Y-67974762D01*
X154950952Y-68022381D01*
X154855714Y-68022381D01*
X156236667Y-68022381D02*
X155665238Y-68022381D01*
X155950952Y-68022381D02*
X155950952Y-67022381D01*
X155855714Y-67165238D01*
X155760476Y-67260476D01*
X155665238Y-67308095D01*
X155236667Y-85022381D02*
X155236667Y-85736667D01*
X155189047Y-85879524D01*
X155093809Y-85974762D01*
X154950952Y-86022381D01*
X154855714Y-86022381D01*
X155665238Y-85117619D02*
X155712857Y-85070000D01*
X155808095Y-85022381D01*
X156046191Y-85022381D01*
X156141429Y-85070000D01*
X156189048Y-85117619D01*
X156236667Y-85212857D01*
X156236667Y-85308095D01*
X156189048Y-85450952D01*
X155617619Y-86022381D01*
X156236667Y-86022381D01*
X155236667Y-107022381D02*
X155236667Y-107736667D01*
X155189047Y-107879524D01*
X155093809Y-107974762D01*
X154950952Y-108022381D01*
X154855714Y-108022381D01*
X155617619Y-107022381D02*
X156236667Y-107022381D01*
X155903333Y-107403333D01*
X156046191Y-107403333D01*
X156141429Y-107450952D01*
X156189048Y-107498571D01*
X156236667Y-107593810D01*
X156236667Y-107831905D01*
X156189048Y-107927143D01*
X156141429Y-107974762D01*
X156046191Y-108022381D01*
X155760476Y-108022381D01*
X155665238Y-107974762D01*
X155617619Y-107927143D01*
X139054762Y-96331905D02*
X139102381Y-96189048D01*
X139102381Y-95950952D01*
X139054762Y-95855714D01*
X139007143Y-95808095D01*
X138911905Y-95760476D01*
X138816667Y-95760476D01*
X138721429Y-95808095D01*
X138673810Y-95855714D01*
X138626190Y-95950952D01*
X138578571Y-96141429D01*
X138530952Y-96236667D01*
X138483333Y-96284286D01*
X138388095Y-96331905D01*
X138292857Y-96331905D01*
X138197619Y-96284286D01*
X138150000Y-96236667D01*
X138102381Y-96141429D01*
X138102381Y-95903333D01*
X138150000Y-95760476D01*
X139102381Y-94808095D02*
X139102381Y-95379524D01*
X139102381Y-95093810D02*
X138102381Y-95093810D01*
X138245238Y-95189048D01*
X138340476Y-95284286D01*
X138388095Y-95379524D01*
X137906667Y-64022381D02*
X137906667Y-64736667D01*
X137859047Y-64879524D01*
X137763809Y-64974762D01*
X137620952Y-65022381D01*
X137525714Y-65022381D01*
X138859048Y-64022381D02*
X138382857Y-64022381D01*
X138335238Y-64498571D01*
X138382857Y-64450952D01*
X138478095Y-64403333D01*
X138716191Y-64403333D01*
X138811429Y-64450952D01*
X138859048Y-64498571D01*
X138906667Y-64593810D01*
X138906667Y-64831905D01*
X138859048Y-64927143D01*
X138811429Y-64974762D01*
X138716191Y-65022381D01*
X138478095Y-65022381D01*
X138382857Y-64974762D01*
X138335238Y-64927143D01*
X137906667Y-77022381D02*
X137906667Y-77736667D01*
X137859047Y-77879524D01*
X137763809Y-77974762D01*
X137620952Y-78022381D01*
X137525714Y-78022381D01*
X138811429Y-77355714D02*
X138811429Y-78022381D01*
X138573333Y-76974762D02*
X138335238Y-77689048D01*
X138954286Y-77689048D01*
M02*
