G04 #@! TF.FileFunction,Soldermask,Bot*
%FSLAX46Y46*%
G04 Gerber Fmt 4.6, Leading zero omitted, Abs format (unit mm)*
G04 Created by KiCad (PCBNEW 4.0.6) date Thu Jun  8 14:30:20 2017*
%MOMM*%
%LPD*%
G01*
G04 APERTURE LIST*
%ADD10C,0.100000*%
%ADD11C,1.900000*%
%ADD12O,8.035000X8.035000*%
%ADD13C,2.924000*%
%ADD14C,3.400000*%
%ADD15O,4.400000X2.400000*%
%ADD16O,2.940000X4.400000*%
%ADD17C,1.600000*%
G04 APERTURE END LIST*
D10*
D11*
X133350000Y-110070000D03*
X133350000Y-112570000D03*
X133350000Y-115070000D03*
X135850000Y-110070000D03*
X135850000Y-112570000D03*
X135850000Y-115070000D03*
X140850000Y-110070000D03*
X140850000Y-112570000D03*
X140850000Y-115070000D03*
X143350000Y-110070000D03*
X143350000Y-112570000D03*
X143350000Y-115070000D03*
D12*
X134350000Y-122570000D03*
X167350000Y-122570000D03*
X167350000Y-52570000D03*
X134350000Y-52570000D03*
D13*
X165525000Y-60070000D03*
X165520000Y-72770000D03*
X159170000Y-60070000D03*
X159170000Y-72770000D03*
X152820000Y-60070000D03*
X152820000Y-72770000D03*
X168680000Y-61340000D03*
X168690000Y-74040000D03*
X162350000Y-61340000D03*
X162340000Y-74040000D03*
X155990000Y-61330000D03*
X156000000Y-74040000D03*
X171570000Y-62610000D03*
X165525000Y-78070000D03*
X165520000Y-90770000D03*
X159170000Y-78070000D03*
X159170000Y-90770000D03*
X152820000Y-78070000D03*
X152820000Y-90770000D03*
X168680000Y-79340000D03*
X168690000Y-92040000D03*
X162350000Y-79340000D03*
X162340000Y-92040000D03*
X155990000Y-79330000D03*
X156000000Y-92040000D03*
X171570000Y-80610000D03*
X165525000Y-100070000D03*
X165520000Y-112770000D03*
X159170000Y-100070000D03*
X159170000Y-112770000D03*
X152820000Y-100070000D03*
X152820000Y-112770000D03*
X168680000Y-101340000D03*
X168690000Y-114040000D03*
X162350000Y-101340000D03*
X162340000Y-114040000D03*
X155990000Y-101330000D03*
X156000000Y-114040000D03*
X171570000Y-102610000D03*
D14*
X141050000Y-102770000D03*
X136350000Y-102770000D03*
X131650000Y-102770000D03*
X141050000Y-97970000D03*
X136350000Y-97970000D03*
X131650000Y-97970000D03*
X141050000Y-93170000D03*
X136350000Y-93170000D03*
X131650000Y-93170000D03*
X141050000Y-88370000D03*
X136350000Y-88370000D03*
X131650000Y-88370000D03*
D15*
X137850000Y-69570000D03*
X137850000Y-67070000D03*
X137850000Y-62070000D03*
X137850000Y-59570000D03*
D16*
X132850000Y-64570000D03*
D17*
X132850000Y-59570000D03*
X132850000Y-69570000D03*
X130350000Y-59570000D03*
X130350000Y-69570000D03*
D15*
X137850000Y-82570000D03*
X137850000Y-80070000D03*
X137850000Y-75070000D03*
X137850000Y-72570000D03*
D16*
X132850000Y-77570000D03*
D17*
X132850000Y-72570000D03*
X132850000Y-82570000D03*
X130350000Y-72570000D03*
X130350000Y-82570000D03*
M02*
