G04 #@! TF.FileFunction,Legend,Bot*
%FSLAX46Y46*%
G04 Gerber Fmt 4.6, Leading zero omitted, Abs format (unit mm)*
G04 Created by KiCad (PCBNEW 4.0.6) date Thu Apr 27 01:27:43 2017*
%MOMM*%
%LPD*%
G01*
G04 APERTURE LIST*
%ADD10C,0.100000*%
%ADD11C,0.150000*%
G04 APERTURE END LIST*
D10*
D11*
X171700000Y-65020000D02*
G75*
G03X172230000Y-64270000I-110000J640000D01*
G01*
X171700000Y-83020000D02*
G75*
G03X172230000Y-82270000I-110000J640000D01*
G01*
X171700000Y-105020000D02*
G75*
G03X172230000Y-104270000I-110000J640000D01*
G01*
X170508928Y-65457143D02*
X170562499Y-65504762D01*
X170711309Y-65552381D01*
X170806547Y-65552381D01*
X170943452Y-65504762D01*
X171026785Y-65409524D01*
X171062500Y-65314286D01*
X171086309Y-65123810D01*
X171068452Y-64980952D01*
X170997023Y-64790476D01*
X170937500Y-64695238D01*
X170830357Y-64600000D01*
X170681547Y-64552381D01*
X170586309Y-64552381D01*
X170449404Y-64600000D01*
X170407737Y-64647619D01*
X170092262Y-65552381D02*
X169967262Y-64552381D01*
X170026785Y-65028571D02*
X169455356Y-65028571D01*
X169520833Y-65552381D02*
X169395833Y-64552381D01*
X169056547Y-65266667D02*
X168580356Y-65266667D01*
X169187500Y-65552381D02*
X168729167Y-64552381D01*
X168520833Y-65552381D01*
X168229166Y-65504762D02*
X168092262Y-65552381D01*
X167854166Y-65552381D01*
X167752975Y-65504762D01*
X167699404Y-65457143D01*
X167639880Y-65361905D01*
X167627975Y-65266667D01*
X167663690Y-65171429D01*
X167705356Y-65123810D01*
X167794642Y-65076190D01*
X167979166Y-65028571D01*
X168068452Y-64980952D01*
X168110119Y-64933333D01*
X168145833Y-64838095D01*
X168133928Y-64742857D01*
X168074404Y-64647619D01*
X168020833Y-64600000D01*
X167919643Y-64552381D01*
X167681547Y-64552381D01*
X167544642Y-64600000D01*
X167276785Y-65504762D02*
X167139881Y-65552381D01*
X166901785Y-65552381D01*
X166800594Y-65504762D01*
X166747023Y-65457143D01*
X166687499Y-65361905D01*
X166675594Y-65266667D01*
X166711309Y-65171429D01*
X166752975Y-65123810D01*
X166842261Y-65076190D01*
X167026785Y-65028571D01*
X167116071Y-64980952D01*
X167157738Y-64933333D01*
X167193452Y-64838095D01*
X167181547Y-64742857D01*
X167122023Y-64647619D01*
X167068452Y-64600000D01*
X166967262Y-64552381D01*
X166729166Y-64552381D01*
X166592261Y-64600000D01*
X166282738Y-65552381D02*
X166157738Y-64552381D01*
X165848214Y-65504762D02*
X165711310Y-65552381D01*
X165473214Y-65552381D01*
X165372023Y-65504762D01*
X165318452Y-65457143D01*
X165258928Y-65361905D01*
X165247023Y-65266667D01*
X165282738Y-65171429D01*
X165324404Y-65123810D01*
X165413690Y-65076190D01*
X165598214Y-65028571D01*
X165687500Y-64980952D01*
X165729167Y-64933333D01*
X165764881Y-64838095D01*
X165752976Y-64742857D01*
X165693452Y-64647619D01*
X165639881Y-64600000D01*
X165538691Y-64552381D01*
X165300595Y-64552381D01*
X165163690Y-64600000D01*
X163449404Y-64600000D02*
X163538690Y-64552381D01*
X163681547Y-64552381D01*
X163830357Y-64600000D01*
X163937500Y-64695238D01*
X163997023Y-64790476D01*
X164068452Y-64980952D01*
X164086309Y-65123810D01*
X164062500Y-65314286D01*
X164026785Y-65409524D01*
X163943452Y-65504762D01*
X163806547Y-65552381D01*
X163711309Y-65552381D01*
X163562499Y-65504762D01*
X163508928Y-65457143D01*
X163467261Y-65123810D01*
X163657737Y-65123810D01*
X163092262Y-65552381D02*
X162967262Y-64552381D01*
X162520833Y-65552381D01*
X162395833Y-64552381D01*
X162044643Y-65552381D02*
X161919643Y-64552381D01*
X161681548Y-64552381D01*
X161544642Y-64600000D01*
X161461309Y-64695238D01*
X161425594Y-64790476D01*
X161401785Y-64980952D01*
X161419642Y-65123810D01*
X161491071Y-65314286D01*
X161550594Y-65409524D01*
X161657737Y-65504762D01*
X161806548Y-65552381D01*
X162044643Y-65552381D01*
X170508928Y-83457143D02*
X170562499Y-83504762D01*
X170711309Y-83552381D01*
X170806547Y-83552381D01*
X170943452Y-83504762D01*
X171026785Y-83409524D01*
X171062500Y-83314286D01*
X171086309Y-83123810D01*
X171068452Y-82980952D01*
X170997023Y-82790476D01*
X170937500Y-82695238D01*
X170830357Y-82600000D01*
X170681547Y-82552381D01*
X170586309Y-82552381D01*
X170449404Y-82600000D01*
X170407737Y-82647619D01*
X170092262Y-83552381D02*
X169967262Y-82552381D01*
X170026785Y-83028571D02*
X169455356Y-83028571D01*
X169520833Y-83552381D02*
X169395833Y-82552381D01*
X169056547Y-83266667D02*
X168580356Y-83266667D01*
X169187500Y-83552381D02*
X168729167Y-82552381D01*
X168520833Y-83552381D01*
X168229166Y-83504762D02*
X168092262Y-83552381D01*
X167854166Y-83552381D01*
X167752975Y-83504762D01*
X167699404Y-83457143D01*
X167639880Y-83361905D01*
X167627975Y-83266667D01*
X167663690Y-83171429D01*
X167705356Y-83123810D01*
X167794642Y-83076190D01*
X167979166Y-83028571D01*
X168068452Y-82980952D01*
X168110119Y-82933333D01*
X168145833Y-82838095D01*
X168133928Y-82742857D01*
X168074404Y-82647619D01*
X168020833Y-82600000D01*
X167919643Y-82552381D01*
X167681547Y-82552381D01*
X167544642Y-82600000D01*
X167276785Y-83504762D02*
X167139881Y-83552381D01*
X166901785Y-83552381D01*
X166800594Y-83504762D01*
X166747023Y-83457143D01*
X166687499Y-83361905D01*
X166675594Y-83266667D01*
X166711309Y-83171429D01*
X166752975Y-83123810D01*
X166842261Y-83076190D01*
X167026785Y-83028571D01*
X167116071Y-82980952D01*
X167157738Y-82933333D01*
X167193452Y-82838095D01*
X167181547Y-82742857D01*
X167122023Y-82647619D01*
X167068452Y-82600000D01*
X166967262Y-82552381D01*
X166729166Y-82552381D01*
X166592261Y-82600000D01*
X166282738Y-83552381D02*
X166157738Y-82552381D01*
X165848214Y-83504762D02*
X165711310Y-83552381D01*
X165473214Y-83552381D01*
X165372023Y-83504762D01*
X165318452Y-83457143D01*
X165258928Y-83361905D01*
X165247023Y-83266667D01*
X165282738Y-83171429D01*
X165324404Y-83123810D01*
X165413690Y-83076190D01*
X165598214Y-83028571D01*
X165687500Y-82980952D01*
X165729167Y-82933333D01*
X165764881Y-82838095D01*
X165752976Y-82742857D01*
X165693452Y-82647619D01*
X165639881Y-82600000D01*
X165538691Y-82552381D01*
X165300595Y-82552381D01*
X165163690Y-82600000D01*
X163449404Y-82600000D02*
X163538690Y-82552381D01*
X163681547Y-82552381D01*
X163830357Y-82600000D01*
X163937500Y-82695238D01*
X163997023Y-82790476D01*
X164068452Y-82980952D01*
X164086309Y-83123810D01*
X164062500Y-83314286D01*
X164026785Y-83409524D01*
X163943452Y-83504762D01*
X163806547Y-83552381D01*
X163711309Y-83552381D01*
X163562499Y-83504762D01*
X163508928Y-83457143D01*
X163467261Y-83123810D01*
X163657737Y-83123810D01*
X163092262Y-83552381D02*
X162967262Y-82552381D01*
X162520833Y-83552381D01*
X162395833Y-82552381D01*
X162044643Y-83552381D02*
X161919643Y-82552381D01*
X161681548Y-82552381D01*
X161544642Y-82600000D01*
X161461309Y-82695238D01*
X161425594Y-82790476D01*
X161401785Y-82980952D01*
X161419642Y-83123810D01*
X161491071Y-83314286D01*
X161550594Y-83409524D01*
X161657737Y-83504762D01*
X161806548Y-83552381D01*
X162044643Y-83552381D01*
X170508928Y-105457143D02*
X170562499Y-105504762D01*
X170711309Y-105552381D01*
X170806547Y-105552381D01*
X170943452Y-105504762D01*
X171026785Y-105409524D01*
X171062500Y-105314286D01*
X171086309Y-105123810D01*
X171068452Y-104980952D01*
X170997023Y-104790476D01*
X170937500Y-104695238D01*
X170830357Y-104600000D01*
X170681547Y-104552381D01*
X170586309Y-104552381D01*
X170449404Y-104600000D01*
X170407737Y-104647619D01*
X170092262Y-105552381D02*
X169967262Y-104552381D01*
X170026785Y-105028571D02*
X169455356Y-105028571D01*
X169520833Y-105552381D02*
X169395833Y-104552381D01*
X169056547Y-105266667D02*
X168580356Y-105266667D01*
X169187500Y-105552381D02*
X168729167Y-104552381D01*
X168520833Y-105552381D01*
X168229166Y-105504762D02*
X168092262Y-105552381D01*
X167854166Y-105552381D01*
X167752975Y-105504762D01*
X167699404Y-105457143D01*
X167639880Y-105361905D01*
X167627975Y-105266667D01*
X167663690Y-105171429D01*
X167705356Y-105123810D01*
X167794642Y-105076190D01*
X167979166Y-105028571D01*
X168068452Y-104980952D01*
X168110119Y-104933333D01*
X168145833Y-104838095D01*
X168133928Y-104742857D01*
X168074404Y-104647619D01*
X168020833Y-104600000D01*
X167919643Y-104552381D01*
X167681547Y-104552381D01*
X167544642Y-104600000D01*
X167276785Y-105504762D02*
X167139881Y-105552381D01*
X166901785Y-105552381D01*
X166800594Y-105504762D01*
X166747023Y-105457143D01*
X166687499Y-105361905D01*
X166675594Y-105266667D01*
X166711309Y-105171429D01*
X166752975Y-105123810D01*
X166842261Y-105076190D01*
X167026785Y-105028571D01*
X167116071Y-104980952D01*
X167157738Y-104933333D01*
X167193452Y-104838095D01*
X167181547Y-104742857D01*
X167122023Y-104647619D01*
X167068452Y-104600000D01*
X166967262Y-104552381D01*
X166729166Y-104552381D01*
X166592261Y-104600000D01*
X166282738Y-105552381D02*
X166157738Y-104552381D01*
X165848214Y-105504762D02*
X165711310Y-105552381D01*
X165473214Y-105552381D01*
X165372023Y-105504762D01*
X165318452Y-105457143D01*
X165258928Y-105361905D01*
X165247023Y-105266667D01*
X165282738Y-105171429D01*
X165324404Y-105123810D01*
X165413690Y-105076190D01*
X165598214Y-105028571D01*
X165687500Y-104980952D01*
X165729167Y-104933333D01*
X165764881Y-104838095D01*
X165752976Y-104742857D01*
X165693452Y-104647619D01*
X165639881Y-104600000D01*
X165538691Y-104552381D01*
X165300595Y-104552381D01*
X165163690Y-104600000D01*
X163449404Y-104600000D02*
X163538690Y-104552381D01*
X163681547Y-104552381D01*
X163830357Y-104600000D01*
X163937500Y-104695238D01*
X163997023Y-104790476D01*
X164068452Y-104980952D01*
X164086309Y-105123810D01*
X164062500Y-105314286D01*
X164026785Y-105409524D01*
X163943452Y-105504762D01*
X163806547Y-105552381D01*
X163711309Y-105552381D01*
X163562499Y-105504762D01*
X163508928Y-105457143D01*
X163467261Y-105123810D01*
X163657737Y-105123810D01*
X163092262Y-105552381D02*
X162967262Y-104552381D01*
X162520833Y-105552381D01*
X162395833Y-104552381D01*
X162044643Y-105552381D02*
X161919643Y-104552381D01*
X161681548Y-104552381D01*
X161544642Y-104600000D01*
X161461309Y-104695238D01*
X161425594Y-104790476D01*
X161401785Y-104980952D01*
X161419642Y-105123810D01*
X161491071Y-105314286D01*
X161550594Y-105409524D01*
X161657737Y-105504762D01*
X161806548Y-105552381D01*
X162044643Y-105552381D01*
M02*
