G04 #@! TF.FileFunction,Legend,Top*
%FSLAX46Y46*%
G04 Gerber Fmt 4.6, Leading zero omitted, Abs format (unit mm)*
G04 Created by KiCad (PCBNEW 4.0.6) date Thu Jun  8 14:30:20 2017*
%MOMM*%
%LPD*%
G01*
G04 APERTURE LIST*
%ADD10C,0.100000*%
%ADD11C,0.200000*%
%ADD12C,0.275000*%
%ADD13C,0.300000*%
%ADD14C,0.150000*%
%ADD15C,0.120000*%
G04 APERTURE END LIST*
D10*
D11*
X147388095Y-124931905D02*
X147388095Y-124398571D01*
X147388095Y-124550952D02*
X147426190Y-124474762D01*
X147464286Y-124436667D01*
X147540476Y-124398571D01*
X147616667Y-124398571D01*
X148188095Y-124893810D02*
X148111905Y-124931905D01*
X147959524Y-124931905D01*
X147883333Y-124893810D01*
X147845238Y-124817619D01*
X147845238Y-124512857D01*
X147883333Y-124436667D01*
X147959524Y-124398571D01*
X148111905Y-124398571D01*
X148188095Y-124436667D01*
X148226190Y-124512857D01*
X148226190Y-124589048D01*
X147845238Y-124665238D01*
X148492857Y-124398571D02*
X148683333Y-124931905D01*
X148873809Y-124398571D01*
X150207143Y-124931905D02*
X149750000Y-124931905D01*
X149978571Y-124931905D02*
X149978571Y-124131905D01*
X149902381Y-124246190D01*
X149826190Y-124322381D01*
X149750000Y-124360476D01*
X150550000Y-124855714D02*
X150588095Y-124893810D01*
X150550000Y-124931905D01*
X150511905Y-124893810D01*
X150550000Y-124855714D01*
X150550000Y-124931905D01*
X151083333Y-124131905D02*
X151159524Y-124131905D01*
X151235714Y-124170000D01*
X151273809Y-124208095D01*
X151311905Y-124284286D01*
X151350000Y-124436667D01*
X151350000Y-124627143D01*
X151311905Y-124779524D01*
X151273809Y-124855714D01*
X151235714Y-124893810D01*
X151159524Y-124931905D01*
X151083333Y-124931905D01*
X151007143Y-124893810D01*
X150969047Y-124855714D01*
X150930952Y-124779524D01*
X150892857Y-124627143D01*
X150892857Y-124436667D01*
X150930952Y-124284286D01*
X150969047Y-124208095D01*
X151007143Y-124170000D01*
X151083333Y-124131905D01*
D12*
X141633335Y-123567619D02*
X141633335Y-122467619D01*
X141633335Y-122886667D02*
X141738097Y-122834286D01*
X141947620Y-122834286D01*
X142052382Y-122886667D01*
X142104763Y-122939048D01*
X142157144Y-123043810D01*
X142157144Y-123358095D01*
X142104763Y-123462857D01*
X142052382Y-123515238D01*
X141947620Y-123567619D01*
X141738097Y-123567619D01*
X141633335Y-123515238D01*
X142523811Y-122834286D02*
X142785716Y-123567619D01*
X143047620Y-122834286D02*
X142785716Y-123567619D01*
X142680954Y-123829524D01*
X142628573Y-123881905D01*
X142523811Y-123934286D01*
X144252382Y-123515238D02*
X144357144Y-123567619D01*
X144566668Y-123567619D01*
X144671429Y-123515238D01*
X144723810Y-123410476D01*
X144723810Y-123358095D01*
X144671429Y-123253333D01*
X144566668Y-123200952D01*
X144409525Y-123200952D01*
X144304763Y-123148571D01*
X144252382Y-123043810D01*
X144252382Y-122991429D01*
X144304763Y-122886667D01*
X144409525Y-122834286D01*
X144566668Y-122834286D01*
X144671429Y-122886667D01*
X145038096Y-122834286D02*
X145457144Y-122834286D01*
X145195239Y-122467619D02*
X145195239Y-123410476D01*
X145247620Y-123515238D01*
X145352382Y-123567619D01*
X145457144Y-123567619D01*
X146295238Y-123567619D02*
X146295238Y-122991429D01*
X146242857Y-122886667D01*
X146138095Y-122834286D01*
X145928572Y-122834286D01*
X145823810Y-122886667D01*
X146295238Y-123515238D02*
X146190476Y-123567619D01*
X145928572Y-123567619D01*
X145823810Y-123515238D01*
X145771429Y-123410476D01*
X145771429Y-123305714D01*
X145823810Y-123200952D01*
X145928572Y-123148571D01*
X146190476Y-123148571D01*
X146295238Y-123096190D01*
X146819048Y-123567619D02*
X146819048Y-122467619D01*
X147290476Y-123567619D02*
X147290476Y-122991429D01*
X147238095Y-122886667D01*
X147133333Y-122834286D01*
X146976191Y-122834286D01*
X146871429Y-122886667D01*
X146819048Y-122939048D01*
X147971429Y-123567619D02*
X147866667Y-123515238D01*
X147814286Y-123410476D01*
X147814286Y-122467619D01*
D13*
X142164286Y-120762857D02*
X142378572Y-120834286D01*
X142450000Y-120905714D01*
X142521429Y-121048571D01*
X142521429Y-121262857D01*
X142450000Y-121405714D01*
X142378572Y-121477143D01*
X142235714Y-121548571D01*
X141664286Y-121548571D01*
X141664286Y-120048571D01*
X142164286Y-120048571D01*
X142307143Y-120120000D01*
X142378572Y-120191429D01*
X142450000Y-120334286D01*
X142450000Y-120477143D01*
X142378572Y-120620000D01*
X142307143Y-120691429D01*
X142164286Y-120762857D01*
X141664286Y-120762857D01*
X143164286Y-121548571D02*
X143164286Y-120548571D01*
X143164286Y-120048571D02*
X143092857Y-120120000D01*
X143164286Y-120191429D01*
X143235714Y-120120000D01*
X143164286Y-120048571D01*
X143164286Y-120191429D01*
X144521429Y-120548571D02*
X144521429Y-121762857D01*
X144450000Y-121905714D01*
X144378572Y-121977143D01*
X144235715Y-122048571D01*
X144021429Y-122048571D01*
X143878572Y-121977143D01*
X144521429Y-121477143D02*
X144378572Y-121548571D01*
X144092858Y-121548571D01*
X143950000Y-121477143D01*
X143878572Y-121405714D01*
X143807143Y-121262857D01*
X143807143Y-120834286D01*
X143878572Y-120691429D01*
X143950000Y-120620000D01*
X144092858Y-120548571D01*
X144378572Y-120548571D01*
X144521429Y-120620000D01*
X146378572Y-121548571D02*
X146378572Y-120048571D01*
X147235715Y-121548571D02*
X146592858Y-120691429D01*
X147235715Y-120048571D02*
X146378572Y-120905714D01*
X147878572Y-120548571D02*
X147878572Y-121548571D01*
X147878572Y-120691429D02*
X147950000Y-120620000D01*
X148092858Y-120548571D01*
X148307143Y-120548571D01*
X148450000Y-120620000D01*
X148521429Y-120762857D01*
X148521429Y-121548571D01*
X149450001Y-121548571D02*
X149307143Y-121477143D01*
X149235715Y-121405714D01*
X149164286Y-121262857D01*
X149164286Y-120834286D01*
X149235715Y-120691429D01*
X149307143Y-120620000D01*
X149450001Y-120548571D01*
X149664286Y-120548571D01*
X149807143Y-120620000D01*
X149878572Y-120691429D01*
X149950001Y-120834286D01*
X149950001Y-121262857D01*
X149878572Y-121405714D01*
X149807143Y-121477143D01*
X149664286Y-121548571D01*
X149450001Y-121548571D01*
X150592858Y-121548571D02*
X150592858Y-120048571D01*
X150592858Y-120620000D02*
X150735715Y-120548571D01*
X151021429Y-120548571D01*
X151164286Y-120620000D01*
X151235715Y-120691429D01*
X151307144Y-120834286D01*
X151307144Y-121262857D01*
X151235715Y-121405714D01*
X151164286Y-121477143D01*
X151021429Y-121548571D01*
X150735715Y-121548571D01*
X150592858Y-121477143D01*
D14*
X145550000Y-117320000D02*
X145550000Y-107820000D01*
X145550000Y-107820000D02*
X145350000Y-107820000D01*
X128350000Y-107820000D02*
X145350000Y-107820000D01*
X128350000Y-117320000D02*
X145550000Y-117320000D01*
D15*
X136636000Y-122570000D02*
G75*
G03X136636000Y-122570000I-2286000J0D01*
G01*
X169636000Y-122570000D02*
G75*
G03X169636000Y-122570000I-2286000J0D01*
G01*
X169636000Y-52570000D02*
G75*
G03X169636000Y-52570000I-2286000J0D01*
G01*
X136636000Y-52570000D02*
G75*
G03X136636000Y-52570000I-2286000J0D01*
G01*
D14*
X148550000Y-76270000D02*
X173350000Y-76270000D01*
X148550000Y-58270000D02*
X173250000Y-58270000D01*
X148550000Y-58270000D02*
X148550000Y-76270000D01*
X148550000Y-94270000D02*
X173350000Y-94270000D01*
X148550000Y-76270000D02*
X173250000Y-76270000D01*
X148550000Y-76270000D02*
X148550000Y-94270000D01*
X148550000Y-116270000D02*
X173350000Y-116270000D01*
X148550000Y-98270000D02*
X173250000Y-98270000D01*
X148550000Y-98270000D02*
X148550000Y-116270000D01*
X129650000Y-106770000D02*
X143150000Y-106770000D01*
X143150000Y-106770000D02*
X143150000Y-106670000D01*
X129650000Y-84270000D02*
X129650000Y-84470000D01*
X143150000Y-84270000D02*
X129650000Y-84270000D01*
X143150000Y-106620000D02*
X143150000Y-84320000D01*
X129650000Y-106720000D02*
X129650000Y-84420000D01*
X129450000Y-70870000D02*
X129050000Y-70870000D01*
X129050000Y-70870000D02*
X129050000Y-69370000D01*
X129050000Y-69370000D02*
X128350000Y-69370000D01*
X129350000Y-58270000D02*
X129050000Y-58270000D01*
X129050000Y-58270000D02*
X129050000Y-59770000D01*
X129050000Y-59770000D02*
X128350000Y-59770000D01*
X129350000Y-58270000D02*
X140550000Y-58270000D01*
X140550000Y-58370000D02*
X140550000Y-70870000D01*
X140550000Y-70870000D02*
X129350000Y-70870000D01*
X129450000Y-83870000D02*
X129050000Y-83870000D01*
X129050000Y-83870000D02*
X129050000Y-82370000D01*
X129050000Y-82370000D02*
X128350000Y-82370000D01*
X129350000Y-71270000D02*
X129050000Y-71270000D01*
X129050000Y-71270000D02*
X129050000Y-72770000D01*
X129050000Y-72770000D02*
X128350000Y-72770000D01*
X129350000Y-71270000D02*
X140550000Y-71270000D01*
X140550000Y-71370000D02*
X140550000Y-83870000D01*
X140550000Y-83870000D02*
X129350000Y-83870000D01*
X130723334Y-113022381D02*
X130390000Y-112546190D01*
X130151905Y-113022381D02*
X130151905Y-112022381D01*
X130532858Y-112022381D01*
X130628096Y-112070000D01*
X130675715Y-112117619D01*
X130723334Y-112212857D01*
X130723334Y-112355714D01*
X130675715Y-112450952D01*
X130628096Y-112498571D01*
X130532858Y-112546190D01*
X130151905Y-112546190D01*
X131675715Y-113022381D02*
X131104286Y-113022381D01*
X131390000Y-113022381D02*
X131390000Y-112022381D01*
X131294762Y-112165238D01*
X131199524Y-112260476D01*
X131104286Y-112308095D01*
X155236667Y-67022381D02*
X155236667Y-67736667D01*
X155189047Y-67879524D01*
X155093809Y-67974762D01*
X154950952Y-68022381D01*
X154855714Y-68022381D01*
X156236667Y-68022381D02*
X155665238Y-68022381D01*
X155950952Y-68022381D02*
X155950952Y-67022381D01*
X155855714Y-67165238D01*
X155760476Y-67260476D01*
X155665238Y-67308095D01*
X155236667Y-85022381D02*
X155236667Y-85736667D01*
X155189047Y-85879524D01*
X155093809Y-85974762D01*
X154950952Y-86022381D01*
X154855714Y-86022381D01*
X155665238Y-85117619D02*
X155712857Y-85070000D01*
X155808095Y-85022381D01*
X156046191Y-85022381D01*
X156141429Y-85070000D01*
X156189048Y-85117619D01*
X156236667Y-85212857D01*
X156236667Y-85308095D01*
X156189048Y-85450952D01*
X155617619Y-86022381D01*
X156236667Y-86022381D01*
X155236667Y-107022381D02*
X155236667Y-107736667D01*
X155189047Y-107879524D01*
X155093809Y-107974762D01*
X154950952Y-108022381D01*
X154855714Y-108022381D01*
X155617619Y-107022381D02*
X156236667Y-107022381D01*
X155903333Y-107403333D01*
X156046191Y-107403333D01*
X156141429Y-107450952D01*
X156189048Y-107498571D01*
X156236667Y-107593810D01*
X156236667Y-107831905D01*
X156189048Y-107927143D01*
X156141429Y-107974762D01*
X156046191Y-108022381D01*
X155760476Y-108022381D01*
X155665238Y-107974762D01*
X155617619Y-107927143D01*
X139054762Y-96331905D02*
X139102381Y-96189048D01*
X139102381Y-95950952D01*
X139054762Y-95855714D01*
X139007143Y-95808095D01*
X138911905Y-95760476D01*
X138816667Y-95760476D01*
X138721429Y-95808095D01*
X138673810Y-95855714D01*
X138626190Y-95950952D01*
X138578571Y-96141429D01*
X138530952Y-96236667D01*
X138483333Y-96284286D01*
X138388095Y-96331905D01*
X138292857Y-96331905D01*
X138197619Y-96284286D01*
X138150000Y-96236667D01*
X138102381Y-96141429D01*
X138102381Y-95903333D01*
X138150000Y-95760476D01*
X139102381Y-94808095D02*
X139102381Y-95379524D01*
X139102381Y-95093810D02*
X138102381Y-95093810D01*
X138245238Y-95189048D01*
X138340476Y-95284286D01*
X138388095Y-95379524D01*
X137906667Y-64022381D02*
X137906667Y-64736667D01*
X137859047Y-64879524D01*
X137763809Y-64974762D01*
X137620952Y-65022381D01*
X137525714Y-65022381D01*
X138859048Y-64022381D02*
X138382857Y-64022381D01*
X138335238Y-64498571D01*
X138382857Y-64450952D01*
X138478095Y-64403333D01*
X138716191Y-64403333D01*
X138811429Y-64450952D01*
X138859048Y-64498571D01*
X138906667Y-64593810D01*
X138906667Y-64831905D01*
X138859048Y-64927143D01*
X138811429Y-64974762D01*
X138716191Y-65022381D01*
X138478095Y-65022381D01*
X138382857Y-64974762D01*
X138335238Y-64927143D01*
X137906667Y-77022381D02*
X137906667Y-77736667D01*
X137859047Y-77879524D01*
X137763809Y-77974762D01*
X137620952Y-78022381D01*
X137525714Y-78022381D01*
X138811429Y-77355714D02*
X138811429Y-78022381D01*
X138573333Y-76974762D02*
X138335238Y-77689048D01*
X138954286Y-77689048D01*
M02*
