G04 #@! TF.FileFunction,Copper,L1,Top,Signal*
%FSLAX46Y46*%
G04 Gerber Fmt 4.6, Leading zero omitted, Abs format (unit mm)*
G04 Created by KiCad (PCBNEW 4.0.6) date Thu Apr 27 01:27:43 2017*
%MOMM*%
%LPD*%
G01*
G04 APERTURE LIST*
%ADD10C,0.100000*%
%ADD11C,1.500000*%
%ADD12C,2.524000*%
%ADD13C,3.000000*%
%ADD14O,4.000000X2.000000*%
%ADD15O,2.540000X4.000000*%
%ADD16C,0.600000*%
%ADD17C,0.500000*%
%ADD18C,0.254000*%
G04 APERTURE END LIST*
D10*
D11*
X133350000Y-110070000D03*
X133350000Y-112570000D03*
X133350000Y-115070000D03*
X135850000Y-110070000D03*
X135850000Y-112570000D03*
X135850000Y-115070000D03*
X140850000Y-110070000D03*
X140850000Y-112570000D03*
X140850000Y-115070000D03*
X143350000Y-110070000D03*
X143350000Y-112570000D03*
X143350000Y-115070000D03*
D12*
X165525000Y-60070000D03*
X165520000Y-72770000D03*
X159170000Y-60070000D03*
X159170000Y-72770000D03*
X152820000Y-60070000D03*
X152820000Y-72770000D03*
X168680000Y-61340000D03*
X168690000Y-74040000D03*
X162350000Y-61340000D03*
X162340000Y-74040000D03*
X155990000Y-61330000D03*
X156000000Y-74040000D03*
X171570000Y-62610000D03*
X165525000Y-78070000D03*
X165520000Y-90770000D03*
X159170000Y-78070000D03*
X159170000Y-90770000D03*
X152820000Y-78070000D03*
X152820000Y-90770000D03*
X168680000Y-79340000D03*
X168690000Y-92040000D03*
X162350000Y-79340000D03*
X162340000Y-92040000D03*
X155990000Y-79330000D03*
X156000000Y-92040000D03*
X171570000Y-80610000D03*
X165525000Y-100070000D03*
X165520000Y-112770000D03*
X159170000Y-100070000D03*
X159170000Y-112770000D03*
X152820000Y-100070000D03*
X152820000Y-112770000D03*
X168680000Y-101340000D03*
X168690000Y-114040000D03*
X162350000Y-101340000D03*
X162340000Y-114040000D03*
X155990000Y-101330000D03*
X156000000Y-114040000D03*
X171570000Y-102610000D03*
D13*
X141050000Y-102770000D03*
X136350000Y-102770000D03*
X131650000Y-102770000D03*
X141050000Y-97970000D03*
X136350000Y-97970000D03*
X131650000Y-97970000D03*
X141050000Y-93170000D03*
X136350000Y-93170000D03*
X131650000Y-93170000D03*
X141050000Y-88370000D03*
X136350000Y-88370000D03*
X131650000Y-88370000D03*
D14*
X137850000Y-69570000D03*
X137850000Y-67070000D03*
X137850000Y-62070000D03*
X137850000Y-59570000D03*
D15*
X132850000Y-64570000D03*
D14*
X137850000Y-82570000D03*
X137850000Y-80070000D03*
X137850000Y-75070000D03*
X137850000Y-72570000D03*
D15*
X132850000Y-77570000D03*
D11*
X153350000Y-64570000D03*
X145850000Y-84070000D03*
X154850000Y-82070000D03*
X149750000Y-87170000D03*
D16*
X134050000Y-104060000D03*
D11*
X144350000Y-97570000D03*
D17*
X147350000Y-63070000D02*
X150350000Y-60070000D01*
X150350000Y-60070000D02*
X152820000Y-60070000D01*
X153010160Y-59963647D02*
X152820000Y-60070000D01*
X131650000Y-102770000D02*
X131650000Y-103370000D01*
X131650000Y-103370000D02*
X133850000Y-105570000D01*
X133850000Y-105570000D02*
X143350000Y-105570000D01*
X143350000Y-105570000D02*
X147350000Y-102070000D01*
X147350000Y-102070000D02*
X147350000Y-63070000D01*
X147350000Y-63070000D02*
X143850000Y-59570000D01*
X143850000Y-59570000D02*
X137850000Y-59570000D01*
X153350000Y-64570000D02*
X158850000Y-64570000D01*
X158850000Y-64570000D02*
X162080000Y-61340000D01*
X162080000Y-61340000D02*
X162350000Y-61340000D01*
X137850000Y-72570000D02*
X141850000Y-72570000D01*
X145850000Y-97970000D02*
X141050000Y-102770000D01*
X145850000Y-76570000D02*
X145850000Y-84070000D01*
X145850000Y-84070000D02*
X145850000Y-97970000D01*
X141850000Y-72570000D02*
X145850000Y-76570000D01*
X141050000Y-102770000D02*
X141650000Y-102770000D01*
X159850000Y-82070000D02*
X162350000Y-79570000D01*
X154850000Y-82070000D02*
X159850000Y-82070000D01*
X162350000Y-79570000D02*
X162350000Y-79340000D01*
X162350000Y-79570000D02*
X162350000Y-79340000D01*
X155990000Y-79330000D02*
X155990000Y-78430000D01*
X155990000Y-78430000D02*
X149750000Y-84670000D01*
X149750000Y-84670000D02*
X149750000Y-87170000D01*
X141050000Y-93170000D02*
X140450000Y-93170000D01*
X140450000Y-93170000D02*
X137850000Y-90570000D01*
X137850000Y-90570000D02*
X134850000Y-90570000D01*
X134850000Y-90570000D02*
X133850000Y-89570000D01*
X133850000Y-89570000D02*
X133850000Y-84070000D01*
X133850000Y-84070000D02*
X134850000Y-83070000D01*
X134850000Y-83070000D02*
X134850000Y-78070000D01*
X134850000Y-78070000D02*
X137850000Y-75070000D01*
X135850000Y-115070000D02*
X136850000Y-115070000D01*
X159170000Y-101750000D02*
X159170000Y-100070000D01*
X157350000Y-103570000D02*
X159170000Y-101750000D01*
X153850000Y-103570000D02*
X157350000Y-103570000D01*
X149350000Y-108070000D02*
X153850000Y-103570000D01*
X139350000Y-108070000D02*
X149350000Y-108070000D01*
X138350000Y-109070000D02*
X139350000Y-108070000D01*
X138350000Y-113570000D02*
X138350000Y-109070000D01*
X136850000Y-115070000D02*
X138350000Y-113570000D01*
X133350000Y-115070000D02*
X131850000Y-115070000D01*
X146342222Y-107092222D02*
X153342222Y-100092222D01*
X133350000Y-107070000D02*
X146342222Y-107092222D01*
X130850000Y-109570000D02*
X133350000Y-107070000D01*
X130850000Y-114070000D02*
X130850000Y-109570000D01*
X131850000Y-115070000D02*
X130850000Y-114070000D01*
X143350000Y-115070000D02*
X145850000Y-115070000D01*
X158620000Y-105070000D02*
X162350000Y-101340000D01*
X155850000Y-105070000D02*
X158620000Y-105070000D01*
X145850000Y-115070000D02*
X155850000Y-105070000D01*
X134020000Y-100300000D02*
X134020000Y-104030000D01*
X134020000Y-104030000D02*
X134050000Y-104060000D01*
X136350000Y-97970000D02*
X134020000Y-100300000D01*
X136350000Y-88370000D02*
X136350000Y-87570000D01*
X136350000Y-87570000D02*
X138850000Y-85070000D01*
X138850000Y-85070000D02*
X142350000Y-85070000D01*
X142350000Y-85070000D02*
X144350000Y-87070000D01*
X144350000Y-87070000D02*
X144350000Y-97570000D01*
D18*
G36*
X132618409Y-48593161D02*
X131221929Y-49526259D01*
X130288831Y-50922739D01*
X129961170Y-52570000D01*
X130288831Y-54217261D01*
X131221929Y-55613741D01*
X132618409Y-56546839D01*
X134265670Y-56874500D01*
X134434330Y-56874500D01*
X136081591Y-56546839D01*
X137478071Y-55613741D01*
X138411169Y-54217261D01*
X138738830Y-52570000D01*
X138411169Y-50922739D01*
X137478071Y-49526259D01*
X136081591Y-48593161D01*
X134768648Y-48332000D01*
X166931352Y-48332000D01*
X165618409Y-48593161D01*
X164221929Y-49526259D01*
X163288831Y-50922739D01*
X162961170Y-52570000D01*
X163288831Y-54217261D01*
X164221929Y-55613741D01*
X165618409Y-56546839D01*
X167265670Y-56874500D01*
X167434330Y-56874500D01*
X169081591Y-56546839D01*
X170478071Y-55613741D01*
X171411169Y-54217261D01*
X171738830Y-52570000D01*
X171411169Y-50922739D01*
X170478071Y-49526259D01*
X169081591Y-48593161D01*
X167768648Y-48332000D01*
X172588000Y-48332000D01*
X172588000Y-60968712D01*
X171897056Y-60703689D01*
X171142647Y-60723639D01*
X170567661Y-60961806D01*
X170566361Y-60912647D01*
X170316043Y-60308326D01*
X170021994Y-60177611D01*
X168859605Y-61340000D01*
X168873748Y-61354143D01*
X168694143Y-61533748D01*
X168680000Y-61519605D01*
X167517611Y-62681994D01*
X167648326Y-62976043D01*
X168352944Y-63246311D01*
X169107353Y-63226361D01*
X169682339Y-62988194D01*
X169683639Y-63037353D01*
X169933957Y-63641674D01*
X170228006Y-63772389D01*
X171390395Y-62610000D01*
X171376253Y-62595858D01*
X171555858Y-62416253D01*
X171570000Y-62430395D01*
X171584143Y-62416253D01*
X171763748Y-62595858D01*
X171749605Y-62610000D01*
X171763748Y-62624143D01*
X171584143Y-62803748D01*
X171570000Y-62789605D01*
X170407611Y-63951994D01*
X170538326Y-64246043D01*
X171242944Y-64516311D01*
X171997353Y-64496361D01*
X172588000Y-64251707D01*
X172588000Y-78968712D01*
X171897056Y-78703689D01*
X171142647Y-78723639D01*
X170567661Y-78961806D01*
X170566361Y-78912647D01*
X170316043Y-78308326D01*
X170021994Y-78177611D01*
X168859605Y-79340000D01*
X168873748Y-79354143D01*
X168694143Y-79533748D01*
X168680000Y-79519605D01*
X167517611Y-80681994D01*
X167648326Y-80976043D01*
X168352944Y-81246311D01*
X169107353Y-81226361D01*
X169682339Y-80988194D01*
X169683639Y-81037353D01*
X169933957Y-81641674D01*
X170228006Y-81772389D01*
X171390395Y-80610000D01*
X171376253Y-80595858D01*
X171555858Y-80416253D01*
X171570000Y-80430395D01*
X171584143Y-80416253D01*
X171763748Y-80595858D01*
X171749605Y-80610000D01*
X171763748Y-80624143D01*
X171584143Y-80803748D01*
X171570000Y-80789605D01*
X170407611Y-81951994D01*
X170538326Y-82246043D01*
X171242944Y-82516311D01*
X171997353Y-82496361D01*
X172588000Y-82251707D01*
X172588000Y-100968712D01*
X171897056Y-100703689D01*
X171142647Y-100723639D01*
X170567661Y-100961806D01*
X170566361Y-100912647D01*
X170316043Y-100308326D01*
X170021994Y-100177611D01*
X168859605Y-101340000D01*
X168873748Y-101354143D01*
X168694143Y-101533748D01*
X168680000Y-101519605D01*
X167517611Y-102681994D01*
X167648326Y-102976043D01*
X168352944Y-103246311D01*
X169107353Y-103226361D01*
X169682339Y-102988194D01*
X169683639Y-103037353D01*
X169933957Y-103641674D01*
X170228006Y-103772389D01*
X171390395Y-102610000D01*
X171376253Y-102595858D01*
X171555858Y-102416253D01*
X171570000Y-102430395D01*
X171584143Y-102416253D01*
X171763748Y-102595858D01*
X171749605Y-102610000D01*
X171763748Y-102624143D01*
X171584143Y-102803748D01*
X171570000Y-102789605D01*
X170407611Y-103951994D01*
X170538326Y-104246043D01*
X171242944Y-104516311D01*
X171997353Y-104496361D01*
X172588000Y-104251707D01*
X172588000Y-126808000D01*
X167768648Y-126808000D01*
X169081591Y-126546839D01*
X170478071Y-125613741D01*
X171411169Y-124217261D01*
X171738830Y-122570000D01*
X171411169Y-120922739D01*
X170478071Y-119526259D01*
X169081591Y-118593161D01*
X167434330Y-118265500D01*
X167265670Y-118265500D01*
X165618409Y-118593161D01*
X164221929Y-119526259D01*
X163288831Y-120922739D01*
X162961170Y-122570000D01*
X163288831Y-124217261D01*
X164221929Y-125613741D01*
X165618409Y-126546839D01*
X166931352Y-126808000D01*
X134768648Y-126808000D01*
X136081591Y-126546839D01*
X137478071Y-125613741D01*
X138411169Y-124217261D01*
X138738830Y-122570000D01*
X138411169Y-120922739D01*
X137478071Y-119526259D01*
X136081591Y-118593161D01*
X134434330Y-118265500D01*
X134265670Y-118265500D01*
X132618409Y-118593161D01*
X131221929Y-119526259D01*
X130288831Y-120922739D01*
X129961170Y-122570000D01*
X130288831Y-124217261D01*
X131221929Y-125613741D01*
X132618409Y-126546839D01*
X133931352Y-126808000D01*
X129112000Y-126808000D01*
X129112000Y-98392815D01*
X129514630Y-98392815D01*
X129838980Y-99177800D01*
X130439041Y-99778909D01*
X131223459Y-100104628D01*
X132072815Y-100105370D01*
X132857800Y-99781020D01*
X133458909Y-99180959D01*
X133784628Y-98396541D01*
X133785370Y-97547185D01*
X133461020Y-96762200D01*
X132860959Y-96161091D01*
X132076541Y-95835372D01*
X131227185Y-95834630D01*
X130442200Y-96158980D01*
X129841091Y-96759041D01*
X129515372Y-97543459D01*
X129514630Y-98392815D01*
X129112000Y-98392815D01*
X129112000Y-93592815D01*
X129514630Y-93592815D01*
X129838980Y-94377800D01*
X130439041Y-94978909D01*
X131223459Y-95304628D01*
X132072815Y-95305370D01*
X132857800Y-94981020D01*
X133458909Y-94380959D01*
X133784628Y-93596541D01*
X133785370Y-92747185D01*
X133461020Y-91962200D01*
X132860959Y-91361091D01*
X132076541Y-91035372D01*
X131227185Y-91034630D01*
X130442200Y-91358980D01*
X129841091Y-91959041D01*
X129515372Y-92743459D01*
X129514630Y-93592815D01*
X129112000Y-93592815D01*
X129112000Y-88792815D01*
X129514630Y-88792815D01*
X129838980Y-89577800D01*
X130439041Y-90178909D01*
X131223459Y-90504628D01*
X132072815Y-90505370D01*
X132857800Y-90181020D01*
X133071681Y-89967512D01*
X133188718Y-90142672D01*
X133224210Y-90195790D01*
X134224208Y-91195787D01*
X134224210Y-91195790D01*
X134416054Y-91323975D01*
X134511326Y-91387634D01*
X134850000Y-91455001D01*
X134850005Y-91455000D01*
X135046012Y-91455000D01*
X134541091Y-91959041D01*
X134215372Y-92743459D01*
X134214630Y-93592815D01*
X134538980Y-94377800D01*
X135139041Y-94978909D01*
X135923459Y-95304628D01*
X136772815Y-95305370D01*
X137557800Y-94981020D01*
X138158909Y-94380959D01*
X138484628Y-93596541D01*
X138485370Y-92747185D01*
X138281005Y-92252584D01*
X138915247Y-92886826D01*
X138914630Y-93592815D01*
X139238980Y-94377800D01*
X139839041Y-94978909D01*
X140623459Y-95304628D01*
X141472815Y-95305370D01*
X142257800Y-94981020D01*
X142858909Y-94380959D01*
X143184628Y-93596541D01*
X143185370Y-92747185D01*
X142861020Y-91962200D01*
X142260959Y-91361091D01*
X141476541Y-91035372D01*
X140627185Y-91034630D01*
X139876420Y-91344841D01*
X138475790Y-89944210D01*
X138422606Y-89908674D01*
X138188675Y-89752367D01*
X138132484Y-89741190D01*
X138020677Y-89718950D01*
X138158909Y-89580959D01*
X138484628Y-88796541D01*
X138484631Y-88792815D01*
X138914630Y-88792815D01*
X139238980Y-89577800D01*
X139839041Y-90178909D01*
X140623459Y-90504628D01*
X141472815Y-90505370D01*
X142257800Y-90181020D01*
X142858909Y-89580959D01*
X143184628Y-88796541D01*
X143185370Y-87947185D01*
X142861020Y-87162200D01*
X142260959Y-86561091D01*
X141476541Y-86235372D01*
X140627185Y-86234630D01*
X139842200Y-86558980D01*
X139241091Y-87159041D01*
X138915372Y-87943459D01*
X138914630Y-88792815D01*
X138484631Y-88792815D01*
X138485370Y-87947185D01*
X138161020Y-87162200D01*
X138085266Y-87086314D01*
X139216579Y-85955000D01*
X141983420Y-85955000D01*
X143465000Y-87436579D01*
X143465000Y-96496477D01*
X143176539Y-96784436D01*
X143022996Y-97154210D01*
X142861020Y-96762200D01*
X142260959Y-96161091D01*
X141476541Y-95835372D01*
X140627185Y-95834630D01*
X139842200Y-96158980D01*
X139241091Y-96759041D01*
X138915372Y-97543459D01*
X138914630Y-98392815D01*
X139238980Y-99177800D01*
X139839041Y-99778909D01*
X140623459Y-100104628D01*
X141472815Y-100105370D01*
X142257800Y-99781020D01*
X142858909Y-99180959D01*
X143184628Y-98396541D01*
X143184657Y-98363020D01*
X143564436Y-98743461D01*
X143748521Y-98819900D01*
X141799107Y-100769313D01*
X141476541Y-100635372D01*
X140627185Y-100634630D01*
X139842200Y-100958980D01*
X139241091Y-101559041D01*
X138915372Y-102343459D01*
X138914630Y-103192815D01*
X139238980Y-103977800D01*
X139839041Y-104578909D01*
X140094536Y-104685000D01*
X137306150Y-104685000D01*
X137557800Y-104581020D01*
X138158909Y-103980959D01*
X138484628Y-103196541D01*
X138485370Y-102347185D01*
X138161020Y-101562200D01*
X137560959Y-100961091D01*
X136776541Y-100635372D01*
X135927185Y-100634630D01*
X135142200Y-100958980D01*
X134905000Y-101195766D01*
X134905000Y-100666580D01*
X135600893Y-99970687D01*
X135923459Y-100104628D01*
X136772815Y-100105370D01*
X137557800Y-99781020D01*
X138158909Y-99180959D01*
X138484628Y-98396541D01*
X138485370Y-97547185D01*
X138161020Y-96762200D01*
X137560959Y-96161091D01*
X136776541Y-95835372D01*
X135927185Y-95834630D01*
X135142200Y-96158980D01*
X134541091Y-96759041D01*
X134215372Y-97543459D01*
X134214630Y-98392815D01*
X134349411Y-98719009D01*
X133394210Y-99674210D01*
X133202367Y-99961325D01*
X133202367Y-99961326D01*
X133134999Y-100300000D01*
X133135000Y-100300005D01*
X133135000Y-101235611D01*
X132860959Y-100961091D01*
X132076541Y-100635372D01*
X131227185Y-100634630D01*
X130442200Y-100958980D01*
X129841091Y-101559041D01*
X129515372Y-102343459D01*
X129514630Y-103192815D01*
X129838980Y-103977800D01*
X130439041Y-104578909D01*
X131223459Y-104904628D01*
X131933669Y-104905248D01*
X133224208Y-106195787D01*
X133224210Y-106195790D01*
X133240622Y-106206756D01*
X133181207Y-106218575D01*
X133012724Y-106251789D01*
X133012081Y-106252217D01*
X133011326Y-106252367D01*
X132868587Y-106347742D01*
X132725281Y-106443141D01*
X132724851Y-106443783D01*
X132724211Y-106444210D01*
X130224210Y-108944210D01*
X130032367Y-109231325D01*
X130032367Y-109231326D01*
X129964999Y-109570000D01*
X129965000Y-109570005D01*
X129965000Y-114069995D01*
X129964999Y-114070000D01*
X129990021Y-114195790D01*
X130032367Y-114408675D01*
X130204753Y-114666670D01*
X130224210Y-114695790D01*
X131224208Y-115695787D01*
X131224210Y-115695790D01*
X131416054Y-115823975D01*
X131511326Y-115887634D01*
X131850000Y-115955001D01*
X131850005Y-115955000D01*
X132276477Y-115955000D01*
X132564436Y-116243461D01*
X133073298Y-116454759D01*
X133624285Y-116455240D01*
X134133515Y-116244831D01*
X134523461Y-115855564D01*
X134599927Y-115671414D01*
X134675169Y-115853515D01*
X135064436Y-116243461D01*
X135573298Y-116454759D01*
X136124285Y-116455240D01*
X136633515Y-116244831D01*
X136942228Y-115936655D01*
X137132484Y-115898810D01*
X137188675Y-115887633D01*
X137475790Y-115695790D01*
X138975787Y-114195792D01*
X138975790Y-114195790D01*
X139167633Y-113908675D01*
X139235000Y-113570000D01*
X139235000Y-109436580D01*
X139716579Y-108955000D01*
X140006550Y-108955000D01*
X139676539Y-109284436D01*
X139465241Y-109793298D01*
X139464760Y-110344285D01*
X139675169Y-110853515D01*
X140064436Y-111243461D01*
X140248586Y-111319927D01*
X140066485Y-111395169D01*
X139676539Y-111784436D01*
X139465241Y-112293298D01*
X139464760Y-112844285D01*
X139675169Y-113353515D01*
X140064436Y-113743461D01*
X140248586Y-113819927D01*
X140066485Y-113895169D01*
X139676539Y-114284436D01*
X139465241Y-114793298D01*
X139464760Y-115344285D01*
X139675169Y-115853515D01*
X140064436Y-116243461D01*
X140573298Y-116454759D01*
X141124285Y-116455240D01*
X141633515Y-116244831D01*
X142023461Y-115855564D01*
X142099927Y-115671414D01*
X142175169Y-115853515D01*
X142564436Y-116243461D01*
X143073298Y-116454759D01*
X143624285Y-116455240D01*
X144133515Y-116244831D01*
X144423852Y-115955000D01*
X145849995Y-115955000D01*
X145850000Y-115955001D01*
X146132484Y-115898810D01*
X146188675Y-115887633D01*
X146475790Y-115695790D01*
X149025898Y-113145681D01*
X150922672Y-113145681D01*
X151210864Y-113843160D01*
X151744033Y-114377260D01*
X152441008Y-114666670D01*
X153195681Y-114667328D01*
X153893160Y-114379136D01*
X154102886Y-114169775D01*
X154102672Y-114415681D01*
X154390864Y-115113160D01*
X154924033Y-115647260D01*
X155621008Y-115936670D01*
X156375681Y-115937328D01*
X157073160Y-115649136D01*
X157607260Y-115115967D01*
X157896670Y-114418992D01*
X157896879Y-114179761D01*
X158094033Y-114377260D01*
X158791008Y-114666670D01*
X159545681Y-114667328D01*
X160243160Y-114379136D01*
X160442878Y-114179766D01*
X160442672Y-114415681D01*
X160730864Y-115113160D01*
X161264033Y-115647260D01*
X161961008Y-115936670D01*
X162715681Y-115937328D01*
X163413160Y-115649136D01*
X163947260Y-115115967D01*
X164236670Y-114418992D01*
X164236887Y-114169753D01*
X164444033Y-114377260D01*
X165141008Y-114666670D01*
X165895681Y-114667328D01*
X166593160Y-114379136D01*
X166792878Y-114179766D01*
X166792672Y-114415681D01*
X167080864Y-115113160D01*
X167614033Y-115647260D01*
X168311008Y-115936670D01*
X169065681Y-115937328D01*
X169763160Y-115649136D01*
X170297260Y-115115967D01*
X170586670Y-114418992D01*
X170587328Y-113664319D01*
X170299136Y-112966840D01*
X169765967Y-112432740D01*
X169068992Y-112143330D01*
X168314319Y-112142672D01*
X167616840Y-112430864D01*
X167417122Y-112630234D01*
X167417328Y-112394319D01*
X167129136Y-111696840D01*
X166595967Y-111162740D01*
X165898992Y-110873330D01*
X165144319Y-110872672D01*
X164446840Y-111160864D01*
X163912740Y-111694033D01*
X163623330Y-112391008D01*
X163623113Y-112640247D01*
X163415967Y-112432740D01*
X162718992Y-112143330D01*
X161964319Y-112142672D01*
X161266840Y-112430864D01*
X161067122Y-112630234D01*
X161067328Y-112394319D01*
X160779136Y-111696840D01*
X160245967Y-111162740D01*
X159548992Y-110873330D01*
X158794319Y-110872672D01*
X158096840Y-111160864D01*
X157562740Y-111694033D01*
X157273330Y-112391008D01*
X157273121Y-112630239D01*
X157075967Y-112432740D01*
X156378992Y-112143330D01*
X155624319Y-112142672D01*
X154926840Y-112430864D01*
X154717114Y-112640225D01*
X154717328Y-112394319D01*
X154429136Y-111696840D01*
X153895967Y-111162740D01*
X153198992Y-110873330D01*
X152444319Y-110872672D01*
X151746840Y-111160864D01*
X151212740Y-111694033D01*
X150923330Y-112391008D01*
X150922672Y-113145681D01*
X149025898Y-113145681D01*
X156216579Y-105955000D01*
X158619995Y-105955000D01*
X158620000Y-105955001D01*
X158902484Y-105898810D01*
X158958675Y-105887633D01*
X159245790Y-105695790D01*
X159245791Y-105695789D01*
X161782984Y-103158595D01*
X161971008Y-103236670D01*
X162725681Y-103237328D01*
X163423160Y-102949136D01*
X163957260Y-102415967D01*
X164246670Y-101718992D01*
X164246840Y-101523642D01*
X164248903Y-101525705D01*
X164362612Y-101411996D01*
X164493326Y-101706043D01*
X165197944Y-101976311D01*
X165952353Y-101956361D01*
X166556674Y-101706043D01*
X166687388Y-101411996D01*
X166786872Y-101511480D01*
X166793639Y-101767353D01*
X167043957Y-102371674D01*
X167338006Y-102502389D01*
X168500395Y-101340000D01*
X168486253Y-101325858D01*
X168665858Y-101146253D01*
X168680000Y-101160395D01*
X169842389Y-99998006D01*
X169711674Y-99703957D01*
X169007056Y-99433689D01*
X168252647Y-99453639D01*
X167648326Y-99703957D01*
X167517612Y-99998004D01*
X167418128Y-99898520D01*
X167411361Y-99642647D01*
X167161043Y-99038326D01*
X166866994Y-98907611D01*
X165704605Y-100070000D01*
X165718748Y-100084143D01*
X165539143Y-100263748D01*
X165525000Y-100249605D01*
X165510858Y-100263748D01*
X165331253Y-100084143D01*
X165345395Y-100070000D01*
X164183006Y-98907611D01*
X163888957Y-99038326D01*
X163618689Y-99742944D01*
X163623656Y-99930774D01*
X163425967Y-99732740D01*
X162728992Y-99443330D01*
X161974319Y-99442672D01*
X161276840Y-99730864D01*
X161067114Y-99940225D01*
X161067328Y-99694319D01*
X160779136Y-98996840D01*
X160510771Y-98728006D01*
X164362611Y-98728006D01*
X165525000Y-99890395D01*
X166687389Y-98728006D01*
X166556674Y-98433957D01*
X165852056Y-98163689D01*
X165097647Y-98183639D01*
X164493326Y-98433957D01*
X164362611Y-98728006D01*
X160510771Y-98728006D01*
X160245967Y-98462740D01*
X159548992Y-98173330D01*
X158794319Y-98172672D01*
X158096840Y-98460864D01*
X157562740Y-98994033D01*
X157273330Y-99691008D01*
X157273121Y-99930256D01*
X157065967Y-99722740D01*
X156368992Y-99433330D01*
X155614319Y-99432672D01*
X154916840Y-99720864D01*
X154717131Y-99920225D01*
X154717328Y-99694319D01*
X154429136Y-98996840D01*
X153895967Y-98462740D01*
X153198992Y-98173330D01*
X152444319Y-98172672D01*
X151746840Y-98460864D01*
X151212740Y-98994033D01*
X150923330Y-99691008D01*
X150922672Y-100445681D01*
X151160820Y-101022045D01*
X145976270Y-106206594D01*
X143970339Y-106203164D01*
X147932777Y-102736030D01*
X147950972Y-102712373D01*
X147975790Y-102695790D01*
X148055661Y-102576255D01*
X148143294Y-102462312D01*
X148151051Y-102433492D01*
X148167633Y-102408675D01*
X148195676Y-102267693D01*
X148233041Y-102128869D01*
X148229178Y-102099270D01*
X148235000Y-102070000D01*
X148235000Y-91145681D01*
X150922672Y-91145681D01*
X151210864Y-91843160D01*
X151744033Y-92377260D01*
X152441008Y-92666670D01*
X153195681Y-92667328D01*
X153893160Y-92379136D01*
X154102886Y-92169775D01*
X154102672Y-92415681D01*
X154390864Y-93113160D01*
X154924033Y-93647260D01*
X155621008Y-93936670D01*
X156375681Y-93937328D01*
X157073160Y-93649136D01*
X157607260Y-93115967D01*
X157896670Y-92418992D01*
X157896879Y-92179761D01*
X158094033Y-92377260D01*
X158791008Y-92666670D01*
X159545681Y-92667328D01*
X160243160Y-92379136D01*
X160442878Y-92179766D01*
X160442672Y-92415681D01*
X160730864Y-93113160D01*
X161264033Y-93647260D01*
X161961008Y-93936670D01*
X162715681Y-93937328D01*
X163413160Y-93649136D01*
X163947260Y-93115967D01*
X164236670Y-92418992D01*
X164236887Y-92169753D01*
X164444033Y-92377260D01*
X165141008Y-92666670D01*
X165895681Y-92667328D01*
X166593160Y-92379136D01*
X166792878Y-92179766D01*
X166792672Y-92415681D01*
X167080864Y-93113160D01*
X167614033Y-93647260D01*
X168311008Y-93936670D01*
X169065681Y-93937328D01*
X169763160Y-93649136D01*
X170297260Y-93115967D01*
X170586670Y-92418992D01*
X170587328Y-91664319D01*
X170299136Y-90966840D01*
X169765967Y-90432740D01*
X169068992Y-90143330D01*
X168314319Y-90142672D01*
X167616840Y-90430864D01*
X167417122Y-90630234D01*
X167417328Y-90394319D01*
X167129136Y-89696840D01*
X166595967Y-89162740D01*
X165898992Y-88873330D01*
X165144319Y-88872672D01*
X164446840Y-89160864D01*
X163912740Y-89694033D01*
X163623330Y-90391008D01*
X163623113Y-90640247D01*
X163415967Y-90432740D01*
X162718992Y-90143330D01*
X161964319Y-90142672D01*
X161266840Y-90430864D01*
X161067122Y-90630234D01*
X161067328Y-90394319D01*
X160779136Y-89696840D01*
X160245967Y-89162740D01*
X159548992Y-88873330D01*
X158794319Y-88872672D01*
X158096840Y-89160864D01*
X157562740Y-89694033D01*
X157273330Y-90391008D01*
X157273121Y-90630239D01*
X157075967Y-90432740D01*
X156378992Y-90143330D01*
X155624319Y-90142672D01*
X154926840Y-90430864D01*
X154717114Y-90640225D01*
X154717328Y-90394319D01*
X154429136Y-89696840D01*
X153895967Y-89162740D01*
X153198992Y-88873330D01*
X152444319Y-88872672D01*
X151746840Y-89160864D01*
X151212740Y-89694033D01*
X150923330Y-90391008D01*
X150922672Y-91145681D01*
X148235000Y-91145681D01*
X148235000Y-87444285D01*
X148364760Y-87444285D01*
X148575169Y-87953515D01*
X148964436Y-88343461D01*
X149473298Y-88554759D01*
X150024285Y-88555240D01*
X150533515Y-88344831D01*
X150923461Y-87955564D01*
X151134759Y-87446702D01*
X151135240Y-86895715D01*
X150924831Y-86386485D01*
X150635000Y-86096148D01*
X150635000Y-85036580D01*
X153464880Y-82206699D01*
X153464760Y-82344285D01*
X153675169Y-82853515D01*
X154064436Y-83243461D01*
X154573298Y-83454759D01*
X155124285Y-83455240D01*
X155633515Y-83244831D01*
X155923852Y-82955000D01*
X159849995Y-82955000D01*
X159850000Y-82955001D01*
X160150789Y-82895169D01*
X160188675Y-82887633D01*
X160475790Y-82695790D01*
X161945501Y-81226079D01*
X161971008Y-81236670D01*
X162725681Y-81237328D01*
X163423160Y-80949136D01*
X163957260Y-80415967D01*
X164246670Y-79718992D01*
X164246840Y-79523642D01*
X164248903Y-79525705D01*
X164362612Y-79411996D01*
X164493326Y-79706043D01*
X165197944Y-79976311D01*
X165952353Y-79956361D01*
X166556674Y-79706043D01*
X166687388Y-79411996D01*
X166786872Y-79511480D01*
X166793639Y-79767353D01*
X167043957Y-80371674D01*
X167338006Y-80502389D01*
X168500395Y-79340000D01*
X168486253Y-79325858D01*
X168665858Y-79146253D01*
X168680000Y-79160395D01*
X169842389Y-77998006D01*
X169711674Y-77703957D01*
X169007056Y-77433689D01*
X168252647Y-77453639D01*
X167648326Y-77703957D01*
X167517612Y-77998004D01*
X167418128Y-77898520D01*
X167411361Y-77642647D01*
X167161043Y-77038326D01*
X166866994Y-76907611D01*
X165704605Y-78070000D01*
X165718748Y-78084143D01*
X165539143Y-78263748D01*
X165525000Y-78249605D01*
X165510858Y-78263748D01*
X165331253Y-78084143D01*
X165345395Y-78070000D01*
X164183006Y-76907611D01*
X163888957Y-77038326D01*
X163618689Y-77742944D01*
X163623656Y-77930774D01*
X163425967Y-77732740D01*
X162728992Y-77443330D01*
X161974319Y-77442672D01*
X161276840Y-77730864D01*
X161067114Y-77940225D01*
X161067328Y-77694319D01*
X160779136Y-76996840D01*
X160510771Y-76728006D01*
X164362611Y-76728006D01*
X165525000Y-77890395D01*
X166687389Y-76728006D01*
X166556674Y-76433957D01*
X165852056Y-76163689D01*
X165097647Y-76183639D01*
X164493326Y-76433957D01*
X164362611Y-76728006D01*
X160510771Y-76728006D01*
X160245967Y-76462740D01*
X159548992Y-76173330D01*
X158794319Y-76172672D01*
X158096840Y-76460864D01*
X157562740Y-76994033D01*
X157273330Y-77691008D01*
X157273121Y-77930256D01*
X157065967Y-77722740D01*
X156368992Y-77433330D01*
X155614319Y-77432672D01*
X154916840Y-77720864D01*
X154717131Y-77920225D01*
X154717328Y-77694319D01*
X154429136Y-76996840D01*
X153895967Y-76462740D01*
X153198992Y-76173330D01*
X152444319Y-76172672D01*
X151746840Y-76460864D01*
X151212740Y-76994033D01*
X150923330Y-77691008D01*
X150922672Y-78445681D01*
X151210864Y-79143160D01*
X151744033Y-79677260D01*
X152441008Y-79966670D01*
X153195681Y-79967328D01*
X153204903Y-79963517D01*
X149124210Y-84044210D01*
X148932367Y-84331325D01*
X148932367Y-84331326D01*
X148864999Y-84670000D01*
X148865000Y-84670005D01*
X148865000Y-86096477D01*
X148576539Y-86384436D01*
X148365241Y-86893298D01*
X148364760Y-87444285D01*
X148235000Y-87444285D01*
X148235000Y-73145681D01*
X150922672Y-73145681D01*
X151210864Y-73843160D01*
X151744033Y-74377260D01*
X152441008Y-74666670D01*
X153195681Y-74667328D01*
X153893160Y-74379136D01*
X154102886Y-74169775D01*
X154102672Y-74415681D01*
X154390864Y-75113160D01*
X154924033Y-75647260D01*
X155621008Y-75936670D01*
X156375681Y-75937328D01*
X157073160Y-75649136D01*
X157607260Y-75115967D01*
X157896670Y-74418992D01*
X157896879Y-74179761D01*
X158094033Y-74377260D01*
X158791008Y-74666670D01*
X159545681Y-74667328D01*
X160243160Y-74379136D01*
X160442878Y-74179766D01*
X160442672Y-74415681D01*
X160730864Y-75113160D01*
X161264033Y-75647260D01*
X161961008Y-75936670D01*
X162715681Y-75937328D01*
X163413160Y-75649136D01*
X163947260Y-75115967D01*
X164236670Y-74418992D01*
X164236887Y-74169753D01*
X164444033Y-74377260D01*
X165141008Y-74666670D01*
X165895681Y-74667328D01*
X166593160Y-74379136D01*
X166792878Y-74179766D01*
X166792672Y-74415681D01*
X167080864Y-75113160D01*
X167614033Y-75647260D01*
X168311008Y-75936670D01*
X169065681Y-75937328D01*
X169763160Y-75649136D01*
X170297260Y-75115967D01*
X170586670Y-74418992D01*
X170587328Y-73664319D01*
X170299136Y-72966840D01*
X169765967Y-72432740D01*
X169068992Y-72143330D01*
X168314319Y-72142672D01*
X167616840Y-72430864D01*
X167417122Y-72630234D01*
X167417328Y-72394319D01*
X167129136Y-71696840D01*
X166595967Y-71162740D01*
X165898992Y-70873330D01*
X165144319Y-70872672D01*
X164446840Y-71160864D01*
X163912740Y-71694033D01*
X163623330Y-72391008D01*
X163623113Y-72640247D01*
X163415967Y-72432740D01*
X162718992Y-72143330D01*
X161964319Y-72142672D01*
X161266840Y-72430864D01*
X161067122Y-72630234D01*
X161067328Y-72394319D01*
X160779136Y-71696840D01*
X160245967Y-71162740D01*
X159548992Y-70873330D01*
X158794319Y-70872672D01*
X158096840Y-71160864D01*
X157562740Y-71694033D01*
X157273330Y-72391008D01*
X157273121Y-72630239D01*
X157075967Y-72432740D01*
X156378992Y-72143330D01*
X155624319Y-72142672D01*
X154926840Y-72430864D01*
X154717114Y-72640225D01*
X154717328Y-72394319D01*
X154429136Y-71696840D01*
X153895967Y-71162740D01*
X153198992Y-70873330D01*
X152444319Y-70872672D01*
X151746840Y-71160864D01*
X151212740Y-71694033D01*
X150923330Y-72391008D01*
X150922672Y-73145681D01*
X148235000Y-73145681D01*
X148235000Y-63436580D01*
X150716579Y-60955000D01*
X151133118Y-60955000D01*
X151210864Y-61143160D01*
X151744033Y-61677260D01*
X152441008Y-61966670D01*
X153195681Y-61967328D01*
X153893160Y-61679136D01*
X154092869Y-61479775D01*
X154092672Y-61705681D01*
X154380864Y-62403160D01*
X154914033Y-62937260D01*
X155611008Y-63226670D01*
X156365681Y-63227328D01*
X157063160Y-62939136D01*
X157597260Y-62405967D01*
X157886670Y-61708992D01*
X157886879Y-61469744D01*
X158094033Y-61677260D01*
X158791008Y-61966670D01*
X159545681Y-61967328D01*
X160243160Y-61679136D01*
X160452886Y-61469775D01*
X160452672Y-61715681D01*
X160452692Y-61715729D01*
X158483420Y-63685000D01*
X154423523Y-63685000D01*
X154135564Y-63396539D01*
X153626702Y-63185241D01*
X153075715Y-63184760D01*
X152566485Y-63395169D01*
X152176539Y-63784436D01*
X151965241Y-64293298D01*
X151964760Y-64844285D01*
X152175169Y-65353515D01*
X152564436Y-65743461D01*
X153073298Y-65954759D01*
X153624285Y-65955240D01*
X154133515Y-65744831D01*
X154423852Y-65455000D01*
X158849995Y-65455000D01*
X158850000Y-65455001D01*
X159132484Y-65398810D01*
X159188675Y-65387633D01*
X159475790Y-65195790D01*
X161592203Y-63079376D01*
X161971008Y-63236670D01*
X162725681Y-63237328D01*
X163423160Y-62949136D01*
X163957260Y-62415967D01*
X164246670Y-61718992D01*
X164246840Y-61523642D01*
X164248903Y-61525705D01*
X164362612Y-61411996D01*
X164493326Y-61706043D01*
X165197944Y-61976311D01*
X165952353Y-61956361D01*
X166556674Y-61706043D01*
X166687388Y-61411996D01*
X166786872Y-61511480D01*
X166793639Y-61767353D01*
X167043957Y-62371674D01*
X167338006Y-62502389D01*
X168500395Y-61340000D01*
X168486253Y-61325858D01*
X168665858Y-61146253D01*
X168680000Y-61160395D01*
X169842389Y-59998006D01*
X169711674Y-59703957D01*
X169007056Y-59433689D01*
X168252647Y-59453639D01*
X167648326Y-59703957D01*
X167517612Y-59998004D01*
X167418128Y-59898520D01*
X167411361Y-59642647D01*
X167161043Y-59038326D01*
X166866994Y-58907611D01*
X165704605Y-60070000D01*
X165718748Y-60084143D01*
X165539143Y-60263748D01*
X165525000Y-60249605D01*
X165510858Y-60263748D01*
X165331253Y-60084143D01*
X165345395Y-60070000D01*
X164183006Y-58907611D01*
X163888957Y-59038326D01*
X163618689Y-59742944D01*
X163623656Y-59930774D01*
X163425967Y-59732740D01*
X162728992Y-59443330D01*
X161974319Y-59442672D01*
X161276840Y-59730864D01*
X161067114Y-59940225D01*
X161067328Y-59694319D01*
X160779136Y-58996840D01*
X160510771Y-58728006D01*
X164362611Y-58728006D01*
X165525000Y-59890395D01*
X166687389Y-58728006D01*
X166556674Y-58433957D01*
X165852056Y-58163689D01*
X165097647Y-58183639D01*
X164493326Y-58433957D01*
X164362611Y-58728006D01*
X160510771Y-58728006D01*
X160245967Y-58462740D01*
X159548992Y-58173330D01*
X158794319Y-58172672D01*
X158096840Y-58460864D01*
X157562740Y-58994033D01*
X157273330Y-59691008D01*
X157273121Y-59930256D01*
X157065967Y-59722740D01*
X156368992Y-59433330D01*
X155614319Y-59432672D01*
X154916840Y-59720864D01*
X154717131Y-59920225D01*
X154717328Y-59694319D01*
X154429136Y-58996840D01*
X153895967Y-58462740D01*
X153198992Y-58173330D01*
X152444319Y-58172672D01*
X151746840Y-58460864D01*
X151212740Y-58994033D01*
X151133443Y-59185000D01*
X150350005Y-59185000D01*
X150350000Y-59184999D01*
X150067516Y-59241190D01*
X150011325Y-59252367D01*
X149724210Y-59444210D01*
X149724208Y-59444213D01*
X147350000Y-61818421D01*
X144475790Y-58944210D01*
X144364000Y-58869515D01*
X144188675Y-58752367D01*
X144132484Y-58741190D01*
X143850000Y-58684999D01*
X143849995Y-58685000D01*
X140238899Y-58685000D01*
X140057743Y-58413880D01*
X139527310Y-58059457D01*
X138901623Y-57935000D01*
X136798377Y-57935000D01*
X136172690Y-58059457D01*
X135642257Y-58413880D01*
X135287834Y-58944313D01*
X135163377Y-59570000D01*
X135287834Y-60195687D01*
X135642257Y-60726120D01*
X135782759Y-60820000D01*
X135642257Y-60913880D01*
X135287834Y-61444313D01*
X135163377Y-62070000D01*
X135287834Y-62695687D01*
X135642257Y-63226120D01*
X136172690Y-63580543D01*
X136798377Y-63705000D01*
X138901623Y-63705000D01*
X139527310Y-63580543D01*
X140057743Y-63226120D01*
X140412166Y-62695687D01*
X140536623Y-62070000D01*
X140412166Y-61444313D01*
X140057743Y-60913880D01*
X139917241Y-60820000D01*
X140057743Y-60726120D01*
X140238899Y-60455000D01*
X143483420Y-60455000D01*
X146465000Y-63436579D01*
X146465000Y-75933421D01*
X142475790Y-71944210D01*
X142364000Y-71869515D01*
X142188675Y-71752367D01*
X142132484Y-71741190D01*
X141850000Y-71684999D01*
X141849995Y-71685000D01*
X140238899Y-71685000D01*
X140057743Y-71413880D01*
X139543089Y-71070000D01*
X140057743Y-70726120D01*
X140412166Y-70195687D01*
X140536623Y-69570000D01*
X140412166Y-68944313D01*
X140057743Y-68413880D01*
X139917241Y-68320000D01*
X140057743Y-68226120D01*
X140412166Y-67695687D01*
X140536623Y-67070000D01*
X140412166Y-66444313D01*
X140057743Y-65913880D01*
X139527310Y-65559457D01*
X138901623Y-65435000D01*
X136798377Y-65435000D01*
X136172690Y-65559457D01*
X135642257Y-65913880D01*
X135287834Y-66444313D01*
X135163377Y-67070000D01*
X135287834Y-67695687D01*
X135642257Y-68226120D01*
X135782759Y-68320000D01*
X135642257Y-68413880D01*
X135287834Y-68944313D01*
X135163377Y-69570000D01*
X135287834Y-70195687D01*
X135642257Y-70726120D01*
X136156911Y-71070000D01*
X135642257Y-71413880D01*
X135287834Y-71944313D01*
X135163377Y-72570000D01*
X135287834Y-73195687D01*
X135642257Y-73726120D01*
X135782759Y-73820000D01*
X135642257Y-73913880D01*
X135287834Y-74444313D01*
X135163377Y-75070000D01*
X135287834Y-75695687D01*
X135562166Y-76106255D01*
X134755000Y-76913420D01*
X134755000Y-76713000D01*
X134561390Y-75993655D01*
X134107236Y-75403159D01*
X133461679Y-75031409D01*
X133272781Y-74982507D01*
X132977000Y-75098374D01*
X132977000Y-77443000D01*
X132997000Y-77443000D01*
X132997000Y-77697000D01*
X132977000Y-77697000D01*
X132977000Y-80041626D01*
X133272781Y-80157493D01*
X133461679Y-80108591D01*
X133965000Y-79818749D01*
X133965000Y-82034482D01*
X133897592Y-81871343D01*
X133550485Y-81523629D01*
X133096734Y-81335215D01*
X132605421Y-81334786D01*
X132151343Y-81522408D01*
X131803629Y-81869515D01*
X131615215Y-82323266D01*
X131614786Y-82814579D01*
X131802408Y-83268657D01*
X132149515Y-83616371D01*
X132603266Y-83804785D01*
X133017683Y-83805147D01*
X132964999Y-84070000D01*
X132965000Y-84070005D01*
X132965000Y-86665314D01*
X132860959Y-86561091D01*
X132076541Y-86235372D01*
X131227185Y-86234630D01*
X130442200Y-86558980D01*
X129841091Y-87159041D01*
X129515372Y-87943459D01*
X129514630Y-88792815D01*
X129112000Y-88792815D01*
X129112000Y-82814579D01*
X129114786Y-82814579D01*
X129302408Y-83268657D01*
X129649515Y-83616371D01*
X130103266Y-83804785D01*
X130594579Y-83805214D01*
X131048657Y-83617592D01*
X131396371Y-83270485D01*
X131584785Y-82816734D01*
X131585214Y-82325421D01*
X131397592Y-81871343D01*
X131050485Y-81523629D01*
X130596734Y-81335215D01*
X130105421Y-81334786D01*
X129651343Y-81522408D01*
X129303629Y-81869515D01*
X129115215Y-82323266D01*
X129114786Y-82814579D01*
X129112000Y-82814579D01*
X129112000Y-77697000D01*
X130945000Y-77697000D01*
X130945000Y-78427000D01*
X131138610Y-79146345D01*
X131592764Y-79736841D01*
X132238321Y-80108591D01*
X132427219Y-80157493D01*
X132723000Y-80041626D01*
X132723000Y-77697000D01*
X130945000Y-77697000D01*
X129112000Y-77697000D01*
X129112000Y-76713000D01*
X130945000Y-76713000D01*
X130945000Y-77443000D01*
X132723000Y-77443000D01*
X132723000Y-75098374D01*
X132427219Y-74982507D01*
X132238321Y-75031409D01*
X131592764Y-75403159D01*
X131138610Y-75993655D01*
X130945000Y-76713000D01*
X129112000Y-76713000D01*
X129112000Y-72814579D01*
X129114786Y-72814579D01*
X129302408Y-73268657D01*
X129649515Y-73616371D01*
X130103266Y-73804785D01*
X130594579Y-73805214D01*
X131048657Y-73617592D01*
X131396371Y-73270485D01*
X131584785Y-72816734D01*
X131584786Y-72814579D01*
X131614786Y-72814579D01*
X131802408Y-73268657D01*
X132149515Y-73616371D01*
X132603266Y-73804785D01*
X133094579Y-73805214D01*
X133548657Y-73617592D01*
X133896371Y-73270485D01*
X134084785Y-72816734D01*
X134085214Y-72325421D01*
X133897592Y-71871343D01*
X133550485Y-71523629D01*
X133096734Y-71335215D01*
X132605421Y-71334786D01*
X132151343Y-71522408D01*
X131803629Y-71869515D01*
X131615215Y-72323266D01*
X131614786Y-72814579D01*
X131584786Y-72814579D01*
X131585214Y-72325421D01*
X131397592Y-71871343D01*
X131050485Y-71523629D01*
X130596734Y-71335215D01*
X130105421Y-71334786D01*
X129651343Y-71522408D01*
X129303629Y-71869515D01*
X129115215Y-72323266D01*
X129114786Y-72814579D01*
X129112000Y-72814579D01*
X129112000Y-69814579D01*
X129114786Y-69814579D01*
X129302408Y-70268657D01*
X129649515Y-70616371D01*
X130103266Y-70804785D01*
X130594579Y-70805214D01*
X131048657Y-70617592D01*
X131396371Y-70270485D01*
X131584785Y-69816734D01*
X131584786Y-69814579D01*
X131614786Y-69814579D01*
X131802408Y-70268657D01*
X132149515Y-70616371D01*
X132603266Y-70804785D01*
X133094579Y-70805214D01*
X133548657Y-70617592D01*
X133896371Y-70270485D01*
X134084785Y-69816734D01*
X134085214Y-69325421D01*
X133897592Y-68871343D01*
X133550485Y-68523629D01*
X133096734Y-68335215D01*
X132605421Y-68334786D01*
X132151343Y-68522408D01*
X131803629Y-68869515D01*
X131615215Y-69323266D01*
X131614786Y-69814579D01*
X131584786Y-69814579D01*
X131585214Y-69325421D01*
X131397592Y-68871343D01*
X131050485Y-68523629D01*
X130596734Y-68335215D01*
X130105421Y-68334786D01*
X129651343Y-68522408D01*
X129303629Y-68869515D01*
X129115215Y-69323266D01*
X129114786Y-69814579D01*
X129112000Y-69814579D01*
X129112000Y-64697000D01*
X130945000Y-64697000D01*
X130945000Y-65427000D01*
X131138610Y-66146345D01*
X131592764Y-66736841D01*
X132238321Y-67108591D01*
X132427219Y-67157493D01*
X132723000Y-67041626D01*
X132723000Y-64697000D01*
X132977000Y-64697000D01*
X132977000Y-67041626D01*
X133272781Y-67157493D01*
X133461679Y-67108591D01*
X134107236Y-66736841D01*
X134561390Y-66146345D01*
X134755000Y-65427000D01*
X134755000Y-64697000D01*
X132977000Y-64697000D01*
X132723000Y-64697000D01*
X130945000Y-64697000D01*
X129112000Y-64697000D01*
X129112000Y-63713000D01*
X130945000Y-63713000D01*
X130945000Y-64443000D01*
X132723000Y-64443000D01*
X132723000Y-62098374D01*
X132977000Y-62098374D01*
X132977000Y-64443000D01*
X134755000Y-64443000D01*
X134755000Y-63713000D01*
X134561390Y-62993655D01*
X134107236Y-62403159D01*
X133461679Y-62031409D01*
X133272781Y-61982507D01*
X132977000Y-62098374D01*
X132723000Y-62098374D01*
X132427219Y-61982507D01*
X132238321Y-62031409D01*
X131592764Y-62403159D01*
X131138610Y-62993655D01*
X130945000Y-63713000D01*
X129112000Y-63713000D01*
X129112000Y-59814579D01*
X129114786Y-59814579D01*
X129302408Y-60268657D01*
X129649515Y-60616371D01*
X130103266Y-60804785D01*
X130594579Y-60805214D01*
X131048657Y-60617592D01*
X131396371Y-60270485D01*
X131584785Y-59816734D01*
X131584786Y-59814579D01*
X131614786Y-59814579D01*
X131802408Y-60268657D01*
X132149515Y-60616371D01*
X132603266Y-60804785D01*
X133094579Y-60805214D01*
X133548657Y-60617592D01*
X133896371Y-60270485D01*
X134084785Y-59816734D01*
X134085214Y-59325421D01*
X133897592Y-58871343D01*
X133550485Y-58523629D01*
X133096734Y-58335215D01*
X132605421Y-58334786D01*
X132151343Y-58522408D01*
X131803629Y-58869515D01*
X131615215Y-59323266D01*
X131614786Y-59814579D01*
X131584786Y-59814579D01*
X131585214Y-59325421D01*
X131397592Y-58871343D01*
X131050485Y-58523629D01*
X130596734Y-58335215D01*
X130105421Y-58334786D01*
X129651343Y-58522408D01*
X129303629Y-58869515D01*
X129115215Y-59323266D01*
X129114786Y-59814579D01*
X129112000Y-59814579D01*
X129112000Y-48332000D01*
X133931352Y-48332000D01*
X132618409Y-48593161D01*
X132618409Y-48593161D01*
G37*
X132618409Y-48593161D02*
X131221929Y-49526259D01*
X130288831Y-50922739D01*
X129961170Y-52570000D01*
X130288831Y-54217261D01*
X131221929Y-55613741D01*
X132618409Y-56546839D01*
X134265670Y-56874500D01*
X134434330Y-56874500D01*
X136081591Y-56546839D01*
X137478071Y-55613741D01*
X138411169Y-54217261D01*
X138738830Y-52570000D01*
X138411169Y-50922739D01*
X137478071Y-49526259D01*
X136081591Y-48593161D01*
X134768648Y-48332000D01*
X166931352Y-48332000D01*
X165618409Y-48593161D01*
X164221929Y-49526259D01*
X163288831Y-50922739D01*
X162961170Y-52570000D01*
X163288831Y-54217261D01*
X164221929Y-55613741D01*
X165618409Y-56546839D01*
X167265670Y-56874500D01*
X167434330Y-56874500D01*
X169081591Y-56546839D01*
X170478071Y-55613741D01*
X171411169Y-54217261D01*
X171738830Y-52570000D01*
X171411169Y-50922739D01*
X170478071Y-49526259D01*
X169081591Y-48593161D01*
X167768648Y-48332000D01*
X172588000Y-48332000D01*
X172588000Y-60968712D01*
X171897056Y-60703689D01*
X171142647Y-60723639D01*
X170567661Y-60961806D01*
X170566361Y-60912647D01*
X170316043Y-60308326D01*
X170021994Y-60177611D01*
X168859605Y-61340000D01*
X168873748Y-61354143D01*
X168694143Y-61533748D01*
X168680000Y-61519605D01*
X167517611Y-62681994D01*
X167648326Y-62976043D01*
X168352944Y-63246311D01*
X169107353Y-63226361D01*
X169682339Y-62988194D01*
X169683639Y-63037353D01*
X169933957Y-63641674D01*
X170228006Y-63772389D01*
X171390395Y-62610000D01*
X171376253Y-62595858D01*
X171555858Y-62416253D01*
X171570000Y-62430395D01*
X171584143Y-62416253D01*
X171763748Y-62595858D01*
X171749605Y-62610000D01*
X171763748Y-62624143D01*
X171584143Y-62803748D01*
X171570000Y-62789605D01*
X170407611Y-63951994D01*
X170538326Y-64246043D01*
X171242944Y-64516311D01*
X171997353Y-64496361D01*
X172588000Y-64251707D01*
X172588000Y-78968712D01*
X171897056Y-78703689D01*
X171142647Y-78723639D01*
X170567661Y-78961806D01*
X170566361Y-78912647D01*
X170316043Y-78308326D01*
X170021994Y-78177611D01*
X168859605Y-79340000D01*
X168873748Y-79354143D01*
X168694143Y-79533748D01*
X168680000Y-79519605D01*
X167517611Y-80681994D01*
X167648326Y-80976043D01*
X168352944Y-81246311D01*
X169107353Y-81226361D01*
X169682339Y-80988194D01*
X169683639Y-81037353D01*
X169933957Y-81641674D01*
X170228006Y-81772389D01*
X171390395Y-80610000D01*
X171376253Y-80595858D01*
X171555858Y-80416253D01*
X171570000Y-80430395D01*
X171584143Y-80416253D01*
X171763748Y-80595858D01*
X171749605Y-80610000D01*
X171763748Y-80624143D01*
X171584143Y-80803748D01*
X171570000Y-80789605D01*
X170407611Y-81951994D01*
X170538326Y-82246043D01*
X171242944Y-82516311D01*
X171997353Y-82496361D01*
X172588000Y-82251707D01*
X172588000Y-100968712D01*
X171897056Y-100703689D01*
X171142647Y-100723639D01*
X170567661Y-100961806D01*
X170566361Y-100912647D01*
X170316043Y-100308326D01*
X170021994Y-100177611D01*
X168859605Y-101340000D01*
X168873748Y-101354143D01*
X168694143Y-101533748D01*
X168680000Y-101519605D01*
X167517611Y-102681994D01*
X167648326Y-102976043D01*
X168352944Y-103246311D01*
X169107353Y-103226361D01*
X169682339Y-102988194D01*
X169683639Y-103037353D01*
X169933957Y-103641674D01*
X170228006Y-103772389D01*
X171390395Y-102610000D01*
X171376253Y-102595858D01*
X171555858Y-102416253D01*
X171570000Y-102430395D01*
X171584143Y-102416253D01*
X171763748Y-102595858D01*
X171749605Y-102610000D01*
X171763748Y-102624143D01*
X171584143Y-102803748D01*
X171570000Y-102789605D01*
X170407611Y-103951994D01*
X170538326Y-104246043D01*
X171242944Y-104516311D01*
X171997353Y-104496361D01*
X172588000Y-104251707D01*
X172588000Y-126808000D01*
X167768648Y-126808000D01*
X169081591Y-126546839D01*
X170478071Y-125613741D01*
X171411169Y-124217261D01*
X171738830Y-122570000D01*
X171411169Y-120922739D01*
X170478071Y-119526259D01*
X169081591Y-118593161D01*
X167434330Y-118265500D01*
X167265670Y-118265500D01*
X165618409Y-118593161D01*
X164221929Y-119526259D01*
X163288831Y-120922739D01*
X162961170Y-122570000D01*
X163288831Y-124217261D01*
X164221929Y-125613741D01*
X165618409Y-126546839D01*
X166931352Y-126808000D01*
X134768648Y-126808000D01*
X136081591Y-126546839D01*
X137478071Y-125613741D01*
X138411169Y-124217261D01*
X138738830Y-122570000D01*
X138411169Y-120922739D01*
X137478071Y-119526259D01*
X136081591Y-118593161D01*
X134434330Y-118265500D01*
X134265670Y-118265500D01*
X132618409Y-118593161D01*
X131221929Y-119526259D01*
X130288831Y-120922739D01*
X129961170Y-122570000D01*
X130288831Y-124217261D01*
X131221929Y-125613741D01*
X132618409Y-126546839D01*
X133931352Y-126808000D01*
X129112000Y-126808000D01*
X129112000Y-98392815D01*
X129514630Y-98392815D01*
X129838980Y-99177800D01*
X130439041Y-99778909D01*
X131223459Y-100104628D01*
X132072815Y-100105370D01*
X132857800Y-99781020D01*
X133458909Y-99180959D01*
X133784628Y-98396541D01*
X133785370Y-97547185D01*
X133461020Y-96762200D01*
X132860959Y-96161091D01*
X132076541Y-95835372D01*
X131227185Y-95834630D01*
X130442200Y-96158980D01*
X129841091Y-96759041D01*
X129515372Y-97543459D01*
X129514630Y-98392815D01*
X129112000Y-98392815D01*
X129112000Y-93592815D01*
X129514630Y-93592815D01*
X129838980Y-94377800D01*
X130439041Y-94978909D01*
X131223459Y-95304628D01*
X132072815Y-95305370D01*
X132857800Y-94981020D01*
X133458909Y-94380959D01*
X133784628Y-93596541D01*
X133785370Y-92747185D01*
X133461020Y-91962200D01*
X132860959Y-91361091D01*
X132076541Y-91035372D01*
X131227185Y-91034630D01*
X130442200Y-91358980D01*
X129841091Y-91959041D01*
X129515372Y-92743459D01*
X129514630Y-93592815D01*
X129112000Y-93592815D01*
X129112000Y-88792815D01*
X129514630Y-88792815D01*
X129838980Y-89577800D01*
X130439041Y-90178909D01*
X131223459Y-90504628D01*
X132072815Y-90505370D01*
X132857800Y-90181020D01*
X133071681Y-89967512D01*
X133188718Y-90142672D01*
X133224210Y-90195790D01*
X134224208Y-91195787D01*
X134224210Y-91195790D01*
X134416054Y-91323975D01*
X134511326Y-91387634D01*
X134850000Y-91455001D01*
X134850005Y-91455000D01*
X135046012Y-91455000D01*
X134541091Y-91959041D01*
X134215372Y-92743459D01*
X134214630Y-93592815D01*
X134538980Y-94377800D01*
X135139041Y-94978909D01*
X135923459Y-95304628D01*
X136772815Y-95305370D01*
X137557800Y-94981020D01*
X138158909Y-94380959D01*
X138484628Y-93596541D01*
X138485370Y-92747185D01*
X138281005Y-92252584D01*
X138915247Y-92886826D01*
X138914630Y-93592815D01*
X139238980Y-94377800D01*
X139839041Y-94978909D01*
X140623459Y-95304628D01*
X141472815Y-95305370D01*
X142257800Y-94981020D01*
X142858909Y-94380959D01*
X143184628Y-93596541D01*
X143185370Y-92747185D01*
X142861020Y-91962200D01*
X142260959Y-91361091D01*
X141476541Y-91035372D01*
X140627185Y-91034630D01*
X139876420Y-91344841D01*
X138475790Y-89944210D01*
X138422606Y-89908674D01*
X138188675Y-89752367D01*
X138132484Y-89741190D01*
X138020677Y-89718950D01*
X138158909Y-89580959D01*
X138484628Y-88796541D01*
X138484631Y-88792815D01*
X138914630Y-88792815D01*
X139238980Y-89577800D01*
X139839041Y-90178909D01*
X140623459Y-90504628D01*
X141472815Y-90505370D01*
X142257800Y-90181020D01*
X142858909Y-89580959D01*
X143184628Y-88796541D01*
X143185370Y-87947185D01*
X142861020Y-87162200D01*
X142260959Y-86561091D01*
X141476541Y-86235372D01*
X140627185Y-86234630D01*
X139842200Y-86558980D01*
X139241091Y-87159041D01*
X138915372Y-87943459D01*
X138914630Y-88792815D01*
X138484631Y-88792815D01*
X138485370Y-87947185D01*
X138161020Y-87162200D01*
X138085266Y-87086314D01*
X139216579Y-85955000D01*
X141983420Y-85955000D01*
X143465000Y-87436579D01*
X143465000Y-96496477D01*
X143176539Y-96784436D01*
X143022996Y-97154210D01*
X142861020Y-96762200D01*
X142260959Y-96161091D01*
X141476541Y-95835372D01*
X140627185Y-95834630D01*
X139842200Y-96158980D01*
X139241091Y-96759041D01*
X138915372Y-97543459D01*
X138914630Y-98392815D01*
X139238980Y-99177800D01*
X139839041Y-99778909D01*
X140623459Y-100104628D01*
X141472815Y-100105370D01*
X142257800Y-99781020D01*
X142858909Y-99180959D01*
X143184628Y-98396541D01*
X143184657Y-98363020D01*
X143564436Y-98743461D01*
X143748521Y-98819900D01*
X141799107Y-100769313D01*
X141476541Y-100635372D01*
X140627185Y-100634630D01*
X139842200Y-100958980D01*
X139241091Y-101559041D01*
X138915372Y-102343459D01*
X138914630Y-103192815D01*
X139238980Y-103977800D01*
X139839041Y-104578909D01*
X140094536Y-104685000D01*
X137306150Y-104685000D01*
X137557800Y-104581020D01*
X138158909Y-103980959D01*
X138484628Y-103196541D01*
X138485370Y-102347185D01*
X138161020Y-101562200D01*
X137560959Y-100961091D01*
X136776541Y-100635372D01*
X135927185Y-100634630D01*
X135142200Y-100958980D01*
X134905000Y-101195766D01*
X134905000Y-100666580D01*
X135600893Y-99970687D01*
X135923459Y-100104628D01*
X136772815Y-100105370D01*
X137557800Y-99781020D01*
X138158909Y-99180959D01*
X138484628Y-98396541D01*
X138485370Y-97547185D01*
X138161020Y-96762200D01*
X137560959Y-96161091D01*
X136776541Y-95835372D01*
X135927185Y-95834630D01*
X135142200Y-96158980D01*
X134541091Y-96759041D01*
X134215372Y-97543459D01*
X134214630Y-98392815D01*
X134349411Y-98719009D01*
X133394210Y-99674210D01*
X133202367Y-99961325D01*
X133202367Y-99961326D01*
X133134999Y-100300000D01*
X133135000Y-100300005D01*
X133135000Y-101235611D01*
X132860959Y-100961091D01*
X132076541Y-100635372D01*
X131227185Y-100634630D01*
X130442200Y-100958980D01*
X129841091Y-101559041D01*
X129515372Y-102343459D01*
X129514630Y-103192815D01*
X129838980Y-103977800D01*
X130439041Y-104578909D01*
X131223459Y-104904628D01*
X131933669Y-104905248D01*
X133224208Y-106195787D01*
X133224210Y-106195790D01*
X133240622Y-106206756D01*
X133181207Y-106218575D01*
X133012724Y-106251789D01*
X133012081Y-106252217D01*
X133011326Y-106252367D01*
X132868587Y-106347742D01*
X132725281Y-106443141D01*
X132724851Y-106443783D01*
X132724211Y-106444210D01*
X130224210Y-108944210D01*
X130032367Y-109231325D01*
X130032367Y-109231326D01*
X129964999Y-109570000D01*
X129965000Y-109570005D01*
X129965000Y-114069995D01*
X129964999Y-114070000D01*
X129990021Y-114195790D01*
X130032367Y-114408675D01*
X130204753Y-114666670D01*
X130224210Y-114695790D01*
X131224208Y-115695787D01*
X131224210Y-115695790D01*
X131416054Y-115823975D01*
X131511326Y-115887634D01*
X131850000Y-115955001D01*
X131850005Y-115955000D01*
X132276477Y-115955000D01*
X132564436Y-116243461D01*
X133073298Y-116454759D01*
X133624285Y-116455240D01*
X134133515Y-116244831D01*
X134523461Y-115855564D01*
X134599927Y-115671414D01*
X134675169Y-115853515D01*
X135064436Y-116243461D01*
X135573298Y-116454759D01*
X136124285Y-116455240D01*
X136633515Y-116244831D01*
X136942228Y-115936655D01*
X137132484Y-115898810D01*
X137188675Y-115887633D01*
X137475790Y-115695790D01*
X138975787Y-114195792D01*
X138975790Y-114195790D01*
X139167633Y-113908675D01*
X139235000Y-113570000D01*
X139235000Y-109436580D01*
X139716579Y-108955000D01*
X140006550Y-108955000D01*
X139676539Y-109284436D01*
X139465241Y-109793298D01*
X139464760Y-110344285D01*
X139675169Y-110853515D01*
X140064436Y-111243461D01*
X140248586Y-111319927D01*
X140066485Y-111395169D01*
X139676539Y-111784436D01*
X139465241Y-112293298D01*
X139464760Y-112844285D01*
X139675169Y-113353515D01*
X140064436Y-113743461D01*
X140248586Y-113819927D01*
X140066485Y-113895169D01*
X139676539Y-114284436D01*
X139465241Y-114793298D01*
X139464760Y-115344285D01*
X139675169Y-115853515D01*
X140064436Y-116243461D01*
X140573298Y-116454759D01*
X141124285Y-116455240D01*
X141633515Y-116244831D01*
X142023461Y-115855564D01*
X142099927Y-115671414D01*
X142175169Y-115853515D01*
X142564436Y-116243461D01*
X143073298Y-116454759D01*
X143624285Y-116455240D01*
X144133515Y-116244831D01*
X144423852Y-115955000D01*
X145849995Y-115955000D01*
X145850000Y-115955001D01*
X146132484Y-115898810D01*
X146188675Y-115887633D01*
X146475790Y-115695790D01*
X149025898Y-113145681D01*
X150922672Y-113145681D01*
X151210864Y-113843160D01*
X151744033Y-114377260D01*
X152441008Y-114666670D01*
X153195681Y-114667328D01*
X153893160Y-114379136D01*
X154102886Y-114169775D01*
X154102672Y-114415681D01*
X154390864Y-115113160D01*
X154924033Y-115647260D01*
X155621008Y-115936670D01*
X156375681Y-115937328D01*
X157073160Y-115649136D01*
X157607260Y-115115967D01*
X157896670Y-114418992D01*
X157896879Y-114179761D01*
X158094033Y-114377260D01*
X158791008Y-114666670D01*
X159545681Y-114667328D01*
X160243160Y-114379136D01*
X160442878Y-114179766D01*
X160442672Y-114415681D01*
X160730864Y-115113160D01*
X161264033Y-115647260D01*
X161961008Y-115936670D01*
X162715681Y-115937328D01*
X163413160Y-115649136D01*
X163947260Y-115115967D01*
X164236670Y-114418992D01*
X164236887Y-114169753D01*
X164444033Y-114377260D01*
X165141008Y-114666670D01*
X165895681Y-114667328D01*
X166593160Y-114379136D01*
X166792878Y-114179766D01*
X166792672Y-114415681D01*
X167080864Y-115113160D01*
X167614033Y-115647260D01*
X168311008Y-115936670D01*
X169065681Y-115937328D01*
X169763160Y-115649136D01*
X170297260Y-115115967D01*
X170586670Y-114418992D01*
X170587328Y-113664319D01*
X170299136Y-112966840D01*
X169765967Y-112432740D01*
X169068992Y-112143330D01*
X168314319Y-112142672D01*
X167616840Y-112430864D01*
X167417122Y-112630234D01*
X167417328Y-112394319D01*
X167129136Y-111696840D01*
X166595967Y-111162740D01*
X165898992Y-110873330D01*
X165144319Y-110872672D01*
X164446840Y-111160864D01*
X163912740Y-111694033D01*
X163623330Y-112391008D01*
X163623113Y-112640247D01*
X163415967Y-112432740D01*
X162718992Y-112143330D01*
X161964319Y-112142672D01*
X161266840Y-112430864D01*
X161067122Y-112630234D01*
X161067328Y-112394319D01*
X160779136Y-111696840D01*
X160245967Y-111162740D01*
X159548992Y-110873330D01*
X158794319Y-110872672D01*
X158096840Y-111160864D01*
X157562740Y-111694033D01*
X157273330Y-112391008D01*
X157273121Y-112630239D01*
X157075967Y-112432740D01*
X156378992Y-112143330D01*
X155624319Y-112142672D01*
X154926840Y-112430864D01*
X154717114Y-112640225D01*
X154717328Y-112394319D01*
X154429136Y-111696840D01*
X153895967Y-111162740D01*
X153198992Y-110873330D01*
X152444319Y-110872672D01*
X151746840Y-111160864D01*
X151212740Y-111694033D01*
X150923330Y-112391008D01*
X150922672Y-113145681D01*
X149025898Y-113145681D01*
X156216579Y-105955000D01*
X158619995Y-105955000D01*
X158620000Y-105955001D01*
X158902484Y-105898810D01*
X158958675Y-105887633D01*
X159245790Y-105695790D01*
X159245791Y-105695789D01*
X161782984Y-103158595D01*
X161971008Y-103236670D01*
X162725681Y-103237328D01*
X163423160Y-102949136D01*
X163957260Y-102415967D01*
X164246670Y-101718992D01*
X164246840Y-101523642D01*
X164248903Y-101525705D01*
X164362612Y-101411996D01*
X164493326Y-101706043D01*
X165197944Y-101976311D01*
X165952353Y-101956361D01*
X166556674Y-101706043D01*
X166687388Y-101411996D01*
X166786872Y-101511480D01*
X166793639Y-101767353D01*
X167043957Y-102371674D01*
X167338006Y-102502389D01*
X168500395Y-101340000D01*
X168486253Y-101325858D01*
X168665858Y-101146253D01*
X168680000Y-101160395D01*
X169842389Y-99998006D01*
X169711674Y-99703957D01*
X169007056Y-99433689D01*
X168252647Y-99453639D01*
X167648326Y-99703957D01*
X167517612Y-99998004D01*
X167418128Y-99898520D01*
X167411361Y-99642647D01*
X167161043Y-99038326D01*
X166866994Y-98907611D01*
X165704605Y-100070000D01*
X165718748Y-100084143D01*
X165539143Y-100263748D01*
X165525000Y-100249605D01*
X165510858Y-100263748D01*
X165331253Y-100084143D01*
X165345395Y-100070000D01*
X164183006Y-98907611D01*
X163888957Y-99038326D01*
X163618689Y-99742944D01*
X163623656Y-99930774D01*
X163425967Y-99732740D01*
X162728992Y-99443330D01*
X161974319Y-99442672D01*
X161276840Y-99730864D01*
X161067114Y-99940225D01*
X161067328Y-99694319D01*
X160779136Y-98996840D01*
X160510771Y-98728006D01*
X164362611Y-98728006D01*
X165525000Y-99890395D01*
X166687389Y-98728006D01*
X166556674Y-98433957D01*
X165852056Y-98163689D01*
X165097647Y-98183639D01*
X164493326Y-98433957D01*
X164362611Y-98728006D01*
X160510771Y-98728006D01*
X160245967Y-98462740D01*
X159548992Y-98173330D01*
X158794319Y-98172672D01*
X158096840Y-98460864D01*
X157562740Y-98994033D01*
X157273330Y-99691008D01*
X157273121Y-99930256D01*
X157065967Y-99722740D01*
X156368992Y-99433330D01*
X155614319Y-99432672D01*
X154916840Y-99720864D01*
X154717131Y-99920225D01*
X154717328Y-99694319D01*
X154429136Y-98996840D01*
X153895967Y-98462740D01*
X153198992Y-98173330D01*
X152444319Y-98172672D01*
X151746840Y-98460864D01*
X151212740Y-98994033D01*
X150923330Y-99691008D01*
X150922672Y-100445681D01*
X151160820Y-101022045D01*
X145976270Y-106206594D01*
X143970339Y-106203164D01*
X147932777Y-102736030D01*
X147950972Y-102712373D01*
X147975790Y-102695790D01*
X148055661Y-102576255D01*
X148143294Y-102462312D01*
X148151051Y-102433492D01*
X148167633Y-102408675D01*
X148195676Y-102267693D01*
X148233041Y-102128869D01*
X148229178Y-102099270D01*
X148235000Y-102070000D01*
X148235000Y-91145681D01*
X150922672Y-91145681D01*
X151210864Y-91843160D01*
X151744033Y-92377260D01*
X152441008Y-92666670D01*
X153195681Y-92667328D01*
X153893160Y-92379136D01*
X154102886Y-92169775D01*
X154102672Y-92415681D01*
X154390864Y-93113160D01*
X154924033Y-93647260D01*
X155621008Y-93936670D01*
X156375681Y-93937328D01*
X157073160Y-93649136D01*
X157607260Y-93115967D01*
X157896670Y-92418992D01*
X157896879Y-92179761D01*
X158094033Y-92377260D01*
X158791008Y-92666670D01*
X159545681Y-92667328D01*
X160243160Y-92379136D01*
X160442878Y-92179766D01*
X160442672Y-92415681D01*
X160730864Y-93113160D01*
X161264033Y-93647260D01*
X161961008Y-93936670D01*
X162715681Y-93937328D01*
X163413160Y-93649136D01*
X163947260Y-93115967D01*
X164236670Y-92418992D01*
X164236887Y-92169753D01*
X164444033Y-92377260D01*
X165141008Y-92666670D01*
X165895681Y-92667328D01*
X166593160Y-92379136D01*
X166792878Y-92179766D01*
X166792672Y-92415681D01*
X167080864Y-93113160D01*
X167614033Y-93647260D01*
X168311008Y-93936670D01*
X169065681Y-93937328D01*
X169763160Y-93649136D01*
X170297260Y-93115967D01*
X170586670Y-92418992D01*
X170587328Y-91664319D01*
X170299136Y-90966840D01*
X169765967Y-90432740D01*
X169068992Y-90143330D01*
X168314319Y-90142672D01*
X167616840Y-90430864D01*
X167417122Y-90630234D01*
X167417328Y-90394319D01*
X167129136Y-89696840D01*
X166595967Y-89162740D01*
X165898992Y-88873330D01*
X165144319Y-88872672D01*
X164446840Y-89160864D01*
X163912740Y-89694033D01*
X163623330Y-90391008D01*
X163623113Y-90640247D01*
X163415967Y-90432740D01*
X162718992Y-90143330D01*
X161964319Y-90142672D01*
X161266840Y-90430864D01*
X161067122Y-90630234D01*
X161067328Y-90394319D01*
X160779136Y-89696840D01*
X160245967Y-89162740D01*
X159548992Y-88873330D01*
X158794319Y-88872672D01*
X158096840Y-89160864D01*
X157562740Y-89694033D01*
X157273330Y-90391008D01*
X157273121Y-90630239D01*
X157075967Y-90432740D01*
X156378992Y-90143330D01*
X155624319Y-90142672D01*
X154926840Y-90430864D01*
X154717114Y-90640225D01*
X154717328Y-90394319D01*
X154429136Y-89696840D01*
X153895967Y-89162740D01*
X153198992Y-88873330D01*
X152444319Y-88872672D01*
X151746840Y-89160864D01*
X151212740Y-89694033D01*
X150923330Y-90391008D01*
X150922672Y-91145681D01*
X148235000Y-91145681D01*
X148235000Y-87444285D01*
X148364760Y-87444285D01*
X148575169Y-87953515D01*
X148964436Y-88343461D01*
X149473298Y-88554759D01*
X150024285Y-88555240D01*
X150533515Y-88344831D01*
X150923461Y-87955564D01*
X151134759Y-87446702D01*
X151135240Y-86895715D01*
X150924831Y-86386485D01*
X150635000Y-86096148D01*
X150635000Y-85036580D01*
X153464880Y-82206699D01*
X153464760Y-82344285D01*
X153675169Y-82853515D01*
X154064436Y-83243461D01*
X154573298Y-83454759D01*
X155124285Y-83455240D01*
X155633515Y-83244831D01*
X155923852Y-82955000D01*
X159849995Y-82955000D01*
X159850000Y-82955001D01*
X160150789Y-82895169D01*
X160188675Y-82887633D01*
X160475790Y-82695790D01*
X161945501Y-81226079D01*
X161971008Y-81236670D01*
X162725681Y-81237328D01*
X163423160Y-80949136D01*
X163957260Y-80415967D01*
X164246670Y-79718992D01*
X164246840Y-79523642D01*
X164248903Y-79525705D01*
X164362612Y-79411996D01*
X164493326Y-79706043D01*
X165197944Y-79976311D01*
X165952353Y-79956361D01*
X166556674Y-79706043D01*
X166687388Y-79411996D01*
X166786872Y-79511480D01*
X166793639Y-79767353D01*
X167043957Y-80371674D01*
X167338006Y-80502389D01*
X168500395Y-79340000D01*
X168486253Y-79325858D01*
X168665858Y-79146253D01*
X168680000Y-79160395D01*
X169842389Y-77998006D01*
X169711674Y-77703957D01*
X169007056Y-77433689D01*
X168252647Y-77453639D01*
X167648326Y-77703957D01*
X167517612Y-77998004D01*
X167418128Y-77898520D01*
X167411361Y-77642647D01*
X167161043Y-77038326D01*
X166866994Y-76907611D01*
X165704605Y-78070000D01*
X165718748Y-78084143D01*
X165539143Y-78263748D01*
X165525000Y-78249605D01*
X165510858Y-78263748D01*
X165331253Y-78084143D01*
X165345395Y-78070000D01*
X164183006Y-76907611D01*
X163888957Y-77038326D01*
X163618689Y-77742944D01*
X163623656Y-77930774D01*
X163425967Y-77732740D01*
X162728992Y-77443330D01*
X161974319Y-77442672D01*
X161276840Y-77730864D01*
X161067114Y-77940225D01*
X161067328Y-77694319D01*
X160779136Y-76996840D01*
X160510771Y-76728006D01*
X164362611Y-76728006D01*
X165525000Y-77890395D01*
X166687389Y-76728006D01*
X166556674Y-76433957D01*
X165852056Y-76163689D01*
X165097647Y-76183639D01*
X164493326Y-76433957D01*
X164362611Y-76728006D01*
X160510771Y-76728006D01*
X160245967Y-76462740D01*
X159548992Y-76173330D01*
X158794319Y-76172672D01*
X158096840Y-76460864D01*
X157562740Y-76994033D01*
X157273330Y-77691008D01*
X157273121Y-77930256D01*
X157065967Y-77722740D01*
X156368992Y-77433330D01*
X155614319Y-77432672D01*
X154916840Y-77720864D01*
X154717131Y-77920225D01*
X154717328Y-77694319D01*
X154429136Y-76996840D01*
X153895967Y-76462740D01*
X153198992Y-76173330D01*
X152444319Y-76172672D01*
X151746840Y-76460864D01*
X151212740Y-76994033D01*
X150923330Y-77691008D01*
X150922672Y-78445681D01*
X151210864Y-79143160D01*
X151744033Y-79677260D01*
X152441008Y-79966670D01*
X153195681Y-79967328D01*
X153204903Y-79963517D01*
X149124210Y-84044210D01*
X148932367Y-84331325D01*
X148932367Y-84331326D01*
X148864999Y-84670000D01*
X148865000Y-84670005D01*
X148865000Y-86096477D01*
X148576539Y-86384436D01*
X148365241Y-86893298D01*
X148364760Y-87444285D01*
X148235000Y-87444285D01*
X148235000Y-73145681D01*
X150922672Y-73145681D01*
X151210864Y-73843160D01*
X151744033Y-74377260D01*
X152441008Y-74666670D01*
X153195681Y-74667328D01*
X153893160Y-74379136D01*
X154102886Y-74169775D01*
X154102672Y-74415681D01*
X154390864Y-75113160D01*
X154924033Y-75647260D01*
X155621008Y-75936670D01*
X156375681Y-75937328D01*
X157073160Y-75649136D01*
X157607260Y-75115967D01*
X157896670Y-74418992D01*
X157896879Y-74179761D01*
X158094033Y-74377260D01*
X158791008Y-74666670D01*
X159545681Y-74667328D01*
X160243160Y-74379136D01*
X160442878Y-74179766D01*
X160442672Y-74415681D01*
X160730864Y-75113160D01*
X161264033Y-75647260D01*
X161961008Y-75936670D01*
X162715681Y-75937328D01*
X163413160Y-75649136D01*
X163947260Y-75115967D01*
X164236670Y-74418992D01*
X164236887Y-74169753D01*
X164444033Y-74377260D01*
X165141008Y-74666670D01*
X165895681Y-74667328D01*
X166593160Y-74379136D01*
X166792878Y-74179766D01*
X166792672Y-74415681D01*
X167080864Y-75113160D01*
X167614033Y-75647260D01*
X168311008Y-75936670D01*
X169065681Y-75937328D01*
X169763160Y-75649136D01*
X170297260Y-75115967D01*
X170586670Y-74418992D01*
X170587328Y-73664319D01*
X170299136Y-72966840D01*
X169765967Y-72432740D01*
X169068992Y-72143330D01*
X168314319Y-72142672D01*
X167616840Y-72430864D01*
X167417122Y-72630234D01*
X167417328Y-72394319D01*
X167129136Y-71696840D01*
X166595967Y-71162740D01*
X165898992Y-70873330D01*
X165144319Y-70872672D01*
X164446840Y-71160864D01*
X163912740Y-71694033D01*
X163623330Y-72391008D01*
X163623113Y-72640247D01*
X163415967Y-72432740D01*
X162718992Y-72143330D01*
X161964319Y-72142672D01*
X161266840Y-72430864D01*
X161067122Y-72630234D01*
X161067328Y-72394319D01*
X160779136Y-71696840D01*
X160245967Y-71162740D01*
X159548992Y-70873330D01*
X158794319Y-70872672D01*
X158096840Y-71160864D01*
X157562740Y-71694033D01*
X157273330Y-72391008D01*
X157273121Y-72630239D01*
X157075967Y-72432740D01*
X156378992Y-72143330D01*
X155624319Y-72142672D01*
X154926840Y-72430864D01*
X154717114Y-72640225D01*
X154717328Y-72394319D01*
X154429136Y-71696840D01*
X153895967Y-71162740D01*
X153198992Y-70873330D01*
X152444319Y-70872672D01*
X151746840Y-71160864D01*
X151212740Y-71694033D01*
X150923330Y-72391008D01*
X150922672Y-73145681D01*
X148235000Y-73145681D01*
X148235000Y-63436580D01*
X150716579Y-60955000D01*
X151133118Y-60955000D01*
X151210864Y-61143160D01*
X151744033Y-61677260D01*
X152441008Y-61966670D01*
X153195681Y-61967328D01*
X153893160Y-61679136D01*
X154092869Y-61479775D01*
X154092672Y-61705681D01*
X154380864Y-62403160D01*
X154914033Y-62937260D01*
X155611008Y-63226670D01*
X156365681Y-63227328D01*
X157063160Y-62939136D01*
X157597260Y-62405967D01*
X157886670Y-61708992D01*
X157886879Y-61469744D01*
X158094033Y-61677260D01*
X158791008Y-61966670D01*
X159545681Y-61967328D01*
X160243160Y-61679136D01*
X160452886Y-61469775D01*
X160452672Y-61715681D01*
X160452692Y-61715729D01*
X158483420Y-63685000D01*
X154423523Y-63685000D01*
X154135564Y-63396539D01*
X153626702Y-63185241D01*
X153075715Y-63184760D01*
X152566485Y-63395169D01*
X152176539Y-63784436D01*
X151965241Y-64293298D01*
X151964760Y-64844285D01*
X152175169Y-65353515D01*
X152564436Y-65743461D01*
X153073298Y-65954759D01*
X153624285Y-65955240D01*
X154133515Y-65744831D01*
X154423852Y-65455000D01*
X158849995Y-65455000D01*
X158850000Y-65455001D01*
X159132484Y-65398810D01*
X159188675Y-65387633D01*
X159475790Y-65195790D01*
X161592203Y-63079376D01*
X161971008Y-63236670D01*
X162725681Y-63237328D01*
X163423160Y-62949136D01*
X163957260Y-62415967D01*
X164246670Y-61718992D01*
X164246840Y-61523642D01*
X164248903Y-61525705D01*
X164362612Y-61411996D01*
X164493326Y-61706043D01*
X165197944Y-61976311D01*
X165952353Y-61956361D01*
X166556674Y-61706043D01*
X166687388Y-61411996D01*
X166786872Y-61511480D01*
X166793639Y-61767353D01*
X167043957Y-62371674D01*
X167338006Y-62502389D01*
X168500395Y-61340000D01*
X168486253Y-61325858D01*
X168665858Y-61146253D01*
X168680000Y-61160395D01*
X169842389Y-59998006D01*
X169711674Y-59703957D01*
X169007056Y-59433689D01*
X168252647Y-59453639D01*
X167648326Y-59703957D01*
X167517612Y-59998004D01*
X167418128Y-59898520D01*
X167411361Y-59642647D01*
X167161043Y-59038326D01*
X166866994Y-58907611D01*
X165704605Y-60070000D01*
X165718748Y-60084143D01*
X165539143Y-60263748D01*
X165525000Y-60249605D01*
X165510858Y-60263748D01*
X165331253Y-60084143D01*
X165345395Y-60070000D01*
X164183006Y-58907611D01*
X163888957Y-59038326D01*
X163618689Y-59742944D01*
X163623656Y-59930774D01*
X163425967Y-59732740D01*
X162728992Y-59443330D01*
X161974319Y-59442672D01*
X161276840Y-59730864D01*
X161067114Y-59940225D01*
X161067328Y-59694319D01*
X160779136Y-58996840D01*
X160510771Y-58728006D01*
X164362611Y-58728006D01*
X165525000Y-59890395D01*
X166687389Y-58728006D01*
X166556674Y-58433957D01*
X165852056Y-58163689D01*
X165097647Y-58183639D01*
X164493326Y-58433957D01*
X164362611Y-58728006D01*
X160510771Y-58728006D01*
X160245967Y-58462740D01*
X159548992Y-58173330D01*
X158794319Y-58172672D01*
X158096840Y-58460864D01*
X157562740Y-58994033D01*
X157273330Y-59691008D01*
X157273121Y-59930256D01*
X157065967Y-59722740D01*
X156368992Y-59433330D01*
X155614319Y-59432672D01*
X154916840Y-59720864D01*
X154717131Y-59920225D01*
X154717328Y-59694319D01*
X154429136Y-58996840D01*
X153895967Y-58462740D01*
X153198992Y-58173330D01*
X152444319Y-58172672D01*
X151746840Y-58460864D01*
X151212740Y-58994033D01*
X151133443Y-59185000D01*
X150350005Y-59185000D01*
X150350000Y-59184999D01*
X150067516Y-59241190D01*
X150011325Y-59252367D01*
X149724210Y-59444210D01*
X149724208Y-59444213D01*
X147350000Y-61818421D01*
X144475790Y-58944210D01*
X144364000Y-58869515D01*
X144188675Y-58752367D01*
X144132484Y-58741190D01*
X143850000Y-58684999D01*
X143849995Y-58685000D01*
X140238899Y-58685000D01*
X140057743Y-58413880D01*
X139527310Y-58059457D01*
X138901623Y-57935000D01*
X136798377Y-57935000D01*
X136172690Y-58059457D01*
X135642257Y-58413880D01*
X135287834Y-58944313D01*
X135163377Y-59570000D01*
X135287834Y-60195687D01*
X135642257Y-60726120D01*
X135782759Y-60820000D01*
X135642257Y-60913880D01*
X135287834Y-61444313D01*
X135163377Y-62070000D01*
X135287834Y-62695687D01*
X135642257Y-63226120D01*
X136172690Y-63580543D01*
X136798377Y-63705000D01*
X138901623Y-63705000D01*
X139527310Y-63580543D01*
X140057743Y-63226120D01*
X140412166Y-62695687D01*
X140536623Y-62070000D01*
X140412166Y-61444313D01*
X140057743Y-60913880D01*
X139917241Y-60820000D01*
X140057743Y-60726120D01*
X140238899Y-60455000D01*
X143483420Y-60455000D01*
X146465000Y-63436579D01*
X146465000Y-75933421D01*
X142475790Y-71944210D01*
X142364000Y-71869515D01*
X142188675Y-71752367D01*
X142132484Y-71741190D01*
X141850000Y-71684999D01*
X141849995Y-71685000D01*
X140238899Y-71685000D01*
X140057743Y-71413880D01*
X139543089Y-71070000D01*
X140057743Y-70726120D01*
X140412166Y-70195687D01*
X140536623Y-69570000D01*
X140412166Y-68944313D01*
X140057743Y-68413880D01*
X139917241Y-68320000D01*
X140057743Y-68226120D01*
X140412166Y-67695687D01*
X140536623Y-67070000D01*
X140412166Y-66444313D01*
X140057743Y-65913880D01*
X139527310Y-65559457D01*
X138901623Y-65435000D01*
X136798377Y-65435000D01*
X136172690Y-65559457D01*
X135642257Y-65913880D01*
X135287834Y-66444313D01*
X135163377Y-67070000D01*
X135287834Y-67695687D01*
X135642257Y-68226120D01*
X135782759Y-68320000D01*
X135642257Y-68413880D01*
X135287834Y-68944313D01*
X135163377Y-69570000D01*
X135287834Y-70195687D01*
X135642257Y-70726120D01*
X136156911Y-71070000D01*
X135642257Y-71413880D01*
X135287834Y-71944313D01*
X135163377Y-72570000D01*
X135287834Y-73195687D01*
X135642257Y-73726120D01*
X135782759Y-73820000D01*
X135642257Y-73913880D01*
X135287834Y-74444313D01*
X135163377Y-75070000D01*
X135287834Y-75695687D01*
X135562166Y-76106255D01*
X134755000Y-76913420D01*
X134755000Y-76713000D01*
X134561390Y-75993655D01*
X134107236Y-75403159D01*
X133461679Y-75031409D01*
X133272781Y-74982507D01*
X132977000Y-75098374D01*
X132977000Y-77443000D01*
X132997000Y-77443000D01*
X132997000Y-77697000D01*
X132977000Y-77697000D01*
X132977000Y-80041626D01*
X133272781Y-80157493D01*
X133461679Y-80108591D01*
X133965000Y-79818749D01*
X133965000Y-82034482D01*
X133897592Y-81871343D01*
X133550485Y-81523629D01*
X133096734Y-81335215D01*
X132605421Y-81334786D01*
X132151343Y-81522408D01*
X131803629Y-81869515D01*
X131615215Y-82323266D01*
X131614786Y-82814579D01*
X131802408Y-83268657D01*
X132149515Y-83616371D01*
X132603266Y-83804785D01*
X133017683Y-83805147D01*
X132964999Y-84070000D01*
X132965000Y-84070005D01*
X132965000Y-86665314D01*
X132860959Y-86561091D01*
X132076541Y-86235372D01*
X131227185Y-86234630D01*
X130442200Y-86558980D01*
X129841091Y-87159041D01*
X129515372Y-87943459D01*
X129514630Y-88792815D01*
X129112000Y-88792815D01*
X129112000Y-82814579D01*
X129114786Y-82814579D01*
X129302408Y-83268657D01*
X129649515Y-83616371D01*
X130103266Y-83804785D01*
X130594579Y-83805214D01*
X131048657Y-83617592D01*
X131396371Y-83270485D01*
X131584785Y-82816734D01*
X131585214Y-82325421D01*
X131397592Y-81871343D01*
X131050485Y-81523629D01*
X130596734Y-81335215D01*
X130105421Y-81334786D01*
X129651343Y-81522408D01*
X129303629Y-81869515D01*
X129115215Y-82323266D01*
X129114786Y-82814579D01*
X129112000Y-82814579D01*
X129112000Y-77697000D01*
X130945000Y-77697000D01*
X130945000Y-78427000D01*
X131138610Y-79146345D01*
X131592764Y-79736841D01*
X132238321Y-80108591D01*
X132427219Y-80157493D01*
X132723000Y-80041626D01*
X132723000Y-77697000D01*
X130945000Y-77697000D01*
X129112000Y-77697000D01*
X129112000Y-76713000D01*
X130945000Y-76713000D01*
X130945000Y-77443000D01*
X132723000Y-77443000D01*
X132723000Y-75098374D01*
X132427219Y-74982507D01*
X132238321Y-75031409D01*
X131592764Y-75403159D01*
X131138610Y-75993655D01*
X130945000Y-76713000D01*
X129112000Y-76713000D01*
X129112000Y-72814579D01*
X129114786Y-72814579D01*
X129302408Y-73268657D01*
X129649515Y-73616371D01*
X130103266Y-73804785D01*
X130594579Y-73805214D01*
X131048657Y-73617592D01*
X131396371Y-73270485D01*
X131584785Y-72816734D01*
X131584786Y-72814579D01*
X131614786Y-72814579D01*
X131802408Y-73268657D01*
X132149515Y-73616371D01*
X132603266Y-73804785D01*
X133094579Y-73805214D01*
X133548657Y-73617592D01*
X133896371Y-73270485D01*
X134084785Y-72816734D01*
X134085214Y-72325421D01*
X133897592Y-71871343D01*
X133550485Y-71523629D01*
X133096734Y-71335215D01*
X132605421Y-71334786D01*
X132151343Y-71522408D01*
X131803629Y-71869515D01*
X131615215Y-72323266D01*
X131614786Y-72814579D01*
X131584786Y-72814579D01*
X131585214Y-72325421D01*
X131397592Y-71871343D01*
X131050485Y-71523629D01*
X130596734Y-71335215D01*
X130105421Y-71334786D01*
X129651343Y-71522408D01*
X129303629Y-71869515D01*
X129115215Y-72323266D01*
X129114786Y-72814579D01*
X129112000Y-72814579D01*
X129112000Y-69814579D01*
X129114786Y-69814579D01*
X129302408Y-70268657D01*
X129649515Y-70616371D01*
X130103266Y-70804785D01*
X130594579Y-70805214D01*
X131048657Y-70617592D01*
X131396371Y-70270485D01*
X131584785Y-69816734D01*
X131584786Y-69814579D01*
X131614786Y-69814579D01*
X131802408Y-70268657D01*
X132149515Y-70616371D01*
X132603266Y-70804785D01*
X133094579Y-70805214D01*
X133548657Y-70617592D01*
X133896371Y-70270485D01*
X134084785Y-69816734D01*
X134085214Y-69325421D01*
X133897592Y-68871343D01*
X133550485Y-68523629D01*
X133096734Y-68335215D01*
X132605421Y-68334786D01*
X132151343Y-68522408D01*
X131803629Y-68869515D01*
X131615215Y-69323266D01*
X131614786Y-69814579D01*
X131584786Y-69814579D01*
X131585214Y-69325421D01*
X131397592Y-68871343D01*
X131050485Y-68523629D01*
X130596734Y-68335215D01*
X130105421Y-68334786D01*
X129651343Y-68522408D01*
X129303629Y-68869515D01*
X129115215Y-69323266D01*
X129114786Y-69814579D01*
X129112000Y-69814579D01*
X129112000Y-64697000D01*
X130945000Y-64697000D01*
X130945000Y-65427000D01*
X131138610Y-66146345D01*
X131592764Y-66736841D01*
X132238321Y-67108591D01*
X132427219Y-67157493D01*
X132723000Y-67041626D01*
X132723000Y-64697000D01*
X132977000Y-64697000D01*
X132977000Y-67041626D01*
X133272781Y-67157493D01*
X133461679Y-67108591D01*
X134107236Y-66736841D01*
X134561390Y-66146345D01*
X134755000Y-65427000D01*
X134755000Y-64697000D01*
X132977000Y-64697000D01*
X132723000Y-64697000D01*
X130945000Y-64697000D01*
X129112000Y-64697000D01*
X129112000Y-63713000D01*
X130945000Y-63713000D01*
X130945000Y-64443000D01*
X132723000Y-64443000D01*
X132723000Y-62098374D01*
X132977000Y-62098374D01*
X132977000Y-64443000D01*
X134755000Y-64443000D01*
X134755000Y-63713000D01*
X134561390Y-62993655D01*
X134107236Y-62403159D01*
X133461679Y-62031409D01*
X133272781Y-61982507D01*
X132977000Y-62098374D01*
X132723000Y-62098374D01*
X132427219Y-61982507D01*
X132238321Y-62031409D01*
X131592764Y-62403159D01*
X131138610Y-62993655D01*
X130945000Y-63713000D01*
X129112000Y-63713000D01*
X129112000Y-59814579D01*
X129114786Y-59814579D01*
X129302408Y-60268657D01*
X129649515Y-60616371D01*
X130103266Y-60804785D01*
X130594579Y-60805214D01*
X131048657Y-60617592D01*
X131396371Y-60270485D01*
X131584785Y-59816734D01*
X131584786Y-59814579D01*
X131614786Y-59814579D01*
X131802408Y-60268657D01*
X132149515Y-60616371D01*
X132603266Y-60804785D01*
X133094579Y-60805214D01*
X133548657Y-60617592D01*
X133896371Y-60270485D01*
X134084785Y-59816734D01*
X134085214Y-59325421D01*
X133897592Y-58871343D01*
X133550485Y-58523629D01*
X133096734Y-58335215D01*
X132605421Y-58334786D01*
X132151343Y-58522408D01*
X131803629Y-58869515D01*
X131615215Y-59323266D01*
X131614786Y-59814579D01*
X131584786Y-59814579D01*
X131585214Y-59325421D01*
X131397592Y-58871343D01*
X131050485Y-58523629D01*
X130596734Y-58335215D01*
X130105421Y-58334786D01*
X129651343Y-58522408D01*
X129303629Y-58869515D01*
X129115215Y-59323266D01*
X129114786Y-59814579D01*
X129112000Y-59814579D01*
X129112000Y-48332000D01*
X133931352Y-48332000D01*
X132618409Y-48593161D01*
G36*
X145483420Y-114185000D02*
X144423523Y-114185000D01*
X144135564Y-113896539D01*
X143967246Y-113826647D01*
X144073923Y-113782460D01*
X144141912Y-113541517D01*
X143350000Y-112749605D01*
X142558088Y-113541517D01*
X142626077Y-113782460D01*
X142740611Y-113823222D01*
X142566485Y-113895169D01*
X142176539Y-114284436D01*
X142100073Y-114468586D01*
X142024831Y-114286485D01*
X141635564Y-113896539D01*
X141451414Y-113820073D01*
X141633515Y-113744831D01*
X142023461Y-113355564D01*
X142093353Y-113187246D01*
X142137540Y-113293923D01*
X142378483Y-113361912D01*
X143170395Y-112570000D01*
X143529605Y-112570000D01*
X144321517Y-113361912D01*
X144562460Y-113293923D01*
X144747201Y-112774829D01*
X144719230Y-112224552D01*
X144562460Y-111846077D01*
X144321517Y-111778088D01*
X143529605Y-112570000D01*
X143170395Y-112570000D01*
X142378483Y-111778088D01*
X142137540Y-111846077D01*
X142096778Y-111960611D01*
X142024831Y-111786485D01*
X141635564Y-111396539D01*
X141451414Y-111320073D01*
X141633515Y-111244831D01*
X142023461Y-110855564D01*
X142099927Y-110671414D01*
X142175169Y-110853515D01*
X142564436Y-111243461D01*
X142732754Y-111313353D01*
X142626077Y-111357540D01*
X142558088Y-111598483D01*
X143350000Y-112390395D01*
X144141912Y-111598483D01*
X144073923Y-111357540D01*
X143959389Y-111316778D01*
X144133515Y-111244831D01*
X144523461Y-110855564D01*
X144734759Y-110346702D01*
X144735240Y-109795715D01*
X144524831Y-109286485D01*
X144193923Y-108955000D01*
X149349995Y-108955000D01*
X149350000Y-108955001D01*
X149650789Y-108895169D01*
X149688675Y-108887633D01*
X149975790Y-108695790D01*
X149975791Y-108695789D01*
X154216579Y-104455000D01*
X155213421Y-104455000D01*
X145483420Y-114185000D01*
X145483420Y-114185000D01*
G37*
X145483420Y-114185000D02*
X144423523Y-114185000D01*
X144135564Y-113896539D01*
X143967246Y-113826647D01*
X144073923Y-113782460D01*
X144141912Y-113541517D01*
X143350000Y-112749605D01*
X142558088Y-113541517D01*
X142626077Y-113782460D01*
X142740611Y-113823222D01*
X142566485Y-113895169D01*
X142176539Y-114284436D01*
X142100073Y-114468586D01*
X142024831Y-114286485D01*
X141635564Y-113896539D01*
X141451414Y-113820073D01*
X141633515Y-113744831D01*
X142023461Y-113355564D01*
X142093353Y-113187246D01*
X142137540Y-113293923D01*
X142378483Y-113361912D01*
X143170395Y-112570000D01*
X143529605Y-112570000D01*
X144321517Y-113361912D01*
X144562460Y-113293923D01*
X144747201Y-112774829D01*
X144719230Y-112224552D01*
X144562460Y-111846077D01*
X144321517Y-111778088D01*
X143529605Y-112570000D01*
X143170395Y-112570000D01*
X142378483Y-111778088D01*
X142137540Y-111846077D01*
X142096778Y-111960611D01*
X142024831Y-111786485D01*
X141635564Y-111396539D01*
X141451414Y-111320073D01*
X141633515Y-111244831D01*
X142023461Y-110855564D01*
X142099927Y-110671414D01*
X142175169Y-110853515D01*
X142564436Y-111243461D01*
X142732754Y-111313353D01*
X142626077Y-111357540D01*
X142558088Y-111598483D01*
X143350000Y-112390395D01*
X144141912Y-111598483D01*
X144073923Y-111357540D01*
X143959389Y-111316778D01*
X144133515Y-111244831D01*
X144523461Y-110855564D01*
X144734759Y-110346702D01*
X144735240Y-109795715D01*
X144524831Y-109286485D01*
X144193923Y-108955000D01*
X149349995Y-108955000D01*
X149350000Y-108955001D01*
X149650789Y-108895169D01*
X149688675Y-108887633D01*
X149975790Y-108695790D01*
X149975791Y-108695789D01*
X154216579Y-104455000D01*
X155213421Y-104455000D01*
X145483420Y-114185000D01*
G36*
X138205115Y-107963306D02*
X137724210Y-108444210D01*
X137532367Y-108731325D01*
X137521190Y-108787516D01*
X137464999Y-109070000D01*
X137465000Y-109070005D01*
X137465000Y-113203421D01*
X136703663Y-113964757D01*
X136635564Y-113896539D01*
X136467246Y-113826647D01*
X136573923Y-113782460D01*
X136641912Y-113541517D01*
X135850000Y-112749605D01*
X135058088Y-113541517D01*
X135126077Y-113782460D01*
X135240611Y-113823222D01*
X135066485Y-113895169D01*
X134676539Y-114284436D01*
X134600073Y-114468586D01*
X134524831Y-114286485D01*
X134135564Y-113896539D01*
X133967246Y-113826647D01*
X134073923Y-113782460D01*
X134141912Y-113541517D01*
X133350000Y-112749605D01*
X132558088Y-113541517D01*
X132626077Y-113782460D01*
X132740611Y-113823222D01*
X132566485Y-113895169D01*
X132276148Y-114185000D01*
X132216579Y-114185000D01*
X131735000Y-113703420D01*
X131735000Y-112365171D01*
X131952799Y-112365171D01*
X131980770Y-112915448D01*
X132137540Y-113293923D01*
X132378483Y-113361912D01*
X133170395Y-112570000D01*
X133529605Y-112570000D01*
X134321517Y-113361912D01*
X134562460Y-113293923D01*
X134597157Y-113196430D01*
X134637540Y-113293923D01*
X134878483Y-113361912D01*
X135670395Y-112570000D01*
X136029605Y-112570000D01*
X136821517Y-113361912D01*
X137062460Y-113293923D01*
X137247201Y-112774829D01*
X137219230Y-112224552D01*
X137062460Y-111846077D01*
X136821517Y-111778088D01*
X136029605Y-112570000D01*
X135670395Y-112570000D01*
X134878483Y-111778088D01*
X134637540Y-111846077D01*
X134602843Y-111943570D01*
X134562460Y-111846077D01*
X134321517Y-111778088D01*
X133529605Y-112570000D01*
X133170395Y-112570000D01*
X132378483Y-111778088D01*
X132137540Y-111846077D01*
X131952799Y-112365171D01*
X131735000Y-112365171D01*
X131735000Y-109936580D01*
X132026990Y-109644590D01*
X131965241Y-109793298D01*
X131964760Y-110344285D01*
X132175169Y-110853515D01*
X132564436Y-111243461D01*
X132732754Y-111313353D01*
X132626077Y-111357540D01*
X132558088Y-111598483D01*
X133350000Y-112390395D01*
X134141912Y-111598483D01*
X134073923Y-111357540D01*
X133959389Y-111316778D01*
X134133515Y-111244831D01*
X134523461Y-110855564D01*
X134599927Y-110671414D01*
X134675169Y-110853515D01*
X135064436Y-111243461D01*
X135232754Y-111313353D01*
X135126077Y-111357540D01*
X135058088Y-111598483D01*
X135850000Y-112390395D01*
X136641912Y-111598483D01*
X136573923Y-111357540D01*
X136459389Y-111316778D01*
X136633515Y-111244831D01*
X137023461Y-110855564D01*
X137234759Y-110346702D01*
X137235240Y-109795715D01*
X137024831Y-109286485D01*
X136635564Y-108896539D01*
X136126702Y-108685241D01*
X135575715Y-108684760D01*
X135066485Y-108895169D01*
X134676539Y-109284436D01*
X134600073Y-109468586D01*
X134524831Y-109286485D01*
X134135564Y-108896539D01*
X133626702Y-108685241D01*
X133075715Y-108684760D01*
X132924225Y-108747354D01*
X133715952Y-107955628D01*
X138205115Y-107963306D01*
X138205115Y-107963306D01*
G37*
X138205115Y-107963306D02*
X137724210Y-108444210D01*
X137532367Y-108731325D01*
X137521190Y-108787516D01*
X137464999Y-109070000D01*
X137465000Y-109070005D01*
X137465000Y-113203421D01*
X136703663Y-113964757D01*
X136635564Y-113896539D01*
X136467246Y-113826647D01*
X136573923Y-113782460D01*
X136641912Y-113541517D01*
X135850000Y-112749605D01*
X135058088Y-113541517D01*
X135126077Y-113782460D01*
X135240611Y-113823222D01*
X135066485Y-113895169D01*
X134676539Y-114284436D01*
X134600073Y-114468586D01*
X134524831Y-114286485D01*
X134135564Y-113896539D01*
X133967246Y-113826647D01*
X134073923Y-113782460D01*
X134141912Y-113541517D01*
X133350000Y-112749605D01*
X132558088Y-113541517D01*
X132626077Y-113782460D01*
X132740611Y-113823222D01*
X132566485Y-113895169D01*
X132276148Y-114185000D01*
X132216579Y-114185000D01*
X131735000Y-113703420D01*
X131735000Y-112365171D01*
X131952799Y-112365171D01*
X131980770Y-112915448D01*
X132137540Y-113293923D01*
X132378483Y-113361912D01*
X133170395Y-112570000D01*
X133529605Y-112570000D01*
X134321517Y-113361912D01*
X134562460Y-113293923D01*
X134597157Y-113196430D01*
X134637540Y-113293923D01*
X134878483Y-113361912D01*
X135670395Y-112570000D01*
X136029605Y-112570000D01*
X136821517Y-113361912D01*
X137062460Y-113293923D01*
X137247201Y-112774829D01*
X137219230Y-112224552D01*
X137062460Y-111846077D01*
X136821517Y-111778088D01*
X136029605Y-112570000D01*
X135670395Y-112570000D01*
X134878483Y-111778088D01*
X134637540Y-111846077D01*
X134602843Y-111943570D01*
X134562460Y-111846077D01*
X134321517Y-111778088D01*
X133529605Y-112570000D01*
X133170395Y-112570000D01*
X132378483Y-111778088D01*
X132137540Y-111846077D01*
X131952799Y-112365171D01*
X131735000Y-112365171D01*
X131735000Y-109936580D01*
X132026990Y-109644590D01*
X131965241Y-109793298D01*
X131964760Y-110344285D01*
X132175169Y-110853515D01*
X132564436Y-111243461D01*
X132732754Y-111313353D01*
X132626077Y-111357540D01*
X132558088Y-111598483D01*
X133350000Y-112390395D01*
X134141912Y-111598483D01*
X134073923Y-111357540D01*
X133959389Y-111316778D01*
X134133515Y-111244831D01*
X134523461Y-110855564D01*
X134599927Y-110671414D01*
X134675169Y-110853515D01*
X135064436Y-111243461D01*
X135232754Y-111313353D01*
X135126077Y-111357540D01*
X135058088Y-111598483D01*
X135850000Y-112390395D01*
X136641912Y-111598483D01*
X136573923Y-111357540D01*
X136459389Y-111316778D01*
X136633515Y-111244831D01*
X137023461Y-110855564D01*
X137234759Y-110346702D01*
X137235240Y-109795715D01*
X137024831Y-109286485D01*
X136635564Y-108896539D01*
X136126702Y-108685241D01*
X135575715Y-108684760D01*
X135066485Y-108895169D01*
X134676539Y-109284436D01*
X134600073Y-109468586D01*
X134524831Y-109286485D01*
X134135564Y-108896539D01*
X133626702Y-108685241D01*
X133075715Y-108684760D01*
X132924225Y-108747354D01*
X133715952Y-107955628D01*
X138205115Y-107963306D01*
M02*
