M48
INCH,TZ
T1C0.016
T2C0.039
T3C0.059
T4C0.071
%
G90
G05
T1
X52776Y-40969
T2
X52500Y-43335
X52500Y-44319
X52500Y-45303
X53484Y-43335
X53484Y-44319
X53484Y-45303
X55453Y-43335
X55453Y-44319
X55453Y-45303
X56437Y-43335
X56437Y-44319
X56437Y-45303
X56831Y-38413
X57421Y-33098
X58957Y-34319
X60374Y-25421
X60965Y-32311
T3
X52303Y-25421
X52303Y-30539
X54272Y-23453
X54272Y-24437
X54272Y-26406
X54272Y-27390
X54272Y-28571
X54272Y-29555
X54272Y-31524
X54272Y-32508
X60165Y-23650
X60165Y-28650
X60165Y-30736
X60165Y-35736
X60165Y-39398
X60165Y-44398
X61413Y-24146
X61413Y-31232
X61413Y-39894
X61417Y-29150
X61417Y-36236
X61417Y-44898
X62665Y-23650
X62665Y-28650
X62665Y-30736
X62665Y-35736
X62665Y-39398
X62665Y-44398
X63913Y-29150
X63913Y-36236
X63913Y-44898
X63917Y-24150
X63917Y-31236
X63917Y-39898
X65165Y-28650
X65165Y-35736
X65165Y-44398
X65167Y-23650
X65167Y-30736
X65167Y-39398
X66409Y-24150
X66409Y-31236
X66409Y-39898
X66413Y-29150
X66413Y-36236
X66413Y-44898
X67547Y-24650
X67547Y-31736
X67547Y-40398
T4
X51831Y-34791
X51831Y-36681
X51831Y-38571
X51831Y-40461
X53681Y-34791
X53681Y-36681
X53681Y-38571
X53681Y-40461
X55531Y-34791
X55531Y-36681
X55531Y-38571
X55531Y-40461
T0
M30
